<?xml version="1.0" encoding="utf-8" standalone="no"?>
<!DOCTYPE svg PUBLIC "-//W3C//DTD SVG 1.1//EN"
  "http://www.w3.org/Graphics/SVG/1.1/DTD/svg11.dtd">
<!-- Created with matplotlib (https://matplotlib.org/) -->
<svg height="288pt" version="1.1" viewBox="0 0 432 288" width="432pt" xmlns="http://www.w3.org/2000/svg" xmlns:xlink="http://www.w3.org/1999/xlink">
 <defs>
  <style type="text/css">
*{stroke-linecap:butt;stroke-linejoin:round;}
  </style>
 </defs>
 <g id="figure_1">
  <g id="patch_1">
   <path d="M 0 288 
L 432 288 
L 432 0 
L 0 0 
z
" style="fill:#ffffff;"/>
  </g>
  <g id="axes_1">
   <g id="patch_2">
    <path d="M 54 252 
L 388.8 252 
L 388.8 34.56 
L 54 34.56 
z
" style="fill:#ffffff;"/>
   </g>
   <g id="PathCollection_1">
    <defs>
     <path d="M 0 3 
C 0.795609 3 1.55874 2.683901 2.12132 2.12132 
C 2.683901 1.55874 3 0.795609 3 0 
C 3 -0.795609 2.683901 -1.55874 2.12132 -2.12132 
C 1.55874 -2.683901 0.795609 -3 0 -3 
C -0.795609 -3 -1.55874 -2.683901 -2.12132 -2.12132 
C -2.683901 -1.55874 -3 -0.795609 -3 0 
C -3 0.795609 -2.683901 1.55874 -2.12132 2.12132 
C -1.55874 2.683901 -0.795609 3 0 3 
z
" id="C0_0_93e3ef75d5"/>
    </defs>
    <g clip-path="url(#p2e451b4751)">
     <use style="fill:#f08080;" x="156.235321" xlink:href="#C0_0_93e3ef75d5" y="49.064895"/>
    </g>
    <g clip-path="url(#p2e451b4751)">
     <use style="fill:#f08080;" x="95.646122" xlink:href="#C0_0_93e3ef75d5" y="56.815748"/>
    </g>
    <g clip-path="url(#p2e451b4751)">
     <use style="fill:#f08080;" x="267.577449" xlink:href="#C0_0_93e3ef75d5" y="87.451477"/>
    </g>
    <g clip-path="url(#p2e451b4751)">
     <use style="fill:#f08080;" x="165.976738" xlink:href="#C0_0_93e3ef75d5" y="86.24315"/>
    </g>
    <g clip-path="url(#p2e451b4751)">
     <use style="fill:#6495ed;" x="76.029271" xlink:href="#C0_0_93e3ef75d5" y="239.855316"/>
    </g>
    <g clip-path="url(#p2e451b4751)">
     <use style="fill:#f08080;" x="80.600002" xlink:href="#C0_0_93e3ef75d5" y="96.398132"/>
    </g>
    <g clip-path="url(#p2e451b4751)">
     <use style="fill:#f08080;" x="311.477643" xlink:href="#C0_0_93e3ef75d5" y="105.381092"/>
    </g>
    <g clip-path="url(#p2e451b4751)">
     <use style="fill:#f08080;" x="190.148929" xlink:href="#C0_0_93e3ef75d5" y="142.262648"/>
    </g>
    <g clip-path="url(#p2e451b4751)">
     <use style="fill:#6495ed;" x="190.035405" xlink:href="#C0_0_93e3ef75d5" y="154.166575"/>
    </g>
    <g clip-path="url(#p2e451b4751)">
     <use style="fill:#6495ed;" x="80.606484" xlink:href="#C0_0_93e3ef75d5" y="166.372344"/>
    </g>
    <g clip-path="url(#p2e451b4751)">
     <use style="fill:#f08080;" x="201.284565" xlink:href="#C0_0_93e3ef75d5" y="57.783742"/>
    </g>
    <g clip-path="url(#p2e451b4751)">
     <use style="fill:#6495ed;" x="199.373213" xlink:href="#C0_0_93e3ef75d5" y="239.597311"/>
    </g>
    <g clip-path="url(#p2e451b4751)">
     <use style="fill:#f08080;" x="306.309851" xlink:href="#C0_0_93e3ef75d5" y="82.955296"/>
    </g>
    <g clip-path="url(#p2e451b4751)">
     <use style="fill:#f08080;" x="86.395132" xlink:href="#C0_0_93e3ef75d5" y="79.549579"/>
    </g>
    <g clip-path="url(#p2e451b4751)">
     <use style="fill:#f08080;" x="324.98257" xlink:href="#C0_0_93e3ef75d5" y="45.414357"/>
    </g>
    <g clip-path="url(#p2e451b4751)">
     <use style="fill:#6495ed;" x="69.218182" xlink:href="#C0_0_93e3ef75d5" y="149.980731"/>
    </g>
    <g clip-path="url(#p2e451b4751)">
     <use style="fill:#f08080;" x="292.077041" xlink:href="#C0_0_93e3ef75d5" y="124.719838"/>
    </g>
    <g clip-path="url(#p2e451b4751)">
     <use style="fill:#f08080;" x="262.674788" xlink:href="#C0_0_93e3ef75d5" y="109.719993"/>
    </g>
    <g clip-path="url(#p2e451b4751)">
     <use style="fill:#f08080;" x="328.13883" xlink:href="#C0_0_93e3ef75d5" y="61.0966"/>
    </g>
    <g clip-path="url(#p2e451b4751)">
     <use style="fill:#f08080;" x="211.462986" xlink:href="#C0_0_93e3ef75d5" y="44.443636"/>
    </g>
    <g clip-path="url(#p2e451b4751)">
     <use style="fill:#6495ed;" x="303.94476" xlink:href="#C0_0_93e3ef75d5" y="205.56728"/>
    </g>
    <g clip-path="url(#p2e451b4751)">
     <use style="fill:#6495ed;" x="259.211561" xlink:href="#C0_0_93e3ef75d5" y="170.200315"/>
    </g>
    <g clip-path="url(#p2e451b4751)">
     <use style="fill:#f08080;" x="140.576675" xlink:href="#C0_0_93e3ef75d5" y="74.994569"/>
    </g>
    <g clip-path="url(#p2e451b4751)">
     <use style="fill:#f08080;" x="169.545756" xlink:href="#C0_0_93e3ef75d5" y="69.763705"/>
    </g>
    <g clip-path="url(#p2e451b4751)">
     <use style="fill:#f08080;" x="361.463536" xlink:href="#C0_0_93e3ef75d5" y="139.10991"/>
    </g>
    <g clip-path="url(#p2e451b4751)">
     <use style="fill:#f08080;" x="290.750127" xlink:href="#C0_0_93e3ef75d5" y="113.003259"/>
    </g>
    <g clip-path="url(#p2e451b4751)">
     <use style="fill:#6495ed;" x="112.677139" xlink:href="#C0_0_93e3ef75d5" y="242.116364"/>
    </g>
    <g clip-path="url(#p2e451b4751)">
     <use style="fill:#f08080;" x="135.513091" xlink:href="#C0_0_93e3ef75d5" y="56.01107"/>
    </g>
    <g clip-path="url(#p2e451b4751)">
     <use style="fill:#f08080;" x="365.253802" xlink:href="#C0_0_93e3ef75d5" y="110.751771"/>
    </g>
    <g clip-path="url(#p2e451b4751)">
     <use style="fill:#6495ed;" x="273.061958" xlink:href="#C0_0_93e3ef75d5" y="172.948618"/>
    </g>
    <g clip-path="url(#p2e451b4751)">
     <use style="fill:#6495ed;" x="104.369956" xlink:href="#C0_0_93e3ef75d5" y="221.274145"/>
    </g>
    <g clip-path="url(#p2e451b4751)">
     <use style="fill:#f08080;" x="313.022232" xlink:href="#C0_0_93e3ef75d5" y="74.654603"/>
    </g>
    <g clip-path="url(#p2e451b4751)">
     <use style="fill:#6495ed;" x="268.0574" xlink:href="#C0_0_93e3ef75d5" y="172.237732"/>
    </g>
    <g clip-path="url(#p2e451b4751)">
     <use style="fill:#6495ed;" x="107.819021" xlink:href="#C0_0_93e3ef75d5" y="166.228615"/>
    </g>
    <g clip-path="url(#p2e451b4751)">
     <use style="fill:#6495ed;" x="284.207209" xlink:href="#C0_0_93e3ef75d5" y="197.462501"/>
    </g>
    <g clip-path="url(#p2e451b4751)">
     <use style="fill:#6495ed;" x="318.668322" xlink:href="#C0_0_93e3ef75d5" y="157.962189"/>
    </g>
    <g clip-path="url(#p2e451b4751)">
     <use style="fill:#6495ed;" x="132.810136" xlink:href="#C0_0_93e3ef75d5" y="146.530755"/>
    </g>
    <g clip-path="url(#p2e451b4751)">
     <use style="fill:#f08080;" x="295.750418" xlink:href="#C0_0_93e3ef75d5" y="127.798186"/>
    </g>
    <g clip-path="url(#p2e451b4751)">
     <use style="fill:#6495ed;" x="358.477809" xlink:href="#C0_0_93e3ef75d5" y="210.010848"/>
    </g>
    <g clip-path="url(#p2e451b4751)">
     <use style="fill:#6495ed;" x="199.079158" xlink:href="#C0_0_93e3ef75d5" y="225.575147"/>
    </g>
    <g clip-path="url(#p2e451b4751)">
     <use style="fill:#f08080;" x="226.302042" xlink:href="#C0_0_93e3ef75d5" y="92.262248"/>
    </g>
    <g clip-path="url(#p2e451b4751)">
     <use style="fill:#6495ed;" x="311.815938" xlink:href="#C0_0_93e3ef75d5" y="184.376693"/>
    </g>
    <g clip-path="url(#p2e451b4751)">
     <use style="fill:#6495ed;" x="343.135643" xlink:href="#C0_0_93e3ef75d5" y="221.167068"/>
    </g>
    <g clip-path="url(#p2e451b4751)">
     <use style="fill:#f08080;" x="262.713629" xlink:href="#C0_0_93e3ef75d5" y="54.19092"/>
    </g>
    <g clip-path="url(#p2e451b4751)">
     <use style="fill:#6495ed;" x="373.581818" xlink:href="#C0_0_93e3ef75d5" y="207.123892"/>
    </g>
    <g clip-path="url(#p2e451b4751)">
     <use style="fill:#f08080;" x="212.689977" xlink:href="#C0_0_93e3ef75d5" y="46.781258"/>
    </g>
    <g clip-path="url(#p2e451b4751)">
     <use style="fill:#f08080;" x="331.167829" xlink:href="#C0_0_93e3ef75d5" y="135.423373"/>
    </g>
    <g clip-path="url(#p2e451b4751)">
     <use style="fill:#f08080;" x="92.058566" xlink:href="#C0_0_93e3ef75d5" y="75.46893"/>
    </g>
    <g clip-path="url(#p2e451b4751)">
     <use style="fill:#6495ed;" x="160.395935" xlink:href="#C0_0_93e3ef75d5" y="175.245673"/>
    </g>
    <g clip-path="url(#p2e451b4751)">
     <use style="fill:#f08080;" x="261.955055" xlink:href="#C0_0_93e3ef75d5" y="50.812444"/>
    </g>
   </g>
   <g id="PathCollection_2"/>
   <g id="PathCollection_3"/>
   <g id="PathCollection_4"/>
   <g id="matplotlib.axis_1">
    <g id="xtick_1">
     <g id="line2d_1">
      <defs>
       <path d="M 0 0 
L 0 3.5 
" id="m28b2124dc7" style="stroke:#000000;stroke-width:0.8;"/>
      </defs>
      <g>
       <use style="stroke:#000000;stroke-width:0.8;" x="67.944147" xlink:href="#m28b2124dc7" y="252"/>
      </g>
     </g>
    </g>
    <g id="xtick_2">
     <g id="line2d_2">
      <g>
       <use style="stroke:#000000;stroke-width:0.8;" x="106.826397" xlink:href="#m28b2124dc7" y="252"/>
      </g>
     </g>
    </g>
    <g id="xtick_3">
     <g id="line2d_3">
      <g>
       <use style="stroke:#000000;stroke-width:0.8;" x="145.708647" xlink:href="#m28b2124dc7" y="252"/>
      </g>
     </g>
    </g>
    <g id="xtick_4">
     <g id="line2d_4">
      <g>
       <use style="stroke:#000000;stroke-width:0.8;" x="184.590897" xlink:href="#m28b2124dc7" y="252"/>
      </g>
     </g>
    </g>
    <g id="xtick_5">
     <g id="line2d_5">
      <g>
       <use style="stroke:#000000;stroke-width:0.8;" x="223.473148" xlink:href="#m28b2124dc7" y="252"/>
      </g>
     </g>
    </g>
    <g id="xtick_6">
     <g id="line2d_6">
      <g>
       <use style="stroke:#000000;stroke-width:0.8;" x="262.355398" xlink:href="#m28b2124dc7" y="252"/>
      </g>
     </g>
    </g>
    <g id="xtick_7">
     <g id="line2d_7">
      <g>
       <use style="stroke:#000000;stroke-width:0.8;" x="301.237648" xlink:href="#m28b2124dc7" y="252"/>
      </g>
     </g>
    </g>
    <g id="xtick_8">
     <g id="line2d_8">
      <g>
       <use style="stroke:#000000;stroke-width:0.8;" x="340.119899" xlink:href="#m28b2124dc7" y="252"/>
      </g>
     </g>
    </g>
    <g id="xtick_9">
     <g id="line2d_9">
      <g>
       <use style="stroke:#000000;stroke-width:0.8;" x="379.002149" xlink:href="#m28b2124dc7" y="252"/>
      </g>
     </g>
    </g>
    <g id="text_1">
     <!-- Age -->
     <defs>
      <path d="M 34.1875 63.1875 
L 20.796875 26.90625 
L 47.609375 26.90625 
z
M 28.609375 72.90625 
L 39.796875 72.90625 
L 67.578125 0 
L 57.328125 0 
L 50.6875 18.703125 
L 17.828125 18.703125 
L 11.1875 0 
L 0.78125 0 
z
" id="DejaVuSans-65"/>
      <path d="M 45.40625 27.984375 
Q 45.40625 37.75 41.375 43.109375 
Q 37.359375 48.484375 30.078125 48.484375 
Q 22.859375 48.484375 18.828125 43.109375 
Q 14.796875 37.75 14.796875 27.984375 
Q 14.796875 18.265625 18.828125 12.890625 
Q 22.859375 7.515625 30.078125 7.515625 
Q 37.359375 7.515625 41.375 12.890625 
Q 45.40625 18.265625 45.40625 27.984375 
z
M 54.390625 6.78125 
Q 54.390625 -7.171875 48.1875 -13.984375 
Q 42 -20.796875 29.203125 -20.796875 
Q 24.46875 -20.796875 20.265625 -20.09375 
Q 16.0625 -19.390625 12.109375 -17.921875 
L 12.109375 -9.1875 
Q 16.0625 -11.328125 19.921875 -12.34375 
Q 23.78125 -13.375 27.78125 -13.375 
Q 36.625 -13.375 41.015625 -8.765625 
Q 45.40625 -4.15625 45.40625 5.171875 
L 45.40625 9.625 
Q 42.625 4.78125 38.28125 2.390625 
Q 33.9375 0 27.875 0 
Q 17.828125 0 11.671875 7.65625 
Q 5.515625 15.328125 5.515625 27.984375 
Q 5.515625 40.671875 11.671875 48.328125 
Q 17.828125 56 27.875 56 
Q 33.9375 56 38.28125 53.609375 
Q 42.625 51.21875 45.40625 46.390625 
L 45.40625 54.6875 
L 54.390625 54.6875 
z
" id="DejaVuSans-103"/>
      <path d="M 56.203125 29.59375 
L 56.203125 25.203125 
L 14.890625 25.203125 
Q 15.484375 15.921875 20.484375 11.0625 
Q 25.484375 6.203125 34.421875 6.203125 
Q 39.59375 6.203125 44.453125 7.46875 
Q 49.3125 8.734375 54.109375 11.28125 
L 54.109375 2.78125 
Q 49.265625 0.734375 44.1875 -0.34375 
Q 39.109375 -1.421875 33.890625 -1.421875 
Q 20.796875 -1.421875 13.15625 6.1875 
Q 5.515625 13.8125 5.515625 26.8125 
Q 5.515625 40.234375 12.765625 48.109375 
Q 20.015625 56 32.328125 56 
Q 43.359375 56 49.78125 48.890625 
Q 56.203125 41.796875 56.203125 29.59375 
z
M 47.21875 32.234375 
Q 47.125 39.59375 43.09375 43.984375 
Q 39.0625 48.390625 32.421875 48.390625 
Q 24.90625 48.390625 20.390625 44.140625 
Q 15.875 39.890625 15.1875 32.171875 
z
" id="DejaVuSans-101"/>
     </defs>
     <g transform="translate(211.728906 270.598437)scale(0.1 -0.1)">
      <use xlink:href="#DejaVuSans-65"/>
      <use x="68.408203" xlink:href="#DejaVuSans-103"/>
      <use x="131.884766" xlink:href="#DejaVuSans-101"/>
     </g>
    </g>
   </g>
   <g id="matplotlib.axis_2">
    <g id="ytick_1">
     <g id="line2d_10">
      <defs>
       <path d="M 0 0 
L -3.5 0 
" id="mef7406a115" style="stroke:#000000;stroke-width:0.8;"/>
      </defs>
      <g>
       <use style="stroke:#000000;stroke-width:0.8;" x="54" xlink:href="#mef7406a115" y="245.161876"/>
      </g>
     </g>
    </g>
    <g id="ytick_2">
     <g id="line2d_11">
      <g>
       <use style="stroke:#000000;stroke-width:0.8;" x="54" xlink:href="#mef7406a115" y="220.029998"/>
      </g>
     </g>
    </g>
    <g id="ytick_3">
     <g id="line2d_12">
      <g>
       <use style="stroke:#000000;stroke-width:0.8;" x="54" xlink:href="#mef7406a115" y="194.89812"/>
      </g>
     </g>
    </g>
    <g id="ytick_4">
     <g id="line2d_13">
      <g>
       <use style="stroke:#000000;stroke-width:0.8;" x="54" xlink:href="#mef7406a115" y="169.766243"/>
      </g>
     </g>
    </g>
    <g id="ytick_5">
     <g id="line2d_14">
      <g>
       <use style="stroke:#000000;stroke-width:0.8;" x="54" xlink:href="#mef7406a115" y="144.634365"/>
      </g>
     </g>
    </g>
    <g id="ytick_6">
     <g id="line2d_15">
      <g>
       <use style="stroke:#000000;stroke-width:0.8;" x="54" xlink:href="#mef7406a115" y="119.502488"/>
      </g>
     </g>
    </g>
    <g id="ytick_7">
     <g id="line2d_16">
      <g>
       <use style="stroke:#000000;stroke-width:0.8;" x="54" xlink:href="#mef7406a115" y="94.37061"/>
      </g>
     </g>
    </g>
    <g id="ytick_8">
     <g id="line2d_17">
      <g>
       <use style="stroke:#000000;stroke-width:0.8;" x="54" xlink:href="#mef7406a115" y="69.238732"/>
      </g>
     </g>
    </g>
    <g id="ytick_9">
     <g id="line2d_18">
      <g>
       <use style="stroke:#000000;stroke-width:0.8;" x="54" xlink:href="#mef7406a115" y="44.106855"/>
      </g>
     </g>
    </g>
    <g id="text_2">
     <!-- Herd Instinct -->
     <defs>
      <path d="M 9.8125 72.90625 
L 19.671875 72.90625 
L 19.671875 43.015625 
L 55.515625 43.015625 
L 55.515625 72.90625 
L 65.375 72.90625 
L 65.375 0 
L 55.515625 0 
L 55.515625 34.71875 
L 19.671875 34.71875 
L 19.671875 0 
L 9.8125 0 
z
" id="DejaVuSans-72"/>
      <path d="M 41.109375 46.296875 
Q 39.59375 47.171875 37.8125 47.578125 
Q 36.03125 48 33.890625 48 
Q 26.265625 48 22.1875 43.046875 
Q 18.109375 38.09375 18.109375 28.8125 
L 18.109375 0 
L 9.078125 0 
L 9.078125 54.6875 
L 18.109375 54.6875 
L 18.109375 46.1875 
Q 20.953125 51.171875 25.484375 53.578125 
Q 30.03125 56 36.53125 56 
Q 37.453125 56 38.578125 55.875 
Q 39.703125 55.765625 41.0625 55.515625 
z
" id="DejaVuSans-114"/>
      <path d="M 45.40625 46.390625 
L 45.40625 75.984375 
L 54.390625 75.984375 
L 54.390625 0 
L 45.40625 0 
L 45.40625 8.203125 
Q 42.578125 3.328125 38.25 0.953125 
Q 33.9375 -1.421875 27.875 -1.421875 
Q 17.96875 -1.421875 11.734375 6.484375 
Q 5.515625 14.40625 5.515625 27.296875 
Q 5.515625 40.1875 11.734375 48.09375 
Q 17.96875 56 27.875 56 
Q 33.9375 56 38.25 53.625 
Q 42.578125 51.265625 45.40625 46.390625 
z
M 14.796875 27.296875 
Q 14.796875 17.390625 18.875 11.75 
Q 22.953125 6.109375 30.078125 6.109375 
Q 37.203125 6.109375 41.296875 11.75 
Q 45.40625 17.390625 45.40625 27.296875 
Q 45.40625 37.203125 41.296875 42.84375 
Q 37.203125 48.484375 30.078125 48.484375 
Q 22.953125 48.484375 18.875 42.84375 
Q 14.796875 37.203125 14.796875 27.296875 
z
" id="DejaVuSans-100"/>
      <path id="DejaVuSans-32"/>
      <path d="M 9.8125 72.90625 
L 19.671875 72.90625 
L 19.671875 0 
L 9.8125 0 
z
" id="DejaVuSans-73"/>
      <path d="M 54.890625 33.015625 
L 54.890625 0 
L 45.90625 0 
L 45.90625 32.71875 
Q 45.90625 40.484375 42.875 44.328125 
Q 39.84375 48.1875 33.796875 48.1875 
Q 26.515625 48.1875 22.3125 43.546875 
Q 18.109375 38.921875 18.109375 30.90625 
L 18.109375 0 
L 9.078125 0 
L 9.078125 54.6875 
L 18.109375 54.6875 
L 18.109375 46.1875 
Q 21.34375 51.125 25.703125 53.5625 
Q 30.078125 56 35.796875 56 
Q 45.21875 56 50.046875 50.171875 
Q 54.890625 44.34375 54.890625 33.015625 
z
" id="DejaVuSans-110"/>
      <path d="M 44.28125 53.078125 
L 44.28125 44.578125 
Q 40.484375 46.53125 36.375 47.5 
Q 32.28125 48.484375 27.875 48.484375 
Q 21.1875 48.484375 17.84375 46.4375 
Q 14.5 44.390625 14.5 40.28125 
Q 14.5 37.15625 16.890625 35.375 
Q 19.28125 33.59375 26.515625 31.984375 
L 29.59375 31.296875 
Q 39.15625 29.25 43.1875 25.515625 
Q 47.21875 21.78125 47.21875 15.09375 
Q 47.21875 7.46875 41.1875 3.015625 
Q 35.15625 -1.421875 24.609375 -1.421875 
Q 20.21875 -1.421875 15.453125 -0.5625 
Q 10.6875 0.296875 5.421875 2 
L 5.421875 11.28125 
Q 10.40625 8.6875 15.234375 7.390625 
Q 20.0625 6.109375 24.8125 6.109375 
Q 31.15625 6.109375 34.5625 8.28125 
Q 37.984375 10.453125 37.984375 14.40625 
Q 37.984375 18.0625 35.515625 20.015625 
Q 33.0625 21.96875 24.703125 23.78125 
L 21.578125 24.515625 
Q 13.234375 26.265625 9.515625 29.90625 
Q 5.8125 33.546875 5.8125 39.890625 
Q 5.8125 47.609375 11.28125 51.796875 
Q 16.75 56 26.8125 56 
Q 31.78125 56 36.171875 55.265625 
Q 40.578125 54.546875 44.28125 53.078125 
z
" id="DejaVuSans-115"/>
      <path d="M 18.3125 70.21875 
L 18.3125 54.6875 
L 36.8125 54.6875 
L 36.8125 47.703125 
L 18.3125 47.703125 
L 18.3125 18.015625 
Q 18.3125 11.328125 20.140625 9.421875 
Q 21.96875 7.515625 27.59375 7.515625 
L 36.8125 7.515625 
L 36.8125 0 
L 27.59375 0 
Q 17.1875 0 13.234375 3.875 
Q 9.28125 7.765625 9.28125 18.015625 
L 9.28125 47.703125 
L 2.6875 47.703125 
L 2.6875 54.6875 
L 9.28125 54.6875 
L 9.28125 70.21875 
z
" id="DejaVuSans-116"/>
      <path d="M 9.421875 54.6875 
L 18.40625 54.6875 
L 18.40625 0 
L 9.421875 0 
z
M 9.421875 75.984375 
L 18.40625 75.984375 
L 18.40625 64.59375 
L 9.421875 64.59375 
z
" id="DejaVuSans-105"/>
      <path d="M 48.78125 52.59375 
L 48.78125 44.1875 
Q 44.96875 46.296875 41.140625 47.34375 
Q 37.3125 48.390625 33.40625 48.390625 
Q 24.65625 48.390625 19.8125 42.84375 
Q 14.984375 37.3125 14.984375 27.296875 
Q 14.984375 17.28125 19.8125 11.734375 
Q 24.65625 6.203125 33.40625 6.203125 
Q 37.3125 6.203125 41.140625 7.25 
Q 44.96875 8.296875 48.78125 10.40625 
L 48.78125 2.09375 
Q 45.015625 0.34375 40.984375 -0.53125 
Q 36.96875 -1.421875 32.421875 -1.421875 
Q 20.0625 -1.421875 12.78125 6.34375 
Q 5.515625 14.109375 5.515625 27.296875 
Q 5.515625 40.671875 12.859375 48.328125 
Q 20.21875 56 33.015625 56 
Q 37.15625 56 41.109375 55.140625 
Q 45.0625 54.296875 48.78125 52.59375 
z
" id="DejaVuSans-99"/>
     </defs>
     <g transform="translate(40.920312 175.32375)rotate(-90)scale(0.1 -0.1)">
      <use xlink:href="#DejaVuSans-72"/>
      <use x="75.195312" xlink:href="#DejaVuSans-101"/>
      <use x="136.71875" xlink:href="#DejaVuSans-114"/>
      <use x="176.082031" xlink:href="#DejaVuSans-100"/>
      <use x="239.558594" xlink:href="#DejaVuSans-32"/>
      <use x="271.345703" xlink:href="#DejaVuSans-73"/>
      <use x="300.837891" xlink:href="#DejaVuSans-110"/>
      <use x="364.216797" xlink:href="#DejaVuSans-115"/>
      <use x="416.316406" xlink:href="#DejaVuSans-116"/>
      <use x="455.525391" xlink:href="#DejaVuSans-105"/>
      <use x="483.308594" xlink:href="#DejaVuSans-110"/>
      <use x="546.6875" xlink:href="#DejaVuSans-99"/>
      <use x="601.667969" xlink:href="#DejaVuSans-116"/>
     </g>
    </g>
   </g>
   <g id="line2d_19">
    <path clip-path="url(#p2e451b4751)" d="M 54 144.634365 
L 388.8 144.634365 
" style="fill:none;stroke:#ffa500;stroke-linecap:square;stroke-width:1.5;"/>
   </g>
   <g id="patch_3">
    <path d="M 54 252 
L 54 34.56 
" style="fill:none;stroke:#000000;stroke-linecap:square;stroke-linejoin:miter;stroke-width:0.8;"/>
   </g>
   <g id="patch_4">
    <path d="M 388.8 252 
L 388.8 34.56 
" style="fill:none;stroke:#000000;stroke-linecap:square;stroke-linejoin:miter;stroke-width:0.8;"/>
   </g>
   <g id="patch_5">
    <path d="M 54 252 
L 388.8 252 
" style="fill:none;stroke:#000000;stroke-linecap:square;stroke-linejoin:miter;stroke-width:0.8;"/>
   </g>
   <g id="patch_6">
    <path d="M 54 34.56 
L 388.8 34.56 
" style="fill:none;stroke:#000000;stroke-linecap:square;stroke-linejoin:miter;stroke-width:0.8;"/>
   </g>
   <g id="legend_1">
    <g id="patch_7">
     <path d="M 186.725 247 
L 256.075 247 
Q 258.075 247 258.075 245 
L 258.075 201.965625 
Q 258.075 199.965625 256.075 199.965625 
L 186.725 199.965625 
Q 184.725 199.965625 184.725 201.965625 
L 184.725 245 
Q 184.725 247 186.725 247 
z
" style="fill:#ffffff;opacity:0.8;stroke:#cccccc;stroke-linejoin:miter;"/>
    </g>
    <g id="PathCollection_5">
     <defs>
      <path id="mf861e804be" style="stroke:#ffffff;stroke-width:1.5;"/>
     </defs>
     <g>
      <use style="fill:#ffffff;stroke:#ffffff;stroke-width:1.5;" x="198.725" xlink:href="#mf861e804be" y="208.939063"/>
     </g>
    </g>
    <g id="text_3">
     <!-- species -->
     <defs>
      <path d="M 18.109375 8.203125 
L 18.109375 -20.796875 
L 9.078125 -20.796875 
L 9.078125 54.6875 
L 18.109375 54.6875 
L 18.109375 46.390625 
Q 20.953125 51.265625 25.265625 53.625 
Q 29.59375 56 35.59375 56 
Q 45.5625 56 51.78125 48.09375 
Q 58.015625 40.1875 58.015625 27.296875 
Q 58.015625 14.40625 51.78125 6.484375 
Q 45.5625 -1.421875 35.59375 -1.421875 
Q 29.59375 -1.421875 25.265625 0.953125 
Q 20.953125 3.328125 18.109375 8.203125 
z
M 48.6875 27.296875 
Q 48.6875 37.203125 44.609375 42.84375 
Q 40.53125 48.484375 33.40625 48.484375 
Q 26.265625 48.484375 22.1875 42.84375 
Q 18.109375 37.203125 18.109375 27.296875 
Q 18.109375 17.390625 22.1875 11.75 
Q 26.265625 6.109375 33.40625 6.109375 
Q 40.53125 6.109375 44.609375 11.75 
Q 48.6875 17.390625 48.6875 27.296875 
z
" id="DejaVuSans-112"/>
     </defs>
     <g transform="translate(216.725 211.564063)scale(0.1 -0.1)">
      <use xlink:href="#DejaVuSans-115"/>
      <use x="52.099609" xlink:href="#DejaVuSans-112"/>
      <use x="115.576172" xlink:href="#DejaVuSans-101"/>
      <use x="177.099609" xlink:href="#DejaVuSans-99"/>
      <use x="232.080078" xlink:href="#DejaVuSans-105"/>
      <use x="259.863281" xlink:href="#DejaVuSans-101"/>
      <use x="321.386719" xlink:href="#DejaVuSans-115"/>
     </g>
    </g>
    <g id="PathCollection_6">
     <defs>
      <path d="M 0 3 
C 0.795609 3 1.55874 2.683901 2.12132 2.12132 
C 2.683901 1.55874 3 0.795609 3 0 
C 3 -0.795609 2.683901 -1.55874 2.12132 -2.12132 
C 1.55874 -2.683901 0.795609 -3 0 -3 
C -0.795609 -3 -1.55874 -2.683901 -2.12132 -2.12132 
C -2.683901 -1.55874 -3 -0.795609 -3 0 
C -3 0.795609 -2.683901 1.55874 -2.12132 2.12132 
C -1.55874 2.683901 -0.795609 3 0 3 
z
" id="m82a2f4891e" style="stroke:#f08080;"/>
     </defs>
     <g>
      <use style="fill:#f08080;stroke:#f08080;" x="198.725" xlink:href="#m82a2f4891e" y="223.617188"/>
     </g>
    </g>
    <g id="text_4">
     <!-- dog -->
     <defs>
      <path d="M 30.609375 48.390625 
Q 23.390625 48.390625 19.1875 42.75 
Q 14.984375 37.109375 14.984375 27.296875 
Q 14.984375 17.484375 19.15625 11.84375 
Q 23.34375 6.203125 30.609375 6.203125 
Q 37.796875 6.203125 41.984375 11.859375 
Q 46.1875 17.53125 46.1875 27.296875 
Q 46.1875 37.015625 41.984375 42.703125 
Q 37.796875 48.390625 30.609375 48.390625 
z
M 30.609375 56 
Q 42.328125 56 49.015625 48.375 
Q 55.71875 40.765625 55.71875 27.296875 
Q 55.71875 13.875 49.015625 6.21875 
Q 42.328125 -1.421875 30.609375 -1.421875 
Q 18.84375 -1.421875 12.171875 6.21875 
Q 5.515625 13.875 5.515625 27.296875 
Q 5.515625 40.765625 12.171875 48.375 
Q 18.84375 56 30.609375 56 
z
" id="DejaVuSans-111"/>
     </defs>
     <g transform="translate(216.725 226.242188)scale(0.1 -0.1)">
      <use xlink:href="#DejaVuSans-100"/>
      <use x="63.476562" xlink:href="#DejaVuSans-111"/>
      <use x="124.658203" xlink:href="#DejaVuSans-103"/>
     </g>
    </g>
    <g id="PathCollection_7">
     <defs>
      <path d="M 0 3 
C 0.795609 3 1.55874 2.683901 2.12132 2.12132 
C 2.683901 1.55874 3 0.795609 3 0 
C 3 -0.795609 2.683901 -1.55874 2.12132 -2.12132 
C 1.55874 -2.683901 0.795609 -3 0 -3 
C -0.795609 -3 -1.55874 -2.683901 -2.12132 -2.12132 
C -2.683901 -1.55874 -3 -0.795609 -3 0 
C -3 0.795609 -2.683901 1.55874 -2.12132 2.12132 
C -1.55874 2.683901 -0.795609 3 0 3 
z
" id="m9ec0b52fd5" style="stroke:#6495ed;"/>
     </defs>
     <g>
      <use style="fill:#6495ed;stroke:#6495ed;" x="198.725" xlink:href="#m9ec0b52fd5" y="238.295313"/>
     </g>
    </g>
    <g id="text_5">
     <!-- cat -->
     <defs>
      <path d="M 34.28125 27.484375 
Q 23.390625 27.484375 19.1875 25 
Q 14.984375 22.515625 14.984375 16.5 
Q 14.984375 11.71875 18.140625 8.90625 
Q 21.296875 6.109375 26.703125 6.109375 
Q 34.1875 6.109375 38.703125 11.40625 
Q 43.21875 16.703125 43.21875 25.484375 
L 43.21875 27.484375 
z
M 52.203125 31.203125 
L 52.203125 0 
L 43.21875 0 
L 43.21875 8.296875 
Q 40.140625 3.328125 35.546875 0.953125 
Q 30.953125 -1.421875 24.3125 -1.421875 
Q 15.921875 -1.421875 10.953125 3.296875 
Q 6 8.015625 6 15.921875 
Q 6 25.140625 12.171875 29.828125 
Q 18.359375 34.515625 30.609375 34.515625 
L 43.21875 34.515625 
L 43.21875 35.40625 
Q 43.21875 41.609375 39.140625 45 
Q 35.0625 48.390625 27.6875 48.390625 
Q 23 48.390625 18.546875 47.265625 
Q 14.109375 46.140625 10.015625 43.890625 
L 10.015625 52.203125 
Q 14.9375 54.109375 19.578125 55.046875 
Q 24.21875 56 28.609375 56 
Q 40.484375 56 46.34375 49.84375 
Q 52.203125 43.703125 52.203125 31.203125 
z
" id="DejaVuSans-97"/>
     </defs>
     <g transform="translate(216.725 240.920313)scale(0.1 -0.1)">
      <use xlink:href="#DejaVuSans-99"/>
      <use x="54.980469" xlink:href="#DejaVuSans-97"/>
      <use x="116.259766" xlink:href="#DejaVuSans-116"/>
     </g>
    </g>
   </g>
  </g>
 </g>
 <defs>
  <clipPath id="p2e451b4751">
   <rect height="217.44" width="334.8" x="54" y="34.56"/>
  </clipPath>
 </defs>
</svg>
