<?xml version="1.0" encoding="utf-8" standalone="no"?>
<!DOCTYPE svg PUBLIC "-//W3C//DTD SVG 1.1//EN"
  "http://www.w3.org/Graphics/SVG/1.1/DTD/svg11.dtd">
<svg xmlns:xlink="http://www.w3.org/1999/xlink" width="432pt" height="288pt" viewBox="0 0 432 288" xmlns="http://www.w3.org/2000/svg" version="1.1">
 <metadata>
  <rdf:RDF xmlns:dc="http://purl.org/dc/elements/1.1/" xmlns:cc="http://creativecommons.org/ns#" xmlns:rdf="http://www.w3.org/1999/02/22-rdf-syntax-ns#">
   <cc:Work>
    <dc:type rdf:resource="http://purl.org/dc/dcmitype/StillImage"/>
    <dc:date>2022-04-25T11:10:24.409182</dc:date>
    <dc:format>image/svg+xml</dc:format>
    <dc:creator>
     <cc:Agent>
      <dc:title>Matplotlib v3.5.1, https://matplotlib.org/</dc:title>
     </cc:Agent>
    </dc:creator>
   </cc:Work>
  </rdf:RDF>
 </metadata>
 <defs>
  <style type="text/css">*{stroke-linejoin: round; stroke-linecap: butt}</style>
 </defs>
 <g id="figure_1">
  <g id="patch_1">
   <path d="M 0 288 
L 432 288 
L 432 0 
L 0 0 
L 0 288 
z
" style="fill: none"/>
  </g>
  <g id="axes_1">
   <g id="patch_2">
    <path d="M 54 252 
L 388.8 252 
L 388.8 34.56 
L 54 34.56 
z
" style="fill: #ffffff"/>
   </g>
   <g id="PathCollection_1">
    <defs>
     <path id="C0_0_e49587d44b" d="M 0 3 
C 0.795609 3 1.55874 2.683901 2.12132 2.12132 
C 2.683901 1.55874 3 0.795609 3 -0 
C 3 -0.795609 2.683901 -1.55874 2.12132 -2.12132 
C 1.55874 -2.683901 0.795609 -3 0 -3 
C -0.795609 -3 -1.55874 -2.683901 -2.12132 -2.12132 
C -2.683901 -1.55874 -3 -0.795609 -3 0 
C -3 0.795609 -2.683901 1.55874 -2.12132 2.12132 
C -1.55874 2.683901 -0.795609 3 0 3 
z
"/>
    </defs>
    <g clip-path="url(#p4511ee64e7)">
     <use xlink:href="#C0_0_e49587d44b" x="84.380974" y="128.704344" style="fill: #f08080"/>
    </g>
    <g clip-path="url(#p4511ee64e7)">
     <use xlink:href="#C0_0_e49587d44b" x="251.418672" y="108.417401" style="fill: #f08080"/>
    </g>
    <g clip-path="url(#p4511ee64e7)">
     <use xlink:href="#C0_0_e49587d44b" x="275.867653" y="53.723313" style="fill: #f08080"/>
    </g>
    <g clip-path="url(#p4511ee64e7)">
     <use xlink:href="#C0_0_e49587d44b" x="302.104064" y="79.940401" style="fill: #f08080"/>
    </g>
    <g clip-path="url(#p4511ee64e7)">
     <use xlink:href="#C0_0_e49587d44b" x="168.426961" y="211.761757" style="fill: #6495ed"/>
    </g>
    <g clip-path="url(#p4511ee64e7)">
     <use xlink:href="#C0_0_e49587d44b" x="152.966795" y="173.276595" style="fill: #6495ed"/>
    </g>
    <g clip-path="url(#p4511ee64e7)">
     <use xlink:href="#C0_0_e49587d44b" x="288.996662" y="188.997329" style="fill: #6495ed"/>
    </g>
    <g clip-path="url(#p4511ee64e7)">
     <use xlink:href="#C0_0_e49587d44b" x="94.211891" y="148.90965" style="fill: #6495ed"/>
    </g>
    <g clip-path="url(#p4511ee64e7)">
     <use xlink:href="#C0_0_e49587d44b" x="350.494217" y="197.933477" style="fill: #6495ed"/>
    </g>
    <g clip-path="url(#p4511ee64e7)">
     <use xlink:href="#C0_0_e49587d44b" x="373.581818" y="130.611143" style="fill: #f08080"/>
    </g>
    <g clip-path="url(#p4511ee64e7)">
     <use xlink:href="#C0_0_e49587d44b" x="238.63867" y="181.979065" style="fill: #6495ed"/>
    </g>
    <g clip-path="url(#p4511ee64e7)">
     <use xlink:href="#C0_0_e49587d44b" x="225.922361" y="75.100282" style="fill: #f08080"/>
    </g>
    <g clip-path="url(#p4511ee64e7)">
     <use xlink:href="#C0_0_e49587d44b" x="185.168712" y="111.45102" style="fill: #f08080"/>
    </g>
    <g clip-path="url(#p4511ee64e7)">
     <use xlink:href="#C0_0_e49587d44b" x="88.093444" y="142.226884" style="fill: #6495ed"/>
    </g>
    <g clip-path="url(#p4511ee64e7)">
     <use xlink:href="#C0_0_e49587d44b" x="232.841765" y="238.642019" style="fill: #6495ed"/>
    </g>
    <g clip-path="url(#p4511ee64e7)">
     <use xlink:href="#C0_0_e49587d44b" x="159.253361" y="140.140708" style="fill: #f08080"/>
    </g>
    <g clip-path="url(#p4511ee64e7)">
     <use xlink:href="#C0_0_e49587d44b" x="90.447525" y="68.039612" style="fill: #f08080"/>
    </g>
    <g clip-path="url(#p4511ee64e7)">
     <use xlink:href="#C0_0_e49587d44b" x="241.824357" y="187.323647" style="fill: #6495ed"/>
    </g>
    <g clip-path="url(#p4511ee64e7)">
     <use xlink:href="#C0_0_e49587d44b" x="89.89048" y="140.486292" style="fill: #f08080"/>
    </g>
    <g clip-path="url(#p4511ee64e7)">
     <use xlink:href="#C0_0_e49587d44b" x="341.449518" y="77.454347" style="fill: #f08080"/>
    </g>
    <g clip-path="url(#p4511ee64e7)">
     <use xlink:href="#C0_0_e49587d44b" x="142.670647" y="123.479653" style="fill: #f08080"/>
    </g>
    <g clip-path="url(#p4511ee64e7)">
     <use xlink:href="#C0_0_e49587d44b" x="137.707033" y="44.443636" style="fill: #f08080"/>
    </g>
    <g clip-path="url(#p4511ee64e7)">
     <use xlink:href="#C0_0_e49587d44b" x="235.511604" y="201.552299" style="fill: #6495ed"/>
    </g>
    <g clip-path="url(#p4511ee64e7)">
     <use xlink:href="#C0_0_e49587d44b" x="69.218182" y="222.028845" style="fill: #6495ed"/>
    </g>
    <g clip-path="url(#p4511ee64e7)">
     <use xlink:href="#C0_0_e49587d44b" x="196.646139" y="191.672005" style="fill: #6495ed"/>
    </g>
    <g clip-path="url(#p4511ee64e7)">
     <use xlink:href="#C0_0_e49587d44b" x="281.34821" y="98.988814" style="fill: #f08080"/>
    </g>
    <g clip-path="url(#p4511ee64e7)">
     <use xlink:href="#C0_0_e49587d44b" x="83.852975" y="79.986169" style="fill: #f08080"/>
    </g>
    <g clip-path="url(#p4511ee64e7)">
     <use xlink:href="#C0_0_e49587d44b" x="111.144705" y="182.939568" style="fill: #6495ed"/>
    </g>
    <g clip-path="url(#p4511ee64e7)">
     <use xlink:href="#C0_0_e49587d44b" x="299.720387" y="169.978361" style="fill: #6495ed"/>
    </g>
    <g clip-path="url(#p4511ee64e7)">
     <use xlink:href="#C0_0_e49587d44b" x="189.160465" y="131.102854" style="fill: #f08080"/>
    </g>
    <g clip-path="url(#p4511ee64e7)">
     <use xlink:href="#C0_0_e49587d44b" x="259.57239" y="126.345445" style="fill: #f08080"/>
    </g>
    <g clip-path="url(#p4511ee64e7)">
     <use xlink:href="#C0_0_e49587d44b" x="103.695978" y="195.985109" style="fill: #6495ed"/>
    </g>
    <g clip-path="url(#p4511ee64e7)">
     <use xlink:href="#C0_0_e49587d44b" x="159.165136" y="134.196097" style="fill: #f08080"/>
    </g>
    <g clip-path="url(#p4511ee64e7)">
     <use xlink:href="#C0_0_e49587d44b" x="287.890236" y="190.233234" style="fill: #6495ed"/>
    </g>
    <g clip-path="url(#p4511ee64e7)">
     <use xlink:href="#C0_0_e49587d44b" x="146.259267" y="122.15563" style="fill: #f08080"/>
    </g>
    <g clip-path="url(#p4511ee64e7)">
     <use xlink:href="#C0_0_e49587d44b" x="289.343893" y="155.963379" style="fill: #6495ed"/>
    </g>
    <g clip-path="url(#p4511ee64e7)">
     <use xlink:href="#C0_0_e49587d44b" x="83.155424" y="198.20423" style="fill: #6495ed"/>
    </g>
    <g clip-path="url(#p4511ee64e7)">
     <use xlink:href="#C0_0_e49587d44b" x="234.531972" y="74.294232" style="fill: #f08080"/>
    </g>
    <g clip-path="url(#p4511ee64e7)">
     <use xlink:href="#C0_0_e49587d44b" x="192.097056" y="238.719156" style="fill: #6495ed"/>
    </g>
    <g clip-path="url(#p4511ee64e7)">
     <use xlink:href="#C0_0_e49587d44b" x="108.258728" y="134.00195" style="fill: #f08080"/>
    </g>
    <g clip-path="url(#p4511ee64e7)">
     <use xlink:href="#C0_0_e49587d44b" x="216.699815" y="69.15047" style="fill: #f08080"/>
    </g>
    <g clip-path="url(#p4511ee64e7)">
     <use xlink:href="#C0_0_e49587d44b" x="249.329003" y="145.459199" style="fill: #6495ed"/>
    </g>
    <g clip-path="url(#p4511ee64e7)">
     <use xlink:href="#C0_0_e49587d44b" x="70.023556" y="199.253075" style="fill: #6495ed"/>
    </g>
    <g clip-path="url(#p4511ee64e7)">
     <use xlink:href="#C0_0_e49587d44b" x="264.172232" y="146.500291" style="fill: #6495ed"/>
    </g>
    <g clip-path="url(#p4511ee64e7)">
     <use xlink:href="#C0_0_e49587d44b" x="111.331489" y="67.038022" style="fill: #f08080"/>
    </g>
    <g clip-path="url(#p4511ee64e7)">
     <use xlink:href="#C0_0_e49587d44b" x="331.773446" y="160.399805" style="fill: #6495ed"/>
    </g>
    <g clip-path="url(#p4511ee64e7)">
     <use xlink:href="#C0_0_e49587d44b" x="89.585782" y="242.116364" style="fill: #6495ed"/>
    </g>
    <g clip-path="url(#p4511ee64e7)">
     <use xlink:href="#C0_0_e49587d44b" x="364.195035" y="183.666971" style="fill: #6495ed"/>
    </g>
    <g clip-path="url(#p4511ee64e7)">
     <use xlink:href="#C0_0_e49587d44b" x="142.167967" y="105.236778" style="fill: #f08080"/>
    </g>
    <g clip-path="url(#p4511ee64e7)">
     <use xlink:href="#C0_0_e49587d44b" x="185.411609" y="201.65796" style="fill: #6495ed"/>
    </g>
   </g>
   <g id="PathCollection_2"/>
   <g id="PathCollection_3"/>
   <g id="matplotlib.axis_1">
    <g id="xtick_1">
     <g id="line2d_1">
      <defs>
       <path id="m43f2e03566" d="M 0 0 
L 0 3.5 
" style="stroke: #000000; stroke-width: 0.8"/>
      </defs>
      <g>
       <use xlink:href="#m43f2e03566" x="64.552545" y="252" style="stroke: #000000; stroke-width: 0.8"/>
      </g>
     </g>
    </g>
    <g id="xtick_2">
     <g id="line2d_2">
      <g>
       <use xlink:href="#m43f2e03566" x="103.591965" y="252" style="stroke: #000000; stroke-width: 0.8"/>
      </g>
     </g>
    </g>
    <g id="xtick_3">
     <g id="line2d_3">
      <g>
       <use xlink:href="#m43f2e03566" x="142.631385" y="252" style="stroke: #000000; stroke-width: 0.8"/>
      </g>
     </g>
    </g>
    <g id="xtick_4">
     <g id="line2d_4">
      <g>
       <use xlink:href="#m43f2e03566" x="181.670804" y="252" style="stroke: #000000; stroke-width: 0.8"/>
      </g>
     </g>
    </g>
    <g id="xtick_5">
     <g id="line2d_5">
      <g>
       <use xlink:href="#m43f2e03566" x="220.710224" y="252" style="stroke: #000000; stroke-width: 0.8"/>
      </g>
     </g>
    </g>
    <g id="xtick_6">
     <g id="line2d_6">
      <g>
       <use xlink:href="#m43f2e03566" x="259.749644" y="252" style="stroke: #000000; stroke-width: 0.8"/>
      </g>
     </g>
    </g>
    <g id="xtick_7">
     <g id="line2d_7">
      <g>
       <use xlink:href="#m43f2e03566" x="298.789064" y="252" style="stroke: #000000; stroke-width: 0.8"/>
      </g>
     </g>
    </g>
    <g id="xtick_8">
     <g id="line2d_8">
      <g>
       <use xlink:href="#m43f2e03566" x="337.828483" y="252" style="stroke: #000000; stroke-width: 0.8"/>
      </g>
     </g>
    </g>
    <g id="xtick_9">
     <g id="line2d_9">
      <g>
       <use xlink:href="#m43f2e03566" x="376.867903" y="252" style="stroke: #000000; stroke-width: 0.8"/>
      </g>
     </g>
    </g>
    <g id="text_1">
     <!-- Age -->
     <g transform="translate(211.728906 270.598437)scale(0.1 -0.1)">
      <defs>
       <path id="DejaVuSans-41" d="M 2188 4044 
L 1331 1722 
L 3047 1722 
L 2188 4044 
z
M 1831 4666 
L 2547 4666 
L 4325 0 
L 3669 0 
L 3244 1197 
L 1141 1197 
L 716 0 
L 50 0 
L 1831 4666 
z
" transform="scale(0.015625)"/>
       <path id="DejaVuSans-67" d="M 2906 1791 
Q 2906 2416 2648 2759 
Q 2391 3103 1925 3103 
Q 1463 3103 1205 2759 
Q 947 2416 947 1791 
Q 947 1169 1205 825 
Q 1463 481 1925 481 
Q 2391 481 2648 825 
Q 2906 1169 2906 1791 
z
M 3481 434 
Q 3481 -459 3084 -895 
Q 2688 -1331 1869 -1331 
Q 1566 -1331 1297 -1286 
Q 1028 -1241 775 -1147 
L 775 -588 
Q 1028 -725 1275 -790 
Q 1522 -856 1778 -856 
Q 2344 -856 2625 -561 
Q 2906 -266 2906 331 
L 2906 616 
Q 2728 306 2450 153 
Q 2172 0 1784 0 
Q 1141 0 747 490 
Q 353 981 353 1791 
Q 353 2603 747 3093 
Q 1141 3584 1784 3584 
Q 2172 3584 2450 3431 
Q 2728 3278 2906 2969 
L 2906 3500 
L 3481 3500 
L 3481 434 
z
" transform="scale(0.015625)"/>
       <path id="DejaVuSans-65" d="M 3597 1894 
L 3597 1613 
L 953 1613 
Q 991 1019 1311 708 
Q 1631 397 2203 397 
Q 2534 397 2845 478 
Q 3156 559 3463 722 
L 3463 178 
Q 3153 47 2828 -22 
Q 2503 -91 2169 -91 
Q 1331 -91 842 396 
Q 353 884 353 1716 
Q 353 2575 817 3079 
Q 1281 3584 2069 3584 
Q 2775 3584 3186 3129 
Q 3597 2675 3597 1894 
z
M 3022 2063 
Q 3016 2534 2758 2815 
Q 2500 3097 2075 3097 
Q 1594 3097 1305 2825 
Q 1016 2553 972 2059 
L 3022 2063 
z
" transform="scale(0.015625)"/>
      </defs>
      <use xlink:href="#DejaVuSans-41"/>
      <use xlink:href="#DejaVuSans-67" x="68.408203"/>
      <use xlink:href="#DejaVuSans-65" x="131.884766"/>
     </g>
    </g>
   </g>
   <g id="matplotlib.axis_2">
    <g id="ytick_1">
     <g id="line2d_10">
      <defs>
       <path id="m75c7acdccd" d="M 0 0 
L -3.5 0 
" style="stroke: #000000; stroke-width: 0.8"/>
      </defs>
      <g>
       <use xlink:href="#m75c7acdccd" x="54" y="243.45772" style="stroke: #000000; stroke-width: 0.8"/>
      </g>
     </g>
    </g>
    <g id="ytick_2">
     <g id="line2d_11">
      <g>
       <use xlink:href="#m75c7acdccd" x="54" y="218.04757" style="stroke: #000000; stroke-width: 0.8"/>
      </g>
     </g>
    </g>
    <g id="ytick_3">
     <g id="line2d_12">
      <g>
       <use xlink:href="#m75c7acdccd" x="54" y="192.63742" style="stroke: #000000; stroke-width: 0.8"/>
      </g>
     </g>
    </g>
    <g id="ytick_4">
     <g id="line2d_13">
      <g>
       <use xlink:href="#m75c7acdccd" x="54" y="167.227269" style="stroke: #000000; stroke-width: 0.8"/>
      </g>
     </g>
    </g>
    <g id="ytick_5">
     <g id="line2d_14">
      <g>
       <use xlink:href="#m75c7acdccd" x="54" y="141.817119" style="stroke: #000000; stroke-width: 0.8"/>
      </g>
     </g>
    </g>
    <g id="ytick_6">
     <g id="line2d_15">
      <g>
       <use xlink:href="#m75c7acdccd" x="54" y="116.406969" style="stroke: #000000; stroke-width: 0.8"/>
      </g>
     </g>
    </g>
    <g id="ytick_7">
     <g id="line2d_16">
      <g>
       <use xlink:href="#m75c7acdccd" x="54" y="90.996819" style="stroke: #000000; stroke-width: 0.8"/>
      </g>
     </g>
    </g>
    <g id="ytick_8">
     <g id="line2d_17">
      <g>
       <use xlink:href="#m75c7acdccd" x="54" y="65.586669" style="stroke: #000000; stroke-width: 0.8"/>
      </g>
     </g>
    </g>
    <g id="ytick_9">
     <g id="line2d_18">
      <g>
       <use xlink:href="#m75c7acdccd" x="54" y="40.176518" style="stroke: #000000; stroke-width: 0.8"/>
      </g>
     </g>
    </g>
    <g id="text_2">
     <!-- Herd Instinct -->
     <g transform="translate(40.920312 175.32375)rotate(-90)scale(0.1 -0.1)">
      <defs>
       <path id="DejaVuSans-48" d="M 628 4666 
L 1259 4666 
L 1259 2753 
L 3553 2753 
L 3553 4666 
L 4184 4666 
L 4184 0 
L 3553 0 
L 3553 2222 
L 1259 2222 
L 1259 0 
L 628 0 
L 628 4666 
z
" transform="scale(0.015625)"/>
       <path id="DejaVuSans-72" d="M 2631 2963 
Q 2534 3019 2420 3045 
Q 2306 3072 2169 3072 
Q 1681 3072 1420 2755 
Q 1159 2438 1159 1844 
L 1159 0 
L 581 0 
L 581 3500 
L 1159 3500 
L 1159 2956 
Q 1341 3275 1631 3429 
Q 1922 3584 2338 3584 
Q 2397 3584 2469 3576 
Q 2541 3569 2628 3553 
L 2631 2963 
z
" transform="scale(0.015625)"/>
       <path id="DejaVuSans-64" d="M 2906 2969 
L 2906 4863 
L 3481 4863 
L 3481 0 
L 2906 0 
L 2906 525 
Q 2725 213 2448 61 
Q 2172 -91 1784 -91 
Q 1150 -91 751 415 
Q 353 922 353 1747 
Q 353 2572 751 3078 
Q 1150 3584 1784 3584 
Q 2172 3584 2448 3432 
Q 2725 3281 2906 2969 
z
M 947 1747 
Q 947 1113 1208 752 
Q 1469 391 1925 391 
Q 2381 391 2643 752 
Q 2906 1113 2906 1747 
Q 2906 2381 2643 2742 
Q 2381 3103 1925 3103 
Q 1469 3103 1208 2742 
Q 947 2381 947 1747 
z
" transform="scale(0.015625)"/>
       <path id="DejaVuSans-20" transform="scale(0.015625)"/>
       <path id="DejaVuSans-49" d="M 628 4666 
L 1259 4666 
L 1259 0 
L 628 0 
L 628 4666 
z
" transform="scale(0.015625)"/>
       <path id="DejaVuSans-6e" d="M 3513 2113 
L 3513 0 
L 2938 0 
L 2938 2094 
Q 2938 2591 2744 2837 
Q 2550 3084 2163 3084 
Q 1697 3084 1428 2787 
Q 1159 2491 1159 1978 
L 1159 0 
L 581 0 
L 581 3500 
L 1159 3500 
L 1159 2956 
Q 1366 3272 1645 3428 
Q 1925 3584 2291 3584 
Q 2894 3584 3203 3211 
Q 3513 2838 3513 2113 
z
" transform="scale(0.015625)"/>
       <path id="DejaVuSans-73" d="M 2834 3397 
L 2834 2853 
Q 2591 2978 2328 3040 
Q 2066 3103 1784 3103 
Q 1356 3103 1142 2972 
Q 928 2841 928 2578 
Q 928 2378 1081 2264 
Q 1234 2150 1697 2047 
L 1894 2003 
Q 2506 1872 2764 1633 
Q 3022 1394 3022 966 
Q 3022 478 2636 193 
Q 2250 -91 1575 -91 
Q 1294 -91 989 -36 
Q 684 19 347 128 
L 347 722 
Q 666 556 975 473 
Q 1284 391 1588 391 
Q 1994 391 2212 530 
Q 2431 669 2431 922 
Q 2431 1156 2273 1281 
Q 2116 1406 1581 1522 
L 1381 1569 
Q 847 1681 609 1914 
Q 372 2147 372 2553 
Q 372 3047 722 3315 
Q 1072 3584 1716 3584 
Q 2034 3584 2315 3537 
Q 2597 3491 2834 3397 
z
" transform="scale(0.015625)"/>
       <path id="DejaVuSans-74" d="M 1172 4494 
L 1172 3500 
L 2356 3500 
L 2356 3053 
L 1172 3053 
L 1172 1153 
Q 1172 725 1289 603 
Q 1406 481 1766 481 
L 2356 481 
L 2356 0 
L 1766 0 
Q 1100 0 847 248 
Q 594 497 594 1153 
L 594 3053 
L 172 3053 
L 172 3500 
L 594 3500 
L 594 4494 
L 1172 4494 
z
" transform="scale(0.015625)"/>
       <path id="DejaVuSans-69" d="M 603 3500 
L 1178 3500 
L 1178 0 
L 603 0 
L 603 3500 
z
M 603 4863 
L 1178 4863 
L 1178 4134 
L 603 4134 
L 603 4863 
z
" transform="scale(0.015625)"/>
       <path id="DejaVuSans-63" d="M 3122 3366 
L 3122 2828 
Q 2878 2963 2633 3030 
Q 2388 3097 2138 3097 
Q 1578 3097 1268 2742 
Q 959 2388 959 1747 
Q 959 1106 1268 751 
Q 1578 397 2138 397 
Q 2388 397 2633 464 
Q 2878 531 3122 666 
L 3122 134 
Q 2881 22 2623 -34 
Q 2366 -91 2075 -91 
Q 1284 -91 818 406 
Q 353 903 353 1747 
Q 353 2603 823 3093 
Q 1294 3584 2113 3584 
Q 2378 3584 2631 3529 
Q 2884 3475 3122 3366 
z
" transform="scale(0.015625)"/>
      </defs>
      <use xlink:href="#DejaVuSans-48"/>
      <use xlink:href="#DejaVuSans-65" x="75.195312"/>
      <use xlink:href="#DejaVuSans-72" x="136.71875"/>
      <use xlink:href="#DejaVuSans-64" x="176.082031"/>
      <use xlink:href="#DejaVuSans-20" x="239.558594"/>
      <use xlink:href="#DejaVuSans-49" x="271.345703"/>
      <use xlink:href="#DejaVuSans-6e" x="300.837891"/>
      <use xlink:href="#DejaVuSans-73" x="364.216797"/>
      <use xlink:href="#DejaVuSans-74" x="416.316406"/>
      <use xlink:href="#DejaVuSans-69" x="455.525391"/>
      <use xlink:href="#DejaVuSans-6e" x="483.308594"/>
      <use xlink:href="#DejaVuSans-63" x="546.6875"/>
      <use xlink:href="#DejaVuSans-74" x="601.667969"/>
     </g>
    </g>
   </g>
   <g id="line2d_19">
    <path d="M 54 141.817119 
L 388.8 141.817119 
" clip-path="url(#p4511ee64e7)" style="fill: none; stroke: #ffa500; stroke-width: 1.5; stroke-linecap: square"/>
   </g>
   <g id="patch_3">
    <path d="M 54 252 
L 54 34.56 
" style="fill: none; stroke: #000000; stroke-width: 0.8; stroke-linejoin: miter; stroke-linecap: square"/>
   </g>
   <g id="patch_4">
    <path d="M 388.8 252 
L 388.8 34.56 
" style="fill: none; stroke: #000000; stroke-width: 0.8; stroke-linejoin: miter; stroke-linecap: square"/>
   </g>
   <g id="patch_5">
    <path d="M 54 252 
L 388.8 252 
" style="fill: none; stroke: #000000; stroke-width: 0.8; stroke-linejoin: miter; stroke-linecap: square"/>
   </g>
   <g id="patch_6">
    <path d="M 54 34.56 
L 388.8 34.56 
" style="fill: none; stroke: #000000; stroke-width: 0.8; stroke-linejoin: miter; stroke-linecap: square"/>
   </g>
   <g id="legend_1">
    <g id="patch_7">
     <path d="M 330.984375 247 
L 381.8 247 
Q 383.8 247 383.8 245 
L 383.8 201.965625 
Q 383.8 199.965625 381.8 199.965625 
L 330.984375 199.965625 
Q 328.984375 199.965625 328.984375 201.965625 
L 328.984375 245 
Q 328.984375 247 330.984375 247 
z
" style="fill: #ffffff; opacity: 0.8; stroke: #cccccc; stroke-linejoin: miter"/>
    </g>
    <g id="text_3">
     <!-- species -->
     <g transform="translate(337.717188 211.564063)scale(0.1 -0.1)">
      <defs>
       <path id="DejaVuSans-70" d="M 1159 525 
L 1159 -1331 
L 581 -1331 
L 581 3500 
L 1159 3500 
L 1159 2969 
Q 1341 3281 1617 3432 
Q 1894 3584 2278 3584 
Q 2916 3584 3314 3078 
Q 3713 2572 3713 1747 
Q 3713 922 3314 415 
Q 2916 -91 2278 -91 
Q 1894 -91 1617 61 
Q 1341 213 1159 525 
z
M 3116 1747 
Q 3116 2381 2855 2742 
Q 2594 3103 2138 3103 
Q 1681 3103 1420 2742 
Q 1159 2381 1159 1747 
Q 1159 1113 1420 752 
Q 1681 391 2138 391 
Q 2594 391 2855 752 
Q 3116 1113 3116 1747 
z
" transform="scale(0.015625)"/>
      </defs>
      <use xlink:href="#DejaVuSans-73"/>
      <use xlink:href="#DejaVuSans-70" x="52.099609"/>
      <use xlink:href="#DejaVuSans-65" x="115.576172"/>
      <use xlink:href="#DejaVuSans-63" x="177.099609"/>
      <use xlink:href="#DejaVuSans-69" x="232.080078"/>
      <use xlink:href="#DejaVuSans-65" x="259.863281"/>
      <use xlink:href="#DejaVuSans-73" x="321.386719"/>
     </g>
    </g>
    <g id="PathCollection_4">
     <defs>
      <path id="m385f9e3aa3" d="M 0 3 
C 0.795609 3 1.55874 2.683901 2.12132 2.12132 
C 2.683901 1.55874 3 0.795609 3 0 
C 3 -0.795609 2.683901 -1.55874 2.12132 -2.12132 
C 1.55874 -2.683901 0.795609 -3 0 -3 
C -0.795609 -3 -1.55874 -2.683901 -2.12132 -2.12132 
C -2.683901 -1.55874 -3 -0.795609 -3 0 
C -3 0.795609 -2.683901 1.55874 -2.12132 2.12132 
C -1.55874 2.683901 -0.795609 3 0 3 
z
" style="stroke: #f08080"/>
     </defs>
     <g>
      <use xlink:href="#m385f9e3aa3" x="342.984375" y="223.617188" style="fill: #f08080; stroke: #f08080"/>
     </g>
    </g>
    <g id="text_4">
     <!-- dog -->
     <g transform="translate(360.984375 226.242188)scale(0.1 -0.1)">
      <defs>
       <path id="DejaVuSans-6f" d="M 1959 3097 
Q 1497 3097 1228 2736 
Q 959 2375 959 1747 
Q 959 1119 1226 758 
Q 1494 397 1959 397 
Q 2419 397 2687 759 
Q 2956 1122 2956 1747 
Q 2956 2369 2687 2733 
Q 2419 3097 1959 3097 
z
M 1959 3584 
Q 2709 3584 3137 3096 
Q 3566 2609 3566 1747 
Q 3566 888 3137 398 
Q 2709 -91 1959 -91 
Q 1206 -91 779 398 
Q 353 888 353 1747 
Q 353 2609 779 3096 
Q 1206 3584 1959 3584 
z
" transform="scale(0.015625)"/>
      </defs>
      <use xlink:href="#DejaVuSans-64"/>
      <use xlink:href="#DejaVuSans-6f" x="63.476562"/>
      <use xlink:href="#DejaVuSans-67" x="124.658203"/>
     </g>
    </g>
    <g id="PathCollection_5">
     <defs>
      <path id="ma17b13d5fd" d="M 0 3 
C 0.795609 3 1.55874 2.683901 2.12132 2.12132 
C 2.683901 1.55874 3 0.795609 3 0 
C 3 -0.795609 2.683901 -1.55874 2.12132 -2.12132 
C 1.55874 -2.683901 0.795609 -3 0 -3 
C -0.795609 -3 -1.55874 -2.683901 -2.12132 -2.12132 
C -2.683901 -1.55874 -3 -0.795609 -3 0 
C -3 0.795609 -2.683901 1.55874 -2.12132 2.12132 
C -1.55874 2.683901 -0.795609 3 0 3 
z
" style="stroke: #6495ed"/>
     </defs>
     <g>
      <use xlink:href="#ma17b13d5fd" x="342.984375" y="238.295313" style="fill: #6495ed; stroke: #6495ed"/>
     </g>
    </g>
    <g id="text_5">
     <!-- cat -->
     <g transform="translate(360.984375 240.920313)scale(0.1 -0.1)">
      <defs>
       <path id="DejaVuSans-61" d="M 2194 1759 
Q 1497 1759 1228 1600 
Q 959 1441 959 1056 
Q 959 750 1161 570 
Q 1363 391 1709 391 
Q 2188 391 2477 730 
Q 2766 1069 2766 1631 
L 2766 1759 
L 2194 1759 
z
M 3341 1997 
L 3341 0 
L 2766 0 
L 2766 531 
Q 2569 213 2275 61 
Q 1981 -91 1556 -91 
Q 1019 -91 701 211 
Q 384 513 384 1019 
Q 384 1609 779 1909 
Q 1175 2209 1959 2209 
L 2766 2209 
L 2766 2266 
Q 2766 2663 2505 2880 
Q 2244 3097 1772 3097 
Q 1472 3097 1187 3025 
Q 903 2953 641 2809 
L 641 3341 
Q 956 3463 1253 3523 
Q 1550 3584 1831 3584 
Q 2591 3584 2966 3190 
Q 3341 2797 3341 1997 
z
" transform="scale(0.015625)"/>
      </defs>
      <use xlink:href="#DejaVuSans-63"/>
      <use xlink:href="#DejaVuSans-61" x="54.980469"/>
      <use xlink:href="#DejaVuSans-74" x="116.259766"/>
     </g>
    </g>
   </g>
  </g>
 </g>
 <defs>
  <clipPath id="p4511ee64e7">
   <rect x="54" y="34.56" width="334.8" height="217.44"/>
  </clipPath>
 </defs>
</svg>
