<?xml version="1.0" encoding="utf-8" standalone="no"?>
<!DOCTYPE svg PUBLIC "-//W3C//DTD SVG 1.1//EN"
  "http://www.w3.org/Graphics/SVG/1.1/DTD/svg11.dtd">
<svg xmlns:xlink="http://www.w3.org/1999/xlink" width="460.8pt" height="345.6pt" viewBox="0 0 460.8 345.6" xmlns="http://www.w3.org/2000/svg" version="1.1">
 <metadata>
  <rdf:RDF xmlns:dc="http://purl.org/dc/elements/1.1/" xmlns:cc="http://creativecommons.org/ns#" xmlns:rdf="http://www.w3.org/1999/02/22-rdf-syntax-ns#">
   <cc:Work>
    <dc:type rdf:resource="http://purl.org/dc/dcmitype/StillImage"/>
    <dc:date>2024-11-04T15:27:57.396750</dc:date>
    <dc:format>image/svg+xml</dc:format>
    <dc:creator>
     <cc:Agent>
      <dc:title>Matplotlib v3.9.2, https://matplotlib.org/</dc:title>
     </cc:Agent>
    </dc:creator>
   </cc:Work>
  </rdf:RDF>
 </metadata>
 <defs>
  <style type="text/css">*{stroke-linejoin: round; stroke-linecap: butt}</style>
 </defs>
 <g id="figure_1">
  <g id="patch_1">
   <path d="M 0 345.6 
L 460.8 345.6 
L 460.8 0 
L 0 0 
z
" style="fill: #ffffff"/>
  </g>
  <g id="axes_1">
   <g id="patch_2">
    <path d="M 57.6 307.584 
L 414.72 307.584 
L 414.72 41.472 
L 57.6 41.472 
z
" style="fill: #ffffff"/>
   </g>
   <g id="PathCollection_1">
    <defs>
     <path id="C0_0_a1a4b4122f" d="M 0 3 
C 0.795609 3 1.55874 2.683901 2.12132 2.12132 
C 2.683901 1.55874 3 0.795609 3 -0 
C 3 -0.795609 2.683901 -1.55874 2.12132 -2.12132 
C 1.55874 -2.683901 0.795609 -3 0 -3 
C -0.795609 -3 -1.55874 -2.683901 -2.12132 -2.12132 
C -2.683901 -1.55874 -3 -0.795609 -3 0 
C -3 0.795609 -2.683901 1.55874 -2.12132 2.12132 
C -1.55874 2.683901 -0.795609 3 0 3 
z
"/>
    </defs>
    <g clip-path="url(#p35a4b9815f)">
     <use xlink:href="#C0_0_a1a4b4122f" x="314.675168" y="76.233053" style="fill: #f08080"/>
    </g>
    <g clip-path="url(#p35a4b9815f)">
     <use xlink:href="#C0_0_a1a4b4122f" x="166.068103" y="93.204078" style="fill: #6495ed"/>
    </g>
    <g clip-path="url(#p35a4b9815f)">
     <use xlink:href="#C0_0_a1a4b4122f" x="375.467624" y="256.148324" style="fill: #6495ed"/>
    </g>
    <g clip-path="url(#p35a4b9815f)">
     <use xlink:href="#C0_0_a1a4b4122f" x="122.441408" y="246.346948" style="fill: #6495ed"/>
    </g>
    <g clip-path="url(#p35a4b9815f)">
     <use xlink:href="#C0_0_a1a4b4122f" x="330.960513" y="68.576925" style="fill: #f08080"/>
    </g>
    <g clip-path="url(#p35a4b9815f)">
     <use xlink:href="#C0_0_a1a4b4122f" x="96.080941" y="271.531086" style="fill: #6495ed"/>
    </g>
    <g clip-path="url(#p35a4b9815f)">
     <use xlink:href="#C0_0_a1a4b4122f" x="310.873873" y="283.828721" style="fill: #6495ed"/>
    </g>
    <g clip-path="url(#p35a4b9815f)">
     <use xlink:href="#C0_0_a1a4b4122f" x="374.885432" y="104.41275" style="fill: #f08080"/>
    </g>
    <g clip-path="url(#p35a4b9815f)">
     <use xlink:href="#C0_0_a1a4b4122f" x="397.256431" y="74.30578" style="fill: #f08080"/>
    </g>
    <g clip-path="url(#p35a4b9815f)">
     <use xlink:href="#C0_0_a1a4b4122f" x="375.442059" y="261.272731" style="fill: #6495ed"/>
    </g>
    <g clip-path="url(#p35a4b9815f)">
     <use xlink:href="#C0_0_a1a4b4122f" x="374.294277" y="60.502501" style="fill: #f08080"/>
    </g>
    <g clip-path="url(#p35a4b9815f)">
     <use xlink:href="#C0_0_a1a4b4122f" x="325.922365" y="293.635324" style="fill: #6495ed"/>
    </g>
    <g clip-path="url(#p35a4b9815f)">
     <use xlink:href="#C0_0_a1a4b4122f" x="115.792818" y="258.374669" style="fill: #6495ed"/>
    </g>
    <g clip-path="url(#p35a4b9815f)">
     <use xlink:href="#C0_0_a1a4b4122f" x="397.370456" y="183.870121" style="fill: #6495ed"/>
    </g>
    <g clip-path="url(#p35a4b9815f)">
     <use xlink:href="#C0_0_a1a4b4122f" x="354.793366" y="254.735462" style="fill: #6495ed"/>
    </g>
    <g clip-path="url(#p35a4b9815f)">
     <use xlink:href="#C0_0_a1a4b4122f" x="313.568356" y="221.723053" style="fill: #6495ed"/>
    </g>
    <g clip-path="url(#p35a4b9815f)">
     <use xlink:href="#C0_0_a1a4b4122f" x="344.227741" y="257.06976" style="fill: #6495ed"/>
    </g>
    <g clip-path="url(#p35a4b9815f)">
     <use xlink:href="#C0_0_a1a4b4122f" x="369.061776" y="57.388062" style="fill: #f08080"/>
    </g>
    <g clip-path="url(#p35a4b9815f)">
     <use xlink:href="#C0_0_a1a4b4122f" x="335.809985" y="82.761095" style="fill: #f08080"/>
    </g>
    <g clip-path="url(#p35a4b9815f)">
     <use xlink:href="#C0_0_a1a4b4122f" x="360.973316" y="89.647348" style="fill: #f08080"/>
    </g>
    <g clip-path="url(#p35a4b9815f)">
     <use xlink:href="#C0_0_a1a4b4122f" x="335.145213" y="89.406424" style="fill: #f08080"/>
    </g>
    <g clip-path="url(#p35a4b9815f)">
     <use xlink:href="#C0_0_a1a4b4122f" x="361.277052" y="265.147783" style="fill: #6495ed"/>
    </g>
    <g clip-path="url(#p35a4b9815f)">
     <use xlink:href="#C0_0_a1a4b4122f" x="144.109997" y="220.359626" style="fill: #6495ed"/>
    </g>
    <g clip-path="url(#p35a4b9815f)">
     <use xlink:href="#C0_0_a1a4b4122f" x="104.548908" y="117.878785" style="fill: #6495ed"/>
    </g>
    <g clip-path="url(#p35a4b9815f)">
     <use xlink:href="#C0_0_a1a4b4122f" x="344.332036" y="77.810002" style="fill: #f08080"/>
    </g>
    <g clip-path="url(#p35a4b9815f)">
     <use xlink:href="#C0_0_a1a4b4122f" x="144.367202" y="262.790861" style="fill: #6495ed"/>
    </g>
    <g clip-path="url(#p35a4b9815f)">
     <use xlink:href="#C0_0_a1a4b4122f" x="339.430932" y="126.459187" style="fill: #f08080"/>
    </g>
    <g clip-path="url(#p35a4b9815f)">
     <use xlink:href="#C0_0_a1a4b4122f" x="84.47155" y="73.471881" style="fill: #6495ed"/>
    </g>
    <g clip-path="url(#p35a4b9815f)">
     <use xlink:href="#C0_0_a1a4b4122f" x="354.580569" y="68.150467" style="fill: #f08080"/>
    </g>
    <g clip-path="url(#p35a4b9815f)">
     <use xlink:href="#C0_0_a1a4b4122f" x="102.650503" y="72.387186" style="fill: #6495ed"/>
    </g>
    <g clip-path="url(#p35a4b9815f)">
     <use xlink:href="#C0_0_a1a4b4122f" x="81.918579" y="265.190155" style="fill: #6495ed"/>
    </g>
    <g clip-path="url(#p35a4b9815f)">
     <use xlink:href="#C0_0_a1a4b4122f" x="383.8864" y="256.5277" style="fill: #6495ed"/>
    </g>
    <g clip-path="url(#p35a4b9815f)">
     <use xlink:href="#C0_0_a1a4b4122f" x="103.913017" y="72.978479" style="fill: #6495ed"/>
    </g>
    <g clip-path="url(#p35a4b9815f)">
     <use xlink:href="#C0_0_a1a4b4122f" x="127.493437" y="251.636688" style="fill: #6495ed"/>
    </g>
    <g clip-path="url(#p35a4b9815f)">
     <use xlink:href="#C0_0_a1a4b4122f" x="79.409857" y="90.854232" style="fill: #6495ed"/>
    </g>
    <g clip-path="url(#p35a4b9815f)">
     <use xlink:href="#C0_0_a1a4b4122f" x="133.691024" y="53.568" style="fill: #6495ed"/>
    </g>
    <g clip-path="url(#p35a4b9815f)">
     <use xlink:href="#C0_0_a1a4b4122f" x="343.250388" y="57.956729" style="fill: #f08080"/>
    </g>
    <g clip-path="url(#p35a4b9815f)">
     <use xlink:href="#C0_0_a1a4b4122f" x="383.793702" y="55.639761" style="fill: #f08080"/>
    </g>
    <g clip-path="url(#p35a4b9815f)">
     <use xlink:href="#C0_0_a1a4b4122f" x="328.609807" y="84.759197" style="fill: #f08080"/>
    </g>
    <g clip-path="url(#p35a4b9815f)">
     <use xlink:href="#C0_0_a1a4b4122f" x="363.420456" y="273.716261" style="fill: #6495ed"/>
    </g>
    <g clip-path="url(#p35a4b9815f)">
     <use xlink:href="#C0_0_a1a4b4122f" x="375.348902" y="257.596494" style="fill: #6495ed"/>
    </g>
    <g clip-path="url(#p35a4b9815f)">
     <use xlink:href="#C0_0_a1a4b4122f" x="352.963721" y="57.193793" style="fill: #f08080"/>
    </g>
    <g clip-path="url(#p35a4b9815f)">
     <use xlink:href="#C0_0_a1a4b4122f" x="316.433669" y="243.148252" style="fill: #6495ed"/>
    </g>
    <g clip-path="url(#p35a4b9815f)">
     <use xlink:href="#C0_0_a1a4b4122f" x="315.995687" y="98.236387" style="fill: #f08080"/>
    </g>
    <g clip-path="url(#p35a4b9815f)">
     <use xlink:href="#C0_0_a1a4b4122f" x="343.230054" y="107.097358" style="fill: #f08080"/>
    </g>
    <g clip-path="url(#p35a4b9815f)">
     <use xlink:href="#C0_0_a1a4b4122f" x="375.31875" y="119.478146" style="fill: #f08080"/>
    </g>
    <g clip-path="url(#p35a4b9815f)">
     <use xlink:href="#C0_0_a1a4b4122f" x="348.071061" y="294.004475" style="fill: #6495ed"/>
    </g>
    <g clip-path="url(#p35a4b9815f)">
     <use xlink:href="#C0_0_a1a4b4122f" x="141.898693" y="227.757158" style="fill: #6495ed"/>
    </g>
    <g clip-path="url(#p35a4b9815f)">
     <use xlink:href="#C0_0_a1a4b4122f" x="348.7358" y="283.757832" style="fill: #6495ed"/>
    </g>
    <g clip-path="url(#p35a4b9815f)">
     <use xlink:href="#C0_0_a1a4b4122f" x="333.695294" y="270.181794" style="fill: #6495ed"/>
    </g>
    <g clip-path="url(#p35a4b9815f)">
     <use xlink:href="#C0_0_a1a4b4122f" x="395.996391" y="57.963282" style="fill: #f08080"/>
    </g>
    <g clip-path="url(#p35a4b9815f)">
     <use xlink:href="#C0_0_a1a4b4122f" x="309.440675" y="239.986933" style="fill: #6495ed"/>
    </g>
    <g clip-path="url(#p35a4b9815f)">
     <use xlink:href="#C0_0_a1a4b4122f" x="125.0664" y="256.138382" style="fill: #6495ed"/>
    </g>
    <g clip-path="url(#p35a4b9815f)">
     <use xlink:href="#C0_0_a1a4b4122f" x="74.611295" y="273.58236" style="fill: #6495ed"/>
    </g>
    <g clip-path="url(#p35a4b9815f)">
     <use xlink:href="#C0_0_a1a4b4122f" x="136.036368" y="290.400975" style="fill: #6495ed"/>
    </g>
    <g clip-path="url(#p35a4b9815f)">
     <use xlink:href="#C0_0_a1a4b4122f" x="110.034313" y="271.317111" style="fill: #6495ed"/>
    </g>
    <g clip-path="url(#p35a4b9815f)">
     <use xlink:href="#C0_0_a1a4b4122f" x="120.701645" y="283.405956" style="fill: #6495ed"/>
    </g>
    <g clip-path="url(#p35a4b9815f)">
     <use xlink:href="#C0_0_a1a4b4122f" x="335.235003" y="113.160906" style="fill: #f08080"/>
    </g>
    <g clip-path="url(#p35a4b9815f)">
     <use xlink:href="#C0_0_a1a4b4122f" x="209.430648" y="262.593307" style="fill: #6495ed"/>
    </g>
    <g clip-path="url(#p35a4b9815f)">
     <use xlink:href="#C0_0_a1a4b4122f" x="337.934792" y="120.302864" style="fill: #f08080"/>
    </g>
    <g clip-path="url(#p35a4b9815f)">
     <use xlink:href="#C0_0_a1a4b4122f" x="76.473198" y="286.405667" style="fill: #6495ed"/>
    </g>
    <g clip-path="url(#p35a4b9815f)">
     <use xlink:href="#C0_0_a1a4b4122f" x="327.896575" y="283.176789" style="fill: #6495ed"/>
    </g>
    <g clip-path="url(#p35a4b9815f)">
     <use xlink:href="#C0_0_a1a4b4122f" x="387.319137" y="273.744444" style="fill: #6495ed"/>
    </g>
    <g clip-path="url(#p35a4b9815f)">
     <use xlink:href="#C0_0_a1a4b4122f" x="122.558043" y="286.597874" style="fill: #6495ed"/>
    </g>
    <g clip-path="url(#p35a4b9815f)">
     <use xlink:href="#C0_0_a1a4b4122f" x="379.858162" y="92.154069" style="fill: #f08080"/>
    </g>
    <g clip-path="url(#p35a4b9815f)">
     <use xlink:href="#C0_0_a1a4b4122f" x="357.923728" y="280.158424" style="fill: #6495ed"/>
    </g>
    <g clip-path="url(#p35a4b9815f)">
     <use xlink:href="#C0_0_a1a4b4122f" x="119.459288" y="89.695371" style="fill: #6495ed"/>
    </g>
    <g clip-path="url(#p35a4b9815f)">
     <use xlink:href="#C0_0_a1a4b4122f" x="77.93523" y="273.404845" style="fill: #6495ed"/>
    </g>
    <g clip-path="url(#p35a4b9815f)">
     <use xlink:href="#C0_0_a1a4b4122f" x="95.084974" y="77.220474" style="fill: #6495ed"/>
    </g>
    <g clip-path="url(#p35a4b9815f)">
     <use xlink:href="#C0_0_a1a4b4122f" x="306.104603" y="255.149293" style="fill: #6495ed"/>
    </g>
    <g clip-path="url(#p35a4b9815f)">
     <use xlink:href="#C0_0_a1a4b4122f" x="348.627048" y="246.297876" style="fill: #6495ed"/>
    </g>
    <g clip-path="url(#p35a4b9815f)">
     <use xlink:href="#C0_0_a1a4b4122f" x="200.696672" y="229.467339" style="fill: #6495ed"/>
    </g>
    <g clip-path="url(#p35a4b9815f)">
     <use xlink:href="#C0_0_a1a4b4122f" x="324.402142" y="234.492981" style="fill: #6495ed"/>
    </g>
    <g clip-path="url(#p35a4b9815f)">
     <use xlink:href="#C0_0_a1a4b4122f" x="90.966514" y="112.538246" style="fill: #6495ed"/>
    </g>
    <g clip-path="url(#p35a4b9815f)">
     <use xlink:href="#C0_0_a1a4b4122f" x="120.280068" y="75.312721" style="fill: #6495ed"/>
    </g>
    <g clip-path="url(#p35a4b9815f)">
     <use xlink:href="#C0_0_a1a4b4122f" x="76.652012" y="232.619931" style="fill: #6495ed"/>
    </g>
    <g clip-path="url(#p35a4b9815f)">
     <use xlink:href="#C0_0_a1a4b4122f" x="73.832727" y="259.907982" style="fill: #6495ed"/>
    </g>
    <g clip-path="url(#p35a4b9815f)">
     <use xlink:href="#C0_0_a1a4b4122f" x="364.396946" y="96.286456" style="fill: #f08080"/>
    </g>
    <g clip-path="url(#p35a4b9815f)">
     <use xlink:href="#C0_0_a1a4b4122f" x="317.166762" y="264.329535" style="fill: #6495ed"/>
    </g>
    <g clip-path="url(#p35a4b9815f)">
     <use xlink:href="#C0_0_a1a4b4122f" x="122.840209" y="66.196842" style="fill: #6495ed"/>
    </g>
    <g clip-path="url(#p35a4b9815f)">
     <use xlink:href="#C0_0_a1a4b4122f" x="398.487273" y="201.673335" style="fill: #6495ed"/>
    </g>
    <g clip-path="url(#p35a4b9815f)">
     <use xlink:href="#C0_0_a1a4b4122f" x="141.406866" y="240.943888" style="fill: #6495ed"/>
    </g>
    <g clip-path="url(#p35a4b9815f)">
     <use xlink:href="#C0_0_a1a4b4122f" x="391.327288" y="263.198104" style="fill: #6495ed"/>
    </g>
    <g clip-path="url(#p35a4b9815f)">
     <use xlink:href="#C0_0_a1a4b4122f" x="351.801402" y="263.825464" style="fill: #6495ed"/>
    </g>
    <g clip-path="url(#p35a4b9815f)">
     <use xlink:href="#C0_0_a1a4b4122f" x="383.657312" y="259.157286" style="fill: #6495ed"/>
    </g>
    <g clip-path="url(#p35a4b9815f)">
     <use xlink:href="#C0_0_a1a4b4122f" x="312.957244" y="235.374014" style="fill: #6495ed"/>
    </g>
    <g clip-path="url(#p35a4b9815f)">
     <use xlink:href="#C0_0_a1a4b4122f" x="326.364356" y="292.276427" style="fill: #6495ed"/>
    </g>
    <g clip-path="url(#p35a4b9815f)">
     <use xlink:href="#C0_0_a1a4b4122f" x="376.214032" y="240.007582" style="fill: #6495ed"/>
    </g>
    <g clip-path="url(#p35a4b9815f)">
     <use xlink:href="#C0_0_a1a4b4122f" x="80.872737" y="75.071843" style="fill: #6495ed"/>
    </g>
    <g clip-path="url(#p35a4b9815f)">
     <use xlink:href="#C0_0_a1a4b4122f" x="109.330204" y="81.526812" style="fill: #6495ed"/>
    </g>
    <g clip-path="url(#p35a4b9815f)">
     <use xlink:href="#C0_0_a1a4b4122f" x="316.678626" y="95.257484" style="fill: #f08080"/>
    </g>
    <g clip-path="url(#p35a4b9815f)">
     <use xlink:href="#C0_0_a1a4b4122f" x="397.189509" y="254.767638" style="fill: #6495ed"/>
    </g>
    <g clip-path="url(#p35a4b9815f)">
     <use xlink:href="#C0_0_a1a4b4122f" x="308.198286" y="295.488" style="fill: #6495ed"/>
    </g>
    <g clip-path="url(#p35a4b9815f)">
     <use xlink:href="#C0_0_a1a4b4122f" x="377.921773" y="271.622879" style="fill: #6495ed"/>
    </g>
    <g clip-path="url(#p35a4b9815f)">
     <use xlink:href="#C0_0_a1a4b4122f" x="155.580587" y="261.914361" style="fill: #6495ed"/>
    </g>
    <g clip-path="url(#p35a4b9815f)">
     <use xlink:href="#C0_0_a1a4b4122f" x="118.295489" y="233.300349" style="fill: #6495ed"/>
    </g>
    <g clip-path="url(#p35a4b9815f)">
     <use xlink:href="#C0_0_a1a4b4122f" x="308.699506" y="78.81793" style="fill: #f08080"/>
    </g>
    <g clip-path="url(#p35a4b9815f)">
     <use xlink:href="#C0_0_a1a4b4122f" x="328.995435" y="101.682781" style="fill: #f08080"/>
    </g>
    <g clip-path="url(#p35a4b9815f)">
     <use xlink:href="#C0_0_a1a4b4122f" x="193.665038" y="61.102247" style="fill: #6495ed"/>
    </g>
    <g clip-path="url(#p35a4b9815f)">
     <use xlink:href="#C0_0_a1a4b4122f" x="355.840404" y="87.870471" style="fill: #f08080"/>
    </g>
    <g clip-path="url(#p35a4b9815f)">
     <use xlink:href="#C0_0_a1a4b4122f" x="89.374504" y="60.082527" style="fill: #6495ed"/>
    </g>
    <g clip-path="url(#p35a4b9815f)">
     <use xlink:href="#C0_0_a1a4b4122f" x="145.06903" y="244.383338" style="fill: #6495ed"/>
    </g>
    <g clip-path="url(#p35a4b9815f)">
     <use xlink:href="#C0_0_a1a4b4122f" x="99.903499" y="246.0624" style="fill: #6495ed"/>
    </g>
    <g clip-path="url(#p35a4b9815f)">
     <use xlink:href="#C0_0_a1a4b4122f" x="306.537133" y="115.998668" style="fill: #f08080"/>
    </g>
    <g clip-path="url(#p35a4b9815f)">
     <use xlink:href="#C0_0_a1a4b4122f" x="340.374834" y="105.089241" style="fill: #f08080"/>
    </g>
    <g clip-path="url(#p35a4b9815f)">
     <use xlink:href="#C0_0_a1a4b4122f" x="137.50167" y="292.896942" style="fill: #6495ed"/>
    </g>
    <g clip-path="url(#p35a4b9815f)">
     <use xlink:href="#C0_0_a1a4b4122f" x="370.822935" y="71.49453" style="fill: #f08080"/>
    </g>
    <g clip-path="url(#p35a4b9815f)">
     <use xlink:href="#C0_0_a1a4b4122f" x="133.04275" y="263.364424" style="fill: #6495ed"/>
    </g>
    <g clip-path="url(#p35a4b9815f)">
     <use xlink:href="#C0_0_a1a4b4122f" x="97.801769" y="239.387239" style="fill: #6495ed"/>
    </g>
    <g clip-path="url(#p35a4b9815f)">
     <use xlink:href="#C0_0_a1a4b4122f" x="314.068004" y="77.897414" style="fill: #f08080"/>
    </g>
    <g clip-path="url(#p35a4b9815f)">
     <use xlink:href="#C0_0_a1a4b4122f" x="363.639247" y="112.793733" style="fill: #f08080"/>
    </g>
    <g clip-path="url(#p35a4b9815f)">
     <use xlink:href="#C0_0_a1a4b4122f" x="337.07621" y="287.2468" style="fill: #6495ed"/>
    </g>
    <g clip-path="url(#p35a4b9815f)">
     <use xlink:href="#C0_0_a1a4b4122f" x="144.805791" y="135.404199" style="fill: #6495ed"/>
    </g>
    <g clip-path="url(#p35a4b9815f)">
     <use xlink:href="#C0_0_a1a4b4122f" x="137.337767" y="251.168014" style="fill: #6495ed"/>
    </g>
    <g clip-path="url(#p35a4b9815f)">
     <use xlink:href="#C0_0_a1a4b4122f" x="134.786537" y="273.275909" style="fill: #6495ed"/>
    </g>
    <g clip-path="url(#p35a4b9815f)">
     <use xlink:href="#C0_0_a1a4b4122f" x="109.153138" y="257.100896" style="fill: #6495ed"/>
    </g>
    <g clip-path="url(#p35a4b9815f)">
     <use xlink:href="#C0_0_a1a4b4122f" x="153.689141" y="101.101178" style="fill: #6495ed"/>
    </g>
    <g clip-path="url(#p35a4b9815f)">
     <use xlink:href="#C0_0_a1a4b4122f" x="347.218327" y="110.226112" style="fill: #f08080"/>
    </g>
    <g clip-path="url(#p35a4b9815f)">
     <use xlink:href="#C0_0_a1a4b4122f" x="357.962976" y="273.535766" style="fill: #6495ed"/>
    </g>
    <g clip-path="url(#p35a4b9815f)">
     <use xlink:href="#C0_0_a1a4b4122f" x="116.81547" y="54.852345" style="fill: #6495ed"/>
    </g>
    <g clip-path="url(#p35a4b9815f)">
     <use xlink:href="#C0_0_a1a4b4122f" x="325.780535" y="88.024914" style="fill: #f08080"/>
    </g>
    <g clip-path="url(#p35a4b9815f)">
     <use xlink:href="#C0_0_a1a4b4122f" x="319.780747" y="68.367044" style="fill: #f08080"/>
    </g>
    <g clip-path="url(#p35a4b9815f)">
     <use xlink:href="#C0_0_a1a4b4122f" x="167.312187" y="256.075803" style="fill: #6495ed"/>
    </g>
    <g clip-path="url(#p35a4b9815f)">
     <use xlink:href="#C0_0_a1a4b4122f" x="116.276054" y="253.673317" style="fill: #6495ed"/>
    </g>
    <g clip-path="url(#p35a4b9815f)">
     <use xlink:href="#C0_0_a1a4b4122f" x="356.596445" y="241.309321" style="fill: #6495ed"/>
    </g>
    <g clip-path="url(#p35a4b9815f)">
     <use xlink:href="#C0_0_a1a4b4122f" x="140.167698" y="244.226093" style="fill: #6495ed"/>
    </g>
    <g clip-path="url(#p35a4b9815f)">
     <use xlink:href="#C0_0_a1a4b4122f" x="116.477451" y="60.718412" style="fill: #6495ed"/>
    </g>
    <g clip-path="url(#p35a4b9815f)">
     <use xlink:href="#C0_0_a1a4b4122f" x="99.319068" y="253.622054" style="fill: #6495ed"/>
    </g>
    <g clip-path="url(#p35a4b9815f)">
     <use xlink:href="#C0_0_a1a4b4122f" x="98.691632" y="243.064632" style="fill: #6495ed"/>
    </g>
    <g clip-path="url(#p35a4b9815f)">
     <use xlink:href="#C0_0_a1a4b4122f" x="329.811483" y="240.634881" style="fill: #6495ed"/>
    </g>
    <g clip-path="url(#p35a4b9815f)">
     <use xlink:href="#C0_0_a1a4b4122f" x="358.108299" y="288.826246" style="fill: #6495ed"/>
    </g>
    <g clip-path="url(#p35a4b9815f)">
     <use xlink:href="#C0_0_a1a4b4122f" x="383.826064" y="86.0392" style="fill: #f08080"/>
    </g>
    <g clip-path="url(#p35a4b9815f)">
     <use xlink:href="#C0_0_a1a4b4122f" x="385.344154" y="60.959929" style="fill: #f08080"/>
    </g>
    <g clip-path="url(#p35a4b9815f)">
     <use xlink:href="#C0_0_a1a4b4122f" x="302.338026" y="90.52372" style="fill: #f08080"/>
    </g>
    <g clip-path="url(#p35a4b9815f)">
     <use xlink:href="#C0_0_a1a4b4122f" x="396.929576" y="79.48904" style="fill: #f08080"/>
    </g>
    <g clip-path="url(#p35a4b9815f)">
     <use xlink:href="#C0_0_a1a4b4122f" x="79.902724" y="94.222267" style="fill: #6495ed"/>
    </g>
    <g clip-path="url(#p35a4b9815f)">
     <use xlink:href="#C0_0_a1a4b4122f" x="135.56163" y="62.374109" style="fill: #6495ed"/>
    </g>
    <g clip-path="url(#p35a4b9815f)">
     <use xlink:href="#C0_0_a1a4b4122f" x="213.858665" y="85.774083" style="fill: #6495ed"/>
    </g>
    <g clip-path="url(#p35a4b9815f)">
     <use xlink:href="#C0_0_a1a4b4122f" x="391.934121" y="245.950417" style="fill: #6495ed"/>
    </g>
    <g clip-path="url(#p35a4b9815f)">
     <use xlink:href="#C0_0_a1a4b4122f" x="314.01191" y="236.531403" style="fill: #6495ed"/>
    </g>
    <g clip-path="url(#p35a4b9815f)">
     <use xlink:href="#C0_0_a1a4b4122f" x="317.185481" y="118.764194" style="fill: #f08080"/>
    </g>
    <g clip-path="url(#p35a4b9815f)">
     <use xlink:href="#C0_0_a1a4b4122f" x="91.665411" y="65.159222" style="fill: #6495ed"/>
    </g>
    <g clip-path="url(#p35a4b9815f)">
     <use xlink:href="#C0_0_a1a4b4122f" x="84.253789" y="90.76183" style="fill: #6495ed"/>
    </g>
    <g clip-path="url(#p35a4b9815f)">
     <use xlink:href="#C0_0_a1a4b4122f" x="149.077601" y="92.226901" style="fill: #6495ed"/>
    </g>
    <g clip-path="url(#p35a4b9815f)">
     <use xlink:href="#C0_0_a1a4b4122f" x="335.130942" y="94.403126" style="fill: #f08080"/>
    </g>
    <g clip-path="url(#p35a4b9815f)">
     <use xlink:href="#C0_0_a1a4b4122f" x="363.876022" y="247.158973" style="fill: #6495ed"/>
    </g>
    <g clip-path="url(#p35a4b9815f)">
     <use xlink:href="#C0_0_a1a4b4122f" x="142.018036" y="110.06095" style="fill: #6495ed"/>
    </g>
    <g clip-path="url(#p35a4b9815f)">
     <use xlink:href="#C0_0_a1a4b4122f" x="155.943874" y="238.432362" style="fill: #6495ed"/>
    </g>
    <g clip-path="url(#p35a4b9815f)">
     <use xlink:href="#C0_0_a1a4b4122f" x="386.96229" y="103.093928" style="fill: #f08080"/>
    </g>
    <g clip-path="url(#p35a4b9815f)">
     <use xlink:href="#C0_0_a1a4b4122f" x="98.785226" y="284.486192" style="fill: #6495ed"/>
    </g>
   </g>
   <g id="matplotlib.axis_1">
    <g id="xtick_1">
     <g id="line2d_1">
      <defs>
       <path id="maaeb3e24a7" d="M 0 0 
L 0 3.5 
" style="stroke: #000000; stroke-width: 0.8"/>
      </defs>
      <g>
       <use xlink:href="#maaeb3e24a7" x="73.787606" y="307.584" style="stroke: #000000; stroke-width: 0.8"/>
      </g>
     </g>
    </g>
    <g id="xtick_2">
     <g id="line2d_2">
      <g>
       <use xlink:href="#maaeb3e24a7" x="120.26916" y="307.584" style="stroke: #000000; stroke-width: 0.8"/>
      </g>
     </g>
    </g>
    <g id="xtick_3">
     <g id="line2d_3">
      <g>
       <use xlink:href="#maaeb3e24a7" x="166.750714" y="307.584" style="stroke: #000000; stroke-width: 0.8"/>
      </g>
     </g>
    </g>
    <g id="xtick_4">
     <g id="line2d_4">
      <g>
       <use xlink:href="#maaeb3e24a7" x="213.232269" y="307.584" style="stroke: #000000; stroke-width: 0.8"/>
      </g>
     </g>
    </g>
    <g id="xtick_5">
     <g id="line2d_5">
      <g>
       <use xlink:href="#maaeb3e24a7" x="259.713823" y="307.584" style="stroke: #000000; stroke-width: 0.8"/>
      </g>
     </g>
    </g>
    <g id="xtick_6">
     <g id="line2d_6">
      <g>
       <use xlink:href="#maaeb3e24a7" x="306.195377" y="307.584" style="stroke: #000000; stroke-width: 0.8"/>
      </g>
     </g>
    </g>
    <g id="xtick_7">
     <g id="line2d_7">
      <g>
       <use xlink:href="#maaeb3e24a7" x="352.676931" y="307.584" style="stroke: #000000; stroke-width: 0.8"/>
      </g>
     </g>
    </g>
    <g id="xtick_8">
     <g id="line2d_8">
      <g>
       <use xlink:href="#maaeb3e24a7" x="399.158486" y="307.584" style="stroke: #000000; stroke-width: 0.8"/>
      </g>
     </g>
    </g>
    <g id="text_1">
     <!-- - -->
     <g transform="translate(234.356094 326.182437) scale(0.1 -0.1)">
      <defs>
       <path id="DejaVuSans-2d" d="M 313 2009 
L 1997 2009 
L 1997 1497 
L 313 1497 
L 313 2009 
z
" transform="scale(0.015625)"/>
      </defs>
      <use xlink:href="#DejaVuSans-2d"/>
     </g>
    </g>
   </g>
   <g id="matplotlib.axis_2">
    <g id="ytick_1">
     <g id="line2d_9">
      <defs>
       <path id="mc4d57fe639" d="M 0 0 
L -3.5 0 
" style="stroke: #000000; stroke-width: 0.8"/>
      </defs>
      <g>
       <use xlink:href="#mc4d57fe639" x="57.6" y="295.786624" style="stroke: #000000; stroke-width: 0.8"/>
      </g>
     </g>
    </g>
    <g id="ytick_2">
     <g id="line2d_10">
      <g>
       <use xlink:href="#mc4d57fe639" x="57.6" y="261.183602" style="stroke: #000000; stroke-width: 0.8"/>
      </g>
     </g>
    </g>
    <g id="ytick_3">
     <g id="line2d_11">
      <g>
       <use xlink:href="#mc4d57fe639" x="57.6" y="226.58058" style="stroke: #000000; stroke-width: 0.8"/>
      </g>
     </g>
    </g>
    <g id="ytick_4">
     <g id="line2d_12">
      <g>
       <use xlink:href="#mc4d57fe639" x="57.6" y="191.977558" style="stroke: #000000; stroke-width: 0.8"/>
      </g>
     </g>
    </g>
    <g id="ytick_5">
     <g id="line2d_13">
      <g>
       <use xlink:href="#mc4d57fe639" x="57.6" y="157.374536" style="stroke: #000000; stroke-width: 0.8"/>
      </g>
     </g>
    </g>
    <g id="ytick_6">
     <g id="line2d_14">
      <g>
       <use xlink:href="#mc4d57fe639" x="57.6" y="122.771513" style="stroke: #000000; stroke-width: 0.8"/>
      </g>
     </g>
    </g>
    <g id="ytick_7">
     <g id="line2d_15">
      <g>
       <use xlink:href="#mc4d57fe639" x="57.6" y="88.168491" style="stroke: #000000; stroke-width: 0.8"/>
      </g>
     </g>
    </g>
    <g id="ytick_8">
     <g id="line2d_16">
      <g>
       <use xlink:href="#mc4d57fe639" x="57.6" y="53.565469" style="stroke: #000000; stroke-width: 0.8"/>
      </g>
     </g>
    </g>
    <g id="text_2">
     <!-- - -->
     <g transform="translate(44.520313 176.331906) rotate(-90) scale(0.1 -0.1)">
      <use xlink:href="#DejaVuSans-2d"/>
     </g>
    </g>
   </g>
   <g id="line2d_17"/>
   <g id="line2d_18"/>
   <g id="patch_3">
    <path d="M 57.6 307.584 
L 57.6 41.472 
" style="fill: none; stroke: #000000; stroke-width: 0.8; stroke-linejoin: miter; stroke-linecap: square"/>
   </g>
   <g id="patch_4">
    <path d="M 414.72 307.584 
L 414.72 41.472 
" style="fill: none; stroke: #000000; stroke-width: 0.8; stroke-linejoin: miter; stroke-linecap: square"/>
   </g>
   <g id="patch_5">
    <path d="M 57.6 307.584 
L 414.72 307.584 
" style="fill: none; stroke: #000000; stroke-width: 0.8; stroke-linejoin: miter; stroke-linecap: square"/>
   </g>
   <g id="patch_6">
    <path d="M 57.6 41.472 
L 414.72 41.472 
" style="fill: none; stroke: #000000; stroke-width: 0.8; stroke-linejoin: miter; stroke-linecap: square"/>
   </g>
   <g id="legend_1">
    <g id="patch_7">
     <path d="M 64.6 198.045187 
L 115.415625 198.045187 
Q 117.415625 198.045187 117.415625 196.045187 
L 117.415625 153.010812 
Q 117.415625 151.010812 115.415625 151.010812 
L 64.6 151.010812 
Q 62.6 151.010812 62.6 153.010812 
L 62.6 196.045187 
Q 62.6 198.045187 64.6 198.045187 
z
" style="fill: #ffffff; opacity: 0.8; stroke: #cccccc; stroke-linejoin: miter"/>
    </g>
    <g id="text_3">
     <!-- species -->
     <g transform="translate(71.332812 162.60925) scale(0.1 -0.1)">
      <defs>
       <path id="DejaVuSans-73" d="M 2834 3397 
L 2834 2853 
Q 2591 2978 2328 3040 
Q 2066 3103 1784 3103 
Q 1356 3103 1142 2972 
Q 928 2841 928 2578 
Q 928 2378 1081 2264 
Q 1234 2150 1697 2047 
L 1894 2003 
Q 2506 1872 2764 1633 
Q 3022 1394 3022 966 
Q 3022 478 2636 193 
Q 2250 -91 1575 -91 
Q 1294 -91 989 -36 
Q 684 19 347 128 
L 347 722 
Q 666 556 975 473 
Q 1284 391 1588 391 
Q 1994 391 2212 530 
Q 2431 669 2431 922 
Q 2431 1156 2273 1281 
Q 2116 1406 1581 1522 
L 1381 1569 
Q 847 1681 609 1914 
Q 372 2147 372 2553 
Q 372 3047 722 3315 
Q 1072 3584 1716 3584 
Q 2034 3584 2315 3537 
Q 2597 3491 2834 3397 
z
" transform="scale(0.015625)"/>
       <path id="DejaVuSans-70" d="M 1159 525 
L 1159 -1331 
L 581 -1331 
L 581 3500 
L 1159 3500 
L 1159 2969 
Q 1341 3281 1617 3432 
Q 1894 3584 2278 3584 
Q 2916 3584 3314 3078 
Q 3713 2572 3713 1747 
Q 3713 922 3314 415 
Q 2916 -91 2278 -91 
Q 1894 -91 1617 61 
Q 1341 213 1159 525 
z
M 3116 1747 
Q 3116 2381 2855 2742 
Q 2594 3103 2138 3103 
Q 1681 3103 1420 2742 
Q 1159 2381 1159 1747 
Q 1159 1113 1420 752 
Q 1681 391 2138 391 
Q 2594 391 2855 752 
Q 3116 1113 3116 1747 
z
" transform="scale(0.015625)"/>
       <path id="DejaVuSans-65" d="M 3597 1894 
L 3597 1613 
L 953 1613 
Q 991 1019 1311 708 
Q 1631 397 2203 397 
Q 2534 397 2845 478 
Q 3156 559 3463 722 
L 3463 178 
Q 3153 47 2828 -22 
Q 2503 -91 2169 -91 
Q 1331 -91 842 396 
Q 353 884 353 1716 
Q 353 2575 817 3079 
Q 1281 3584 2069 3584 
Q 2775 3584 3186 3129 
Q 3597 2675 3597 1894 
z
M 3022 2063 
Q 3016 2534 2758 2815 
Q 2500 3097 2075 3097 
Q 1594 3097 1305 2825 
Q 1016 2553 972 2059 
L 3022 2063 
z
" transform="scale(0.015625)"/>
       <path id="DejaVuSans-63" d="M 3122 3366 
L 3122 2828 
Q 2878 2963 2633 3030 
Q 2388 3097 2138 3097 
Q 1578 3097 1268 2742 
Q 959 2388 959 1747 
Q 959 1106 1268 751 
Q 1578 397 2138 397 
Q 2388 397 2633 464 
Q 2878 531 3122 666 
L 3122 134 
Q 2881 22 2623 -34 
Q 2366 -91 2075 -91 
Q 1284 -91 818 406 
Q 353 903 353 1747 
Q 353 2603 823 3093 
Q 1294 3584 2113 3584 
Q 2378 3584 2631 3529 
Q 2884 3475 3122 3366 
z
" transform="scale(0.015625)"/>
       <path id="DejaVuSans-69" d="M 603 3500 
L 1178 3500 
L 1178 0 
L 603 0 
L 603 3500 
z
M 603 4863 
L 1178 4863 
L 1178 4134 
L 603 4134 
L 603 4863 
z
" transform="scale(0.015625)"/>
      </defs>
      <use xlink:href="#DejaVuSans-73"/>
      <use xlink:href="#DejaVuSans-70" x="52.099609"/>
      <use xlink:href="#DejaVuSans-65" x="115.576172"/>
      <use xlink:href="#DejaVuSans-63" x="177.099609"/>
      <use xlink:href="#DejaVuSans-69" x="232.080078"/>
      <use xlink:href="#DejaVuSans-65" x="259.863281"/>
      <use xlink:href="#DejaVuSans-73" x="321.386719"/>
     </g>
    </g>
    <g id="line2d_19">
     <defs>
      <path id="m129cbc9c9f" d="M 0 3 
C 0.795609 3 1.55874 2.683901 2.12132 2.12132 
C 2.683901 1.55874 3 0.795609 3 0 
C 3 -0.795609 2.683901 -1.55874 2.12132 -2.12132 
C 1.55874 -2.683901 0.795609 -3 0 -3 
C -0.795609 -3 -1.55874 -2.683901 -2.12132 -2.12132 
C -2.683901 -1.55874 -3 -0.795609 -3 0 
C -3 0.795609 -2.683901 1.55874 -2.12132 2.12132 
C -1.55874 2.683901 -0.795609 3 0 3 
z
"/>
     </defs>
     <g>
      <use xlink:href="#m129cbc9c9f" x="76.6" y="173.787375" style="fill: #f08080"/>
     </g>
    </g>
    <g id="text_4">
     <!-- dog -->
     <g transform="translate(94.6 177.287375) scale(0.1 -0.1)">
      <defs>
       <path id="DejaVuSans-64" d="M 2906 2969 
L 2906 4863 
L 3481 4863 
L 3481 0 
L 2906 0 
L 2906 525 
Q 2725 213 2448 61 
Q 2172 -91 1784 -91 
Q 1150 -91 751 415 
Q 353 922 353 1747 
Q 353 2572 751 3078 
Q 1150 3584 1784 3584 
Q 2172 3584 2448 3432 
Q 2725 3281 2906 2969 
z
M 947 1747 
Q 947 1113 1208 752 
Q 1469 391 1925 391 
Q 2381 391 2643 752 
Q 2906 1113 2906 1747 
Q 2906 2381 2643 2742 
Q 2381 3103 1925 3103 
Q 1469 3103 1208 2742 
Q 947 2381 947 1747 
z
" transform="scale(0.015625)"/>
       <path id="DejaVuSans-6f" d="M 1959 3097 
Q 1497 3097 1228 2736 
Q 959 2375 959 1747 
Q 959 1119 1226 758 
Q 1494 397 1959 397 
Q 2419 397 2687 759 
Q 2956 1122 2956 1747 
Q 2956 2369 2687 2733 
Q 2419 3097 1959 3097 
z
M 1959 3584 
Q 2709 3584 3137 3096 
Q 3566 2609 3566 1747 
Q 3566 888 3137 398 
Q 2709 -91 1959 -91 
Q 1206 -91 779 398 
Q 353 888 353 1747 
Q 353 2609 779 3096 
Q 1206 3584 1959 3584 
z
" transform="scale(0.015625)"/>
       <path id="DejaVuSans-67" d="M 2906 1791 
Q 2906 2416 2648 2759 
Q 2391 3103 1925 3103 
Q 1463 3103 1205 2759 
Q 947 2416 947 1791 
Q 947 1169 1205 825 
Q 1463 481 1925 481 
Q 2391 481 2648 825 
Q 2906 1169 2906 1791 
z
M 3481 434 
Q 3481 -459 3084 -895 
Q 2688 -1331 1869 -1331 
Q 1566 -1331 1297 -1286 
Q 1028 -1241 775 -1147 
L 775 -588 
Q 1028 -725 1275 -790 
Q 1522 -856 1778 -856 
Q 2344 -856 2625 -561 
Q 2906 -266 2906 331 
L 2906 616 
Q 2728 306 2450 153 
Q 2172 0 1784 0 
Q 1141 0 747 490 
Q 353 981 353 1791 
Q 353 2603 747 3093 
Q 1141 3584 1784 3584 
Q 2172 3584 2450 3431 
Q 2728 3278 2906 2969 
L 2906 3500 
L 3481 3500 
L 3481 434 
z
" transform="scale(0.015625)"/>
      </defs>
      <use xlink:href="#DejaVuSans-64"/>
      <use xlink:href="#DejaVuSans-6f" x="63.476562"/>
      <use xlink:href="#DejaVuSans-67" x="124.658203"/>
     </g>
    </g>
    <g id="line2d_20">
     <defs>
      <path id="md5f35b008f" d="M 0 3 
C 0.795609 3 1.55874 2.683901 2.12132 2.12132 
C 2.683901 1.55874 3 0.795609 3 0 
C 3 -0.795609 2.683901 -1.55874 2.12132 -2.12132 
C 1.55874 -2.683901 0.795609 -3 0 -3 
C -0.795609 -3 -1.55874 -2.683901 -2.12132 -2.12132 
C -2.683901 -1.55874 -3 -0.795609 -3 0 
C -3 0.795609 -2.683901 1.55874 -2.12132 2.12132 
C -1.55874 2.683901 -0.795609 3 0 3 
z
"/>
     </defs>
     <g>
      <use xlink:href="#md5f35b008f" x="76.6" y="188.4655" style="fill: #6495ed"/>
     </g>
    </g>
    <g id="text_5">
     <!-- cat -->
     <g transform="translate(94.6 191.9655) scale(0.1 -0.1)">
      <defs>
       <path id="DejaVuSans-61" d="M 2194 1759 
Q 1497 1759 1228 1600 
Q 959 1441 959 1056 
Q 959 750 1161 570 
Q 1363 391 1709 391 
Q 2188 391 2477 730 
Q 2766 1069 2766 1631 
L 2766 1759 
L 2194 1759 
z
M 3341 1997 
L 3341 0 
L 2766 0 
L 2766 531 
Q 2569 213 2275 61 
Q 1981 -91 1556 -91 
Q 1019 -91 701 211 
Q 384 513 384 1019 
Q 384 1609 779 1909 
Q 1175 2209 1959 2209 
L 2766 2209 
L 2766 2266 
Q 2766 2663 2505 2880 
Q 2244 3097 1772 3097 
Q 1472 3097 1187 3025 
Q 903 2953 641 2809 
L 641 3341 
Q 956 3463 1253 3523 
Q 1550 3584 1831 3584 
Q 2591 3584 2966 3190 
Q 3341 2797 3341 1997 
z
" transform="scale(0.015625)"/>
       <path id="DejaVuSans-74" d="M 1172 4494 
L 1172 3500 
L 2356 3500 
L 2356 3053 
L 1172 3053 
L 1172 1153 
Q 1172 725 1289 603 
Q 1406 481 1766 481 
L 2356 481 
L 2356 0 
L 1766 0 
Q 1100 0 847 248 
Q 594 497 594 1153 
L 594 3053 
L 172 3053 
L 172 3500 
L 594 3500 
L 594 4494 
L 1172 4494 
z
" transform="scale(0.015625)"/>
      </defs>
      <use xlink:href="#DejaVuSans-63"/>
      <use xlink:href="#DejaVuSans-61" x="54.980469"/>
      <use xlink:href="#DejaVuSans-74" x="116.259766"/>
     </g>
    </g>
   </g>
  </g>
 </g>
 <defs>
  <clipPath id="p35a4b9815f">
   <rect x="57.6" y="41.472" width="357.12" height="266.112"/>
  </clipPath>
 </defs>
</svg>
