<?xml version="1.0" encoding="utf-8" standalone="no"?>
<!DOCTYPE svg PUBLIC "-//W3C//DTD SVG 1.1//EN"
  "http://www.w3.org/Graphics/SVG/1.1/DTD/svg11.dtd">
<svg xmlns:xlink="http://www.w3.org/1999/xlink" width="460.8pt" height="345.6pt" viewBox="0 0 460.8 345.6" xmlns="http://www.w3.org/2000/svg" version="1.1">
 <metadata>
  <rdf:RDF xmlns:dc="http://purl.org/dc/elements/1.1/" xmlns:cc="http://creativecommons.org/ns#" xmlns:rdf="http://www.w3.org/1999/02/22-rdf-syntax-ns#">
   <cc:Work>
    <dc:type rdf:resource="http://purl.org/dc/dcmitype/StillImage"/>
    <dc:date>2024-11-04T15:28:02.905683</dc:date>
    <dc:format>image/svg+xml</dc:format>
    <dc:creator>
     <cc:Agent>
      <dc:title>Matplotlib v3.9.2, https://matplotlib.org/</dc:title>
     </cc:Agent>
    </dc:creator>
   </cc:Work>
  </rdf:RDF>
 </metadata>
 <defs>
  <style type="text/css">*{stroke-linejoin: round; stroke-linecap: butt}</style>
 </defs>
 <g id="figure_1">
  <g id="patch_1">
   <path d="M 0 345.6 
L 460.8 345.6 
L 460.8 0 
L 0 0 
z
" style="fill: #ffffff"/>
  </g>
  <g id="axes_1">
   <g id="patch_2">
    <path d="M 57.6 307.584 
L 414.72 307.584 
L 414.72 41.472 
L 57.6 41.472 
z
" style="fill: #ffffff"/>
   </g>
   <g id="PathCollection_1">
    <defs>
     <path id="C0_0_a0209e613d" d="M 0 3 
C 0.795609 3 1.55874 2.683901 2.12132 2.12132 
C 2.683901 1.55874 3 0.795609 3 -0 
C 3 -0.795609 2.683901 -1.55874 2.12132 -2.12132 
C 1.55874 -2.683901 0.795609 -3 0 -3 
C -0.795609 -3 -1.55874 -2.683901 -2.12132 -2.12132 
C -2.683901 -1.55874 -3 -0.795609 -3 0 
C -3 0.795609 -2.683901 1.55874 -2.12132 2.12132 
C -1.55874 2.683901 -0.795609 3 0 3 
z
"/>
    </defs>
    <g clip-path="url(#p2b9d4580ba)">
     <use xlink:href="#C0_0_a0209e613d" x="236.142548" y="53.581005" style="fill: #f08080"/>
    </g>
    <g clip-path="url(#p2b9d4580ba)">
     <use xlink:href="#C0_0_a0209e613d" x="77.207097" y="172.01355" style="fill: #6495ed"/>
    </g>
    <g clip-path="url(#p2b9d4580ba)">
     <use xlink:href="#C0_0_a0209e613d" x="398.487273" y="174.528" style="fill: #6495ed"/>
    </g>
    <g clip-path="url(#p2b9d4580ba)">
     <use xlink:href="#C0_0_a0209e613d" x="236.16" y="295.488" style="fill: #6495ed"/>
    </g>
    <g clip-path="url(#p2b9d4580ba)">
     <use xlink:href="#C0_0_a0209e613d" x="236.16" y="53.568" style="fill: #f08080"/>
    </g>
    <g clip-path="url(#p2b9d4580ba)">
     <use xlink:href="#C0_0_a0209e613d" x="236.16" y="295.488" style="fill: #6495ed"/>
    </g>
    <g clip-path="url(#p2b9d4580ba)">
     <use xlink:href="#C0_0_a0209e613d" x="397.883544" y="174.977875" style="fill: #6495ed"/>
    </g>
    <g clip-path="url(#p2b9d4580ba)">
     <use xlink:href="#C0_0_a0209e613d" x="236.16" y="53.568" style="fill: #f08080"/>
    </g>
    <g clip-path="url(#p2b9d4580ba)">
     <use xlink:href="#C0_0_a0209e613d" x="236.16" y="53.568" style="fill: #f08080"/>
    </g>
    <g clip-path="url(#p2b9d4580ba)">
     <use xlink:href="#C0_0_a0209e613d" x="398.487273" y="174.528" style="fill: #6495ed"/>
    </g>
    <g clip-path="url(#p2b9d4580ba)">
     <use xlink:href="#C0_0_a0209e613d" x="236.16" y="53.568" style="fill: #f08080"/>
    </g>
    <g clip-path="url(#p2b9d4580ba)">
     <use xlink:href="#C0_0_a0209e613d" x="398.487273" y="174.528" style="fill: #6495ed"/>
    </g>
    <g clip-path="url(#p2b9d4580ba)">
     <use xlink:href="#C0_0_a0209e613d" x="236.16" y="295.488" style="fill: #6495ed"/>
    </g>
    <g clip-path="url(#p2b9d4580ba)">
     <use xlink:href="#C0_0_a0209e613d" x="331.323405" y="124.480086" style="fill: #6495ed"/>
    </g>
    <g clip-path="url(#p2b9d4580ba)">
     <use xlink:href="#C0_0_a0209e613d" x="398.487273" y="174.528" style="fill: #6495ed"/>
    </g>
    <g clip-path="url(#p2b9d4580ba)">
     <use xlink:href="#C0_0_a0209e613d" x="387.943871" y="166.754043" style="fill: #6495ed"/>
    </g>
    <g clip-path="url(#p2b9d4580ba)">
     <use xlink:href="#C0_0_a0209e613d" x="398.487273" y="174.528" style="fill: #6495ed"/>
    </g>
    <g clip-path="url(#p2b9d4580ba)">
     <use xlink:href="#C0_0_a0209e613d" x="236.16" y="53.568" style="fill: #f08080"/>
    </g>
    <g clip-path="url(#p2b9d4580ba)">
     <use xlink:href="#C0_0_a0209e613d" x="236.16" y="53.568" style="fill: #f08080"/>
    </g>
    <g clip-path="url(#p2b9d4580ba)">
     <use xlink:href="#C0_0_a0209e613d" x="236.16" y="53.568" style="fill: #f08080"/>
    </g>
    <g clip-path="url(#p2b9d4580ba)">
     <use xlink:href="#C0_0_a0209e613d" x="236.16" y="53.568" style="fill: #f08080"/>
    </g>
    <g clip-path="url(#p2b9d4580ba)">
     <use xlink:href="#C0_0_a0209e613d" x="398.487273" y="174.528" style="fill: #6495ed"/>
    </g>
    <g clip-path="url(#p2b9d4580ba)">
     <use xlink:href="#C0_0_a0209e613d" x="223.737106" y="286.23094" style="fill: #6495ed"/>
    </g>
    <g clip-path="url(#p2b9d4580ba)">
     <use xlink:href="#C0_0_a0209e613d" x="73.955834" y="174.619735" style="fill: #6495ed"/>
    </g>
    <g clip-path="url(#p2b9d4580ba)">
     <use xlink:href="#C0_0_a0209e613d" x="236.16" y="53.568" style="fill: #f08080"/>
    </g>
    <g clip-path="url(#p2b9d4580ba)">
     <use xlink:href="#C0_0_a0209e613d" x="236.16" y="295.488" style="fill: #6495ed"/>
    </g>
    <g clip-path="url(#p2b9d4580ba)">
     <use xlink:href="#C0_0_a0209e613d" x="245.013598" y="60.165359" style="fill: #f08080"/>
    </g>
    <g clip-path="url(#p2b9d4580ba)">
     <use xlink:href="#C0_0_a0209e613d" x="73.832727" y="174.528" style="fill: #6495ed"/>
    </g>
    <g clip-path="url(#p2b9d4580ba)">
     <use xlink:href="#C0_0_a0209e613d" x="236.16" y="53.568" style="fill: #f08080"/>
    </g>
    <g clip-path="url(#p2b9d4580ba)">
     <use xlink:href="#C0_0_a0209e613d" x="73.832727" y="174.528" style="fill: #6495ed"/>
    </g>
    <g clip-path="url(#p2b9d4580ba)">
     <use xlink:href="#C0_0_a0209e613d" x="236.16" y="295.488" style="fill: #6495ed"/>
    </g>
    <g clip-path="url(#p2b9d4580ba)">
     <use xlink:href="#C0_0_a0209e613d" x="398.487273" y="174.528" style="fill: #6495ed"/>
    </g>
    <g clip-path="url(#p2b9d4580ba)">
     <use xlink:href="#C0_0_a0209e613d" x="73.832727" y="174.528" style="fill: #6495ed"/>
    </g>
    <g clip-path="url(#p2b9d4580ba)">
     <use xlink:href="#C0_0_a0209e613d" x="236.16" y="295.488" style="fill: #6495ed"/>
    </g>
    <g clip-path="url(#p2b9d4580ba)">
     <use xlink:href="#C0_0_a0209e613d" x="73.832727" y="174.528" style="fill: #6495ed"/>
    </g>
    <g clip-path="url(#p2b9d4580ba)">
     <use xlink:href="#C0_0_a0209e613d" x="73.832727" y="174.528" style="fill: #6495ed"/>
    </g>
    <g clip-path="url(#p2b9d4580ba)">
     <use xlink:href="#C0_0_a0209e613d" x="236.16" y="53.568" style="fill: #f08080"/>
    </g>
    <g clip-path="url(#p2b9d4580ba)">
     <use xlink:href="#C0_0_a0209e613d" x="236.16" y="53.568" style="fill: #f08080"/>
    </g>
    <g clip-path="url(#p2b9d4580ba)">
     <use xlink:href="#C0_0_a0209e613d" x="236.16" y="53.568" style="fill: #f08080"/>
    </g>
    <g clip-path="url(#p2b9d4580ba)">
     <use xlink:href="#C0_0_a0209e613d" x="398.487273" y="174.528" style="fill: #6495ed"/>
    </g>
    <g clip-path="url(#p2b9d4580ba)">
     <use xlink:href="#C0_0_a0209e613d" x="398.487273" y="174.528" style="fill: #6495ed"/>
    </g>
    <g clip-path="url(#p2b9d4580ba)">
     <use xlink:href="#C0_0_a0209e613d" x="236.16" y="53.568" style="fill: #f08080"/>
    </g>
    <g clip-path="url(#p2b9d4580ba)">
     <use xlink:href="#C0_0_a0209e613d" x="398.484604" y="174.529989" style="fill: #6495ed"/>
    </g>
    <g clip-path="url(#p2b9d4580ba)">
     <use xlink:href="#C0_0_a0209e613d" x="236.155732" y="53.571181" style="fill: #f08080"/>
    </g>
    <g clip-path="url(#p2b9d4580ba)">
     <use xlink:href="#C0_0_a0209e613d" x="236.16" y="53.568" style="fill: #f08080"/>
    </g>
    <g clip-path="url(#p2b9d4580ba)">
     <use xlink:href="#C0_0_a0209e613d" x="236.875509" y="54.101169" style="fill: #f08080"/>
    </g>
    <g clip-path="url(#p2b9d4580ba)">
     <use xlink:href="#C0_0_a0209e613d" x="398.487273" y="174.528" style="fill: #6495ed"/>
    </g>
    <g clip-path="url(#p2b9d4580ba)">
     <use xlink:href="#C0_0_a0209e613d" x="233.548362" y="293.541908" style="fill: #6495ed"/>
    </g>
    <g clip-path="url(#p2b9d4580ba)">
     <use xlink:href="#C0_0_a0209e613d" x="398.487273" y="174.528" style="fill: #6495ed"/>
    </g>
    <g clip-path="url(#p2b9d4580ba)">
     <use xlink:href="#C0_0_a0209e613d" x="398.487273" y="174.528" style="fill: #6495ed"/>
    </g>
    <g clip-path="url(#p2b9d4580ba)">
     <use xlink:href="#C0_0_a0209e613d" x="236.16" y="53.568" style="fill: #f08080"/>
    </g>
    <g clip-path="url(#p2b9d4580ba)">
     <use xlink:href="#C0_0_a0209e613d" x="397.111596" y="175.5531" style="fill: #6495ed"/>
    </g>
    <g clip-path="url(#p2b9d4580ba)">
     <use xlink:href="#C0_0_a0209e613d" x="236.16" y="295.488" style="fill: #6495ed"/>
    </g>
    <g clip-path="url(#p2b9d4580ba)">
     <use xlink:href="#C0_0_a0209e613d" x="236.16" y="295.488" style="fill: #6495ed"/>
    </g>
    <g clip-path="url(#p2b9d4580ba)">
     <use xlink:href="#C0_0_a0209e613d" x="236.16" y="295.488" style="fill: #6495ed"/>
    </g>
    <g clip-path="url(#p2b9d4580ba)">
     <use xlink:href="#C0_0_a0209e613d" x="236.16" y="295.488" style="fill: #6495ed"/>
    </g>
    <g clip-path="url(#p2b9d4580ba)">
     <use xlink:href="#C0_0_a0209e613d" x="236.16" y="295.488" style="fill: #6495ed"/>
    </g>
    <g clip-path="url(#p2b9d4580ba)">
     <use xlink:href="#C0_0_a0209e613d" x="236.160151" y="53.568113" style="fill: #f08080"/>
    </g>
    <g clip-path="url(#p2b9d4580ba)">
     <use xlink:href="#C0_0_a0209e613d" x="286.702621" y="257.825595" style="fill: #6495ed"/>
    </g>
    <g clip-path="url(#p2b9d4580ba)">
     <use xlink:href="#C0_0_a0209e613d" x="237.490065" y="54.559113" style="fill: #f08080"/>
    </g>
    <g clip-path="url(#p2b9d4580ba)">
     <use xlink:href="#C0_0_a0209e613d" x="236.16" y="295.488" style="fill: #6495ed"/>
    </g>
    <g clip-path="url(#p2b9d4580ba)">
     <use xlink:href="#C0_0_a0209e613d" x="398.487273" y="174.528" style="fill: #6495ed"/>
    </g>
    <g clip-path="url(#p2b9d4580ba)">
     <use xlink:href="#C0_0_a0209e613d" x="398.487273" y="174.528" style="fill: #6495ed"/>
    </g>
    <g clip-path="url(#p2b9d4580ba)">
     <use xlink:href="#C0_0_a0209e613d" x="236.16" y="295.488" style="fill: #6495ed"/>
    </g>
    <g clip-path="url(#p2b9d4580ba)">
     <use xlink:href="#C0_0_a0209e613d" x="236.16" y="53.568" style="fill: #f08080"/>
    </g>
    <g clip-path="url(#p2b9d4580ba)">
     <use xlink:href="#C0_0_a0209e613d" x="398.487273" y="174.528" style="fill: #6495ed"/>
    </g>
    <g clip-path="url(#p2b9d4580ba)">
     <use xlink:href="#C0_0_a0209e613d" x="73.832727" y="174.528" style="fill: #6495ed"/>
    </g>
    <g clip-path="url(#p2b9d4580ba)">
     <use xlink:href="#C0_0_a0209e613d" x="236.16" y="295.488" style="fill: #6495ed"/>
    </g>
    <g clip-path="url(#p2b9d4580ba)">
     <use xlink:href="#C0_0_a0209e613d" x="73.832727" y="174.528" style="fill: #6495ed"/>
    </g>
    <g clip-path="url(#p2b9d4580ba)">
     <use xlink:href="#C0_0_a0209e613d" x="394.419565" y="177.559098" style="fill: #6495ed"/>
    </g>
    <g clip-path="url(#p2b9d4580ba)">
     <use xlink:href="#C0_0_a0209e613d" x="398.487273" y="174.528" style="fill: #6495ed"/>
    </g>
    <g clip-path="url(#p2b9d4580ba)">
     <use xlink:href="#C0_0_a0209e613d" x="275.867232" y="264.418541" style="fill: #6495ed"/>
    </g>
    <g clip-path="url(#p2b9d4580ba)">
     <use xlink:href="#C0_0_a0209e613d" x="398.485517" y="174.526692" style="fill: #6495ed"/>
    </g>
    <g clip-path="url(#p2b9d4580ba)">
     <use xlink:href="#C0_0_a0209e613d" x="73.832789" y="174.528046" style="fill: #6495ed"/>
    </g>
    <g clip-path="url(#p2b9d4580ba)">
     <use xlink:href="#C0_0_a0209e613d" x="73.832727" y="174.528" style="fill: #6495ed"/>
    </g>
    <g clip-path="url(#p2b9d4580ba)">
     <use xlink:href="#C0_0_a0209e613d" x="236.134291" y="295.468843" style="fill: #6495ed"/>
    </g>
    <g clip-path="url(#p2b9d4580ba)">
     <use xlink:href="#C0_0_a0209e613d" x="236.16" y="295.488" style="fill: #6495ed"/>
    </g>
    <g clip-path="url(#p2b9d4580ba)">
     <use xlink:href="#C0_0_a0209e613d" x="236.16" y="53.568" style="fill: #f08080"/>
    </g>
    <g clip-path="url(#p2b9d4580ba)">
     <use xlink:href="#C0_0_a0209e613d" x="398.486058" y="174.528905" style="fill: #6495ed"/>
    </g>
    <g clip-path="url(#p2b9d4580ba)">
     <use xlink:href="#C0_0_a0209e613d" x="73.832727" y="174.528" style="fill: #6495ed"/>
    </g>
    <g clip-path="url(#p2b9d4580ba)">
     <use xlink:href="#C0_0_a0209e613d" x="358.335329" y="144.608326" style="fill: #6495ed"/>
    </g>
    <g clip-path="url(#p2b9d4580ba)">
     <use xlink:href="#C0_0_a0209e613d" x="236.16" y="295.488" style="fill: #6495ed"/>
    </g>
    <g clip-path="url(#p2b9d4580ba)">
     <use xlink:href="#C0_0_a0209e613d" x="398.487273" y="174.528" style="fill: #6495ed"/>
    </g>
    <g clip-path="url(#p2b9d4580ba)">
     <use xlink:href="#C0_0_a0209e613d" x="398.487273" y="174.528" style="fill: #6495ed"/>
    </g>
    <g clip-path="url(#p2b9d4580ba)">
     <use xlink:href="#C0_0_a0209e613d" x="398.487273" y="174.528" style="fill: #6495ed"/>
    </g>
    <g clip-path="url(#p2b9d4580ba)">
     <use xlink:href="#C0_0_a0209e613d" x="398.384426" y="174.603904" style="fill: #6495ed"/>
    </g>
    <g clip-path="url(#p2b9d4580ba)">
     <use xlink:href="#C0_0_a0209e613d" x="398.487273" y="174.528" style="fill: #6495ed"/>
    </g>
    <g clip-path="url(#p2b9d4580ba)">
     <use xlink:href="#C0_0_a0209e613d" x="398.487272" y="174.528" style="fill: #6495ed"/>
    </g>
    <g clip-path="url(#p2b9d4580ba)">
     <use xlink:href="#C0_0_a0209e613d" x="73.832727" y="174.528" style="fill: #6495ed"/>
    </g>
    <g clip-path="url(#p2b9d4580ba)">
     <use xlink:href="#C0_0_a0209e613d" x="73.832727" y="174.528" style="fill: #6495ed"/>
    </g>
    <g clip-path="url(#p2b9d4580ba)">
     <use xlink:href="#C0_0_a0209e613d" x="236.157948" y="53.569529" style="fill: #f08080"/>
    </g>
    <g clip-path="url(#p2b9d4580ba)">
     <use xlink:href="#C0_0_a0209e613d" x="398.487273" y="174.528" style="fill: #6495ed"/>
    </g>
    <g clip-path="url(#p2b9d4580ba)">
     <use xlink:href="#C0_0_a0209e613d" x="396.214633" y="176.221483" style="fill: #6495ed"/>
    </g>
    <g clip-path="url(#p2b9d4580ba)">
     <use xlink:href="#C0_0_a0209e613d" x="398.487273" y="174.528" style="fill: #6495ed"/>
    </g>
    <g clip-path="url(#p2b9d4580ba)">
     <use xlink:href="#C0_0_a0209e613d" x="236.160981" y="295.487269" style="fill: #6495ed"/>
    </g>
    <g clip-path="url(#p2b9d4580ba)">
     <use xlink:href="#C0_0_a0209e613d" x="236.150238" y="295.480726" style="fill: #6495ed"/>
    </g>
    <g clip-path="url(#p2b9d4580ba)">
     <use xlink:href="#C0_0_a0209e613d" x="234.269195" y="54.976954" style="fill: #f08080"/>
    </g>
    <g clip-path="url(#p2b9d4580ba)">
     <use xlink:href="#C0_0_a0209e613d" x="236.16" y="53.568" style="fill: #f08080"/>
    </g>
    <g clip-path="url(#p2b9d4580ba)">
     <use xlink:href="#C0_0_a0209e613d" x="106.649293" y="150.074365" style="fill: #6495ed"/>
    </g>
    <g clip-path="url(#p2b9d4580ba)">
     <use xlink:href="#C0_0_a0209e613d" x="236.16" y="53.568" style="fill: #f08080"/>
    </g>
    <g clip-path="url(#p2b9d4580ba)">
     <use xlink:href="#C0_0_a0209e613d" x="73.832727" y="174.528" style="fill: #6495ed"/>
    </g>
    <g clip-path="url(#p2b9d4580ba)">
     <use xlink:href="#C0_0_a0209e613d" x="236.16" y="295.488" style="fill: #6495ed"/>
    </g>
    <g clip-path="url(#p2b9d4580ba)">
     <use xlink:href="#C0_0_a0209e613d" x="236.16" y="295.488" style="fill: #6495ed"/>
    </g>
    <g clip-path="url(#p2b9d4580ba)">
     <use xlink:href="#C0_0_a0209e613d" x="232.492701" y="56.314213" style="fill: #f08080"/>
    </g>
    <g clip-path="url(#p2b9d4580ba)">
     <use xlink:href="#C0_0_a0209e613d" x="236.16" y="53.568" style="fill: #f08080"/>
    </g>
    <g clip-path="url(#p2b9d4580ba)">
     <use xlink:href="#C0_0_a0209e613d" x="236.16" y="295.488" style="fill: #6495ed"/>
    </g>
    <g clip-path="url(#p2b9d4580ba)">
     <use xlink:href="#C0_0_a0209e613d" x="236.16" y="53.568" style="fill: #f08080"/>
    </g>
    <g clip-path="url(#p2b9d4580ba)">
     <use xlink:href="#C0_0_a0209e613d" x="236.16" y="295.488" style="fill: #6495ed"/>
    </g>
    <g clip-path="url(#p2b9d4580ba)">
     <use xlink:href="#C0_0_a0209e613d" x="236.159999" y="295.487999" style="fill: #6495ed"/>
    </g>
    <g clip-path="url(#p2b9d4580ba)">
     <use xlink:href="#C0_0_a0209e613d" x="236.126948" y="53.592629" style="fill: #f08080"/>
    </g>
    <g clip-path="url(#p2b9d4580ba)">
     <use xlink:href="#C0_0_a0209e613d" x="236.160089" y="53.568066" style="fill: #f08080"/>
    </g>
    <g clip-path="url(#p2b9d4580ba)">
     <use xlink:href="#C0_0_a0209e613d" x="398.487273" y="174.528" style="fill: #6495ed"/>
    </g>
    <g clip-path="url(#p2b9d4580ba)">
     <use xlink:href="#C0_0_a0209e613d" x="95.604821" y="190.751721" style="fill: #6495ed"/>
    </g>
    <g clip-path="url(#p2b9d4580ba)">
     <use xlink:href="#C0_0_a0209e613d" x="236.16" y="295.488" style="fill: #6495ed"/>
    </g>
    <g clip-path="url(#p2b9d4580ba)">
     <use xlink:href="#C0_0_a0209e613d" x="236.16" y="295.488" style="fill: #6495ed"/>
    </g>
    <g clip-path="url(#p2b9d4580ba)">
     <use xlink:href="#C0_0_a0209e613d" x="236.16" y="295.488" style="fill: #6495ed"/>
    </g>
    <g clip-path="url(#p2b9d4580ba)">
     <use xlink:href="#C0_0_a0209e613d" x="73.832856" y="174.527904" style="fill: #6495ed"/>
    </g>
    <g clip-path="url(#p2b9d4580ba)">
     <use xlink:href="#C0_0_a0209e613d" x="236.160002" y="53.568002" style="fill: #f08080"/>
    </g>
    <g clip-path="url(#p2b9d4580ba)">
     <use xlink:href="#C0_0_a0209e613d" x="398.487273" y="174.528" style="fill: #6495ed"/>
    </g>
    <g clip-path="url(#p2b9d4580ba)">
     <use xlink:href="#C0_0_a0209e613d" x="73.832727" y="174.528" style="fill: #6495ed"/>
    </g>
    <g clip-path="url(#p2b9d4580ba)">
     <use xlink:href="#C0_0_a0209e613d" x="236.16" y="53.568" style="fill: #f08080"/>
    </g>
    <g clip-path="url(#p2b9d4580ba)">
     <use xlink:href="#C0_0_a0209e613d" x="236.159927" y="53.568054" style="fill: #f08080"/>
    </g>
    <g clip-path="url(#p2b9d4580ba)">
     <use xlink:href="#C0_0_a0209e613d" x="240.662717" y="292.13275" style="fill: #6495ed"/>
    </g>
    <g clip-path="url(#p2b9d4580ba)">
     <use xlink:href="#C0_0_a0209e613d" x="236.16" y="295.488" style="fill: #6495ed"/>
    </g>
    <g clip-path="url(#p2b9d4580ba)">
     <use xlink:href="#C0_0_a0209e613d" x="398.487273" y="174.528" style="fill: #6495ed"/>
    </g>
    <g clip-path="url(#p2b9d4580ba)">
     <use xlink:href="#C0_0_a0209e613d" x="236.16" y="295.488" style="fill: #6495ed"/>
    </g>
    <g clip-path="url(#p2b9d4580ba)">
     <use xlink:href="#C0_0_a0209e613d" x="73.832727" y="174.528" style="fill: #6495ed"/>
    </g>
    <g clip-path="url(#p2b9d4580ba)">
     <use xlink:href="#C0_0_a0209e613d" x="236.16" y="295.488" style="fill: #6495ed"/>
    </g>
    <g clip-path="url(#p2b9d4580ba)">
     <use xlink:href="#C0_0_a0209e613d" x="236.16" y="295.488" style="fill: #6495ed"/>
    </g>
    <g clip-path="url(#p2b9d4580ba)">
     <use xlink:href="#C0_0_a0209e613d" x="398.487272" y="174.528" style="fill: #6495ed"/>
    </g>
    <g clip-path="url(#p2b9d4580ba)">
     <use xlink:href="#C0_0_a0209e613d" x="398.487273" y="174.528" style="fill: #6495ed"/>
    </g>
    <g clip-path="url(#p2b9d4580ba)">
     <use xlink:href="#C0_0_a0209e613d" x="236.16" y="53.568" style="fill: #f08080"/>
    </g>
    <g clip-path="url(#p2b9d4580ba)">
     <use xlink:href="#C0_0_a0209e613d" x="236.16" y="53.568" style="fill: #f08080"/>
    </g>
    <g clip-path="url(#p2b9d4580ba)">
     <use xlink:href="#C0_0_a0209e613d" x="228.428044" y="59.329554" style="fill: #f08080"/>
    </g>
    <g clip-path="url(#p2b9d4580ba)">
     <use xlink:href="#C0_0_a0209e613d" x="236.16" y="53.568" style="fill: #f08080"/>
    </g>
    <g clip-path="url(#p2b9d4580ba)">
     <use xlink:href="#C0_0_a0209e613d" x="73.832727" y="174.528" style="fill: #6495ed"/>
    </g>
    <g clip-path="url(#p2b9d4580ba)">
     <use xlink:href="#C0_0_a0209e613d" x="73.832727" y="174.528" style="fill: #6495ed"/>
    </g>
    <g clip-path="url(#p2b9d4580ba)">
     <use xlink:href="#C0_0_a0209e613d" x="129.3783" y="133.137589" style="fill: #6495ed"/>
    </g>
    <g clip-path="url(#p2b9d4580ba)">
     <use xlink:href="#C0_0_a0209e613d" x="398.487273" y="174.528" style="fill: #6495ed"/>
    </g>
    <g clip-path="url(#p2b9d4580ba)">
     <use xlink:href="#C0_0_a0209e613d" x="398.452138" y="174.554043" style="fill: #6495ed"/>
    </g>
    <g clip-path="url(#p2b9d4580ba)">
     <use xlink:href="#C0_0_a0209e613d" x="236.51504" y="53.834336" style="fill: #f08080"/>
    </g>
    <g clip-path="url(#p2b9d4580ba)">
     <use xlink:href="#C0_0_a0209e613d" x="73.832727" y="174.528" style="fill: #6495ed"/>
    </g>
    <g clip-path="url(#p2b9d4580ba)">
     <use xlink:href="#C0_0_a0209e613d" x="73.832727" y="174.528" style="fill: #6495ed"/>
    </g>
    <g clip-path="url(#p2b9d4580ba)">
     <use xlink:href="#C0_0_a0209e613d" x="73.832728" y="174.527999" style="fill: #6495ed"/>
    </g>
    <g clip-path="url(#p2b9d4580ba)">
     <use xlink:href="#C0_0_a0209e613d" x="236.16" y="53.568" style="fill: #f08080"/>
    </g>
    <g clip-path="url(#p2b9d4580ba)">
     <use xlink:href="#C0_0_a0209e613d" x="398.487273" y="174.528" style="fill: #6495ed"/>
    </g>
    <g clip-path="url(#p2b9d4580ba)">
     <use xlink:href="#C0_0_a0209e613d" x="73.832729" y="174.528001" style="fill: #6495ed"/>
    </g>
    <g clip-path="url(#p2b9d4580ba)">
     <use xlink:href="#C0_0_a0209e613d" x="236.161443" y="295.486916" style="fill: #6495ed"/>
    </g>
    <g clip-path="url(#p2b9d4580ba)">
     <use xlink:href="#C0_0_a0209e613d" x="236.16" y="53.568" style="fill: #f08080"/>
    </g>
    <g clip-path="url(#p2b9d4580ba)">
     <use xlink:href="#C0_0_a0209e613d" x="236.16" y="295.488" style="fill: #6495ed"/>
    </g>
   </g>
   <g id="matplotlib.axis_1">
    <g id="xtick_1">
     <g id="line2d_1">
      <defs>
       <path id="me00213a8d5" d="M 0 0 
L 0 3.5 
" style="stroke: #000000; stroke-width: 0.8"/>
      </defs>
      <g>
       <use xlink:href="#me00213a8d5" x="98.420742" y="307.584" style="stroke: #000000; stroke-width: 0.8"/>
      </g>
     </g>
    </g>
    <g id="xtick_2">
     <g id="line2d_2">
      <g>
       <use xlink:href="#me00213a8d5" x="144.333828" y="307.584" style="stroke: #000000; stroke-width: 0.8"/>
      </g>
     </g>
    </g>
    <g id="xtick_3">
     <g id="line2d_3">
      <g>
       <use xlink:href="#me00213a8d5" x="190.246914" y="307.584" style="stroke: #000000; stroke-width: 0.8"/>
      </g>
     </g>
    </g>
    <g id="xtick_4">
     <g id="line2d_4">
      <g>
       <use xlink:href="#me00213a8d5" x="236.16" y="307.584" style="stroke: #000000; stroke-width: 0.8"/>
      </g>
     </g>
    </g>
    <g id="xtick_5">
     <g id="line2d_5">
      <g>
       <use xlink:href="#me00213a8d5" x="282.073086" y="307.584" style="stroke: #000000; stroke-width: 0.8"/>
      </g>
     </g>
    </g>
    <g id="xtick_6">
     <g id="line2d_6">
      <g>
       <use xlink:href="#me00213a8d5" x="327.986172" y="307.584" style="stroke: #000000; stroke-width: 0.8"/>
      </g>
     </g>
    </g>
    <g id="xtick_7">
     <g id="line2d_7">
      <g>
       <use xlink:href="#me00213a8d5" x="373.899258" y="307.584" style="stroke: #000000; stroke-width: 0.8"/>
      </g>
     </g>
    </g>
    <g id="text_1">
     <!-- - -->
     <g transform="translate(234.356094 326.182437) scale(0.1 -0.1)">
      <defs>
       <path id="DejaVuSans-2d" d="M 313 2009 
L 1997 2009 
L 1997 1497 
L 313 1497 
L 313 2009 
z
" transform="scale(0.015625)"/>
      </defs>
      <use xlink:href="#DejaVuSans-2d"/>
     </g>
    </g>
   </g>
   <g id="matplotlib.axis_2">
    <g id="ytick_1">
     <g id="line2d_8">
      <defs>
       <path id="m4fa39f6143" d="M 0 0 
L -3.5 0 
" style="stroke: #000000; stroke-width: 0.8"/>
      </defs>
      <g>
       <use xlink:href="#m4fa39f6143" x="57.6" y="295.488" style="stroke: #000000; stroke-width: 0.8"/>
      </g>
     </g>
    </g>
    <g id="ytick_2">
     <g id="line2d_9">
      <g>
       <use xlink:href="#m4fa39f6143" x="57.6" y="261.275345" style="stroke: #000000; stroke-width: 0.8"/>
      </g>
     </g>
    </g>
    <g id="ytick_3">
     <g id="line2d_10">
      <g>
       <use xlink:href="#m4fa39f6143" x="57.6" y="227.062691" style="stroke: #000000; stroke-width: 0.8"/>
      </g>
     </g>
    </g>
    <g id="ytick_4">
     <g id="line2d_11">
      <g>
       <use xlink:href="#m4fa39f6143" x="57.6" y="192.850036" style="stroke: #000000; stroke-width: 0.8"/>
      </g>
     </g>
    </g>
    <g id="ytick_5">
     <g id="line2d_12">
      <g>
       <use xlink:href="#m4fa39f6143" x="57.6" y="158.637382" style="stroke: #000000; stroke-width: 0.8"/>
      </g>
     </g>
    </g>
    <g id="ytick_6">
     <g id="line2d_13">
      <g>
       <use xlink:href="#m4fa39f6143" x="57.6" y="124.424727" style="stroke: #000000; stroke-width: 0.8"/>
      </g>
     </g>
    </g>
    <g id="ytick_7">
     <g id="line2d_14">
      <g>
       <use xlink:href="#m4fa39f6143" x="57.6" y="90.212073" style="stroke: #000000; stroke-width: 0.8"/>
      </g>
     </g>
    </g>
    <g id="ytick_8">
     <g id="line2d_15">
      <g>
       <use xlink:href="#m4fa39f6143" x="57.6" y="55.999418" style="stroke: #000000; stroke-width: 0.8"/>
      </g>
     </g>
    </g>
    <g id="text_2">
     <!-- - -->
     <g transform="translate(44.520313 176.331906) rotate(-90) scale(0.1 -0.1)">
      <use xlink:href="#DejaVuSans-2d"/>
     </g>
    </g>
   </g>
   <g id="line2d_16"/>
   <g id="line2d_17"/>
   <g id="patch_3">
    <path d="M 57.6 307.584 
L 57.6 41.472 
" style="fill: none; stroke: #000000; stroke-width: 0.8; stroke-linejoin: miter; stroke-linecap: square"/>
   </g>
   <g id="patch_4">
    <path d="M 414.72 307.584 
L 414.72 41.472 
" style="fill: none; stroke: #000000; stroke-width: 0.8; stroke-linejoin: miter; stroke-linecap: square"/>
   </g>
   <g id="patch_5">
    <path d="M 57.6 307.584 
L 414.72 307.584 
" style="fill: none; stroke: #000000; stroke-width: 0.8; stroke-linejoin: miter; stroke-linecap: square"/>
   </g>
   <g id="patch_6">
    <path d="M 57.6 41.472 
L 414.72 41.472 
" style="fill: none; stroke: #000000; stroke-width: 0.8; stroke-linejoin: miter; stroke-linecap: square"/>
   </g>
   <g id="legend_1">
    <g id="patch_7">
     <path d="M 356.904375 93.506375 
L 407.72 93.506375 
Q 409.72 93.506375 409.72 91.506375 
L 409.72 48.472 
Q 409.72 46.472 407.72 46.472 
L 356.904375 46.472 
Q 354.904375 46.472 354.904375 48.472 
L 354.904375 91.506375 
Q 354.904375 93.506375 356.904375 93.506375 
z
" style="fill: #ffffff; opacity: 0.8; stroke: #cccccc; stroke-linejoin: miter"/>
    </g>
    <g id="text_3">
     <!-- species -->
     <g transform="translate(363.637188 58.070438) scale(0.1 -0.1)">
      <defs>
       <path id="DejaVuSans-73" d="M 2834 3397 
L 2834 2853 
Q 2591 2978 2328 3040 
Q 2066 3103 1784 3103 
Q 1356 3103 1142 2972 
Q 928 2841 928 2578 
Q 928 2378 1081 2264 
Q 1234 2150 1697 2047 
L 1894 2003 
Q 2506 1872 2764 1633 
Q 3022 1394 3022 966 
Q 3022 478 2636 193 
Q 2250 -91 1575 -91 
Q 1294 -91 989 -36 
Q 684 19 347 128 
L 347 722 
Q 666 556 975 473 
Q 1284 391 1588 391 
Q 1994 391 2212 530 
Q 2431 669 2431 922 
Q 2431 1156 2273 1281 
Q 2116 1406 1581 1522 
L 1381 1569 
Q 847 1681 609 1914 
Q 372 2147 372 2553 
Q 372 3047 722 3315 
Q 1072 3584 1716 3584 
Q 2034 3584 2315 3537 
Q 2597 3491 2834 3397 
z
" transform="scale(0.015625)"/>
       <path id="DejaVuSans-70" d="M 1159 525 
L 1159 -1331 
L 581 -1331 
L 581 3500 
L 1159 3500 
L 1159 2969 
Q 1341 3281 1617 3432 
Q 1894 3584 2278 3584 
Q 2916 3584 3314 3078 
Q 3713 2572 3713 1747 
Q 3713 922 3314 415 
Q 2916 -91 2278 -91 
Q 1894 -91 1617 61 
Q 1341 213 1159 525 
z
M 3116 1747 
Q 3116 2381 2855 2742 
Q 2594 3103 2138 3103 
Q 1681 3103 1420 2742 
Q 1159 2381 1159 1747 
Q 1159 1113 1420 752 
Q 1681 391 2138 391 
Q 2594 391 2855 752 
Q 3116 1113 3116 1747 
z
" transform="scale(0.015625)"/>
       <path id="DejaVuSans-65" d="M 3597 1894 
L 3597 1613 
L 953 1613 
Q 991 1019 1311 708 
Q 1631 397 2203 397 
Q 2534 397 2845 478 
Q 3156 559 3463 722 
L 3463 178 
Q 3153 47 2828 -22 
Q 2503 -91 2169 -91 
Q 1331 -91 842 396 
Q 353 884 353 1716 
Q 353 2575 817 3079 
Q 1281 3584 2069 3584 
Q 2775 3584 3186 3129 
Q 3597 2675 3597 1894 
z
M 3022 2063 
Q 3016 2534 2758 2815 
Q 2500 3097 2075 3097 
Q 1594 3097 1305 2825 
Q 1016 2553 972 2059 
L 3022 2063 
z
" transform="scale(0.015625)"/>
       <path id="DejaVuSans-63" d="M 3122 3366 
L 3122 2828 
Q 2878 2963 2633 3030 
Q 2388 3097 2138 3097 
Q 1578 3097 1268 2742 
Q 959 2388 959 1747 
Q 959 1106 1268 751 
Q 1578 397 2138 397 
Q 2388 397 2633 464 
Q 2878 531 3122 666 
L 3122 134 
Q 2881 22 2623 -34 
Q 2366 -91 2075 -91 
Q 1284 -91 818 406 
Q 353 903 353 1747 
Q 353 2603 823 3093 
Q 1294 3584 2113 3584 
Q 2378 3584 2631 3529 
Q 2884 3475 3122 3366 
z
" transform="scale(0.015625)"/>
       <path id="DejaVuSans-69" d="M 603 3500 
L 1178 3500 
L 1178 0 
L 603 0 
L 603 3500 
z
M 603 4863 
L 1178 4863 
L 1178 4134 
L 603 4134 
L 603 4863 
z
" transform="scale(0.015625)"/>
      </defs>
      <use xlink:href="#DejaVuSans-73"/>
      <use xlink:href="#DejaVuSans-70" x="52.099609"/>
      <use xlink:href="#DejaVuSans-65" x="115.576172"/>
      <use xlink:href="#DejaVuSans-63" x="177.099609"/>
      <use xlink:href="#DejaVuSans-69" x="232.080078"/>
      <use xlink:href="#DejaVuSans-65" x="259.863281"/>
      <use xlink:href="#DejaVuSans-73" x="321.386719"/>
     </g>
    </g>
    <g id="line2d_18">
     <defs>
      <path id="mcf1599347e" d="M 0 3 
C 0.795609 3 1.55874 2.683901 2.12132 2.12132 
C 2.683901 1.55874 3 0.795609 3 0 
C 3 -0.795609 2.683901 -1.55874 2.12132 -2.12132 
C 1.55874 -2.683901 0.795609 -3 0 -3 
C -0.795609 -3 -1.55874 -2.683901 -2.12132 -2.12132 
C -2.683901 -1.55874 -3 -0.795609 -3 0 
C -3 0.795609 -2.683901 1.55874 -2.12132 2.12132 
C -1.55874 2.683901 -0.795609 3 0 3 
z
"/>
     </defs>
     <g>
      <use xlink:href="#mcf1599347e" x="368.904375" y="69.248563" style="fill: #f08080"/>
     </g>
    </g>
    <g id="text_4">
     <!-- dog -->
     <g transform="translate(386.904375 72.748563) scale(0.1 -0.1)">
      <defs>
       <path id="DejaVuSans-64" d="M 2906 2969 
L 2906 4863 
L 3481 4863 
L 3481 0 
L 2906 0 
L 2906 525 
Q 2725 213 2448 61 
Q 2172 -91 1784 -91 
Q 1150 -91 751 415 
Q 353 922 353 1747 
Q 353 2572 751 3078 
Q 1150 3584 1784 3584 
Q 2172 3584 2448 3432 
Q 2725 3281 2906 2969 
z
M 947 1747 
Q 947 1113 1208 752 
Q 1469 391 1925 391 
Q 2381 391 2643 752 
Q 2906 1113 2906 1747 
Q 2906 2381 2643 2742 
Q 2381 3103 1925 3103 
Q 1469 3103 1208 2742 
Q 947 2381 947 1747 
z
" transform="scale(0.015625)"/>
       <path id="DejaVuSans-6f" d="M 1959 3097 
Q 1497 3097 1228 2736 
Q 959 2375 959 1747 
Q 959 1119 1226 758 
Q 1494 397 1959 397 
Q 2419 397 2687 759 
Q 2956 1122 2956 1747 
Q 2956 2369 2687 2733 
Q 2419 3097 1959 3097 
z
M 1959 3584 
Q 2709 3584 3137 3096 
Q 3566 2609 3566 1747 
Q 3566 888 3137 398 
Q 2709 -91 1959 -91 
Q 1206 -91 779 398 
Q 353 888 353 1747 
Q 353 2609 779 3096 
Q 1206 3584 1959 3584 
z
" transform="scale(0.015625)"/>
       <path id="DejaVuSans-67" d="M 2906 1791 
Q 2906 2416 2648 2759 
Q 2391 3103 1925 3103 
Q 1463 3103 1205 2759 
Q 947 2416 947 1791 
Q 947 1169 1205 825 
Q 1463 481 1925 481 
Q 2391 481 2648 825 
Q 2906 1169 2906 1791 
z
M 3481 434 
Q 3481 -459 3084 -895 
Q 2688 -1331 1869 -1331 
Q 1566 -1331 1297 -1286 
Q 1028 -1241 775 -1147 
L 775 -588 
Q 1028 -725 1275 -790 
Q 1522 -856 1778 -856 
Q 2344 -856 2625 -561 
Q 2906 -266 2906 331 
L 2906 616 
Q 2728 306 2450 153 
Q 2172 0 1784 0 
Q 1141 0 747 490 
Q 353 981 353 1791 
Q 353 2603 747 3093 
Q 1141 3584 1784 3584 
Q 2172 3584 2450 3431 
Q 2728 3278 2906 2969 
L 2906 3500 
L 3481 3500 
L 3481 434 
z
" transform="scale(0.015625)"/>
      </defs>
      <use xlink:href="#DejaVuSans-64"/>
      <use xlink:href="#DejaVuSans-6f" x="63.476562"/>
      <use xlink:href="#DejaVuSans-67" x="124.658203"/>
     </g>
    </g>
    <g id="line2d_19">
     <defs>
      <path id="m8284c24748" d="M 0 3 
C 0.795609 3 1.55874 2.683901 2.12132 2.12132 
C 2.683901 1.55874 3 0.795609 3 0 
C 3 -0.795609 2.683901 -1.55874 2.12132 -2.12132 
C 1.55874 -2.683901 0.795609 -3 0 -3 
C -0.795609 -3 -1.55874 -2.683901 -2.12132 -2.12132 
C -2.683901 -1.55874 -3 -0.795609 -3 0 
C -3 0.795609 -2.683901 1.55874 -2.12132 2.12132 
C -1.55874 2.683901 -0.795609 3 0 3 
z
"/>
     </defs>
     <g>
      <use xlink:href="#m8284c24748" x="368.904375" y="83.926688" style="fill: #6495ed"/>
     </g>
    </g>
    <g id="text_5">
     <!-- cat -->
     <g transform="translate(386.904375 87.426688) scale(0.1 -0.1)">
      <defs>
       <path id="DejaVuSans-61" d="M 2194 1759 
Q 1497 1759 1228 1600 
Q 959 1441 959 1056 
Q 959 750 1161 570 
Q 1363 391 1709 391 
Q 2188 391 2477 730 
Q 2766 1069 2766 1631 
L 2766 1759 
L 2194 1759 
z
M 3341 1997 
L 3341 0 
L 2766 0 
L 2766 531 
Q 2569 213 2275 61 
Q 1981 -91 1556 -91 
Q 1019 -91 701 211 
Q 384 513 384 1019 
Q 384 1609 779 1909 
Q 1175 2209 1959 2209 
L 2766 2209 
L 2766 2266 
Q 2766 2663 2505 2880 
Q 2244 3097 1772 3097 
Q 1472 3097 1187 3025 
Q 903 2953 641 2809 
L 641 3341 
Q 956 3463 1253 3523 
Q 1550 3584 1831 3584 
Q 2591 3584 2966 3190 
Q 3341 2797 3341 1997 
z
" transform="scale(0.015625)"/>
       <path id="DejaVuSans-74" d="M 1172 4494 
L 1172 3500 
L 2356 3500 
L 2356 3053 
L 1172 3053 
L 1172 1153 
Q 1172 725 1289 603 
Q 1406 481 1766 481 
L 2356 481 
L 2356 0 
L 1766 0 
Q 1100 0 847 248 
Q 594 497 594 1153 
L 594 3053 
L 172 3053 
L 172 3500 
L 594 3500 
L 594 4494 
L 1172 4494 
z
" transform="scale(0.015625)"/>
      </defs>
      <use xlink:href="#DejaVuSans-63"/>
      <use xlink:href="#DejaVuSans-61" x="54.980469"/>
      <use xlink:href="#DejaVuSans-74" x="116.259766"/>
     </g>
    </g>
   </g>
  </g>
 </g>
 <defs>
  <clipPath id="p2b9d4580ba">
   <rect x="57.6" y="41.472" width="357.12" height="266.112"/>
  </clipPath>
 </defs>
</svg>
