<?xml version="1.0" encoding="utf-8" standalone="no"?>
<!DOCTYPE svg PUBLIC "-//W3C//DTD SVG 1.1//EN"
  "http://www.w3.org/Graphics/SVG/1.1/DTD/svg11.dtd">
<svg xmlns:xlink="http://www.w3.org/1999/xlink" width="432pt" height="288pt" viewBox="0 0 432 288" xmlns="http://www.w3.org/2000/svg" version="1.1">
 <metadata>
  <rdf:RDF xmlns:dc="http://purl.org/dc/elements/1.1/" xmlns:cc="http://creativecommons.org/ns#" xmlns:rdf="http://www.w3.org/1999/02/22-rdf-syntax-ns#">
   <cc:Work>
    <dc:type rdf:resource="http://purl.org/dc/dcmitype/StillImage"/>
    <dc:date>2022-04-25T11:10:25.404299</dc:date>
    <dc:format>image/svg+xml</dc:format>
    <dc:creator>
     <cc:Agent>
      <dc:title>Matplotlib v3.5.1, https://matplotlib.org/</dc:title>
     </cc:Agent>
    </dc:creator>
   </cc:Work>
  </rdf:RDF>
 </metadata>
 <defs>
  <style type="text/css">*{stroke-linejoin: round; stroke-linecap: butt}</style>
 </defs>
 <g id="figure_1">
  <g id="patch_1">
   <path d="M 0 288 
L 432 288 
L 432 0 
L 0 0 
L 0 288 
z
" style="fill: none"/>
  </g>
  <g id="axes_1">
   <g id="patch_2">
    <path d="M 54 252 
L 388.8 252 
L 388.8 34.56 
L 54 34.56 
z
" style="fill: #ffffff"/>
   </g>
   <g id="PathCollection_1">
    <defs>
     <path id="C0_0_d3543e908b" d="M 0 3 
C 0.795609 3 1.55874 2.683901 2.12132 2.12132 
C 2.683901 1.55874 3 0.795609 3 -0 
C 3 -0.795609 2.683901 -1.55874 2.12132 -2.12132 
C 1.55874 -2.683901 0.795609 -3 0 -3 
C -0.795609 -3 -1.55874 -2.683901 -2.12132 -2.12132 
C -2.683901 -1.55874 -3 -0.795609 -3 0 
C -3 0.795609 -2.683901 1.55874 -2.12132 2.12132 
C -1.55874 2.683901 -0.795609 3 0 3 
z
"/>
    </defs>
    <g clip-path="url(#p78f131ae99)">
     <use xlink:href="#C0_0_d3543e908b" x="84.739964" y="62.15725" style="fill: #6495ed"/>
    </g>
    <g clip-path="url(#p78f131ae99)">
     <use xlink:href="#C0_0_d3543e908b" x="195.975342" y="204.790002" style="fill: #6495ed"/>
    </g>
    <g clip-path="url(#p78f131ae99)">
     <use xlink:href="#C0_0_d3543e908b" x="251.713666" y="94.261181" style="fill: #f08080"/>
    </g>
    <g clip-path="url(#p78f131ae99)">
     <use xlink:href="#C0_0_d3543e908b" x="361.079936" y="91.395723" style="fill: #f08080"/>
    </g>
    <g clip-path="url(#p78f131ae99)">
     <use xlink:href="#C0_0_d3543e908b" x="128.748064" y="139.857576" style="fill: #6495ed"/>
    </g>
    <g clip-path="url(#p78f131ae99)">
     <use xlink:href="#C0_0_d3543e908b" x="180.357411" y="63.511179" style="fill: #6495ed"/>
    </g>
    <g clip-path="url(#p78f131ae99)">
     <use xlink:href="#C0_0_d3543e908b" x="194.771651" y="165.980519" style="fill: #6495ed"/>
    </g>
    <g clip-path="url(#p78f131ae99)">
     <use xlink:href="#C0_0_d3543e908b" x="275.269383" y="113.227379" style="fill: #f08080"/>
    </g>
    <g clip-path="url(#p78f131ae99)">
     <use xlink:href="#C0_0_d3543e908b" x="228.64226" y="64.342574" style="fill: #f08080"/>
    </g>
    <g clip-path="url(#p78f131ae99)">
     <use xlink:href="#C0_0_d3543e908b" x="181.603083" y="135.863408" style="fill: #6495ed"/>
    </g>
    <g clip-path="url(#p78f131ae99)">
     <use xlink:href="#C0_0_d3543e908b" x="239.066308" y="172.541769" style="fill: #6495ed"/>
    </g>
    <g clip-path="url(#p78f131ae99)">
     <use xlink:href="#C0_0_d3543e908b" x="286.561191" y="64.517346" style="fill: #f08080"/>
    </g>
    <g clip-path="url(#p78f131ae99)">
     <use xlink:href="#C0_0_d3543e908b" x="347.696432" y="192.553548" style="fill: #6495ed"/>
    </g>
    <g clip-path="url(#p78f131ae99)">
     <use xlink:href="#C0_0_d3543e908b" x="181.080968" y="158.908798" style="fill: #6495ed"/>
    </g>
    <g clip-path="url(#p78f131ae99)">
     <use xlink:href="#C0_0_d3543e908b" x="280.160344" y="172.652528" style="fill: #6495ed"/>
    </g>
    <g clip-path="url(#p78f131ae99)">
     <use xlink:href="#C0_0_d3543e908b" x="89.279202" y="207.69506" style="fill: #6495ed"/>
    </g>
    <g clip-path="url(#p78f131ae99)">
     <use xlink:href="#C0_0_d3543e908b" x="210.258987" y="164.639938" style="fill: #6495ed"/>
    </g>
    <g clip-path="url(#p78f131ae99)">
     <use xlink:href="#C0_0_d3543e908b" x="175.995817" y="154.60652" style="fill: #6495ed"/>
    </g>
    <g clip-path="url(#p78f131ae99)">
     <use xlink:href="#C0_0_d3543e908b" x="162.91909" y="162.340672" style="fill: #6495ed"/>
    </g>
    <g clip-path="url(#p78f131ae99)">
     <use xlink:href="#C0_0_d3543e908b" x="84.405472" y="102.015973" style="fill: #6495ed"/>
    </g>
    <g clip-path="url(#p78f131ae99)">
     <use xlink:href="#C0_0_d3543e908b" x="274.33079" y="118.348253" style="fill: #f08080"/>
    </g>
    <g clip-path="url(#p78f131ae99)">
     <use xlink:href="#C0_0_d3543e908b" x="146.893557" y="58.230194" style="fill: #6495ed"/>
    </g>
    <g clip-path="url(#p78f131ae99)">
     <use xlink:href="#C0_0_d3543e908b" x="119.761354" y="118.330681" style="fill: #6495ed"/>
    </g>
    <g clip-path="url(#p78f131ae99)">
     <use xlink:href="#C0_0_d3543e908b" x="343.646727" y="102.25388" style="fill: #f08080"/>
    </g>
    <g clip-path="url(#p78f131ae99)">
     <use xlink:href="#C0_0_d3543e908b" x="330.982644" y="177.209571" style="fill: #6495ed"/>
    </g>
    <g clip-path="url(#p78f131ae99)">
     <use xlink:href="#C0_0_d3543e908b" x="290.853407" y="147.114702" style="fill: #f08080"/>
    </g>
    <g clip-path="url(#p78f131ae99)">
     <use xlink:href="#C0_0_d3543e908b" x="92.962936" y="76.622238" style="fill: #6495ed"/>
    </g>
    <g clip-path="url(#p78f131ae99)">
     <use xlink:href="#C0_0_d3543e908b" x="93.563576" y="79.123355" style="fill: #6495ed"/>
    </g>
    <g clip-path="url(#p78f131ae99)">
     <use xlink:href="#C0_0_d3543e908b" x="168.57438" y="218.629681" style="fill: #6495ed"/>
    </g>
    <g clip-path="url(#p78f131ae99)">
     <use xlink:href="#C0_0_d3543e908b" x="197.737319" y="164.993511" style="fill: #6495ed"/>
    </g>
    <g clip-path="url(#p78f131ae99)">
     <use xlink:href="#C0_0_d3543e908b" x="206.868251" y="51.54305" style="fill: #6495ed"/>
    </g>
    <g clip-path="url(#p78f131ae99)">
     <use xlink:href="#C0_0_d3543e908b" x="151.587043" y="100.794725" style="fill: #6495ed"/>
    </g>
    <g clip-path="url(#p78f131ae99)">
     <use xlink:href="#C0_0_d3543e908b" x="202.253467" y="99.252368" style="fill: #6495ed"/>
    </g>
    <g clip-path="url(#p78f131ae99)">
     <use xlink:href="#C0_0_d3543e908b" x="135.770023" y="217.877438" style="fill: #6495ed"/>
    </g>
    <g clip-path="url(#p78f131ae99)">
     <use xlink:href="#C0_0_d3543e908b" x="92.959005" y="64.288256" style="fill: #6495ed"/>
    </g>
    <g clip-path="url(#p78f131ae99)">
     <use xlink:href="#C0_0_d3543e908b" x="171.777533" y="207.002056" style="fill: #6495ed"/>
    </g>
    <g clip-path="url(#p78f131ae99)">
     <use xlink:href="#C0_0_d3543e908b" x="373.581818" y="177.349809" style="fill: #6495ed"/>
    </g>
    <g clip-path="url(#p78f131ae99)">
     <use xlink:href="#C0_0_d3543e908b" x="348.112781" y="79.504169" style="fill: #f08080"/>
    </g>
    <g clip-path="url(#p78f131ae99)">
     <use xlink:href="#C0_0_d3543e908b" x="361.085634" y="125.945124" style="fill: #f08080"/>
    </g>
    <g clip-path="url(#p78f131ae99)">
     <use xlink:href="#C0_0_d3543e908b" x="252.655357" y="57.950329" style="fill: #f08080"/>
    </g>
    <g clip-path="url(#p78f131ae99)">
     <use xlink:href="#C0_0_d3543e908b" x="263.217931" y="133.711242" style="fill: #f08080"/>
    </g>
    <g clip-path="url(#p78f131ae99)">
     <use xlink:href="#C0_0_d3543e908b" x="259.032489" y="64.725683" style="fill: #f08080"/>
    </g>
    <g clip-path="url(#p78f131ae99)">
     <use xlink:href="#C0_0_d3543e908b" x="170.052777" y="99.205" style="fill: #6495ed"/>
    </g>
    <g clip-path="url(#p78f131ae99)">
     <use xlink:href="#C0_0_d3543e908b" x="142.294759" y="176.479373" style="fill: #6495ed"/>
    </g>
    <g clip-path="url(#p78f131ae99)">
     <use xlink:href="#C0_0_d3543e908b" x="277.020859" y="106.230896" style="fill: #f08080"/>
    </g>
    <g clip-path="url(#p78f131ae99)">
     <use xlink:href="#C0_0_d3543e908b" x="325.328844" y="191.878668" style="fill: #6495ed"/>
    </g>
    <g clip-path="url(#p78f131ae99)">
     <use xlink:href="#C0_0_d3543e908b" x="206.359265" y="118.857251" style="fill: #6495ed"/>
    </g>
    <g clip-path="url(#p78f131ae99)">
     <use xlink:href="#C0_0_d3543e908b" x="333.161774" y="174.246008" style="fill: #6495ed"/>
    </g>
    <g clip-path="url(#p78f131ae99)">
     <use xlink:href="#C0_0_d3543e908b" x="299.018989" y="69.484705" style="fill: #f08080"/>
    </g>
    <g clip-path="url(#p78f131ae99)">
     <use xlink:href="#C0_0_d3543e908b" x="166.510993" y="178.995102" style="fill: #6495ed"/>
    </g>
    <g clip-path="url(#p78f131ae99)">
     <use xlink:href="#C0_0_d3543e908b" x="195.727542" y="176.767228" style="fill: #6495ed"/>
    </g>
    <g clip-path="url(#p78f131ae99)">
     <use xlink:href="#C0_0_d3543e908b" x="180.544275" y="182.977196" style="fill: #6495ed"/>
    </g>
    <g clip-path="url(#p78f131ae99)">
     <use xlink:href="#C0_0_d3543e908b" x="164.578436" y="150.552748" style="fill: #6495ed"/>
    </g>
    <g clip-path="url(#p78f131ae99)">
     <use xlink:href="#C0_0_d3543e908b" x="105.87573" y="110.275517" style="fill: #6495ed"/>
    </g>
    <g clip-path="url(#p78f131ae99)">
     <use xlink:href="#C0_0_d3543e908b" x="201.500004" y="114.212278" style="fill: #6495ed"/>
    </g>
    <g clip-path="url(#p78f131ae99)">
     <use xlink:href="#C0_0_d3543e908b" x="323.311019" y="161.284475" style="fill: #6495ed"/>
    </g>
    <g clip-path="url(#p78f131ae99)">
     <use xlink:href="#C0_0_d3543e908b" x="344.159667" y="183.702703" style="fill: #6495ed"/>
    </g>
    <g clip-path="url(#p78f131ae99)">
     <use xlink:href="#C0_0_d3543e908b" x="126.673472" y="131.861647" style="fill: #6495ed"/>
    </g>
    <g clip-path="url(#p78f131ae99)">
     <use xlink:href="#C0_0_d3543e908b" x="159.119626" y="87.924615" style="fill: #6495ed"/>
    </g>
    <g clip-path="url(#p78f131ae99)">
     <use xlink:href="#C0_0_d3543e908b" x="69.218182" y="169.007041" style="fill: #6495ed"/>
    </g>
    <g clip-path="url(#p78f131ae99)">
     <use xlink:href="#C0_0_d3543e908b" x="116.193922" y="101.283149" style="fill: #6495ed"/>
    </g>
    <g clip-path="url(#p78f131ae99)">
     <use xlink:href="#C0_0_d3543e908b" x="306.339385" y="108.854355" style="fill: #f08080"/>
    </g>
    <g clip-path="url(#p78f131ae99)">
     <use xlink:href="#C0_0_d3543e908b" x="185.494375" y="196.526153" style="fill: #6495ed"/>
    </g>
    <g clip-path="url(#p78f131ae99)">
     <use xlink:href="#C0_0_d3543e908b" x="220.504607" y="155.967077" style="fill: #6495ed"/>
    </g>
    <g clip-path="url(#p78f131ae99)">
     <use xlink:href="#C0_0_d3543e908b" x="108.770304" y="71.958252" style="fill: #6495ed"/>
    </g>
    <g clip-path="url(#p78f131ae99)">
     <use xlink:href="#C0_0_d3543e908b" x="307.213495" y="103.218571" style="fill: #f08080"/>
    </g>
    <g clip-path="url(#p78f131ae99)">
     <use xlink:href="#C0_0_d3543e908b" x="104.238796" y="50.261888" style="fill: #6495ed"/>
    </g>
    <g clip-path="url(#p78f131ae99)">
     <use xlink:href="#C0_0_d3543e908b" x="104.496926" y="94.649509" style="fill: #6495ed"/>
    </g>
    <g clip-path="url(#p78f131ae99)">
     <use xlink:href="#C0_0_d3543e908b" x="95.612045" y="206.297728" style="fill: #6495ed"/>
    </g>
    <g clip-path="url(#p78f131ae99)">
     <use xlink:href="#C0_0_d3543e908b" x="158.117281" y="144.537625" style="fill: #6495ed"/>
    </g>
    <g clip-path="url(#p78f131ae99)">
     <use xlink:href="#C0_0_d3543e908b" x="89.070038" y="46.362788" style="fill: #6495ed"/>
    </g>
    <g clip-path="url(#p78f131ae99)">
     <use xlink:href="#C0_0_d3543e908b" x="274.740553" y="198.127508" style="fill: #6495ed"/>
    </g>
    <g clip-path="url(#p78f131ae99)">
     <use xlink:href="#C0_0_d3543e908b" x="319.437363" y="164.720349" style="fill: #6495ed"/>
    </g>
    <g clip-path="url(#p78f131ae99)">
     <use xlink:href="#C0_0_d3543e908b" x="98.955607" y="187.460812" style="fill: #6495ed"/>
    </g>
    <g clip-path="url(#p78f131ae99)">
     <use xlink:href="#C0_0_d3543e908b" x="363.099157" y="90.40355" style="fill: #f08080"/>
    </g>
    <g clip-path="url(#p78f131ae99)">
     <use xlink:href="#C0_0_d3543e908b" x="307.275289" y="216.025404" style="fill: #6495ed"/>
    </g>
    <g clip-path="url(#p78f131ae99)">
     <use xlink:href="#C0_0_d3543e908b" x="278.627328" y="231.838609" style="fill: #6495ed"/>
    </g>
    <g clip-path="url(#p78f131ae99)">
     <use xlink:href="#C0_0_d3543e908b" x="199.335048" y="103.111293" style="fill: #6495ed"/>
    </g>
    <g clip-path="url(#p78f131ae99)">
     <use xlink:href="#C0_0_d3543e908b" x="368.125095" y="136.966147" style="fill: #f08080"/>
    </g>
    <g clip-path="url(#p78f131ae99)">
     <use xlink:href="#C0_0_d3543e908b" x="86.538369" y="159.576275" style="fill: #6495ed"/>
    </g>
    <g clip-path="url(#p78f131ae99)">
     <use xlink:href="#C0_0_d3543e908b" x="197.944229" y="111.161636" style="fill: #6495ed"/>
    </g>
    <g clip-path="url(#p78f131ae99)">
     <use xlink:href="#C0_0_d3543e908b" x="363.090053" y="185.442652" style="fill: #6495ed"/>
    </g>
    <g clip-path="url(#p78f131ae99)">
     <use xlink:href="#C0_0_d3543e908b" x="173.560005" y="168.140227" style="fill: #6495ed"/>
    </g>
    <g clip-path="url(#p78f131ae99)">
     <use xlink:href="#C0_0_d3543e908b" x="162.710869" y="89.286476" style="fill: #6495ed"/>
    </g>
    <g clip-path="url(#p78f131ae99)">
     <use xlink:href="#C0_0_d3543e908b" x="277.949349" y="169.100291" style="fill: #6495ed"/>
    </g>
    <g clip-path="url(#p78f131ae99)">
     <use xlink:href="#C0_0_d3543e908b" x="317.063785" y="91.599287" style="fill: #f08080"/>
    </g>
    <g clip-path="url(#p78f131ae99)">
     <use xlink:href="#C0_0_d3543e908b" x="334.540995" y="242.116364" style="fill: #6495ed"/>
    </g>
    <g clip-path="url(#p78f131ae99)">
     <use xlink:href="#C0_0_d3543e908b" x="110.259389" y="152.756795" style="fill: #6495ed"/>
    </g>
    <g clip-path="url(#p78f131ae99)">
     <use xlink:href="#C0_0_d3543e908b" x="223.327544" y="64.370003" style="fill: #f08080"/>
    </g>
    <g clip-path="url(#p78f131ae99)">
     <use xlink:href="#C0_0_d3543e908b" x="348.867889" y="199.834685" style="fill: #6495ed"/>
    </g>
    <g clip-path="url(#p78f131ae99)">
     <use xlink:href="#C0_0_d3543e908b" x="288.549876" y="158.895728" style="fill: #6495ed"/>
    </g>
    <g clip-path="url(#p78f131ae99)">
     <use xlink:href="#C0_0_d3543e908b" x="140.32843" y="158.405471" style="fill: #6495ed"/>
    </g>
    <g clip-path="url(#p78f131ae99)">
     <use xlink:href="#C0_0_d3543e908b" x="260.375224" y="87.54973" style="fill: #f08080"/>
    </g>
    <g clip-path="url(#p78f131ae99)">
     <use xlink:href="#C0_0_d3543e908b" x="301.424382" y="95.801174" style="fill: #f08080"/>
    </g>
    <g clip-path="url(#p78f131ae99)">
     <use xlink:href="#C0_0_d3543e908b" x="77.779742" y="134.266751" style="fill: #6495ed"/>
    </g>
    <g clip-path="url(#p78f131ae99)">
     <use xlink:href="#C0_0_d3543e908b" x="154.177305" y="184.135628" style="fill: #6495ed"/>
    </g>
    <g clip-path="url(#p78f131ae99)">
     <use xlink:href="#C0_0_d3543e908b" x="82.140133" y="77.566399" style="fill: #6495ed"/>
    </g>
    <g clip-path="url(#p78f131ae99)">
     <use xlink:href="#C0_0_d3543e908b" x="342.744168" y="235.277106" style="fill: #6495ed"/>
    </g>
    <g clip-path="url(#p78f131ae99)">
     <use xlink:href="#C0_0_d3543e908b" x="281.741793" y="81.883197" style="fill: #f08080"/>
    </g>
    <g clip-path="url(#p78f131ae99)">
     <use xlink:href="#C0_0_d3543e908b" x="265.543862" y="94.971461" style="fill: #f08080"/>
    </g>
    <g clip-path="url(#p78f131ae99)">
     <use xlink:href="#C0_0_d3543e908b" x="268.308772" y="64.996987" style="fill: #f08080"/>
    </g>
    <g clip-path="url(#p78f131ae99)">
     <use xlink:href="#C0_0_d3543e908b" x="151.348628" y="44.56292" style="fill: #6495ed"/>
    </g>
    <g clip-path="url(#p78f131ae99)">
     <use xlink:href="#C0_0_d3543e908b" x="254.445945" y="168.488397" style="fill: #6495ed"/>
    </g>
    <g clip-path="url(#p78f131ae99)">
     <use xlink:href="#C0_0_d3543e908b" x="198.468898" y="90.981645" style="fill: #6495ed"/>
    </g>
    <g clip-path="url(#p78f131ae99)">
     <use xlink:href="#C0_0_d3543e908b" x="123.67281" y="67.581285" style="fill: #6495ed"/>
    </g>
    <g clip-path="url(#p78f131ae99)">
     <use xlink:href="#C0_0_d3543e908b" x="93.173278" y="81.282738" style="fill: #6495ed"/>
    </g>
    <g clip-path="url(#p78f131ae99)">
     <use xlink:href="#C0_0_d3543e908b" x="93.555338" y="126.367548" style="fill: #6495ed"/>
    </g>
    <g clip-path="url(#p78f131ae99)">
     <use xlink:href="#C0_0_d3543e908b" x="190.062106" y="151.477339" style="fill: #6495ed"/>
    </g>
    <g clip-path="url(#p78f131ae99)">
     <use xlink:href="#C0_0_d3543e908b" x="89.480391" y="148.450576" style="fill: #6495ed"/>
    </g>
    <g clip-path="url(#p78f131ae99)">
     <use xlink:href="#C0_0_d3543e908b" x="226.094582" y="101.711048" style="fill: #f08080"/>
    </g>
    <g clip-path="url(#p78f131ae99)">
     <use xlink:href="#C0_0_d3543e908b" x="328.909139" y="114.140305" style="fill: #f08080"/>
    </g>
    <g clip-path="url(#p78f131ae99)">
     <use xlink:href="#C0_0_d3543e908b" x="336.107041" y="81.366229" style="fill: #f08080"/>
    </g>
    <g clip-path="url(#p78f131ae99)">
     <use xlink:href="#C0_0_d3543e908b" x="144.959307" y="102.664537" style="fill: #6495ed"/>
    </g>
    <g clip-path="url(#p78f131ae99)">
     <use xlink:href="#C0_0_d3543e908b" x="331.849637" y="121.108642" style="fill: #f08080"/>
    </g>
    <g clip-path="url(#p78f131ae99)">
     <use xlink:href="#C0_0_d3543e908b" x="306.195508" y="134.40371" style="fill: #f08080"/>
    </g>
    <g clip-path="url(#p78f131ae99)">
     <use xlink:href="#C0_0_d3543e908b" x="101.233074" y="148.437278" style="fill: #6495ed"/>
    </g>
    <g clip-path="url(#p78f131ae99)">
     <use xlink:href="#C0_0_d3543e908b" x="193.493157" y="119.350284" style="fill: #6495ed"/>
    </g>
    <g clip-path="url(#p78f131ae99)">
     <use xlink:href="#C0_0_d3543e908b" x="357.470901" y="103.830647" style="fill: #f08080"/>
    </g>
    <g clip-path="url(#p78f131ae99)">
     <use xlink:href="#C0_0_d3543e908b" x="134.061128" y="94.806846" style="fill: #6495ed"/>
    </g>
    <g clip-path="url(#p78f131ae99)">
     <use xlink:href="#C0_0_d3543e908b" x="324.795143" y="180.398249" style="fill: #6495ed"/>
    </g>
    <g clip-path="url(#p78f131ae99)">
     <use xlink:href="#C0_0_d3543e908b" x="355.854357" y="84.397293" style="fill: #f08080"/>
    </g>
    <g clip-path="url(#p78f131ae99)">
     <use xlink:href="#C0_0_d3543e908b" x="130.102613" y="109.417887" style="fill: #6495ed"/>
    </g>
    <g clip-path="url(#p78f131ae99)">
     <use xlink:href="#C0_0_d3543e908b" x="196.657681" y="72.065271" style="fill: #6495ed"/>
    </g>
    <g clip-path="url(#p78f131ae99)">
     <use xlink:href="#C0_0_d3543e908b" x="266.100843" y="184.235749" style="fill: #6495ed"/>
    </g>
    <g clip-path="url(#p78f131ae99)">
     <use xlink:href="#C0_0_d3543e908b" x="229.273909" y="171.604399" style="fill: #6495ed"/>
    </g>
    <g clip-path="url(#p78f131ae99)">
     <use xlink:href="#C0_0_d3543e908b" x="165.223073" y="82.770169" style="fill: #6495ed"/>
    </g>
    <g clip-path="url(#p78f131ae99)">
     <use xlink:href="#C0_0_d3543e908b" x="271.723862" y="212.215015" style="fill: #6495ed"/>
    </g>
    <g clip-path="url(#p78f131ae99)">
     <use xlink:href="#C0_0_d3543e908b" x="302.838024" y="223.905618" style="fill: #6495ed"/>
    </g>
    <g clip-path="url(#p78f131ae99)">
     <use xlink:href="#C0_0_d3543e908b" x="113.889192" y="115.006844" style="fill: #6495ed"/>
    </g>
    <g clip-path="url(#p78f131ae99)">
     <use xlink:href="#C0_0_d3543e908b" x="91.614562" y="44.443636" style="fill: #6495ed"/>
    </g>
    <g clip-path="url(#p78f131ae99)">
     <use xlink:href="#C0_0_d3543e908b" x="135.374606" y="147.084583" style="fill: #6495ed"/>
    </g>
    <g clip-path="url(#p78f131ae99)">
     <use xlink:href="#C0_0_d3543e908b" x="251.664341" y="173.252406" style="fill: #6495ed"/>
    </g>
    <g clip-path="url(#p78f131ae99)">
     <use xlink:href="#C0_0_d3543e908b" x="195.743346" y="54.629428" style="fill: #6495ed"/>
    </g>
    <g clip-path="url(#p78f131ae99)">
     <use xlink:href="#C0_0_d3543e908b" x="114.412686" y="161.597003" style="fill: #6495ed"/>
    </g>
    <g clip-path="url(#p78f131ae99)">
     <use xlink:href="#C0_0_d3543e908b" x="291.177396" y="91.011911" style="fill: #f08080"/>
    </g>
    <g clip-path="url(#p78f131ae99)">
     <use xlink:href="#C0_0_d3543e908b" x="74.890231" y="112.292269" style="fill: #6495ed"/>
    </g>
    <g clip-path="url(#p78f131ae99)">
     <use xlink:href="#C0_0_d3543e908b" x="187.686345" y="156.865842" style="fill: #6495ed"/>
    </g>
    <g clip-path="url(#p78f131ae99)">
     <use xlink:href="#C0_0_d3543e908b" x="76.782155" y="209.867606" style="fill: #6495ed"/>
    </g>
    <g clip-path="url(#p78f131ae99)">
     <use xlink:href="#C0_0_d3543e908b" x="369.192151" y="92.948923" style="fill: #f08080"/>
    </g>
    <g clip-path="url(#p78f131ae99)">
     <use xlink:href="#C0_0_d3543e908b" x="300.657492" y="151.381581" style="fill: #6495ed"/>
    </g>
    <g clip-path="url(#p78f131ae99)">
     <use xlink:href="#C0_0_d3543e908b" x="136.690452" y="128.647592" style="fill: #6495ed"/>
    </g>
    <g clip-path="url(#p78f131ae99)">
     <use xlink:href="#C0_0_d3543e908b" x="207.229809" y="218.507934" style="fill: #6495ed"/>
    </g>
    <g clip-path="url(#p78f131ae99)">
     <use xlink:href="#C0_0_d3543e908b" x="159.712997" y="93.175251" style="fill: #6495ed"/>
    </g>
    <g clip-path="url(#p78f131ae99)">
     <use xlink:href="#C0_0_d3543e908b" x="299.908821" y="227.922603" style="fill: #6495ed"/>
    </g>
    <g clip-path="url(#p78f131ae99)">
     <use xlink:href="#C0_0_d3543e908b" x="110.009283" y="51.489542" style="fill: #6495ed"/>
    </g>
    <g clip-path="url(#p78f131ae99)">
     <use xlink:href="#C0_0_d3543e908b" x="75.874462" y="118.950929" style="fill: #6495ed"/>
    </g>
    <g clip-path="url(#p78f131ae99)">
     <use xlink:href="#C0_0_d3543e908b" x="82.646933" y="201.843882" style="fill: #6495ed"/>
    </g>
    <g clip-path="url(#p78f131ae99)">
     <use xlink:href="#C0_0_d3543e908b" x="154.387861" y="151.945915" style="fill: #6495ed"/>
    </g>
    <g clip-path="url(#p78f131ae99)">
     <use xlink:href="#C0_0_d3543e908b" x="354.000094" y="155.205803" style="fill: #f08080"/>
    </g>
    <g clip-path="url(#p78f131ae99)">
     <use xlink:href="#C0_0_d3543e908b" x="333.020551" y="169.744964" style="fill: #6495ed"/>
    </g>
   </g>
   <g id="PathCollection_2"/>
   <g id="PathCollection_3"/>
   <g id="matplotlib.axis_1">
    <g id="xtick_1">
     <g id="line2d_1">
      <defs>
       <path id="m2b792d6a1b" d="M 0 0 
L 0 3.5 
" style="stroke: #000000; stroke-width: 0.8"/>
      </defs>
      <g>
       <use xlink:href="#m2b792d6a1b" x="68.775709" y="252" style="stroke: #000000; stroke-width: 0.8"/>
      </g>
     </g>
    </g>
    <g id="xtick_2">
     <g id="line2d_2">
      <g>
       <use xlink:href="#m2b792d6a1b" x="107.400916" y="252" style="stroke: #000000; stroke-width: 0.8"/>
      </g>
     </g>
    </g>
    <g id="xtick_3">
     <g id="line2d_3">
      <g>
       <use xlink:href="#m2b792d6a1b" x="146.026122" y="252" style="stroke: #000000; stroke-width: 0.8"/>
      </g>
     </g>
    </g>
    <g id="xtick_4">
     <g id="line2d_4">
      <g>
       <use xlink:href="#m2b792d6a1b" x="184.651328" y="252" style="stroke: #000000; stroke-width: 0.8"/>
      </g>
     </g>
    </g>
    <g id="xtick_5">
     <g id="line2d_5">
      <g>
       <use xlink:href="#m2b792d6a1b" x="223.276534" y="252" style="stroke: #000000; stroke-width: 0.8"/>
      </g>
     </g>
    </g>
    <g id="xtick_6">
     <g id="line2d_6">
      <g>
       <use xlink:href="#m2b792d6a1b" x="261.90174" y="252" style="stroke: #000000; stroke-width: 0.8"/>
      </g>
     </g>
    </g>
    <g id="xtick_7">
     <g id="line2d_7">
      <g>
       <use xlink:href="#m2b792d6a1b" x="300.526947" y="252" style="stroke: #000000; stroke-width: 0.8"/>
      </g>
     </g>
    </g>
    <g id="xtick_8">
     <g id="line2d_8">
      <g>
       <use xlink:href="#m2b792d6a1b" x="339.152153" y="252" style="stroke: #000000; stroke-width: 0.8"/>
      </g>
     </g>
    </g>
    <g id="xtick_9">
     <g id="line2d_9">
      <g>
       <use xlink:href="#m2b792d6a1b" x="377.777359" y="252" style="stroke: #000000; stroke-width: 0.8"/>
      </g>
     </g>
    </g>
    <g id="text_1">
     <!-- - -->
     <g transform="translate(219.596094 270.598437)scale(0.1 -0.1)">
      <defs>
       <path id="DejaVuSans-2d" d="M 313 2009 
L 1997 2009 
L 1997 1497 
L 313 1497 
L 313 2009 
z
" transform="scale(0.015625)"/>
      </defs>
      <use xlink:href="#DejaVuSans-2d"/>
     </g>
    </g>
   </g>
   <g id="matplotlib.axis_2">
    <g id="ytick_1">
     <g id="line2d_10">
      <defs>
       <path id="m06f2a173ad" d="M 0 0 
L -3.5 0 
" style="stroke: #000000; stroke-width: 0.8"/>
      </defs>
      <g>
       <use xlink:href="#m06f2a173ad" x="54" y="229.941946" style="stroke: #000000; stroke-width: 0.8"/>
      </g>
     </g>
    </g>
    <g id="ytick_2">
     <g id="line2d_11">
      <g>
       <use xlink:href="#m06f2a173ad" x="54" y="185.506206" style="stroke: #000000; stroke-width: 0.8"/>
      </g>
     </g>
    </g>
    <g id="ytick_3">
     <g id="line2d_12">
      <g>
       <use xlink:href="#m06f2a173ad" x="54" y="141.070466" style="stroke: #000000; stroke-width: 0.8"/>
      </g>
     </g>
    </g>
    <g id="ytick_4">
     <g id="line2d_13">
      <g>
       <use xlink:href="#m06f2a173ad" x="54" y="96.634727" style="stroke: #000000; stroke-width: 0.8"/>
      </g>
     </g>
    </g>
    <g id="ytick_5">
     <g id="line2d_14">
      <g>
       <use xlink:href="#m06f2a173ad" x="54" y="52.198987" style="stroke: #000000; stroke-width: 0.8"/>
      </g>
     </g>
    </g>
    <g id="text_2">
     <!-- - -->
     <g transform="translate(40.920313 145.083906)rotate(-90)scale(0.1 -0.1)">
      <use xlink:href="#DejaVuSans-2d"/>
     </g>
    </g>
   </g>
   <g id="patch_3">
    <path d="M 54 252 
L 54 34.56 
" style="fill: none; stroke: #000000; stroke-width: 0.8; stroke-linejoin: miter; stroke-linecap: square"/>
   </g>
   <g id="patch_4">
    <path d="M 388.8 252 
L 388.8 34.56 
" style="fill: none; stroke: #000000; stroke-width: 0.8; stroke-linejoin: miter; stroke-linecap: square"/>
   </g>
   <g id="patch_5">
    <path d="M 54 252 
L 388.8 252 
" style="fill: none; stroke: #000000; stroke-width: 0.8; stroke-linejoin: miter; stroke-linecap: square"/>
   </g>
   <g id="patch_6">
    <path d="M 54 34.56 
L 388.8 34.56 
" style="fill: none; stroke: #000000; stroke-width: 0.8; stroke-linejoin: miter; stroke-linecap: square"/>
   </g>
   <g id="legend_1">
    <g id="patch_7">
     <path d="M 330.984375 247 
L 381.8 247 
Q 383.8 247 383.8 245 
L 383.8 201.965625 
Q 383.8 199.965625 381.8 199.965625 
L 330.984375 199.965625 
Q 328.984375 199.965625 328.984375 201.965625 
L 328.984375 245 
Q 328.984375 247 330.984375 247 
z
" style="fill: #ffffff; opacity: 0.8; stroke: #cccccc; stroke-linejoin: miter"/>
    </g>
    <g id="text_3">
     <!-- species -->
     <g transform="translate(337.717188 211.564063)scale(0.1 -0.1)">
      <defs>
       <path id="DejaVuSans-73" d="M 2834 3397 
L 2834 2853 
Q 2591 2978 2328 3040 
Q 2066 3103 1784 3103 
Q 1356 3103 1142 2972 
Q 928 2841 928 2578 
Q 928 2378 1081 2264 
Q 1234 2150 1697 2047 
L 1894 2003 
Q 2506 1872 2764 1633 
Q 3022 1394 3022 966 
Q 3022 478 2636 193 
Q 2250 -91 1575 -91 
Q 1294 -91 989 -36 
Q 684 19 347 128 
L 347 722 
Q 666 556 975 473 
Q 1284 391 1588 391 
Q 1994 391 2212 530 
Q 2431 669 2431 922 
Q 2431 1156 2273 1281 
Q 2116 1406 1581 1522 
L 1381 1569 
Q 847 1681 609 1914 
Q 372 2147 372 2553 
Q 372 3047 722 3315 
Q 1072 3584 1716 3584 
Q 2034 3584 2315 3537 
Q 2597 3491 2834 3397 
z
" transform="scale(0.015625)"/>
       <path id="DejaVuSans-70" d="M 1159 525 
L 1159 -1331 
L 581 -1331 
L 581 3500 
L 1159 3500 
L 1159 2969 
Q 1341 3281 1617 3432 
Q 1894 3584 2278 3584 
Q 2916 3584 3314 3078 
Q 3713 2572 3713 1747 
Q 3713 922 3314 415 
Q 2916 -91 2278 -91 
Q 1894 -91 1617 61 
Q 1341 213 1159 525 
z
M 3116 1747 
Q 3116 2381 2855 2742 
Q 2594 3103 2138 3103 
Q 1681 3103 1420 2742 
Q 1159 2381 1159 1747 
Q 1159 1113 1420 752 
Q 1681 391 2138 391 
Q 2594 391 2855 752 
Q 3116 1113 3116 1747 
z
" transform="scale(0.015625)"/>
       <path id="DejaVuSans-65" d="M 3597 1894 
L 3597 1613 
L 953 1613 
Q 991 1019 1311 708 
Q 1631 397 2203 397 
Q 2534 397 2845 478 
Q 3156 559 3463 722 
L 3463 178 
Q 3153 47 2828 -22 
Q 2503 -91 2169 -91 
Q 1331 -91 842 396 
Q 353 884 353 1716 
Q 353 2575 817 3079 
Q 1281 3584 2069 3584 
Q 2775 3584 3186 3129 
Q 3597 2675 3597 1894 
z
M 3022 2063 
Q 3016 2534 2758 2815 
Q 2500 3097 2075 3097 
Q 1594 3097 1305 2825 
Q 1016 2553 972 2059 
L 3022 2063 
z
" transform="scale(0.015625)"/>
       <path id="DejaVuSans-63" d="M 3122 3366 
L 3122 2828 
Q 2878 2963 2633 3030 
Q 2388 3097 2138 3097 
Q 1578 3097 1268 2742 
Q 959 2388 959 1747 
Q 959 1106 1268 751 
Q 1578 397 2138 397 
Q 2388 397 2633 464 
Q 2878 531 3122 666 
L 3122 134 
Q 2881 22 2623 -34 
Q 2366 -91 2075 -91 
Q 1284 -91 818 406 
Q 353 903 353 1747 
Q 353 2603 823 3093 
Q 1294 3584 2113 3584 
Q 2378 3584 2631 3529 
Q 2884 3475 3122 3366 
z
" transform="scale(0.015625)"/>
       <path id="DejaVuSans-69" d="M 603 3500 
L 1178 3500 
L 1178 0 
L 603 0 
L 603 3500 
z
M 603 4863 
L 1178 4863 
L 1178 4134 
L 603 4134 
L 603 4863 
z
" transform="scale(0.015625)"/>
      </defs>
      <use xlink:href="#DejaVuSans-73"/>
      <use xlink:href="#DejaVuSans-70" x="52.099609"/>
      <use xlink:href="#DejaVuSans-65" x="115.576172"/>
      <use xlink:href="#DejaVuSans-63" x="177.099609"/>
      <use xlink:href="#DejaVuSans-69" x="232.080078"/>
      <use xlink:href="#DejaVuSans-65" x="259.863281"/>
      <use xlink:href="#DejaVuSans-73" x="321.386719"/>
     </g>
    </g>
    <g id="PathCollection_4">
     <defs>
      <path id="m307de800ae" d="M 0 3 
C 0.795609 3 1.55874 2.683901 2.12132 2.12132 
C 2.683901 1.55874 3 0.795609 3 0 
C 3 -0.795609 2.683901 -1.55874 2.12132 -2.12132 
C 1.55874 -2.683901 0.795609 -3 0 -3 
C -0.795609 -3 -1.55874 -2.683901 -2.12132 -2.12132 
C -2.683901 -1.55874 -3 -0.795609 -3 0 
C -3 0.795609 -2.683901 1.55874 -2.12132 2.12132 
C -1.55874 2.683901 -0.795609 3 0 3 
z
" style="stroke: #6495ed"/>
     </defs>
     <g>
      <use xlink:href="#m307de800ae" x="342.984375" y="223.617188" style="fill: #6495ed; stroke: #6495ed"/>
     </g>
    </g>
    <g id="text_4">
     <!-- cat -->
     <g transform="translate(360.984375 226.242188)scale(0.1 -0.1)">
      <defs>
       <path id="DejaVuSans-61" d="M 2194 1759 
Q 1497 1759 1228 1600 
Q 959 1441 959 1056 
Q 959 750 1161 570 
Q 1363 391 1709 391 
Q 2188 391 2477 730 
Q 2766 1069 2766 1631 
L 2766 1759 
L 2194 1759 
z
M 3341 1997 
L 3341 0 
L 2766 0 
L 2766 531 
Q 2569 213 2275 61 
Q 1981 -91 1556 -91 
Q 1019 -91 701 211 
Q 384 513 384 1019 
Q 384 1609 779 1909 
Q 1175 2209 1959 2209 
L 2766 2209 
L 2766 2266 
Q 2766 2663 2505 2880 
Q 2244 3097 1772 3097 
Q 1472 3097 1187 3025 
Q 903 2953 641 2809 
L 641 3341 
Q 956 3463 1253 3523 
Q 1550 3584 1831 3584 
Q 2591 3584 2966 3190 
Q 3341 2797 3341 1997 
z
" transform="scale(0.015625)"/>
       <path id="DejaVuSans-74" d="M 1172 4494 
L 1172 3500 
L 2356 3500 
L 2356 3053 
L 1172 3053 
L 1172 1153 
Q 1172 725 1289 603 
Q 1406 481 1766 481 
L 2356 481 
L 2356 0 
L 1766 0 
Q 1100 0 847 248 
Q 594 497 594 1153 
L 594 3053 
L 172 3053 
L 172 3500 
L 594 3500 
L 594 4494 
L 1172 4494 
z
" transform="scale(0.015625)"/>
      </defs>
      <use xlink:href="#DejaVuSans-63"/>
      <use xlink:href="#DejaVuSans-61" x="54.980469"/>
      <use xlink:href="#DejaVuSans-74" x="116.259766"/>
     </g>
    </g>
    <g id="PathCollection_5">
     <defs>
      <path id="m4bb4888dee" d="M 0 3 
C 0.795609 3 1.55874 2.683901 2.12132 2.12132 
C 2.683901 1.55874 3 0.795609 3 0 
C 3 -0.795609 2.683901 -1.55874 2.12132 -2.12132 
C 1.55874 -2.683901 0.795609 -3 0 -3 
C -0.795609 -3 -1.55874 -2.683901 -2.12132 -2.12132 
C -2.683901 -1.55874 -3 -0.795609 -3 0 
C -3 0.795609 -2.683901 1.55874 -2.12132 2.12132 
C -1.55874 2.683901 -0.795609 3 0 3 
z
" style="stroke: #f08080"/>
     </defs>
     <g>
      <use xlink:href="#m4bb4888dee" x="342.984375" y="238.295313" style="fill: #f08080; stroke: #f08080"/>
     </g>
    </g>
    <g id="text_5">
     <!-- dog -->
     <g transform="translate(360.984375 240.920313)scale(0.1 -0.1)">
      <defs>
       <path id="DejaVuSans-64" d="M 2906 2969 
L 2906 4863 
L 3481 4863 
L 3481 0 
L 2906 0 
L 2906 525 
Q 2725 213 2448 61 
Q 2172 -91 1784 -91 
Q 1150 -91 751 415 
Q 353 922 353 1747 
Q 353 2572 751 3078 
Q 1150 3584 1784 3584 
Q 2172 3584 2448 3432 
Q 2725 3281 2906 2969 
z
M 947 1747 
Q 947 1113 1208 752 
Q 1469 391 1925 391 
Q 2381 391 2643 752 
Q 2906 1113 2906 1747 
Q 2906 2381 2643 2742 
Q 2381 3103 1925 3103 
Q 1469 3103 1208 2742 
Q 947 2381 947 1747 
z
" transform="scale(0.015625)"/>
       <path id="DejaVuSans-6f" d="M 1959 3097 
Q 1497 3097 1228 2736 
Q 959 2375 959 1747 
Q 959 1119 1226 758 
Q 1494 397 1959 397 
Q 2419 397 2687 759 
Q 2956 1122 2956 1747 
Q 2956 2369 2687 2733 
Q 2419 3097 1959 3097 
z
M 1959 3584 
Q 2709 3584 3137 3096 
Q 3566 2609 3566 1747 
Q 3566 888 3137 398 
Q 2709 -91 1959 -91 
Q 1206 -91 779 398 
Q 353 888 353 1747 
Q 353 2609 779 3096 
Q 1206 3584 1959 3584 
z
" transform="scale(0.015625)"/>
       <path id="DejaVuSans-67" d="M 2906 1791 
Q 2906 2416 2648 2759 
Q 2391 3103 1925 3103 
Q 1463 3103 1205 2759 
Q 947 2416 947 1791 
Q 947 1169 1205 825 
Q 1463 481 1925 481 
Q 2391 481 2648 825 
Q 2906 1169 2906 1791 
z
M 3481 434 
Q 3481 -459 3084 -895 
Q 2688 -1331 1869 -1331 
Q 1566 -1331 1297 -1286 
Q 1028 -1241 775 -1147 
L 775 -588 
Q 1028 -725 1275 -790 
Q 1522 -856 1778 -856 
Q 2344 -856 2625 -561 
Q 2906 -266 2906 331 
L 2906 616 
Q 2728 306 2450 153 
Q 2172 0 1784 0 
Q 1141 0 747 490 
Q 353 981 353 1791 
Q 353 2603 747 3093 
Q 1141 3584 1784 3584 
Q 2172 3584 2450 3431 
Q 2728 3278 2906 2969 
L 2906 3500 
L 3481 3500 
L 3481 434 
z
" transform="scale(0.015625)"/>
      </defs>
      <use xlink:href="#DejaVuSans-64"/>
      <use xlink:href="#DejaVuSans-6f" x="63.476562"/>
      <use xlink:href="#DejaVuSans-67" x="124.658203"/>
     </g>
    </g>
   </g>
  </g>
 </g>
 <defs>
  <clipPath id="p78f131ae99">
   <rect x="54" y="34.56" width="334.8" height="217.44"/>
  </clipPath>
 </defs>
</svg>
