<?xml version="1.0" encoding="utf-8" standalone="no"?>
<!DOCTYPE svg PUBLIC "-//W3C//DTD SVG 1.1//EN"
  "http://www.w3.org/Graphics/SVG/1.1/DTD/svg11.dtd">
<svg xmlns:xlink="http://www.w3.org/1999/xlink" width="432pt" height="288pt" viewBox="0 0 432 288" xmlns="http://www.w3.org/2000/svg" version="1.1">
 <metadata>
  <rdf:RDF xmlns:dc="http://purl.org/dc/elements/1.1/" xmlns:cc="http://creativecommons.org/ns#" xmlns:rdf="http://www.w3.org/1999/02/22-rdf-syntax-ns#">
   <cc:Work>
    <dc:type rdf:resource="http://purl.org/dc/dcmitype/StillImage"/>
    <dc:date>2022-04-25T11:10:26.690756</dc:date>
    <dc:format>image/svg+xml</dc:format>
    <dc:creator>
     <cc:Agent>
      <dc:title>Matplotlib v3.5.1, https://matplotlib.org/</dc:title>
     </cc:Agent>
    </dc:creator>
   </cc:Work>
  </rdf:RDF>
 </metadata>
 <defs>
  <style type="text/css">*{stroke-linejoin: round; stroke-linecap: butt}</style>
 </defs>
 <g id="figure_1">
  <g id="patch_1">
   <path d="M 0 288 
L 432 288 
L 432 0 
L 0 0 
L 0 288 
z
" style="fill: none"/>
  </g>
  <g id="axes_1">
   <g id="patch_2">
    <path d="M 54 252 
L 388.8 252 
L 388.8 34.56 
L 54 34.56 
z
" style="fill: #ffffff"/>
   </g>
   <g id="PathCollection_1">
    <defs>
     <path id="C0_0_74656aa854" d="M 0 3 
C 0.795609 3 1.55874 2.683901 2.12132 2.12132 
C 2.683901 1.55874 3 0.795609 3 -0 
C 3 -0.795609 2.683901 -1.55874 2.12132 -2.12132 
C 1.55874 -2.683901 0.795609 -3 0 -3 
C -0.795609 -3 -1.55874 -2.683901 -2.12132 -2.12132 
C -2.683901 -1.55874 -3 -0.795609 -3 0 
C -3 0.795609 -2.683901 1.55874 -2.12132 2.12132 
C -1.55874 2.683901 -0.795609 3 0 3 
z
"/>
    </defs>
    <g clip-path="url(#p075ccb5249)">
     <use xlink:href="#C0_0_74656aa854" x="75.370642" y="55.711394" style="fill: #6495ed"/>
    </g>
    <g clip-path="url(#p075ccb5249)">
     <use xlink:href="#C0_0_74656aa854" x="119.461668" y="232.575945" style="fill: #6495ed"/>
    </g>
    <g clip-path="url(#p075ccb5249)">
     <use xlink:href="#C0_0_74656aa854" x="325.276217" y="61.463989" style="fill: #f08080"/>
    </g>
    <g clip-path="url(#p075ccb5249)">
     <use xlink:href="#C0_0_74656aa854" x="368.626373" y="54.572623" style="fill: #f08080"/>
    </g>
    <g clip-path="url(#p075ccb5249)">
     <use xlink:href="#C0_0_74656aa854" x="92.814394" y="207.058586" style="fill: #6495ed"/>
    </g>
    <g clip-path="url(#p075ccb5249)">
     <use xlink:href="#C0_0_74656aa854" x="113.271096" y="51.408017" style="fill: #6495ed"/>
    </g>
    <g clip-path="url(#p075ccb5249)">
     <use xlink:href="#C0_0_74656aa854" x="118.984554" y="215.324022" style="fill: #6495ed"/>
    </g>
    <g clip-path="url(#p075ccb5249)">
     <use xlink:href="#C0_0_74656aa854" x="334.613136" y="68.716241" style="fill: #f08080"/>
    </g>
    <g clip-path="url(#p075ccb5249)">
     <use xlink:href="#C0_0_74656aa854" x="316.131267" y="49.300787" style="fill: #f08080"/>
    </g>
    <g clip-path="url(#p075ccb5249)">
     <use xlink:href="#C0_0_74656aa854" x="113.764851" y="83.621888" style="fill: #6495ed"/>
    </g>
    <g clip-path="url(#p075ccb5249)">
     <use xlink:href="#C0_0_74656aa854" x="320.263109" y="215.977786" style="fill: #6495ed"/>
    </g>
    <g clip-path="url(#p075ccb5249)">
     <use xlink:href="#C0_0_74656aa854" x="339.088937" y="46.406172" style="fill: #f08080"/>
    </g>
    <g clip-path="url(#p075ccb5249)">
     <use xlink:href="#C0_0_74656aa854" x="363.321474" y="219.330203" style="fill: #6495ed"/>
    </g>
    <g clip-path="url(#p075ccb5249)">
     <use xlink:href="#C0_0_74656aa854" x="113.557897" y="212.871832" style="fill: #6495ed"/>
    </g>
    <g clip-path="url(#p075ccb5249)">
     <use xlink:href="#C0_0_74656aa854" x="336.551795" y="213.91812" style="fill: #6495ed"/>
    </g>
    <g clip-path="url(#p075ccb5249)">
     <use xlink:href="#C0_0_74656aa854" x="77.169887" y="239.347937" style="fill: #6495ed"/>
    </g>
    <g clip-path="url(#p075ccb5249)">
     <use xlink:href="#C0_0_74656aa854" x="125.123361" y="213.931102" style="fill: #6495ed"/>
    </g>
    <g clip-path="url(#p075ccb5249)">
     <use xlink:href="#C0_0_74656aa854" x="111.542265" y="211.213485" style="fill: #6495ed"/>
    </g>
    <g clip-path="url(#p075ccb5249)">
     <use xlink:href="#C0_0_74656aa854" x="106.358965" y="215.334987" style="fill: #6495ed"/>
    </g>
    <g clip-path="url(#p075ccb5249)">
     <use xlink:href="#C0_0_74656aa854" x="75.238058" y="73.510349" style="fill: #6495ed"/>
    </g>
    <g clip-path="url(#p075ccb5249)">
     <use xlink:href="#C0_0_74656aa854" x="334.2411" y="71.048939" style="fill: #f08080"/>
    </g>
    <g clip-path="url(#p075ccb5249)">
     <use xlink:href="#C0_0_74656aa854" x="100.00683" y="50.769534" style="fill: #6495ed"/>
    </g>
    <g clip-path="url(#p075ccb5249)">
     <use xlink:href="#C0_0_74656aa854" x="89.252278" y="78.974097" style="fill: #6495ed"/>
    </g>
    <g clip-path="url(#p075ccb5249)">
     <use xlink:href="#C0_0_74656aa854" x="361.716269" y="60.311396" style="fill: #f08080"/>
    </g>
    <g clip-path="url(#p075ccb5249)">
     <use xlink:href="#C0_0_74656aa854" x="356.696531" y="213.342748" style="fill: #6495ed"/>
    </g>
    <g clip-path="url(#p075ccb5249)">
     <use xlink:href="#C0_0_74656aa854" x="340.790268" y="83.034244" style="fill: #f08080"/>
    </g>
    <g clip-path="url(#p075ccb5249)">
     <use xlink:href="#C0_0_74656aa854" x="78.630031" y="61.742491" style="fill: #6495ed"/>
    </g>
    <g clip-path="url(#p075ccb5249)">
     <use xlink:href="#C0_0_74656aa854" x="78.86811" y="62.827464" style="fill: #6495ed"/>
    </g>
    <g clip-path="url(#p075ccb5249)">
     <use xlink:href="#C0_0_74656aa854" x="108.600586" y="240.156413" style="fill: #6495ed"/>
    </g>
    <g clip-path="url(#p075ccb5249)">
     <use xlink:href="#C0_0_74656aa854" x="120.160073" y="214.73149" style="fill: #6495ed"/>
    </g>
    <g clip-path="url(#p075ccb5249)">
     <use xlink:href="#C0_0_74656aa854" x="123.779355" y="44.70817" style="fill: #6495ed"/>
    </g>
    <g clip-path="url(#p075ccb5249)">
     <use xlink:href="#C0_0_74656aa854" x="101.867215" y="69.517553" style="fill: #6495ed"/>
    </g>
    <g clip-path="url(#p075ccb5249)">
     <use xlink:href="#C0_0_74656aa854" x="121.950165" y="66.229114" style="fill: #6495ed"/>
    </g>
    <g clip-path="url(#p075ccb5249)">
     <use xlink:href="#C0_0_74656aa854" x="95.597729" y="241.504446" style="fill: #6495ed"/>
    </g>
    <g clip-path="url(#p075ccb5249)">
     <use xlink:href="#C0_0_74656aa854" x="78.628472" y="56.240252" style="fill: #6495ed"/>
    </g>
    <g clip-path="url(#p075ccb5249)">
     <use xlink:href="#C0_0_74656aa854" x="109.870239" y="234.804696" style="fill: #6495ed"/>
    </g>
    <g clip-path="url(#p075ccb5249)">
     <use xlink:href="#C0_0_74656aa854" x="373.581818" y="211.218985" style="fill: #6495ed"/>
    </g>
    <g clip-path="url(#p075ccb5249)">
     <use xlink:href="#C0_0_74656aa854" x="363.486505" y="49.933075" style="fill: #f08080"/>
    </g>
    <g clip-path="url(#p075ccb5249)">
     <use xlink:href="#C0_0_74656aa854" x="368.628632" y="69.985522" style="fill: #f08080"/>
    </g>
    <g clip-path="url(#p075ccb5249)">
     <use xlink:href="#C0_0_74656aa854" x="325.649481" y="45.216647" style="fill: #f08080"/>
    </g>
    <g clip-path="url(#p075ccb5249)">
     <use xlink:href="#C0_0_74656aa854" x="329.836231" y="78.473029" style="fill: #f08080"/>
    </g>
    <g clip-path="url(#p075ccb5249)">
     <use xlink:href="#C0_0_74656aa854" x="328.177222" y="47.911976" style="fill: #f08080"/>
    </g>
    <g clip-path="url(#p075ccb5249)">
     <use xlink:href="#C0_0_74656aa854" x="109.186587" y="67.860624" style="fill: #6495ed"/>
    </g>
    <g clip-path="url(#p075ccb5249)">
     <use xlink:href="#C0_0_74656aa854" x="98.183977" y="222.701056" style="fill: #6495ed"/>
    </g>
    <g clip-path="url(#p075ccb5249)">
     <use xlink:href="#C0_0_74656aa854" x="335.307379" y="65.505076" style="fill: #f08080"/>
    </g>
    <g clip-path="url(#p075ccb5249)">
     <use xlink:href="#C0_0_74656aa854" x="354.455501" y="220.177102" style="fill: #6495ed"/>
    </g>
    <g clip-path="url(#p075ccb5249)">
     <use xlink:href="#C0_0_74656aa854" x="123.577605" y="74.764529" style="fill: #6495ed"/>
    </g>
    <g clip-path="url(#p075ccb5249)">
     <use xlink:href="#C0_0_74656aa854" x="357.560286" y="211.908802" style="fill: #6495ed"/>
    </g>
    <g clip-path="url(#p075ccb5249)">
     <use xlink:href="#C0_0_74656aa854" x="344.026908" y="47.982838" style="fill: #f08080"/>
    </g>
    <g clip-path="url(#p075ccb5249)">
     <use xlink:href="#C0_0_74656aa854" x="107.782709" y="222.580519" style="fill: #6495ed"/>
    </g>
    <g clip-path="url(#p075ccb5249)">
     <use xlink:href="#C0_0_74656aa854" x="119.363446" y="220.087133" style="fill: #6495ed"/>
    </g>
    <g clip-path="url(#p075ccb5249)">
     <use xlink:href="#C0_0_74656aa854" x="113.345165" y="223.63678" style="fill: #6495ed"/>
    </g>
    <g clip-path="url(#p075ccb5249)">
     <use xlink:href="#C0_0_74656aa854" x="107.01669" y="209.990991" style="fill: #6495ed"/>
    </g>
    <g clip-path="url(#p075ccb5249)">
     <use xlink:href="#C0_0_74656aa854" x="83.748351" y="76.093178" style="fill: #6495ed"/>
    </g>
    <g clip-path="url(#p075ccb5249)">
     <use xlink:href="#C0_0_74656aa854" x="121.651511" y="72.941705" style="fill: #6495ed"/>
    </g>
    <g clip-path="url(#p075ccb5249)">
     <use xlink:href="#C0_0_74656aa854" x="353.655684" y="206.63197" style="fill: #6495ed"/>
    </g>
    <g clip-path="url(#p075ccb5249)">
     <use xlink:href="#C0_0_74656aa854" x="361.919586" y="215.563179" style="fill: #6495ed"/>
    </g>
    <g clip-path="url(#p075ccb5249)">
     <use xlink:href="#C0_0_74656aa854" x="91.992075" y="203.597914" style="fill: #6495ed"/>
    </g>
    <g clip-path="url(#p075ccb5249)">
     <use xlink:href="#C0_0_74656aa854" x="104.85295" y="63.389339" style="fill: #6495ed"/>
    </g>
    <g clip-path="url(#p075ccb5249)">
     <use xlink:href="#C0_0_74656aa854" x="69.218182" y="223.118019" style="fill: #6495ed"/>
    </g>
    <g clip-path="url(#p075ccb5249)">
     <use xlink:href="#C0_0_74656aa854" x="87.838234" y="71.551937" style="fill: #6495ed"/>
    </g>
    <g clip-path="url(#p075ccb5249)">
     <use xlink:href="#C0_0_74656aa854" x="346.928537" y="65.170734" style="fill: #f08080"/>
    </g>
    <g clip-path="url(#p075ccb5249)">
     <use xlink:href="#C0_0_74656aa854" x="115.307265" y="229.42719" style="fill: #6495ed"/>
    </g>
    <g clip-path="url(#p075ccb5249)">
     <use xlink:href="#C0_0_74656aa854" x="129.184478" y="209.536124" style="fill: #6495ed"/>
    </g>
    <g clip-path="url(#p075ccb5249)">
     <use xlink:href="#C0_0_74656aa854" x="84.895691" y="58.850507" style="fill: #6495ed"/>
    </g>
    <g clip-path="url(#p075ccb5249)">
     <use xlink:href="#C0_0_74656aa854" x="347.275013" y="62.611634" style="fill: #f08080"/>
    </g>
    <g clip-path="url(#p075ccb5249)">
     <use xlink:href="#C0_0_74656aa854" x="83.09951" y="49.403889" style="fill: #6495ed"/>
    </g>
    <g clip-path="url(#p075ccb5249)">
     <use xlink:href="#C0_0_74656aa854" x="83.201827" y="69.192863" style="fill: #6495ed"/>
    </g>
    <g clip-path="url(#p075ccb5249)">
     <use xlink:href="#C0_0_74656aa854" x="79.680074" y="238.399537" style="fill: #6495ed"/>
    </g>
    <g clip-path="url(#p075ccb5249)">
     <use xlink:href="#C0_0_74656aa854" x="104.455644" y="207.639129" style="fill: #6495ed"/>
    </g>
    <g clip-path="url(#p075ccb5249)">
     <use xlink:href="#C0_0_74656aa854" x="77.08698" y="48.44293" style="fill: #6495ed"/>
    </g>
    <g clip-path="url(#p075ccb5249)">
     <use xlink:href="#C0_0_74656aa854" x="334.403521" y="225.561189" style="fill: #6495ed"/>
    </g>
    <g clip-path="url(#p075ccb5249)">
     <use xlink:href="#C0_0_74656aa854" x="352.12026" y="208.363592" style="fill: #6495ed"/>
    </g>
    <g clip-path="url(#p075ccb5249)">
     <use xlink:href="#C0_0_74656aa854" x="81.005381" y="229.824403" style="fill: #6495ed"/>
    </g>
    <g clip-path="url(#p075ccb5249)">
     <use xlink:href="#C0_0_74656aa854" x="369.426744" y="54.026362" style="fill: #f08080"/>
    </g>
    <g clip-path="url(#p075ccb5249)">
     <use xlink:href="#C0_0_74656aa854" x="347.299507" y="231.876018" style="fill: #6495ed"/>
    </g>
    <g clip-path="url(#p075ccb5249)">
     <use xlink:href="#C0_0_74656aa854" x="335.944145" y="240.400916" style="fill: #6495ed"/>
    </g>
    <g clip-path="url(#p075ccb5249)">
     <use xlink:href="#C0_0_74656aa854" x="120.793375" y="68.100441" style="fill: #6495ed"/>
    </g>
    <g clip-path="url(#p075ccb5249)">
     <use xlink:href="#C0_0_74656aa854" x="371.418905" y="74.540937" style="fill: #f08080"/>
    </g>
    <g clip-path="url(#p075ccb5249)">
     <use xlink:href="#C0_0_74656aa854" x="76.083487" y="218.021835" style="fill: #6495ed"/>
    </g>
    <g clip-path="url(#p075ccb5249)">
     <use xlink:href="#C0_0_74656aa854" x="120.242087" y="71.763245" style="fill: #6495ed"/>
    </g>
    <g clip-path="url(#p075ccb5249)">
     <use xlink:href="#C0_0_74656aa854" x="369.423135" y="215.367838" style="fill: #6495ed"/>
    </g>
    <g clip-path="url(#p075ccb5249)">
     <use xlink:href="#C0_0_74656aa854" x="110.576768" y="217.376161" style="fill: #6495ed"/>
    </g>
    <g clip-path="url(#p075ccb5249)">
     <use xlink:href="#C0_0_74656aa854" x="106.276432" y="63.812579" style="fill: #6495ed"/>
    </g>
    <g clip-path="url(#p075ccb5249)">
     <use xlink:href="#C0_0_74656aa854" x="335.67541" y="212.44687" style="fill: #6495ed"/>
    </g>
    <g clip-path="url(#p075ccb5249)">
     <use xlink:href="#C0_0_74656aa854" x="351.179431" y="56.922487" style="fill: #f08080"/>
    </g>
    <g clip-path="url(#p075ccb5249)">
     <use xlink:href="#C0_0_74656aa854" x="358.106976" y="242.116364" style="fill: #6495ed"/>
    </g>
    <g clip-path="url(#p075ccb5249)">
     <use xlink:href="#C0_0_74656aa854" x="85.485928" y="213.762088" style="fill: #6495ed"/>
    </g>
    <g clip-path="url(#p075ccb5249)">
     <use xlink:href="#C0_0_74656aa854" x="314.024642" y="49.585792" style="fill: #f08080"/>
    </g>
    <g clip-path="url(#p075ccb5249)">
     <use xlink:href="#C0_0_74656aa854" x="363.785812" y="222.518344" style="fill: #6495ed"/>
    </g>
    <g clip-path="url(#p075ccb5249)">
     <use xlink:href="#C0_0_74656aa854" x="339.877204" y="207.350354" style="fill: #6495ed"/>
    </g>
    <g clip-path="url(#p075ccb5249)">
     <use xlink:href="#C0_0_74656aa854" x="97.404572" y="214.738838" style="fill: #6495ed"/>
    </g>
    <g clip-path="url(#p075ccb5249)">
     <use xlink:href="#C0_0_74656aa854" x="328.70945" y="58.025335" style="fill: #f08080"/>
    </g>
    <g clip-path="url(#p075ccb5249)">
     <use xlink:href="#C0_0_74656aa854" x="344.980348" y="59.599698" style="fill: #f08080"/>
    </g>
    <g clip-path="url(#p075ccb5249)">
     <use xlink:href="#C0_0_74656aa854" x="72.611778" y="207.180262" style="fill: #6495ed"/>
    </g>
    <g clip-path="url(#p075ccb5249)">
     <use xlink:href="#C0_0_74656aa854" x="102.893932" y="225.506817" style="fill: #6495ed"/>
    </g>
    <g clip-path="url(#p075ccb5249)">
     <use xlink:href="#C0_0_74656aa854" x="74.340132" y="62.719161" style="fill: #6495ed"/>
    </g>
    <g clip-path="url(#p075ccb5249)">
     <use xlink:href="#C0_0_74656aa854" x="361.358516" y="238.644218" style="fill: #6495ed"/>
    </g>
    <g clip-path="url(#p075ccb5249)">
     <use xlink:href="#C0_0_74656aa854" x="337.178644" y="54.400778" style="fill: #f08080"/>
    </g>
    <g clip-path="url(#p075ccb5249)">
     <use xlink:href="#C0_0_74656aa854" x="330.758174" y="61.071049" style="fill: #f08080"/>
    </g>
    <g clip-path="url(#p075ccb5249)">
     <use xlink:href="#C0_0_74656aa854" x="331.854118" y="47.556922" style="fill: #f08080"/>
    </g>
    <g clip-path="url(#p075ccb5249)">
     <use xlink:href="#C0_0_74656aa854" x="101.772713" y="44.443636" style="fill: #6495ed"/>
    </g>
    <g clip-path="url(#p075ccb5249)">
     <use xlink:href="#C0_0_74656aa854" x="326.359227" y="213.380162" style="fill: #6495ed"/>
    </g>
    <g clip-path="url(#p075ccb5249)">
     <use xlink:href="#C0_0_74656aa854" x="120.450054" y="62.733612" style="fill: #6495ed"/>
    </g>
    <g clip-path="url(#p075ccb5249)">
     <use xlink:href="#C0_0_74656aa854" x="90.802685" y="56.133009" style="fill: #6495ed"/>
    </g>
    <g clip-path="url(#p075ccb5249)">
     <use xlink:href="#C0_0_74656aa854" x="78.713405" y="63.810839" style="fill: #6495ed"/>
    </g>
    <g clip-path="url(#p075ccb5249)">
     <use xlink:href="#C0_0_74656aa854" x="78.864844" y="202.846613" style="fill: #6495ed"/>
    </g>
    <g clip-path="url(#p075ccb5249)">
     <use xlink:href="#C0_0_74656aa854" x="117.117803" y="209.095566" style="fill: #6495ed"/>
    </g>
    <g clip-path="url(#p075ccb5249)">
     <use xlink:href="#C0_0_74656aa854" x="77.249634" y="212.907441" style="fill: #6495ed"/>
    </g>
    <g clip-path="url(#p075ccb5249)">
     <use xlink:href="#C0_0_74656aa854" x="315.121429" y="66.102379" style="fill: #f08080"/>
    </g>
    <g clip-path="url(#p075ccb5249)">
     <use xlink:href="#C0_0_74656aa854" x="355.874644" y="66.370553" style="fill: #f08080"/>
    </g>
    <g clip-path="url(#p075ccb5249)">
     <use xlink:href="#C0_0_74656aa854" x="358.727719" y="51.37995" style="fill: #f08080"/>
    </g>
    <g clip-path="url(#p075ccb5249)">
     <use xlink:href="#C0_0_74656aa854" x="99.24014" y="70.691871" style="fill: #6495ed"/>
    </g>
    <g clip-path="url(#p075ccb5249)">
     <use xlink:href="#C0_0_74656aa854" x="357.040187" y="69.328354" style="fill: #f08080"/>
    </g>
    <g clip-path="url(#p075ccb5249)">
     <use xlink:href="#C0_0_74656aa854" x="346.871507" y="76.576206" style="fill: #f08080"/>
    </g>
    <g clip-path="url(#p075ccb5249)">
     <use xlink:href="#C0_0_74656aa854" x="81.908114" y="212.298323" style="fill: #6495ed"/>
    </g>
    <g clip-path="url(#p075ccb5249)">
     <use xlink:href="#C0_0_74656aa854" x="118.477789" y="75.644811" style="fill: #6495ed"/>
    </g>
    <g clip-path="url(#p075ccb5249)">
     <use xlink:href="#C0_0_74656aa854" x="367.195838" y="60.305323" style="fill: #f08080"/>
    </g>
    <g clip-path="url(#p075ccb5249)">
     <use xlink:href="#C0_0_74656aa854" x="94.920364" y="67.745725" style="fill: #6495ed"/>
    </g>
    <g clip-path="url(#p075ccb5249)">
     <use xlink:href="#C0_0_74656aa854" x="354.243955" y="215.082844" style="fill: #6495ed"/>
    </g>
    <g clip-path="url(#p075ccb5249)">
     <use xlink:href="#C0_0_74656aa854" x="366.55508" y="51.718674" style="fill: #f08080"/>
    </g>
    <g clip-path="url(#p075ccb5249)">
     <use xlink:href="#C0_0_74656aa854" x="93.351304" y="74.467171" style="fill: #6495ed"/>
    </g>
    <g clip-path="url(#p075ccb5249)">
     <use xlink:href="#C0_0_74656aa854" x="119.732131" y="54.38759" style="fill: #6495ed"/>
    </g>
    <g clip-path="url(#p075ccb5249)">
     <use xlink:href="#C0_0_74656aa854" x="330.978948" y="219.80721" style="fill: #6495ed"/>
    </g>
    <g clip-path="url(#p075ccb5249)">
     <use xlink:href="#C0_0_74656aa854" x="316.381638" y="216.062183" style="fill: #6495ed"/>
    </g>
    <g clip-path="url(#p075ccb5249)">
     <use xlink:href="#C0_0_74656aa854" x="107.272209" y="60.776587" style="fill: #6495ed"/>
    </g>
    <g clip-path="url(#p075ccb5249)">
     <use xlink:href="#C0_0_74656aa854" x="333.207777" y="232.000739" style="fill: #6495ed"/>
    </g>
    <g clip-path="url(#p075ccb5249)">
     <use xlink:href="#C0_0_74656aa854" x="345.540682" y="235.619277" style="fill: #6495ed"/>
    </g>
    <g clip-path="url(#p075ccb5249)">
     <use xlink:href="#C0_0_74656aa854" x="86.924695" y="77.792643" style="fill: #6495ed"/>
    </g>
    <g clip-path="url(#p075ccb5249)">
     <use xlink:href="#C0_0_74656aa854" x="78.095568" y="47.456164" style="fill: #6495ed"/>
    </g>
    <g clip-path="url(#p075ccb5249)">
     <use xlink:href="#C0_0_74656aa854" x="95.440995" y="209.942606" style="fill: #6495ed"/>
    </g>
    <g clip-path="url(#p075ccb5249)">
     <use xlink:href="#C0_0_74656aa854" x="325.256666" y="215.648244" style="fill: #6495ed"/>
    </g>
    <g clip-path="url(#p075ccb5249)">
     <use xlink:href="#C0_0_74656aa854" x="119.36971" y="46.656032" style="fill: #6495ed"/>
    </g>
    <g clip-path="url(#p075ccb5249)">
     <use xlink:href="#C0_0_74656aa854" x="87.132195" y="217.492724" style="fill: #6495ed"/>
    </g>
    <g clip-path="url(#p075ccb5249)">
     <use xlink:href="#C0_0_74656aa854" x="340.91869" y="57.989019" style="fill: #f08080"/>
    </g>
    <g clip-path="url(#p075ccb5249)">
     <use xlink:href="#C0_0_74656aa854" x="71.466445" y="78.583167" style="fill: #6495ed"/>
    </g>
    <g clip-path="url(#p075ccb5249)">
     <use xlink:href="#C0_0_74656aa854" x="116.176109" y="211.621419" style="fill: #6495ed"/>
    </g>
    <g clip-path="url(#p075ccb5249)">
     <use xlink:href="#C0_0_74656aa854" x="72.216359" y="240.958542" style="fill: #6495ed"/>
    </g>
    <g clip-path="url(#p075ccb5249)">
     <use xlink:href="#C0_0_74656aa854" x="371.84186" y="54.849193" style="fill: #f08080"/>
    </g>
    <g clip-path="url(#p075ccb5249)">
     <use xlink:href="#C0_0_74656aa854" x="344.676371" y="203.376739" style="fill: #6495ed"/>
    </g>
    <g clip-path="url(#p075ccb5249)">
     <use xlink:href="#C0_0_74656aa854" x="95.962565" y="82.707825" style="fill: #6495ed"/>
    </g>
    <g clip-path="url(#p075ccb5249)">
     <use xlink:href="#C0_0_74656aa854" x="123.922668" y="238.118179" style="fill: #6495ed"/>
    </g>
    <g clip-path="url(#p075ccb5249)">
     <use xlink:href="#C0_0_74656aa854" x="105.088147" y="65.701301" style="fill: #6495ed"/>
    </g>
    <g clip-path="url(#p075ccb5249)">
     <use xlink:href="#C0_0_74656aa854" x="344.379616" y="237.561672" style="fill: #6495ed"/>
    </g>
    <g clip-path="url(#p075ccb5249)">
     <use xlink:href="#C0_0_74656aa854" x="85.386792" y="49.655411" style="fill: #6495ed"/>
    </g>
    <g clip-path="url(#p075ccb5249)">
     <use xlink:href="#C0_0_74656aa854" x="71.856571" y="81.503217" style="fill: #6495ed"/>
    </g>
    <g clip-path="url(#p075ccb5249)">
     <use xlink:href="#C0_0_74656aa854" x="74.541015" y="237.077997" style="fill: #6495ed"/>
    </g>
    <g clip-path="url(#p075ccb5249)">
     <use xlink:href="#C0_0_74656aa854" x="102.977392" y="211.135524" style="fill: #6495ed"/>
    </g>
    <g clip-path="url(#p075ccb5249)">
     <use xlink:href="#C0_0_74656aa854" x="365.820094" y="83.402959" style="fill: #f08080"/>
    </g>
    <g clip-path="url(#p075ccb5249)">
     <use xlink:href="#C0_0_74656aa854" x="357.504309" y="209.908042" style="fill: #6495ed"/>
    </g>
   </g>
   <g id="PathCollection_2"/>
   <g id="PathCollection_3"/>
   <g id="matplotlib.axis_1">
    <g id="xtick_1">
     <g id="line2d_1">
      <defs>
       <path id="md655cb517d" d="M 0 0 
L 0 3.5 
" style="stroke: #000000; stroke-width: 0.8"/>
      </defs>
      <g>
       <use xlink:href="#md655cb517d" x="69.042796" y="252" style="stroke: #000000; stroke-width: 0.8"/>
      </g>
     </g>
    </g>
    <g id="xtick_2">
     <g id="line2d_2">
      <g>
       <use xlink:href="#md655cb517d" x="107.318051" y="252" style="stroke: #000000; stroke-width: 0.8"/>
      </g>
     </g>
    </g>
    <g id="xtick_3">
     <g id="line2d_3">
      <g>
       <use xlink:href="#md655cb517d" x="145.593305" y="252" style="stroke: #000000; stroke-width: 0.8"/>
      </g>
     </g>
    </g>
    <g id="xtick_4">
     <g id="line2d_4">
      <g>
       <use xlink:href="#md655cb517d" x="183.868559" y="252" style="stroke: #000000; stroke-width: 0.8"/>
      </g>
     </g>
    </g>
    <g id="xtick_5">
     <g id="line2d_5">
      <g>
       <use xlink:href="#md655cb517d" x="222.143813" y="252" style="stroke: #000000; stroke-width: 0.8"/>
      </g>
     </g>
    </g>
    <g id="xtick_6">
     <g id="line2d_6">
      <g>
       <use xlink:href="#md655cb517d" x="260.419067" y="252" style="stroke: #000000; stroke-width: 0.8"/>
      </g>
     </g>
    </g>
    <g id="xtick_7">
     <g id="line2d_7">
      <g>
       <use xlink:href="#md655cb517d" x="298.694321" y="252" style="stroke: #000000; stroke-width: 0.8"/>
      </g>
     </g>
    </g>
    <g id="xtick_8">
     <g id="line2d_8">
      <g>
       <use xlink:href="#md655cb517d" x="336.969575" y="252" style="stroke: #000000; stroke-width: 0.8"/>
      </g>
     </g>
    </g>
    <g id="xtick_9">
     <g id="line2d_9">
      <g>
       <use xlink:href="#md655cb517d" x="375.24483" y="252" style="stroke: #000000; stroke-width: 0.8"/>
      </g>
     </g>
    </g>
    <g id="text_1">
     <!-- - -->
     <g transform="translate(219.596094 270.598437)scale(0.1 -0.1)">
      <defs>
       <path id="DejaVuSans-2d" d="M 313 2009 
L 1997 2009 
L 1997 1497 
L 313 1497 
L 313 2009 
z
" transform="scale(0.015625)"/>
      </defs>
      <use xlink:href="#DejaVuSans-2d"/>
     </g>
    </g>
   </g>
   <g id="matplotlib.axis_2">
    <g id="ytick_1">
     <g id="line2d_10">
      <defs>
       <path id="m9030ae472e" d="M 0 0 
L -3.5 0 
" style="stroke: #000000; stroke-width: 0.8"/>
      </defs>
      <g>
       <use xlink:href="#m9030ae472e" x="54" y="242.395555" style="stroke: #000000; stroke-width: 0.8"/>
      </g>
     </g>
    </g>
    <g id="ytick_2">
     <g id="line2d_11">
      <g>
       <use xlink:href="#m9030ae472e" x="54" y="217.615945" style="stroke: #000000; stroke-width: 0.8"/>
      </g>
     </g>
    </g>
    <g id="ytick_3">
     <g id="line2d_12">
      <g>
       <use xlink:href="#m9030ae472e" x="54" y="192.836334" style="stroke: #000000; stroke-width: 0.8"/>
      </g>
     </g>
    </g>
    <g id="ytick_4">
     <g id="line2d_13">
      <g>
       <use xlink:href="#m9030ae472e" x="54" y="168.056724" style="stroke: #000000; stroke-width: 0.8"/>
      </g>
     </g>
    </g>
    <g id="ytick_5">
     <g id="line2d_14">
      <g>
       <use xlink:href="#m9030ae472e" x="54" y="143.277113" style="stroke: #000000; stroke-width: 0.8"/>
      </g>
     </g>
    </g>
    <g id="ytick_6">
     <g id="line2d_15">
      <g>
       <use xlink:href="#m9030ae472e" x="54" y="118.497503" style="stroke: #000000; stroke-width: 0.8"/>
      </g>
     </g>
    </g>
    <g id="ytick_7">
     <g id="line2d_16">
      <g>
       <use xlink:href="#m9030ae472e" x="54" y="93.717892" style="stroke: #000000; stroke-width: 0.8"/>
      </g>
     </g>
    </g>
    <g id="ytick_8">
     <g id="line2d_17">
      <g>
       <use xlink:href="#m9030ae472e" x="54" y="68.938282" style="stroke: #000000; stroke-width: 0.8"/>
      </g>
     </g>
    </g>
    <g id="ytick_9">
     <g id="line2d_18">
      <g>
       <use xlink:href="#m9030ae472e" x="54" y="44.158672" style="stroke: #000000; stroke-width: 0.8"/>
      </g>
     </g>
    </g>
    <g id="text_2">
     <!-- - -->
     <g transform="translate(40.920313 145.083906)rotate(-90)scale(0.1 -0.1)">
      <use xlink:href="#DejaVuSans-2d"/>
     </g>
    </g>
   </g>
   <g id="patch_3">
    <path d="M 54 252 
L 54 34.56 
" style="fill: none; stroke: #000000; stroke-width: 0.8; stroke-linejoin: miter; stroke-linecap: square"/>
   </g>
   <g id="patch_4">
    <path d="M 388.8 252 
L 388.8 34.56 
" style="fill: none; stroke: #000000; stroke-width: 0.8; stroke-linejoin: miter; stroke-linecap: square"/>
   </g>
   <g id="patch_5">
    <path d="M 54 252 
L 388.8 252 
" style="fill: none; stroke: #000000; stroke-width: 0.8; stroke-linejoin: miter; stroke-linecap: square"/>
   </g>
   <g id="patch_6">
    <path d="M 54 34.56 
L 388.8 34.56 
" style="fill: none; stroke: #000000; stroke-width: 0.8; stroke-linejoin: miter; stroke-linecap: square"/>
   </g>
   <g id="legend_1">
    <g id="patch_7">
     <path d="M 330.984375 166.797188 
L 381.8 166.797188 
Q 383.8 166.797188 383.8 164.797188 
L 383.8 121.762812 
Q 383.8 119.762812 381.8 119.762812 
L 330.984375 119.762812 
Q 328.984375 119.762812 328.984375 121.762812 
L 328.984375 164.797188 
Q 328.984375 166.797188 330.984375 166.797188 
z
" style="fill: #ffffff; opacity: 0.8; stroke: #cccccc; stroke-linejoin: miter"/>
    </g>
    <g id="text_3">
     <!-- species -->
     <g transform="translate(337.717188 131.36125)scale(0.1 -0.1)">
      <defs>
       <path id="DejaVuSans-73" d="M 2834 3397 
L 2834 2853 
Q 2591 2978 2328 3040 
Q 2066 3103 1784 3103 
Q 1356 3103 1142 2972 
Q 928 2841 928 2578 
Q 928 2378 1081 2264 
Q 1234 2150 1697 2047 
L 1894 2003 
Q 2506 1872 2764 1633 
Q 3022 1394 3022 966 
Q 3022 478 2636 193 
Q 2250 -91 1575 -91 
Q 1294 -91 989 -36 
Q 684 19 347 128 
L 347 722 
Q 666 556 975 473 
Q 1284 391 1588 391 
Q 1994 391 2212 530 
Q 2431 669 2431 922 
Q 2431 1156 2273 1281 
Q 2116 1406 1581 1522 
L 1381 1569 
Q 847 1681 609 1914 
Q 372 2147 372 2553 
Q 372 3047 722 3315 
Q 1072 3584 1716 3584 
Q 2034 3584 2315 3537 
Q 2597 3491 2834 3397 
z
" transform="scale(0.015625)"/>
       <path id="DejaVuSans-70" d="M 1159 525 
L 1159 -1331 
L 581 -1331 
L 581 3500 
L 1159 3500 
L 1159 2969 
Q 1341 3281 1617 3432 
Q 1894 3584 2278 3584 
Q 2916 3584 3314 3078 
Q 3713 2572 3713 1747 
Q 3713 922 3314 415 
Q 2916 -91 2278 -91 
Q 1894 -91 1617 61 
Q 1341 213 1159 525 
z
M 3116 1747 
Q 3116 2381 2855 2742 
Q 2594 3103 2138 3103 
Q 1681 3103 1420 2742 
Q 1159 2381 1159 1747 
Q 1159 1113 1420 752 
Q 1681 391 2138 391 
Q 2594 391 2855 752 
Q 3116 1113 3116 1747 
z
" transform="scale(0.015625)"/>
       <path id="DejaVuSans-65" d="M 3597 1894 
L 3597 1613 
L 953 1613 
Q 991 1019 1311 708 
Q 1631 397 2203 397 
Q 2534 397 2845 478 
Q 3156 559 3463 722 
L 3463 178 
Q 3153 47 2828 -22 
Q 2503 -91 2169 -91 
Q 1331 -91 842 396 
Q 353 884 353 1716 
Q 353 2575 817 3079 
Q 1281 3584 2069 3584 
Q 2775 3584 3186 3129 
Q 3597 2675 3597 1894 
z
M 3022 2063 
Q 3016 2534 2758 2815 
Q 2500 3097 2075 3097 
Q 1594 3097 1305 2825 
Q 1016 2553 972 2059 
L 3022 2063 
z
" transform="scale(0.015625)"/>
       <path id="DejaVuSans-63" d="M 3122 3366 
L 3122 2828 
Q 2878 2963 2633 3030 
Q 2388 3097 2138 3097 
Q 1578 3097 1268 2742 
Q 959 2388 959 1747 
Q 959 1106 1268 751 
Q 1578 397 2138 397 
Q 2388 397 2633 464 
Q 2878 531 3122 666 
L 3122 134 
Q 2881 22 2623 -34 
Q 2366 -91 2075 -91 
Q 1284 -91 818 406 
Q 353 903 353 1747 
Q 353 2603 823 3093 
Q 1294 3584 2113 3584 
Q 2378 3584 2631 3529 
Q 2884 3475 3122 3366 
z
" transform="scale(0.015625)"/>
       <path id="DejaVuSans-69" d="M 603 3500 
L 1178 3500 
L 1178 0 
L 603 0 
L 603 3500 
z
M 603 4863 
L 1178 4863 
L 1178 4134 
L 603 4134 
L 603 4863 
z
" transform="scale(0.015625)"/>
      </defs>
      <use xlink:href="#DejaVuSans-73"/>
      <use xlink:href="#DejaVuSans-70" x="52.099609"/>
      <use xlink:href="#DejaVuSans-65" x="115.576172"/>
      <use xlink:href="#DejaVuSans-63" x="177.099609"/>
      <use xlink:href="#DejaVuSans-69" x="232.080078"/>
      <use xlink:href="#DejaVuSans-65" x="259.863281"/>
      <use xlink:href="#DejaVuSans-73" x="321.386719"/>
     </g>
    </g>
    <g id="PathCollection_4">
     <defs>
      <path id="m58dd7eea54" d="M 0 3 
C 0.795609 3 1.55874 2.683901 2.12132 2.12132 
C 2.683901 1.55874 3 0.795609 3 0 
C 3 -0.795609 2.683901 -1.55874 2.12132 -2.12132 
C 1.55874 -2.683901 0.795609 -3 0 -3 
C -0.795609 -3 -1.55874 -2.683901 -2.12132 -2.12132 
C -2.683901 -1.55874 -3 -0.795609 -3 0 
C -3 0.795609 -2.683901 1.55874 -2.12132 2.12132 
C -1.55874 2.683901 -0.795609 3 0 3 
z
" style="stroke: #6495ed"/>
     </defs>
     <g>
      <use xlink:href="#m58dd7eea54" x="342.984375" y="143.414375" style="fill: #6495ed; stroke: #6495ed"/>
     </g>
    </g>
    <g id="text_4">
     <!-- cat -->
     <g transform="translate(360.984375 146.039375)scale(0.1 -0.1)">
      <defs>
       <path id="DejaVuSans-61" d="M 2194 1759 
Q 1497 1759 1228 1600 
Q 959 1441 959 1056 
Q 959 750 1161 570 
Q 1363 391 1709 391 
Q 2188 391 2477 730 
Q 2766 1069 2766 1631 
L 2766 1759 
L 2194 1759 
z
M 3341 1997 
L 3341 0 
L 2766 0 
L 2766 531 
Q 2569 213 2275 61 
Q 1981 -91 1556 -91 
Q 1019 -91 701 211 
Q 384 513 384 1019 
Q 384 1609 779 1909 
Q 1175 2209 1959 2209 
L 2766 2209 
L 2766 2266 
Q 2766 2663 2505 2880 
Q 2244 3097 1772 3097 
Q 1472 3097 1187 3025 
Q 903 2953 641 2809 
L 641 3341 
Q 956 3463 1253 3523 
Q 1550 3584 1831 3584 
Q 2591 3584 2966 3190 
Q 3341 2797 3341 1997 
z
" transform="scale(0.015625)"/>
       <path id="DejaVuSans-74" d="M 1172 4494 
L 1172 3500 
L 2356 3500 
L 2356 3053 
L 1172 3053 
L 1172 1153 
Q 1172 725 1289 603 
Q 1406 481 1766 481 
L 2356 481 
L 2356 0 
L 1766 0 
Q 1100 0 847 248 
Q 594 497 594 1153 
L 594 3053 
L 172 3053 
L 172 3500 
L 594 3500 
L 594 4494 
L 1172 4494 
z
" transform="scale(0.015625)"/>
      </defs>
      <use xlink:href="#DejaVuSans-63"/>
      <use xlink:href="#DejaVuSans-61" x="54.980469"/>
      <use xlink:href="#DejaVuSans-74" x="116.259766"/>
     </g>
    </g>
    <g id="PathCollection_5">
     <defs>
      <path id="m06fb595823" d="M 0 3 
C 0.795609 3 1.55874 2.683901 2.12132 2.12132 
C 2.683901 1.55874 3 0.795609 3 0 
C 3 -0.795609 2.683901 -1.55874 2.12132 -2.12132 
C 1.55874 -2.683901 0.795609 -3 0 -3 
C -0.795609 -3 -1.55874 -2.683901 -2.12132 -2.12132 
C -2.683901 -1.55874 -3 -0.795609 -3 0 
C -3 0.795609 -2.683901 1.55874 -2.12132 2.12132 
C -1.55874 2.683901 -0.795609 3 0 3 
z
" style="stroke: #f08080"/>
     </defs>
     <g>
      <use xlink:href="#m06fb595823" x="342.984375" y="158.0925" style="fill: #f08080; stroke: #f08080"/>
     </g>
    </g>
    <g id="text_5">
     <!-- dog -->
     <g transform="translate(360.984375 160.7175)scale(0.1 -0.1)">
      <defs>
       <path id="DejaVuSans-64" d="M 2906 2969 
L 2906 4863 
L 3481 4863 
L 3481 0 
L 2906 0 
L 2906 525 
Q 2725 213 2448 61 
Q 2172 -91 1784 -91 
Q 1150 -91 751 415 
Q 353 922 353 1747 
Q 353 2572 751 3078 
Q 1150 3584 1784 3584 
Q 2172 3584 2448 3432 
Q 2725 3281 2906 2969 
z
M 947 1747 
Q 947 1113 1208 752 
Q 1469 391 1925 391 
Q 2381 391 2643 752 
Q 2906 1113 2906 1747 
Q 2906 2381 2643 2742 
Q 2381 3103 1925 3103 
Q 1469 3103 1208 2742 
Q 947 2381 947 1747 
z
" transform="scale(0.015625)"/>
       <path id="DejaVuSans-6f" d="M 1959 3097 
Q 1497 3097 1228 2736 
Q 959 2375 959 1747 
Q 959 1119 1226 758 
Q 1494 397 1959 397 
Q 2419 397 2687 759 
Q 2956 1122 2956 1747 
Q 2956 2369 2687 2733 
Q 2419 3097 1959 3097 
z
M 1959 3584 
Q 2709 3584 3137 3096 
Q 3566 2609 3566 1747 
Q 3566 888 3137 398 
Q 2709 -91 1959 -91 
Q 1206 -91 779 398 
Q 353 888 353 1747 
Q 353 2609 779 3096 
Q 1206 3584 1959 3584 
z
" transform="scale(0.015625)"/>
       <path id="DejaVuSans-67" d="M 2906 1791 
Q 2906 2416 2648 2759 
Q 2391 3103 1925 3103 
Q 1463 3103 1205 2759 
Q 947 2416 947 1791 
Q 947 1169 1205 825 
Q 1463 481 1925 481 
Q 2391 481 2648 825 
Q 2906 1169 2906 1791 
z
M 3481 434 
Q 3481 -459 3084 -895 
Q 2688 -1331 1869 -1331 
Q 1566 -1331 1297 -1286 
Q 1028 -1241 775 -1147 
L 775 -588 
Q 1028 -725 1275 -790 
Q 1522 -856 1778 -856 
Q 2344 -856 2625 -561 
Q 2906 -266 2906 331 
L 2906 616 
Q 2728 306 2450 153 
Q 2172 0 1784 0 
Q 1141 0 747 490 
Q 353 981 353 1791 
Q 353 2603 747 3093 
Q 1141 3584 1784 3584 
Q 2172 3584 2450 3431 
Q 2728 3278 2906 2969 
L 2906 3500 
L 3481 3500 
L 3481 434 
z
" transform="scale(0.015625)"/>
      </defs>
      <use xlink:href="#DejaVuSans-64"/>
      <use xlink:href="#DejaVuSans-6f" x="63.476562"/>
      <use xlink:href="#DejaVuSans-67" x="124.658203"/>
     </g>
    </g>
   </g>
  </g>
 </g>
 <defs>
  <clipPath id="p075ccb5249">
   <rect x="54" y="34.56" width="334.8" height="217.44"/>
  </clipPath>
 </defs>
</svg>
