<?xml version="1.0" encoding="utf-8" standalone="no"?>
<!DOCTYPE svg PUBLIC "-//W3C//DTD SVG 1.1//EN"
  "http://www.w3.org/Graphics/SVG/1.1/DTD/svg11.dtd">
<svg xmlns:xlink="http://www.w3.org/1999/xlink" width="460.8pt" height="345.6pt" viewBox="0 0 460.8 345.6" xmlns="http://www.w3.org/2000/svg" version="1.1">
 <metadata>
  <rdf:RDF xmlns:dc="http://purl.org/dc/elements/1.1/" xmlns:cc="http://creativecommons.org/ns#" xmlns:rdf="http://www.w3.org/1999/02/22-rdf-syntax-ns#">
   <cc:Work>
    <dc:type rdf:resource="http://purl.org/dc/dcmitype/StillImage"/>
    <dc:date>2024-11-04T15:27:54.501868</dc:date>
    <dc:format>image/svg+xml</dc:format>
    <dc:creator>
     <cc:Agent>
      <dc:title>Matplotlib v3.9.2, https://matplotlib.org/</dc:title>
     </cc:Agent>
    </dc:creator>
   </cc:Work>
  </rdf:RDF>
 </metadata>
 <defs>
  <style type="text/css">*{stroke-linejoin: round; stroke-linecap: butt}</style>
 </defs>
 <g id="figure_1">
  <g id="patch_1">
   <path d="M 0 345.6 
L 460.8 345.6 
L 460.8 0 
L 0 0 
z
" style="fill: #ffffff"/>
  </g>
  <g id="axes_1">
   <g id="patch_2">
    <path d="M 57.6 307.584 
L 414.72 307.584 
L 414.72 41.472 
L 57.6 41.472 
z
" style="fill: #ffffff"/>
   </g>
   <g id="PathCollection_1">
    <defs>
     <path id="C0_0_8e26641c5f" d="M 0 3 
C 0.795609 3 1.55874 2.683901 2.12132 2.12132 
C 2.683901 1.55874 3 0.795609 3 -0 
C 3 -0.795609 2.683901 -1.55874 2.12132 -2.12132 
C 1.55874 -2.683901 0.795609 -3 0 -3 
C -0.795609 -3 -1.55874 -2.683901 -2.12132 -2.12132 
C -2.683901 -1.55874 -3 -0.795609 -3 0 
C -3 0.795609 -2.683901 1.55874 -2.12132 2.12132 
C -1.55874 2.683901 -0.795609 3 0 3 
z
"/>
    </defs>
    <g clip-path="url(#pddd1ec86ba)">
     <use xlink:href="#C0_0_8e26641c5f" x="251.599249" y="93.268909" style="fill: #f08080"/>
    </g>
    <g clip-path="url(#pddd1ec86ba)">
     <use xlink:href="#C0_0_8e26641c5f" x="230.431057" y="122.995957" style="fill: #6495ed"/>
    </g>
    <g clip-path="url(#pddd1ec86ba)">
     <use xlink:href="#C0_0_8e26641c5f" x="358.136113" y="226.579231" style="fill: #6495ed"/>
    </g>
    <g clip-path="url(#pddd1ec86ba)">
     <use xlink:href="#C0_0_8e26641c5f" x="159.038921" y="209.410795" style="fill: #6495ed"/>
    </g>
    <g clip-path="url(#pddd1ec86ba)">
     <use xlink:href="#C0_0_8e26641c5f" x="280.119564" y="79.858163" style="fill: #f08080"/>
    </g>
    <g clip-path="url(#pddd1ec86ba)">
     <use xlink:href="#C0_0_8e26641c5f" x="112.831639" y="253.524221" style="fill: #6495ed"/>
    </g>
    <g clip-path="url(#pddd1ec86ba)">
     <use xlink:href="#C0_0_8e26641c5f" x="245.818774" y="275.065194" style="fill: #6495ed"/>
    </g>
    <g clip-path="url(#pddd1ec86ba)">
     <use xlink:href="#C0_0_8e26641c5f" x="357.115588" y="142.629464" style="fill: #f08080"/>
    </g>
    <g clip-path="url(#pddd1ec86ba)">
     <use xlink:href="#C0_0_8e26641c5f" x="396.329729" y="89.893029" style="fill: #f08080"/>
    </g>
    <g clip-path="url(#pddd1ec86ba)">
     <use xlink:href="#C0_0_8e26641c5f" x="358.091299" y="235.555323" style="fill: #6495ed"/>
    </g>
    <g clip-path="url(#pddd1ec86ba)">
     <use xlink:href="#C0_0_8e26641c5f" x="356.079352" y="65.714718" style="fill: #f08080"/>
    </g>
    <g clip-path="url(#pddd1ec86ba)">
     <use xlink:href="#C0_0_8e26641c5f" x="271.288191" y="292.242787" style="fill: #6495ed"/>
    </g>
    <g clip-path="url(#pddd1ec86ba)">
     <use xlink:href="#C0_0_8e26641c5f" x="147.384602" y="230.478976" style="fill: #6495ed"/>
    </g>
    <g clip-path="url(#pddd1ec86ba)">
     <use xlink:href="#C0_0_8e26641c5f" x="396.529603" y="175.20974" style="fill: #6495ed"/>
    </g>
    <g clip-path="url(#pddd1ec86ba)">
     <use xlink:href="#C0_0_8e26641c5f" x="321.896189" y="224.104413" style="fill: #6495ed"/>
    </g>
    <g clip-path="url(#pddd1ec86ba)">
     <use xlink:href="#C0_0_8e26641c5f" x="249.716273" y="178.02714" style="fill: #6495ed"/>
    </g>
    <g clip-path="url(#pddd1ec86ba)">
     <use xlink:href="#C0_0_8e26641c5f" x="303.375698" y="228.193251" style="fill: #6495ed"/>
    </g>
    <g clip-path="url(#pddd1ec86ba)">
     <use xlink:href="#C0_0_8e26641c5f" x="346.907297" y="60.259355" style="fill: #f08080"/>
    </g>
    <g clip-path="url(#pddd1ec86ba)">
     <use xlink:href="#C0_0_8e26641c5f" x="288.620207" y="104.703658" style="fill: #f08080"/>
    </g>
    <g clip-path="url(#pddd1ec86ba)">
     <use xlink:href="#C0_0_8e26641c5f" x="332.729029" y="116.765863" style="fill: #f08080"/>
    </g>
    <g clip-path="url(#pddd1ec86ba)">
     <use xlink:href="#C0_0_8e26641c5f" x="287.454927" y="116.343851" style="fill: #f08080"/>
    </g>
    <g clip-path="url(#pddd1ec86ba)">
     <use xlink:href="#C0_0_8e26641c5f" x="333.261448" y="242.343001" style="fill: #6495ed"/>
    </g>
    <g clip-path="url(#pddd1ec86ba)">
     <use xlink:href="#C0_0_8e26641c5f" x="197.021808" y="177.806349" style="fill: #6495ed"/>
    </g>
    <g clip-path="url(#pddd1ec86ba)">
     <use xlink:href="#C0_0_8e26641c5f" x="127.675144" y="166.079146" style="fill: #6495ed"/>
    </g>
    <g clip-path="url(#pddd1ec86ba)">
     <use xlink:href="#C0_0_8e26641c5f" x="303.558517" y="96.031148" style="fill: #f08080"/>
    </g>
    <g clip-path="url(#pddd1ec86ba)">
     <use xlink:href="#C0_0_8e26641c5f" x="197.472662" y="238.214535" style="fill: #6495ed"/>
    </g>
    <g clip-path="url(#pddd1ec86ba)">
     <use xlink:href="#C0_0_8e26641c5f" x="294.967367" y="171.329167" style="fill: #f08080"/>
    </g>
    <g clip-path="url(#pddd1ec86ba)">
     <use xlink:href="#C0_0_8e26641c5f" x="92.481528" y="88.432343" style="fill: #6495ed"/>
    </g>
    <g clip-path="url(#pddd1ec86ba)">
     <use xlink:href="#C0_0_8e26641c5f" x="321.523178" y="79.111165" style="fill: #f08080"/>
    </g>
    <g clip-path="url(#pddd1ec86ba)">
     <use xlink:href="#C0_0_8e26641c5f" x="124.347428" y="86.532353" style="fill: #6495ed"/>
    </g>
    <g clip-path="url(#pddd1ec86ba)">
     <use xlink:href="#C0_0_8e26641c5f" x="88.006423" y="242.417222" style="fill: #6495ed"/>
    </g>
    <g clip-path="url(#pddd1ec86ba)">
     <use xlink:href="#C0_0_8e26641c5f" x="372.893392" y="227.24376" style="fill: #6495ed"/>
    </g>
    <g clip-path="url(#pddd1ec86ba)">
     <use xlink:href="#C0_0_8e26641c5f" x="126.56049" y="87.568083" style="fill: #6495ed"/>
    </g>
    <g clip-path="url(#pddd1ec86ba)">
     <use xlink:href="#C0_0_8e26641c5f" x="167.894626" y="218.676489" style="fill: #6495ed"/>
    </g>
    <g clip-path="url(#pddd1ec86ba)">
     <use xlink:href="#C0_0_8e26641c5f" x="83.608882" y="118.879884" style="fill: #6495ed"/>
    </g>
    <g clip-path="url(#pddd1ec86ba)">
     <use xlink:href="#C0_0_8e26641c5f" x="178.758381" y="53.568" style="fill: #6495ed"/>
    </g>
    <g clip-path="url(#pddd1ec86ba)">
     <use xlink:href="#C0_0_8e26641c5f" x="301.662494" y="61.255452" style="fill: #f08080"/>
    </g>
    <g clip-path="url(#pddd1ec86ba)">
     <use xlink:href="#C0_0_8e26641c5f" x="372.730901" y="57.196969" style="fill: #f08080"/>
    </g>
    <g clip-path="url(#pddd1ec86ba)">
     <use xlink:href="#C0_0_8e26641c5f" x="275.999009" y="108.203605" style="fill: #f08080"/>
    </g>
    <g clip-path="url(#pddd1ec86ba)">
     <use xlink:href="#C0_0_8e26641c5f" x="337.018623" y="257.35185" style="fill: #6495ed"/>
    </g>
    <g clip-path="url(#pddd1ec86ba)">
     <use xlink:href="#C0_0_8e26641c5f" x="357.928005" y="229.115897" style="fill: #6495ed"/>
    </g>
    <g clip-path="url(#pddd1ec86ba)">
     <use xlink:href="#C0_0_8e26641c5f" x="318.689004" y="59.919067" style="fill: #f08080"/>
    </g>
    <g clip-path="url(#pddd1ec86ba)">
     <use xlink:href="#C0_0_8e26641c5f" x="254.659466" y="203.807844" style="fill: #6495ed"/>
    </g>
    <g clip-path="url(#pddd1ec86ba)">
     <use xlink:href="#C0_0_8e26641c5f" x="253.894135" y="131.810727" style="fill: #f08080"/>
    </g>
    <g clip-path="url(#pddd1ec86ba)">
     <use xlink:href="#C0_0_8e26641c5f" x="301.626851" y="147.331918" style="fill: #f08080"/>
    </g>
    <g clip-path="url(#pddd1ec86ba)">
     <use xlink:href="#C0_0_8e26641c5f" x="357.875152" y="168.217047" style="fill: #f08080"/>
    </g>
    <g clip-path="url(#pddd1ec86ba)">
     <use xlink:href="#C0_0_8e26641c5f" x="310.112657" y="292.889405" style="fill: #6495ed"/>
    </g>
    <g clip-path="url(#pddd1ec86ba)">
     <use xlink:href="#C0_0_8e26641c5f" x="193.145611" y="179.773762" style="fill: #6495ed"/>
    </g>
    <g clip-path="url(#pddd1ec86ba)">
     <use xlink:href="#C0_0_8e26641c5f" x="311.277877" y="274.941022" style="fill: #6495ed"/>
    </g>
    <g clip-path="url(#pddd1ec86ba)">
     <use xlink:href="#C0_0_8e26641c5f" x="284.913363" y="251.160754" style="fill: #6495ed"/>
    </g>
    <g clip-path="url(#pddd1ec86ba)">
     <use xlink:href="#C0_0_8e26641c5f" x="394.121004" y="61.266932" style="fill: #f08080"/>
    </g>
    <g clip-path="url(#pddd1ec86ba)">
     <use xlink:href="#C0_0_8e26641c5f" x="244.468918" y="198.270368" style="fill: #6495ed"/>
    </g>
    <g clip-path="url(#pddd1ec86ba)">
     <use xlink:href="#C0_0_8e26641c5f" x="163.640272" y="226.561817" style="fill: #6495ed"/>
    </g>
    <g clip-path="url(#pddd1ec86ba)">
     <use xlink:href="#C0_0_8e26641c5f" x="75.19748" y="257.117305" style="fill: #6495ed"/>
    </g>
    <g clip-path="url(#pddd1ec86ba)">
     <use xlink:href="#C0_0_8e26641c5f" x="182.869537" y="286.577387" style="fill: #6495ed"/>
    </g>
    <g clip-path="url(#pddd1ec86ba)">
     <use xlink:href="#C0_0_8e26641c5f" x="137.290515" y="253.149415" style="fill: #6495ed"/>
    </g>
    <g clip-path="url(#pddd1ec86ba)">
     <use xlink:href="#C0_0_8e26641c5f" x="155.98929" y="274.324663" style="fill: #6495ed"/>
    </g>
    <g clip-path="url(#pddd1ec86ba)">
     <use xlink:href="#C0_0_8e26641c5f" x="287.61232" y="157.952873" style="fill: #f08080"/>
    </g>
    <g clip-path="url(#pddd1ec86ba)">
     <use xlink:href="#C0_0_8e26641c5f" x="235.41527" y="237.868491" style="fill: #6495ed"/>
    </g>
    <g clip-path="url(#pddd1ec86ba)">
     <use xlink:href="#C0_0_8e26641c5f" x="292.344783" y="168.973239" style="fill: #f08080"/>
    </g>
    <g clip-path="url(#pddd1ec86ba)">
     <use xlink:href="#C0_0_8e26641c5f" x="78.46121" y="279.579063" style="fill: #6495ed"/>
    </g>
    <g clip-path="url(#pddd1ec86ba)">
     <use xlink:href="#C0_0_8e26641c5f" x="274.748784" y="273.923247" style="fill: #6495ed"/>
    </g>
    <g clip-path="url(#pddd1ec86ba)">
     <use xlink:href="#C0_0_8e26641c5f" x="378.910638" y="257.401218" style="fill: #6495ed"/>
    </g>
    <g clip-path="url(#pddd1ec86ba)">
     <use xlink:href="#C0_0_8e26641c5f" x="159.24337" y="279.915741" style="fill: #6495ed"/>
    </g>
    <g clip-path="url(#pddd1ec86ba)">
     <use xlink:href="#C0_0_8e26641c5f" x="365.83229" y="121.156724" style="fill: #f08080"/>
    </g>
    <g clip-path="url(#pddd1ec86ba)">
     <use xlink:href="#C0_0_8e26641c5f" x="327.383404" y="268.636172" style="fill: #6495ed"/>
    </g>
    <g clip-path="url(#pddd1ec86ba)">
     <use xlink:href="#C0_0_8e26641c5f" x="153.81156" y="116.849982" style="fill: #6495ed"/>
    </g>
    <g clip-path="url(#pddd1ec86ba)">
     <use xlink:href="#C0_0_8e26641c5f" x="81.024007" y="256.806364" style="fill: #6495ed"/>
    </g>
    <g clip-path="url(#pddd1ec86ba)">
     <use xlink:href="#C0_0_8e26641c5f" x="111.085807" y="94.998511" style="fill: #6495ed"/>
    </g>
    <g clip-path="url(#pddd1ec86ba)">
     <use xlink:href="#C0_0_8e26641c5f" x="242.67478" y="224.829293" style="fill: #6495ed"/>
    </g>
    <g clip-path="url(#pddd1ec86ba)">
     <use xlink:href="#C0_0_8e26641c5f" x="311.087246" y="209.324838" style="fill: #6495ed"/>
    </g>
    <g clip-path="url(#pddd1ec86ba)">
     <use xlink:href="#C0_0_8e26641c5f" x="234.924873" y="180.957171" style="fill: #6495ed"/>
    </g>
    <g clip-path="url(#pddd1ec86ba)">
     <use xlink:href="#C0_0_8e26641c5f" x="268.623391" y="188.648932" style="fill: #6495ed"/>
    </g>
    <g clip-path="url(#pddd1ec86ba)">
     <use xlink:href="#C0_0_8e26641c5f" x="103.866555" y="156.862301" style="fill: #6495ed"/>
    </g>
    <g clip-path="url(#pddd1ec86ba)">
     <use xlink:href="#C0_0_8e26641c5f" x="155.250306" y="91.656822" style="fill: #6495ed"/>
    </g>
    <g clip-path="url(#pddd1ec86ba)">
     <use xlink:href="#C0_0_8e26641c5f" x="78.774654" y="185.394863" style="fill: #6495ed"/>
    </g>
    <g clip-path="url(#pddd1ec86ba)">
     <use xlink:href="#C0_0_8e26641c5f" x="73.832727" y="233.164781" style="fill: #6495ed"/>
    </g>
    <g clip-path="url(#pddd1ec86ba)">
     <use xlink:href="#C0_0_8e26641c5f" x="338.730313" y="128.39516" style="fill: #f08080"/>
    </g>
    <g clip-path="url(#pddd1ec86ba)">
     <use xlink:href="#C0_0_8e26641c5f" x="255.942316" y="240.90973" style="fill: #6495ed"/>
    </g>
    <g clip-path="url(#pddd1ec86ba)">
     <use xlink:href="#C0_0_8e26641c5f" x="159.73798" y="75.689127" style="fill: #6495ed"/>
    </g>
    <g clip-path="url(#pddd1ec86ba)">
     <use xlink:href="#C0_0_8e26641c5f" x="398.487273" y="176.136285" style="fill: #6495ed"/>
    </g>
    <g clip-path="url(#pddd1ec86ba)">
     <use xlink:href="#C0_0_8e26641c5f" x="192.283486" y="199.946603" style="fill: #6495ed"/>
    </g>
    <g clip-path="url(#pddd1ec86ba)">
     <use xlink:href="#C0_0_8e26641c5f" x="385.93653" y="238.927876" style="fill: #6495ed"/>
    </g>
    <g clip-path="url(#pddd1ec86ba)">
     <use xlink:href="#C0_0_8e26641c5f" x="316.651575" y="240.026781" style="fill: #6495ed"/>
    </g>
    <g clip-path="url(#pddd1ec86ba)">
     <use xlink:href="#C0_0_8e26641c5f" x="372.491824" y="231.849835" style="fill: #6495ed"/>
    </g>
    <g clip-path="url(#pddd1ec86ba)">
     <use xlink:href="#C0_0_8e26641c5f" x="248.715747" y="190.190766" style="fill: #6495ed"/>
    </g>
    <g clip-path="url(#pddd1ec86ba)">
     <use xlink:href="#C0_0_8e26641c5f" x="272.062957" y="289.862495" style="fill: #6495ed"/>
    </g>
    <g clip-path="url(#pddd1ec86ba)">
     <use xlink:href="#C0_0_8e26641c5f" x="359.444493" y="198.306537" style="fill: #6495ed"/>
    </g>
    <g clip-path="url(#pddd1ec86ba)">
     <use xlink:href="#C0_0_8e26641c5f" x="86.173166" y="91.234893" style="fill: #6495ed"/>
    </g>
    <g clip-path="url(#pddd1ec86ba)">
     <use xlink:href="#C0_0_8e26641c5f" x="136.056281" y="102.541645" style="fill: #6495ed"/>
    </g>
    <g clip-path="url(#pddd1ec86ba)">
     <use xlink:href="#C0_0_8e26641c5f" x="255.087922" y="126.592775" style="fill: #f08080"/>
    </g>
    <g clip-path="url(#pddd1ec86ba)">
     <use xlink:href="#C0_0_8e26641c5f" x="396.212422" y="224.160773" style="fill: #6495ed"/>
    </g>
    <g clip-path="url(#pddd1ec86ba)">
     <use xlink:href="#C0_0_8e26641c5f" x="243.641782" y="295.488" style="fill: #6495ed"/>
    </g>
    <g clip-path="url(#pddd1ec86ba)">
     <use xlink:href="#C0_0_8e26641c5f" x="362.437993" y="253.685009" style="fill: #6495ed"/>
    </g>
    <g clip-path="url(#pddd1ec86ba)">
     <use xlink:href="#C0_0_8e26641c5f" x="217.127136" y="236.679225" style="fill: #6495ed"/>
    </g>
    <g clip-path="url(#pddd1ec86ba)">
     <use xlink:href="#C0_0_8e26641c5f" x="151.771537" y="186.568845" style="fill: #6495ed"/>
    </g>
    <g clip-path="url(#pddd1ec86ba)">
     <use xlink:href="#C0_0_8e26641c5f" x="243.945404" y="97.796672" style="fill: #f08080"/>
    </g>
    <g clip-path="url(#pddd1ec86ba)">
     <use xlink:href="#C0_0_8e26641c5f" x="276.674977" y="137.847553" style="fill: #f08080"/>
    </g>
    <g clip-path="url(#pddd1ec86ba)">
     <use xlink:href="#C0_0_8e26641c5f" x="234.471641" y="66.765253" style="fill: #6495ed"/>
    </g>
    <g clip-path="url(#pddd1ec86ba)">
     <use xlink:href="#C0_0_8e26641c5f" x="323.731543" y="113.653422" style="fill: #f08080"/>
    </g>
    <g clip-path="url(#pddd1ec86ba)">
     <use xlink:href="#C0_0_8e26641c5f" x="101.075919" y="64.979075" style="fill: #6495ed"/>
    </g>
    <g clip-path="url(#pddd1ec86ba)">
     <use xlink:href="#C0_0_8e26641c5f" x="198.702896" y="205.971266" style="fill: #6495ed"/>
    </g>
    <g clip-path="url(#pddd1ec86ba)">
     <use xlink:href="#C0_0_8e26641c5f" x="119.532203" y="208.91237" style="fill: #6495ed"/>
    </g>
    <g clip-path="url(#pddd1ec86ba)">
     <use xlink:href="#C0_0_8e26641c5f" x="242.843651" y="162.913634" style="fill: #f08080"/>
    </g>
    <g clip-path="url(#pddd1ec86ba)">
     <use xlink:href="#C0_0_8e26641c5f" x="296.621934" y="143.814429" style="fill: #f08080"/>
    </g>
    <g clip-path="url(#pddd1ec86ba)">
     <use xlink:href="#C0_0_8e26641c5f" x="185.438065" y="290.949412" style="fill: #6495ed"/>
    </g>
    <g clip-path="url(#pddd1ec86ba)">
     <use xlink:href="#C0_0_8e26641c5f" x="349.994434" y="84.968745" style="fill: #f08080"/>
    </g>
    <g clip-path="url(#pddd1ec86ba)">
     <use xlink:href="#C0_0_8e26641c5f" x="177.622021" y="239.219207" style="fill: #6495ed"/>
    </g>
    <g clip-path="url(#pddd1ec86ba)">
     <use xlink:href="#C0_0_8e26641c5f" x="115.848079" y="197.219923" style="fill: #6495ed"/>
    </g>
    <g clip-path="url(#pddd1ec86ba)">
     <use xlink:href="#C0_0_8e26641c5f" x="250.558442" y="96.184262" style="fill: #f08080"/>
    </g>
    <g clip-path="url(#pddd1ec86ba)">
     <use xlink:href="#C0_0_8e26641c5f" x="337.402141" y="157.309791" style="fill: #f08080"/>
    </g>
    <g clip-path="url(#pddd1ec86ba)">
     <use xlink:href="#C0_0_8e26641c5f" x="290.839773" y="281.052422" style="fill: #6495ed"/>
    </g>
    <g clip-path="url(#pddd1ec86ba)">
     <use xlink:href="#C0_0_8e26641c5f" x="198.241466" y="172.526536" style="fill: #6495ed"/>
    </g>
    <g clip-path="url(#pddd1ec86ba)">
     <use xlink:href="#C0_0_8e26641c5f" x="185.150761" y="217.855544" style="fill: #6495ed"/>
    </g>
    <g clip-path="url(#pddd1ec86ba)">
     <use xlink:href="#C0_0_8e26641c5f" x="180.678707" y="256.580515" style="fill: #6495ed"/>
    </g>
    <g clip-path="url(#pddd1ec86ba)">
     <use xlink:href="#C0_0_8e26641c5f" x="135.745902" y="228.24779" style="fill: #6495ed"/>
    </g>
    <g clip-path="url(#pddd1ec86ba)">
     <use xlink:href="#C0_0_8e26641c5f" x="213.812902" y="136.828797" style="fill: #6495ed"/>
    </g>
    <g clip-path="url(#pddd1ec86ba)">
     <use xlink:href="#C0_0_8e26641c5f" x="308.617899" y="152.812353" style="fill: #f08080"/>
    </g>
    <g clip-path="url(#pddd1ec86ba)">
     <use xlink:href="#C0_0_8e26641c5f" x="327.452202" y="257.035689" style="fill: #6495ed"/>
    </g>
    <g clip-path="url(#pddd1ec86ba)">
     <use xlink:href="#C0_0_8e26641c5f" x="149.177209" y="55.817704" style="fill: #6495ed"/>
    </g>
    <g clip-path="url(#pddd1ec86ba)">
     <use xlink:href="#C0_0_8e26641c5f" x="271.039576" y="113.923949" style="fill: #f08080"/>
    </g>
    <g clip-path="url(#pddd1ec86ba)">
     <use xlink:href="#C0_0_8e26641c5f" x="260.522653" y="79.490528" style="fill: #f08080"/>
    </g>
    <g clip-path="url(#pddd1ec86ba)">
     <use xlink:href="#C0_0_8e26641c5f" x="230.912746" y="226.4522" style="fill: #6495ed"/>
    </g>
    <g clip-path="url(#pddd1ec86ba)">
     <use xlink:href="#C0_0_8e26641c5f" x="148.231666" y="222.243921" style="fill: #6495ed"/>
    </g>
    <g clip-path="url(#pddd1ec86ba)">
     <use xlink:href="#C0_0_8e26641c5f" x="325.056808" y="200.586709" style="fill: #6495ed"/>
    </g>
    <g clip-path="url(#pddd1ec86ba)">
     <use xlink:href="#C0_0_8e26641c5f" x="190.111348" y="205.695829" style="fill: #6495ed"/>
    </g>
    <g clip-path="url(#pddd1ec86ba)">
     <use xlink:href="#C0_0_8e26641c5f" x="148.584697" y="66.092915" style="fill: #6495ed"/>
    </g>
    <g clip-path="url(#pddd1ec86ba)">
     <use xlink:href="#C0_0_8e26641c5f" x="118.507754" y="222.154127" style="fill: #6495ed"/>
    </g>
    <g clip-path="url(#pddd1ec86ba)">
     <use xlink:href="#C0_0_8e26641c5f" x="117.407921" y="203.661373" style="fill: #6495ed"/>
    </g>
    <g clip-path="url(#pddd1ec86ba)">
     <use xlink:href="#C0_0_8e26641c5f" x="278.105427" y="199.405335" style="fill: #6495ed"/>
    </g>
    <g clip-path="url(#pddd1ec86ba)">
     <use xlink:href="#C0_0_8e26641c5f" x="327.706939" y="283.819036" style="fill: #6495ed"/>
    </g>
    <g clip-path="url(#pddd1ec86ba)">
     <use xlink:href="#C0_0_8e26641c5f" x="372.787628" y="110.445704" style="fill: #f08080"/>
    </g>
    <g clip-path="url(#pddd1ec86ba)">
     <use xlink:href="#C0_0_8e26641c5f" x="375.44869" y="66.515965" style="fill: #f08080"/>
    </g>
    <g clip-path="url(#pddd1ec86ba)">
     <use xlink:href="#C0_0_8e26641c5f" x="241.589975" y="118.300947" style="fill: #f08080"/>
    </g>
    <g clip-path="url(#pddd1ec86ba)">
     <use xlink:href="#C0_0_8e26641c5f" x="395.756785" y="98.972211" style="fill: #f08080"/>
    </g>
    <g clip-path="url(#pddd1ec86ba)">
     <use xlink:href="#C0_0_8e26641c5f" x="84.47283" y="124.779454" style="fill: #6495ed"/>
    </g>
    <g clip-path="url(#pddd1ec86ba)">
     <use xlink:href="#C0_0_8e26641c5f" x="182.037368" y="68.993091" style="fill: #6495ed"/>
    </g>
    <g clip-path="url(#pddd1ec86ba)">
     <use xlink:href="#C0_0_8e26641c5f" x="235.643692" y="109.981315" style="fill: #6495ed"/>
    </g>
    <g clip-path="url(#pddd1ec86ba)">
     <use xlink:href="#C0_0_8e26641c5f" x="387.000248" y="208.716217" style="fill: #6495ed"/>
    </g>
    <g clip-path="url(#pddd1ec86ba)">
     <use xlink:href="#C0_0_8e26641c5f" x="250.463111" y="192.217641" style="fill: #6495ed"/>
    </g>
    <g clip-path="url(#pddd1ec86ba)">
     <use xlink:href="#C0_0_8e26641c5f" x="255.975093" y="167.36892" style="fill: #f08080"/>
    </g>
    <g clip-path="url(#pddd1ec86ba)">
     <use xlink:href="#C0_0_8e26641c5f" x="105.091653" y="73.871594" style="fill: #6495ed"/>
    </g>
    <g clip-path="url(#pddd1ec86ba)">
     <use xlink:href="#C0_0_8e26641c5f" x="92.099814" y="118.718029" style="fill: #6495ed"/>
    </g>
    <g clip-path="url(#pddd1ec86ba)">
     <use xlink:href="#C0_0_8e26641c5f" x="205.729522" y="121.2843" style="fill: #6495ed"/>
    </g>
    <g clip-path="url(#pddd1ec86ba)">
     <use xlink:href="#C0_0_8e26641c5f" x="287.429913" y="125.096252" style="fill: #f08080"/>
    </g>
    <g clip-path="url(#pddd1ec86ba)">
     <use xlink:href="#C0_0_8e26641c5f" x="337.817184" y="210.833165" style="fill: #6495ed"/>
    </g>
    <g clip-path="url(#pddd1ec86ba)">
     <use xlink:href="#C0_0_8e26641c5f" x="193.354807" y="152.523048" style="fill: #6495ed"/>
    </g>
    <g clip-path="url(#pddd1ec86ba)">
     <use xlink:href="#C0_0_8e26641c5f" x="217.763237" y="195.547331" style="fill: #6495ed"/>
    </g>
    <g clip-path="url(#pddd1ec86ba)">
     <use xlink:href="#C0_0_8e26641c5f" x="378.285123" y="140.319368" style="fill: #f08080"/>
    </g>
    <g clip-path="url(#pddd1ec86ba)">
     <use xlink:href="#C0_0_8e26641c5f" x="117.571981" y="276.216843" style="fill: #6495ed"/>
    </g>
   </g>
   <g id="matplotlib.axis_1">
    <g id="xtick_1">
     <g id="line2d_1">
      <defs>
       <path id="m076d33ad86" d="M 0 0 
L 0 3.5 
" style="stroke: #000000; stroke-width: 0.8"/>
      </defs>
      <g>
       <use xlink:href="#m076d33ad86" x="73.753634" y="307.584" style="stroke: #000000; stroke-width: 0.8"/>
      </g>
     </g>
    </g>
    <g id="xtick_2">
     <g id="line2d_2">
      <g>
       <use xlink:href="#m076d33ad86" x="114.49241" y="307.584" style="stroke: #000000; stroke-width: 0.8"/>
      </g>
     </g>
    </g>
    <g id="xtick_3">
     <g id="line2d_3">
      <g>
       <use xlink:href="#m076d33ad86" x="155.231186" y="307.584" style="stroke: #000000; stroke-width: 0.8"/>
      </g>
     </g>
    </g>
    <g id="xtick_4">
     <g id="line2d_4">
      <g>
       <use xlink:href="#m076d33ad86" x="195.969962" y="307.584" style="stroke: #000000; stroke-width: 0.8"/>
      </g>
     </g>
    </g>
    <g id="xtick_5">
     <g id="line2d_5">
      <g>
       <use xlink:href="#m076d33ad86" x="236.708738" y="307.584" style="stroke: #000000; stroke-width: 0.8"/>
      </g>
     </g>
    </g>
    <g id="xtick_6">
     <g id="line2d_6">
      <g>
       <use xlink:href="#m076d33ad86" x="277.447514" y="307.584" style="stroke: #000000; stroke-width: 0.8"/>
      </g>
     </g>
    </g>
    <g id="xtick_7">
     <g id="line2d_7">
      <g>
       <use xlink:href="#m076d33ad86" x="318.18629" y="307.584" style="stroke: #000000; stroke-width: 0.8"/>
      </g>
     </g>
    </g>
    <g id="xtick_8">
     <g id="line2d_8">
      <g>
       <use xlink:href="#m076d33ad86" x="358.925066" y="307.584" style="stroke: #000000; stroke-width: 0.8"/>
      </g>
     </g>
    </g>
    <g id="xtick_9">
     <g id="line2d_9">
      <g>
       <use xlink:href="#m076d33ad86" x="399.663842" y="307.584" style="stroke: #000000; stroke-width: 0.8"/>
      </g>
     </g>
    </g>
    <g id="text_1">
     <!-- - -->
     <g transform="translate(234.356094 326.182437) scale(0.1 -0.1)">
      <defs>
       <path id="DejaVuSans-2d" d="M 313 2009 
L 1997 2009 
L 1997 1497 
L 313 1497 
L 313 2009 
z
" transform="scale(0.015625)"/>
      </defs>
      <use xlink:href="#DejaVuSans-2d"/>
     </g>
    </g>
   </g>
   <g id="matplotlib.axis_2">
    <g id="ytick_1">
     <g id="line2d_10">
      <defs>
       <path id="m98135d02ce" d="M 0 0 
L -3.5 0 
" style="stroke: #000000; stroke-width: 0.8"/>
      </defs>
      <g>
       <use xlink:href="#m98135d02ce" x="57.6" y="296.01108" style="stroke: #000000; stroke-width: 0.8"/>
      </g>
     </g>
    </g>
    <g id="ytick_2">
     <g id="line2d_11">
      <g>
       <use xlink:href="#m98135d02ce" x="57.6" y="265.705141" style="stroke: #000000; stroke-width: 0.8"/>
      </g>
     </g>
    </g>
    <g id="ytick_3">
     <g id="line2d_12">
      <g>
       <use xlink:href="#m98135d02ce" x="57.6" y="235.399202" style="stroke: #000000; stroke-width: 0.8"/>
      </g>
     </g>
    </g>
    <g id="ytick_4">
     <g id="line2d_13">
      <g>
       <use xlink:href="#m98135d02ce" x="57.6" y="205.093263" style="stroke: #000000; stroke-width: 0.8"/>
      </g>
     </g>
    </g>
    <g id="ytick_5">
     <g id="line2d_14">
      <g>
       <use xlink:href="#m98135d02ce" x="57.6" y="174.787324" style="stroke: #000000; stroke-width: 0.8"/>
      </g>
     </g>
    </g>
    <g id="ytick_6">
     <g id="line2d_15">
      <g>
       <use xlink:href="#m98135d02ce" x="57.6" y="144.481384" style="stroke: #000000; stroke-width: 0.8"/>
      </g>
     </g>
    </g>
    <g id="ytick_7">
     <g id="line2d_16">
      <g>
       <use xlink:href="#m98135d02ce" x="57.6" y="114.175445" style="stroke: #000000; stroke-width: 0.8"/>
      </g>
     </g>
    </g>
    <g id="ytick_8">
     <g id="line2d_17">
      <g>
       <use xlink:href="#m98135d02ce" x="57.6" y="83.869506" style="stroke: #000000; stroke-width: 0.8"/>
      </g>
     </g>
    </g>
    <g id="ytick_9">
     <g id="line2d_18">
      <g>
       <use xlink:href="#m98135d02ce" x="57.6" y="53.563567" style="stroke: #000000; stroke-width: 0.8"/>
      </g>
     </g>
    </g>
    <g id="text_2">
     <!-- - -->
     <g transform="translate(44.520313 176.331906) rotate(-90) scale(0.1 -0.1)">
      <use xlink:href="#DejaVuSans-2d"/>
     </g>
    </g>
   </g>
   <g id="line2d_19"/>
   <g id="line2d_20"/>
   <g id="patch_3">
    <path d="M 57.6 307.584 
L 57.6 41.472 
" style="fill: none; stroke: #000000; stroke-width: 0.8; stroke-linejoin: miter; stroke-linecap: square"/>
   </g>
   <g id="patch_4">
    <path d="M 414.72 307.584 
L 414.72 41.472 
" style="fill: none; stroke: #000000; stroke-width: 0.8; stroke-linejoin: miter; stroke-linecap: square"/>
   </g>
   <g id="patch_5">
    <path d="M 57.6 307.584 
L 414.72 307.584 
" style="fill: none; stroke: #000000; stroke-width: 0.8; stroke-linejoin: miter; stroke-linecap: square"/>
   </g>
   <g id="patch_6">
    <path d="M 57.6 41.472 
L 414.72 41.472 
" style="fill: none; stroke: #000000; stroke-width: 0.8; stroke-linejoin: miter; stroke-linecap: square"/>
   </g>
   <g id="legend_1">
    <g id="patch_7">
     <path d="M 356.904375 302.584 
L 407.72 302.584 
Q 409.72 302.584 409.72 300.584 
L 409.72 257.549625 
Q 409.72 255.549625 407.72 255.549625 
L 356.904375 255.549625 
Q 354.904375 255.549625 354.904375 257.549625 
L 354.904375 300.584 
Q 354.904375 302.584 356.904375 302.584 
z
" style="fill: #ffffff; opacity: 0.8; stroke: #cccccc; stroke-linejoin: miter"/>
    </g>
    <g id="text_3">
     <!-- species -->
     <g transform="translate(363.637188 267.148062) scale(0.1 -0.1)">
      <defs>
       <path id="DejaVuSans-73" d="M 2834 3397 
L 2834 2853 
Q 2591 2978 2328 3040 
Q 2066 3103 1784 3103 
Q 1356 3103 1142 2972 
Q 928 2841 928 2578 
Q 928 2378 1081 2264 
Q 1234 2150 1697 2047 
L 1894 2003 
Q 2506 1872 2764 1633 
Q 3022 1394 3022 966 
Q 3022 478 2636 193 
Q 2250 -91 1575 -91 
Q 1294 -91 989 -36 
Q 684 19 347 128 
L 347 722 
Q 666 556 975 473 
Q 1284 391 1588 391 
Q 1994 391 2212 530 
Q 2431 669 2431 922 
Q 2431 1156 2273 1281 
Q 2116 1406 1581 1522 
L 1381 1569 
Q 847 1681 609 1914 
Q 372 2147 372 2553 
Q 372 3047 722 3315 
Q 1072 3584 1716 3584 
Q 2034 3584 2315 3537 
Q 2597 3491 2834 3397 
z
" transform="scale(0.015625)"/>
       <path id="DejaVuSans-70" d="M 1159 525 
L 1159 -1331 
L 581 -1331 
L 581 3500 
L 1159 3500 
L 1159 2969 
Q 1341 3281 1617 3432 
Q 1894 3584 2278 3584 
Q 2916 3584 3314 3078 
Q 3713 2572 3713 1747 
Q 3713 922 3314 415 
Q 2916 -91 2278 -91 
Q 1894 -91 1617 61 
Q 1341 213 1159 525 
z
M 3116 1747 
Q 3116 2381 2855 2742 
Q 2594 3103 2138 3103 
Q 1681 3103 1420 2742 
Q 1159 2381 1159 1747 
Q 1159 1113 1420 752 
Q 1681 391 2138 391 
Q 2594 391 2855 752 
Q 3116 1113 3116 1747 
z
" transform="scale(0.015625)"/>
       <path id="DejaVuSans-65" d="M 3597 1894 
L 3597 1613 
L 953 1613 
Q 991 1019 1311 708 
Q 1631 397 2203 397 
Q 2534 397 2845 478 
Q 3156 559 3463 722 
L 3463 178 
Q 3153 47 2828 -22 
Q 2503 -91 2169 -91 
Q 1331 -91 842 396 
Q 353 884 353 1716 
Q 353 2575 817 3079 
Q 1281 3584 2069 3584 
Q 2775 3584 3186 3129 
Q 3597 2675 3597 1894 
z
M 3022 2063 
Q 3016 2534 2758 2815 
Q 2500 3097 2075 3097 
Q 1594 3097 1305 2825 
Q 1016 2553 972 2059 
L 3022 2063 
z
" transform="scale(0.015625)"/>
       <path id="DejaVuSans-63" d="M 3122 3366 
L 3122 2828 
Q 2878 2963 2633 3030 
Q 2388 3097 2138 3097 
Q 1578 3097 1268 2742 
Q 959 2388 959 1747 
Q 959 1106 1268 751 
Q 1578 397 2138 397 
Q 2388 397 2633 464 
Q 2878 531 3122 666 
L 3122 134 
Q 2881 22 2623 -34 
Q 2366 -91 2075 -91 
Q 1284 -91 818 406 
Q 353 903 353 1747 
Q 353 2603 823 3093 
Q 1294 3584 2113 3584 
Q 2378 3584 2631 3529 
Q 2884 3475 3122 3366 
z
" transform="scale(0.015625)"/>
       <path id="DejaVuSans-69" d="M 603 3500 
L 1178 3500 
L 1178 0 
L 603 0 
L 603 3500 
z
M 603 4863 
L 1178 4863 
L 1178 4134 
L 603 4134 
L 603 4863 
z
" transform="scale(0.015625)"/>
      </defs>
      <use xlink:href="#DejaVuSans-73"/>
      <use xlink:href="#DejaVuSans-70" x="52.099609"/>
      <use xlink:href="#DejaVuSans-65" x="115.576172"/>
      <use xlink:href="#DejaVuSans-63" x="177.099609"/>
      <use xlink:href="#DejaVuSans-69" x="232.080078"/>
      <use xlink:href="#DejaVuSans-65" x="259.863281"/>
      <use xlink:href="#DejaVuSans-73" x="321.386719"/>
     </g>
    </g>
    <g id="line2d_21">
     <defs>
      <path id="m16f0cec923" d="M 0 3 
C 0.795609 3 1.55874 2.683901 2.12132 2.12132 
C 2.683901 1.55874 3 0.795609 3 0 
C 3 -0.795609 2.683901 -1.55874 2.12132 -2.12132 
C 1.55874 -2.683901 0.795609 -3 0 -3 
C -0.795609 -3 -1.55874 -2.683901 -2.12132 -2.12132 
C -2.683901 -1.55874 -3 -0.795609 -3 0 
C -3 0.795609 -2.683901 1.55874 -2.12132 2.12132 
C -1.55874 2.683901 -0.795609 3 0 3 
z
"/>
     </defs>
     <g>
      <use xlink:href="#m16f0cec923" x="368.904375" y="278.326188" style="fill: #f08080"/>
     </g>
    </g>
    <g id="text_4">
     <!-- dog -->
     <g transform="translate(386.904375 281.826188) scale(0.1 -0.1)">
      <defs>
       <path id="DejaVuSans-64" d="M 2906 2969 
L 2906 4863 
L 3481 4863 
L 3481 0 
L 2906 0 
L 2906 525 
Q 2725 213 2448 61 
Q 2172 -91 1784 -91 
Q 1150 -91 751 415 
Q 353 922 353 1747 
Q 353 2572 751 3078 
Q 1150 3584 1784 3584 
Q 2172 3584 2448 3432 
Q 2725 3281 2906 2969 
z
M 947 1747 
Q 947 1113 1208 752 
Q 1469 391 1925 391 
Q 2381 391 2643 752 
Q 2906 1113 2906 1747 
Q 2906 2381 2643 2742 
Q 2381 3103 1925 3103 
Q 1469 3103 1208 2742 
Q 947 2381 947 1747 
z
" transform="scale(0.015625)"/>
       <path id="DejaVuSans-6f" d="M 1959 3097 
Q 1497 3097 1228 2736 
Q 959 2375 959 1747 
Q 959 1119 1226 758 
Q 1494 397 1959 397 
Q 2419 397 2687 759 
Q 2956 1122 2956 1747 
Q 2956 2369 2687 2733 
Q 2419 3097 1959 3097 
z
M 1959 3584 
Q 2709 3584 3137 3096 
Q 3566 2609 3566 1747 
Q 3566 888 3137 398 
Q 2709 -91 1959 -91 
Q 1206 -91 779 398 
Q 353 888 353 1747 
Q 353 2609 779 3096 
Q 1206 3584 1959 3584 
z
" transform="scale(0.015625)"/>
       <path id="DejaVuSans-67" d="M 2906 1791 
Q 2906 2416 2648 2759 
Q 2391 3103 1925 3103 
Q 1463 3103 1205 2759 
Q 947 2416 947 1791 
Q 947 1169 1205 825 
Q 1463 481 1925 481 
Q 2391 481 2648 825 
Q 2906 1169 2906 1791 
z
M 3481 434 
Q 3481 -459 3084 -895 
Q 2688 -1331 1869 -1331 
Q 1566 -1331 1297 -1286 
Q 1028 -1241 775 -1147 
L 775 -588 
Q 1028 -725 1275 -790 
Q 1522 -856 1778 -856 
Q 2344 -856 2625 -561 
Q 2906 -266 2906 331 
L 2906 616 
Q 2728 306 2450 153 
Q 2172 0 1784 0 
Q 1141 0 747 490 
Q 353 981 353 1791 
Q 353 2603 747 3093 
Q 1141 3584 1784 3584 
Q 2172 3584 2450 3431 
Q 2728 3278 2906 2969 
L 2906 3500 
L 3481 3500 
L 3481 434 
z
" transform="scale(0.015625)"/>
      </defs>
      <use xlink:href="#DejaVuSans-64"/>
      <use xlink:href="#DejaVuSans-6f" x="63.476562"/>
      <use xlink:href="#DejaVuSans-67" x="124.658203"/>
     </g>
    </g>
    <g id="line2d_22">
     <defs>
      <path id="mb4019be705" d="M 0 3 
C 0.795609 3 1.55874 2.683901 2.12132 2.12132 
C 2.683901 1.55874 3 0.795609 3 0 
C 3 -0.795609 2.683901 -1.55874 2.12132 -2.12132 
C 1.55874 -2.683901 0.795609 -3 0 -3 
C -0.795609 -3 -1.55874 -2.683901 -2.12132 -2.12132 
C -2.683901 -1.55874 -3 -0.795609 -3 0 
C -3 0.795609 -2.683901 1.55874 -2.12132 2.12132 
C -1.55874 2.683901 -0.795609 3 0 3 
z
"/>
     </defs>
     <g>
      <use xlink:href="#mb4019be705" x="368.904375" y="293.004312" style="fill: #6495ed"/>
     </g>
    </g>
    <g id="text_5">
     <!-- cat -->
     <g transform="translate(386.904375 296.504312) scale(0.1 -0.1)">
      <defs>
       <path id="DejaVuSans-61" d="M 2194 1759 
Q 1497 1759 1228 1600 
Q 959 1441 959 1056 
Q 959 750 1161 570 
Q 1363 391 1709 391 
Q 2188 391 2477 730 
Q 2766 1069 2766 1631 
L 2766 1759 
L 2194 1759 
z
M 3341 1997 
L 3341 0 
L 2766 0 
L 2766 531 
Q 2569 213 2275 61 
Q 1981 -91 1556 -91 
Q 1019 -91 701 211 
Q 384 513 384 1019 
Q 384 1609 779 1909 
Q 1175 2209 1959 2209 
L 2766 2209 
L 2766 2266 
Q 2766 2663 2505 2880 
Q 2244 3097 1772 3097 
Q 1472 3097 1187 3025 
Q 903 2953 641 2809 
L 641 3341 
Q 956 3463 1253 3523 
Q 1550 3584 1831 3584 
Q 2591 3584 2966 3190 
Q 3341 2797 3341 1997 
z
" transform="scale(0.015625)"/>
       <path id="DejaVuSans-74" d="M 1172 4494 
L 1172 3500 
L 2356 3500 
L 2356 3053 
L 1172 3053 
L 1172 1153 
Q 1172 725 1289 603 
Q 1406 481 1766 481 
L 2356 481 
L 2356 0 
L 1766 0 
Q 1100 0 847 248 
Q 594 497 594 1153 
L 594 3053 
L 172 3053 
L 172 3500 
L 594 3500 
L 594 4494 
L 1172 4494 
z
" transform="scale(0.015625)"/>
      </defs>
      <use xlink:href="#DejaVuSans-63"/>
      <use xlink:href="#DejaVuSans-61" x="54.980469"/>
      <use xlink:href="#DejaVuSans-74" x="116.259766"/>
     </g>
    </g>
   </g>
  </g>
 </g>
 <defs>
  <clipPath id="pddd1ec86ba">
   <rect x="57.6" y="41.472" width="357.12" height="266.112"/>
  </clipPath>
 </defs>
</svg>
