<?xml version="1.0" encoding="utf-8" standalone="no"?>
<!DOCTYPE svg PUBLIC "-//W3C//DTD SVG 1.1//EN"
  "http://www.w3.org/Graphics/SVG/1.1/DTD/svg11.dtd">
<svg xmlns:xlink="http://www.w3.org/1999/xlink" width="432pt" height="288pt" viewBox="0 0 432 288" xmlns="http://www.w3.org/2000/svg" version="1.1">
 <metadata>
  <rdf:RDF xmlns:dc="http://purl.org/dc/elements/1.1/" xmlns:cc="http://creativecommons.org/ns#" xmlns:rdf="http://www.w3.org/1999/02/22-rdf-syntax-ns#">
   <cc:Work>
    <dc:type rdf:resource="http://purl.org/dc/dcmitype/StillImage"/>
    <dc:date>2022-04-25T11:10:26.271935</dc:date>
    <dc:format>image/svg+xml</dc:format>
    <dc:creator>
     <cc:Agent>
      <dc:title>Matplotlib v3.5.1, https://matplotlib.org/</dc:title>
     </cc:Agent>
    </dc:creator>
   </cc:Work>
  </rdf:RDF>
 </metadata>
 <defs>
  <style type="text/css">*{stroke-linejoin: round; stroke-linecap: butt}</style>
 </defs>
 <g id="figure_1">
  <g id="patch_1">
   <path d="M 0 288 
L 432 288 
L 432 0 
L 0 0 
L 0 288 
z
" style="fill: none"/>
  </g>
  <g id="axes_1">
   <g id="patch_2">
    <path d="M 54 252 
L 388.8 252 
L 388.8 34.56 
L 54 34.56 
z
" style="fill: #ffffff"/>
   </g>
   <g id="PathCollection_1">
    <defs>
     <path id="C0_0_806ec21a13" d="M 0 3 
C 0.795609 3 1.55874 2.683901 2.12132 2.12132 
C 2.683901 1.55874 3 0.795609 3 -0 
C 3 -0.795609 2.683901 -1.55874 2.12132 -2.12132 
C 1.55874 -2.683901 0.795609 -3 0 -3 
C -0.795609 -3 -1.55874 -2.683901 -2.12132 -2.12132 
C -2.683901 -1.55874 -3 -0.795609 -3 0 
C -3 0.795609 -2.683901 1.55874 -2.12132 2.12132 
C -1.55874 2.683901 -0.795609 3 0 3 
z
"/>
    </defs>
    <g clip-path="url(#p1ec6be18d4)">
     <use xlink:href="#C0_0_806ec21a13" x="81.597878" y="67.043653" style="fill: #6495ed"/>
    </g>
    <g clip-path="url(#p1ec6be18d4)">
     <use xlink:href="#C0_0_806ec21a13" x="170.315797" y="222.980914" style="fill: #6495ed"/>
    </g>
    <g clip-path="url(#p1ec6be18d4)">
     <use xlink:href="#C0_0_806ec21a13" x="276.383526" y="78.581771" style="fill: #f08080"/>
    </g>
    <g clip-path="url(#p1ec6be18d4)">
     <use xlink:href="#C0_0_806ec21a13" x="363.610701" y="64.759592" style="fill: #f08080"/>
    </g>
    <g clip-path="url(#p1ec6be18d4)">
     <use xlink:href="#C0_0_806ec21a13" x="116.697386" y="171.800127" style="fill: #6495ed"/>
    </g>
    <g clip-path="url(#p1ec6be18d4)">
     <use xlink:href="#C0_0_806ec21a13" x="157.859415" y="58.412264" style="fill: #6495ed"/>
    </g>
    <g clip-path="url(#p1ec6be18d4)">
     <use xlink:href="#C0_0_806ec21a13" x="169.35577" y="188.378311" style="fill: #6495ed"/>
    </g>
    <g clip-path="url(#p1ec6be18d4)">
     <use xlink:href="#C0_0_806ec21a13" x="295.170841" y="93.12779" style="fill: #f08080"/>
    </g>
    <g clip-path="url(#p1ec6be18d4)">
     <use xlink:href="#C0_0_806ec21a13" x="257.982481" y="54.185741" style="fill: #f08080"/>
    </g>
    <g clip-path="url(#p1ec6be18d4)">
     <use xlink:href="#C0_0_806ec21a13" x="158.852925" y="123.024408" style="fill: #6495ed"/>
    </g>
    <g clip-path="url(#p1ec6be18d4)">
     <use xlink:href="#C0_0_806ec21a13" x="266.296382" y="189.689582" style="fill: #6495ed"/>
    </g>
    <g clip-path="url(#p1ec6be18d4)">
     <use xlink:href="#C0_0_806ec21a13" x="304.176841" y="48.379941" style="fill: #f08080"/>
    </g>
    <g clip-path="url(#p1ec6be18d4)">
     <use xlink:href="#C0_0_806ec21a13" x="352.93643" y="196.413607" style="fill: #6495ed"/>
    </g>
    <g clip-path="url(#p1ec6be18d4)">
     <use xlink:href="#C0_0_806ec21a13" x="158.436502" y="183.459896" style="fill: #6495ed"/>
    </g>
    <g clip-path="url(#p1ec6be18d4)">
     <use xlink:href="#C0_0_806ec21a13" x="299.071722" y="185.558461" style="fill: #6495ed"/>
    </g>
    <g clip-path="url(#p1ec6be18d4)">
     <use xlink:href="#C0_0_806ec21a13" x="85.218235" y="236.563663" style="fill: #6495ed"/>
    </g>
    <g clip-path="url(#p1ec6be18d4)">
     <use xlink:href="#C0_0_806ec21a13" x="181.707993" y="185.584498" style="fill: #6495ed"/>
    </g>
    <g clip-path="url(#p1ec6be18d4)">
     <use xlink:href="#C0_0_806ec21a13" x="154.380742" y="180.133708" style="fill: #6495ed"/>
    </g>
    <g clip-path="url(#p1ec6be18d4)">
     <use xlink:href="#C0_0_806ec21a13" x="143.951146" y="188.400305" style="fill: #6495ed"/>
    </g>
    <g clip-path="url(#p1ec6be18d4)">
     <use xlink:href="#C0_0_806ec21a13" x="81.331098" y="102.74345" style="fill: #6495ed"/>
    </g>
    <g clip-path="url(#p1ec6be18d4)">
     <use xlink:href="#C0_0_806ec21a13" x="294.422248" y="97.806539" style="fill: #f08080"/>
    </g>
    <g clip-path="url(#p1ec6be18d4)">
     <use xlink:href="#C0_0_806ec21a13" x="131.169674" y="57.131643" style="fill: #6495ed"/>
    </g>
    <g clip-path="url(#p1ec6be18d4)">
     <use xlink:href="#C0_0_806ec21a13" x="109.529862" y="113.70222" style="fill: #6495ed"/>
    </g>
    <g clip-path="url(#p1ec6be18d4)">
     <use xlink:href="#C0_0_806ec21a13" x="349.70651" y="76.269988" style="fill: #f08080"/>
    </g>
    <g clip-path="url(#p1ec6be18d4)">
     <use xlink:href="#C0_0_806ec21a13" x="339.606026" y="184.404422" style="fill: #6495ed"/>
    </g>
    <g clip-path="url(#p1ec6be18d4)">
     <use xlink:href="#C0_0_806ec21a13" x="307.60018" y="121.845757" style="fill: #f08080"/>
    </g>
    <g clip-path="url(#p1ec6be18d4)">
     <use xlink:href="#C0_0_806ec21a13" x="88.156268" y="79.14037" style="fill: #6495ed"/>
    </g>
    <g clip-path="url(#p1ec6be18d4)">
     <use xlink:href="#C0_0_806ec21a13" x="88.63532" y="81.316526" style="fill: #6495ed"/>
    </g>
    <g clip-path="url(#p1ec6be18d4)">
     <use xlink:href="#C0_0_806ec21a13" x="148.461631" y="238.185242" style="fill: #6495ed"/>
    </g>
    <g clip-path="url(#p1ec6be18d4)">
     <use xlink:href="#C0_0_806ec21a13" x="171.721096" y="187.189856" style="fill: #6495ed"/>
    </g>
    <g clip-path="url(#p1ec6be18d4)">
     <use xlink:href="#C0_0_806ec21a13" x="179.003646" y="44.974218" style="fill: #6495ed"/>
    </g>
    <g clip-path="url(#p1ec6be18d4)">
     <use xlink:href="#C0_0_806ec21a13" x="134.913054" y="94.735002" style="fill: #6495ed"/>
    </g>
    <g clip-path="url(#p1ec6be18d4)">
     <use xlink:href="#C0_0_806ec21a13" x="175.323036" y="88.139299" style="fill: #6495ed"/>
    </g>
    <g clip-path="url(#p1ec6be18d4)">
     <use xlink:href="#C0_0_806ec21a13" x="122.297885" y="240.889025" style="fill: #6495ed"/>
    </g>
    <g clip-path="url(#p1ec6be18d4)">
     <use xlink:href="#C0_0_806ec21a13" x="88.153132" y="68.104396" style="fill: #6495ed"/>
    </g>
    <g clip-path="url(#p1ec6be18d4)">
     <use xlink:href="#C0_0_806ec21a13" x="151.016368" y="227.451174" style="fill: #6495ed"/>
    </g>
    <g clip-path="url(#p1ec6be18d4)">
     <use xlink:href="#C0_0_806ec21a13" x="373.581818" y="180.14474" style="fill: #6495ed"/>
    </g>
    <g clip-path="url(#p1ec6be18d4)">
     <use xlink:href="#C0_0_806ec21a13" x="353.268497" y="55.453936" style="fill: #f08080"/>
    </g>
    <g clip-path="url(#p1ec6be18d4)">
     <use xlink:href="#C0_0_806ec21a13" x="363.615246" y="95.673618" style="fill: #f08080"/>
    </g>
    <g clip-path="url(#p1ec6be18d4)">
     <use xlink:href="#C0_0_806ec21a13" x="277.134589" y="45.994083" style="fill: #f08080"/>
    </g>
    <g clip-path="url(#p1ec6be18d4)">
     <use xlink:href="#C0_0_806ec21a13" x="285.558974" y="112.697216" style="fill: #f08080"/>
    </g>
    <g clip-path="url(#p1ec6be18d4)">
     <use xlink:href="#C0_0_806ec21a13" x="282.220794" y="51.40017" style="fill: #f08080"/>
    </g>
    <g clip-path="url(#p1ec6be18d4)">
     <use xlink:href="#C0_0_806ec21a13" x="149.640756" y="91.411658" style="fill: #6495ed"/>
    </g>
    <g clip-path="url(#p1ec6be18d4)">
     <use xlink:href="#C0_0_806ec21a13" x="127.501814" y="203.174609" style="fill: #6495ed"/>
    </g>
    <g clip-path="url(#p1ec6be18d4)">
     <use xlink:href="#C0_0_806ec21a13" x="296.567765" y="86.687078" style="fill: #f08080"/>
    </g>
    <g clip-path="url(#p1ec6be18d4)">
     <use xlink:href="#C0_0_806ec21a13" x="335.096729" y="198.112252" style="fill: #6495ed"/>
    </g>
    <g clip-path="url(#p1ec6be18d4)">
     <use xlink:href="#C0_0_806ec21a13" x="178.597695" y="105.258988" style="fill: #6495ed"/>
    </g>
    <g clip-path="url(#p1ec6be18d4)">
     <use xlink:href="#C0_0_806ec21a13" x="341.344033" y="181.528322" style="fill: #6495ed"/>
    </g>
    <g clip-path="url(#p1ec6be18d4)">
     <use xlink:href="#C0_0_806ec21a13" x="314.112797" y="51.542299" style="fill: #f08080"/>
    </g>
    <g clip-path="url(#p1ec6be18d4)">
     <use xlink:href="#C0_0_806ec21a13" x="146.815938" y="202.932845" style="fill: #6495ed"/>
    </g>
    <g clip-path="url(#p1ec6be18d4)">
     <use xlink:href="#C0_0_806ec21a13" x="170.118159" y="197.9318" style="fill: #6495ed"/>
    </g>
    <g clip-path="url(#p1ec6be18d4)">
     <use xlink:href="#C0_0_806ec21a13" x="158.008453" y="205.051413" style="fill: #6495ed"/>
    </g>
    <g clip-path="url(#p1ec6be18d4)">
     <use xlink:href="#C0_0_806ec21a13" x="145.27459" y="177.681722" style="fill: #6495ed"/>
    </g>
    <g clip-path="url(#p1ec6be18d4)">
     <use xlink:href="#C0_0_806ec21a13" x="98.455116" y="107.923892" style="fill: #6495ed"/>
    </g>
    <g clip-path="url(#p1ec6be18d4)">
     <use xlink:href="#C0_0_806ec21a13" x="174.722097" y="101.602905" style="fill: #6495ed"/>
    </g>
    <g clip-path="url(#p1ec6be18d4)">
     <use xlink:href="#C0_0_806ec21a13" x="333.487374" y="170.944453" style="fill: #6495ed"/>
    </g>
    <g clip-path="url(#p1ec6be18d4)">
     <use xlink:href="#C0_0_806ec21a13" x="350.115615" y="188.857995" style="fill: #6495ed"/>
    </g>
    <g clip-path="url(#p1ec6be18d4)">
     <use xlink:href="#C0_0_806ec21a13" x="115.042755" y="164.858972" style="fill: #6495ed"/>
    </g>
    <g clip-path="url(#p1ec6be18d4)">
     <use xlink:href="#C0_0_806ec21a13" x="140.920811" y="82.443493" style="fill: #6495ed"/>
    </g>
    <g clip-path="url(#p1ec6be18d4)">
     <use xlink:href="#C0_0_806ec21a13" x="69.218182" y="204.010923" style="fill: #6495ed"/>
    </g>
    <g clip-path="url(#p1ec6be18d4)">
     <use xlink:href="#C0_0_806ec21a13" x="106.684588" y="98.815414" style="fill: #6495ed"/>
    </g>
    <g clip-path="url(#p1ec6be18d4)">
     <use xlink:href="#C0_0_806ec21a13" x="319.951321" y="86.016481" style="fill: #f08080"/>
    </g>
    <g clip-path="url(#p1ec6be18d4)">
     <use xlink:href="#C0_0_806ec21a13" x="161.9565" y="216.66538" style="fill: #6495ed"/>
    </g>
    <g clip-path="url(#p1ec6be18d4)">
     <use xlink:href="#C0_0_806ec21a13" x="189.879585" y="176.769385" style="fill: #6495ed"/>
    </g>
    <g clip-path="url(#p1ec6be18d4)">
     <use xlink:href="#C0_0_806ec21a13" x="100.763739" y="73.339848" style="fill: #6495ed"/>
    </g>
    <g clip-path="url(#p1ec6be18d4)">
     <use xlink:href="#C0_0_806ec21a13" x="320.648483" y="80.883632" style="fill: #f08080"/>
    </g>
    <g clip-path="url(#p1ec6be18d4)">
     <use xlink:href="#C0_0_806ec21a13" x="97.149547" y="54.392536" style="fill: #6495ed"/>
    </g>
    <g clip-path="url(#p1ec6be18d4)">
     <use xlink:href="#C0_0_806ec21a13" x="97.355424" y="94.083761" style="fill: #6495ed"/>
    </g>
    <g clip-path="url(#p1ec6be18d4)">
     <use xlink:href="#C0_0_806ec21a13" x="90.269116" y="234.661434" style="fill: #6495ed"/>
    </g>
    <g clip-path="url(#p1ec6be18d4)">
     <use xlink:href="#C0_0_806ec21a13" x="140.121371" y="172.964536" style="fill: #6495ed"/>
    </g>
    <g clip-path="url(#p1ec6be18d4)">
     <use xlink:href="#C0_0_806ec21a13" x="85.051412" y="52.465117" style="fill: #6495ed"/>
    </g>
    <g clip-path="url(#p1ec6be18d4)">
     <use xlink:href="#C0_0_806ec21a13" x="294.749063" y="208.911247" style="fill: #6495ed"/>
    </g>
    <g clip-path="url(#p1ec6be18d4)">
     <use xlink:href="#C0_0_806ec21a13" x="330.397865" y="174.417609" style="fill: #6495ed"/>
    </g>
    <g clip-path="url(#p1ec6be18d4)">
     <use xlink:href="#C0_0_806ec21a13" x="92.935838" y="217.462079" style="fill: #6495ed"/>
    </g>
    <g clip-path="url(#p1ec6be18d4)">
     <use xlink:href="#C0_0_806ec21a13" x="365.22117" y="63.663942" style="fill: #f08080"/>
    </g>
    <g clip-path="url(#p1ec6be18d4)">
     <use xlink:href="#C0_0_806ec21a13" x="320.697768" y="221.577053" style="fill: #6495ed"/>
    </g>
    <g clip-path="url(#p1ec6be18d4)">
     <use xlink:href="#C0_0_806ec21a13" x="297.849035" y="238.675648" style="fill: #6495ed"/>
    </g>
    <g clip-path="url(#p1ec6be18d4)">
     <use xlink:href="#C0_0_806ec21a13" x="172.995396" y="91.892666" style="fill: #6495ed"/>
    </g>
    <g clip-path="url(#p1ec6be18d4)">
     <use xlink:href="#C0_0_806ec21a13" x="369.229704" y="104.810525" style="fill: #f08080"/>
    </g>
    <g clip-path="url(#p1ec6be18d4)">
     <use xlink:href="#C0_0_806ec21a13" x="83.032231" y="193.789382" style="fill: #6495ed"/>
    </g>
    <g clip-path="url(#p1ec6be18d4)">
     <use xlink:href="#C0_0_806ec21a13" x="171.886121" y="99.239239" style="fill: #6495ed"/>
    </g>
    <g clip-path="url(#p1ec6be18d4)">
     <use xlink:href="#C0_0_806ec21a13" x="365.213909" y="188.466195" style="fill: #6495ed"/>
    </g>
    <g clip-path="url(#p1ec6be18d4)">
     <use xlink:href="#C0_0_806ec21a13" x="152.438013" y="192.494337" style="fill: #6495ed"/>
    </g>
    <g clip-path="url(#p1ec6be18d4)">
     <use xlink:href="#C0_0_806ec21a13" x="143.785076" y="83.292395" style="fill: #6495ed"/>
    </g>
    <g clip-path="url(#p1ec6be18d4)">
     <use xlink:href="#C0_0_806ec21a13" x="297.3083" y="182.60754" style="fill: #6495ed"/>
    </g>
    <g clip-path="url(#p1ec6be18d4)">
     <use xlink:href="#C0_0_806ec21a13" x="328.504772" y="69.47277" style="fill: #f08080"/>
    </g>
    <g clip-path="url(#p1ec6be18d4)">
     <use xlink:href="#C0_0_806ec21a13" x="342.444057" y="242.116364" style="fill: #6495ed"/>
    </g>
    <g clip-path="url(#p1ec6be18d4)">
     <use xlink:href="#C0_0_806ec21a13" x="101.951387" y="185.245504" style="fill: #6495ed"/>
    </g>
    <g clip-path="url(#p1ec6be18d4)">
     <use xlink:href="#C0_0_806ec21a13" x="253.743627" y="54.757382" style="fill: #f08080"/>
    </g>
    <g clip-path="url(#p1ec6be18d4)">
     <use xlink:href="#C0_0_806ec21a13" x="353.870748" y="202.808139" style="fill: #6495ed"/>
    </g>
    <g clip-path="url(#p1ec6be18d4)">
     <use xlink:href="#C0_0_806ec21a13" x="305.762954" y="172.385333" style="fill: #6495ed"/>
    </g>
    <g clip-path="url(#p1ec6be18d4)">
     <use xlink:href="#C0_0_806ec21a13" x="125.93353" y="187.204595" style="fill: #6495ed"/>
    </g>
    <g clip-path="url(#p1ec6be18d4)">
     <use xlink:href="#C0_0_806ec21a13" x="283.291718" y="71.684779" style="fill: #f08080"/>
    </g>
    <g clip-path="url(#p1ec6be18d4)">
     <use xlink:href="#C0_0_806ec21a13" x="316.031265" y="74.842519" style="fill: #f08080"/>
    </g>
    <g clip-path="url(#p1ec6be18d4)">
     <use xlink:href="#C0_0_806ec21a13" x="76.046619" y="172.044175" style="fill: #6495ed"/>
    </g>
    <g clip-path="url(#p1ec6be18d4)">
     <use xlink:href="#C0_0_806ec21a13" x="136.978967" y="208.802192" style="fill: #6495ed"/>
    </g>
    <g clip-path="url(#p1ec6be18d4)">
     <use xlink:href="#C0_0_806ec21a13" x="79.524333" y="81.099301" style="fill: #6495ed"/>
    </g>
    <g clip-path="url(#p1ec6be18d4)">
     <use xlink:href="#C0_0_806ec21a13" x="348.986656" y="235.152197" style="fill: #6495ed"/>
    </g>
    <g clip-path="url(#p1ec6be18d4)">
     <use xlink:href="#C0_0_806ec21a13" x="300.333037" y="64.414918" style="fill: #f08080"/>
    </g>
    <g clip-path="url(#p1ec6be18d4)">
     <use xlink:href="#C0_0_806ec21a13" x="287.414065" y="77.793642" style="fill: #f08080"/>
    </g>
    <g clip-path="url(#p1ec6be18d4)">
     <use xlink:href="#C0_0_806ec21a13" x="289.619272" y="50.688029" style="fill: #f08080"/>
    </g>
    <g clip-path="url(#p1ec6be18d4)">
     <use xlink:href="#C0_0_806ec21a13" x="134.722902" y="44.443636" style="fill: #6495ed"/>
    </g>
    <g clip-path="url(#p1ec6be18d4)">
     <use xlink:href="#C0_0_806ec21a13" x="278.562708" y="184.479465" style="fill: #6495ed"/>
    </g>
    <g clip-path="url(#p1ec6be18d4)">
     <use xlink:href="#C0_0_806ec21a13" x="172.304581" y="81.128285" style="fill: #6495ed"/>
    </g>
    <g clip-path="url(#p1ec6be18d4)">
     <use xlink:href="#C0_0_806ec21a13" x="112.64952" y="67.889296" style="fill: #6495ed"/>
    </g>
    <g clip-path="url(#p1ec6be18d4)">
     <use xlink:href="#C0_0_806ec21a13" x="88.32403" y="83.288906" style="fill: #6495ed"/>
    </g>
    <g clip-path="url(#p1ec6be18d4)">
     <use xlink:href="#C0_0_806ec21a13" x="88.628749" y="163.352069" style="fill: #6495ed"/>
    </g>
    <g clip-path="url(#p1ec6be18d4)">
     <use xlink:href="#C0_0_806ec21a13" x="165.599581" y="175.885748" style="fill: #6495ed"/>
    </g>
    <g clip-path="url(#p1ec6be18d4)">
     <use xlink:href="#C0_0_806ec21a13" x="85.378697" y="183.531316" style="fill: #6495ed"/>
    </g>
    <g clip-path="url(#p1ec6be18d4)">
     <use xlink:href="#C0_0_806ec21a13" x="255.950532" y="87.885103" style="fill: #f08080"/>
    </g>
    <g clip-path="url(#p1ec6be18d4)">
     <use xlink:href="#C0_0_806ec21a13" x="337.952262" y="88.422986" style="fill: #f08080"/>
    </g>
    <g clip-path="url(#p1ec6be18d4)">
     <use xlink:href="#C0_0_806ec21a13" x="343.693088" y="58.35597" style="fill: #f08080"/>
    </g>
    <g clip-path="url(#p1ec6be18d4)">
     <use xlink:href="#C0_0_806ec21a13" x="129.626976" y="97.090359" style="fill: #6495ed"/>
    </g>
    <g clip-path="url(#p1ec6be18d4)">
     <use xlink:href="#C0_0_806ec21a13" x="340.297513" y="94.355519" style="fill: #f08080"/>
    </g>
    <g clip-path="url(#p1ec6be18d4)">
     <use xlink:href="#C0_0_806ec21a13" x="319.836568" y="108.892713" style="fill: #f08080"/>
    </g>
    <g clip-path="url(#p1ec6be18d4)">
     <use xlink:href="#C0_0_806ec21a13" x="94.752276" y="182.309594" style="fill: #6495ed"/>
    </g>
    <g clip-path="url(#p1ec6be18d4)">
     <use xlink:href="#C0_0_806ec21a13" x="168.336082" y="107.02459" style="fill: #6495ed"/>
    </g>
    <g clip-path="url(#p1ec6be18d4)">
     <use xlink:href="#C0_0_806ec21a13" x="360.732246" y="76.257807" style="fill: #f08080"/>
    </g>
    <g clip-path="url(#p1ec6be18d4)">
     <use xlink:href="#C0_0_806ec21a13" x="120.934923" y="91.181202" style="fill: #6495ed"/>
    </g>
    <g clip-path="url(#p1ec6be18d4)">
     <use xlink:href="#C0_0_806ec21a13" x="334.671066" y="187.894576" style="fill: #6495ed"/>
    </g>
    <g clip-path="url(#p1ec6be18d4)">
     <use xlink:href="#C0_0_806ec21a13" x="359.44294" y="59.035357" style="fill: #f08080"/>
    </g>
    <g clip-path="url(#p1ec6be18d4)">
     <use xlink:href="#C0_0_806ec21a13" x="117.777733" y="104.66257" style="fill: #6495ed"/>
    </g>
    <g clip-path="url(#p1ec6be18d4)">
     <use xlink:href="#C0_0_806ec21a13" x="170.86001" y="64.388466" style="fill: #6495ed"/>
    </g>
    <g clip-path="url(#p1ec6be18d4)">
     <use xlink:href="#C0_0_806ec21a13" x="287.858296" y="197.370351" style="fill: #6495ed"/>
    </g>
    <g clip-path="url(#p1ec6be18d4)">
     <use xlink:href="#C0_0_806ec21a13" x="258.486265" y="189.85886" style="fill: #6495ed"/>
    </g>
    <g clip-path="url(#p1ec6be18d4)">
     <use xlink:href="#C0_0_806ec21a13" x="145.788732" y="77.203034" style="fill: #6495ed"/>
    </g>
    <g clip-path="url(#p1ec6be18d4)">
     <use xlink:href="#C0_0_806ec21a13" x="292.343043" y="221.827209" style="fill: #6495ed"/>
    </g>
    <g clip-path="url(#p1ec6be18d4)">
     <use xlink:href="#C0_0_806ec21a13" x="317.158742" y="229.084999" style="fill: #6495ed"/>
    </g>
    <g clip-path="url(#p1ec6be18d4)">
     <use xlink:href="#C0_0_806ec21a13" x="104.846407" y="111.33255" style="fill: #6495ed"/>
    </g>
    <g clip-path="url(#p1ec6be18d4)">
     <use xlink:href="#C0_0_806ec21a13" x="87.080846" y="50.485937" style="fill: #6495ed"/>
    </g>
    <g clip-path="url(#p1ec6be18d4)">
     <use xlink:href="#C0_0_806ec21a13" x="121.982513" y="177.584675" style="fill: #6495ed"/>
    </g>
    <g clip-path="url(#p1ec6be18d4)">
     <use xlink:href="#C0_0_806ec21a13" x="276.344186" y="189.028613" style="fill: #6495ed"/>
    </g>
    <g clip-path="url(#p1ec6be18d4)">
     <use xlink:href="#C0_0_806ec21a13" x="170.130764" y="48.881092" style="fill: #6495ed"/>
    </g>
    <g clip-path="url(#p1ec6be18d4)">
     <use xlink:href="#C0_0_806ec21a13" x="105.263929" y="192.728131" style="fill: #6495ed"/>
    </g>
    <g clip-path="url(#p1ec6be18d4)">
     <use xlink:href="#C0_0_806ec21a13" x="307.858584" y="71.611939" style="fill: #f08080"/>
    </g>
    <g clip-path="url(#p1ec6be18d4)">
     <use xlink:href="#C0_0_806ec21a13" x="73.742034" y="112.918124" style="fill: #6495ed"/>
    </g>
    <g clip-path="url(#p1ec6be18d4)">
     <use xlink:href="#C0_0_806ec21a13" x="163.704747" y="180.951912" style="fill: #6495ed"/>
    </g>
    <g clip-path="url(#p1ec6be18d4)">
     <use xlink:href="#C0_0_806ec21a13" x="75.250975" y="239.794093" style="fill: #6495ed"/>
    </g>
    <g clip-path="url(#p1ec6be18d4)">
     <use xlink:href="#C0_0_806ec21a13" x="370.080755" y="65.314314" style="fill: #f08080"/>
    </g>
    <g clip-path="url(#p1ec6be18d4)">
     <use xlink:href="#C0_0_806ec21a13" x="315.419617" y="164.415356" style="fill: #6495ed"/>
    </g>
    <g clip-path="url(#p1ec6be18d4)">
     <use xlink:href="#C0_0_806ec21a13" x="123.03199" y="121.19105" style="fill: #6495ed"/>
    </g>
    <g clip-path="url(#p1ec6be18d4)">
     <use xlink:href="#C0_0_806ec21a13" x="179.292014" y="234.097107" style="fill: #6495ed"/>
    </g>
    <g clip-path="url(#p1ec6be18d4)">
     <use xlink:href="#C0_0_806ec21a13" x="141.394065" y="87.080651" style="fill: #6495ed"/>
    </g>
    <g clip-path="url(#p1ec6be18d4)">
     <use xlink:href="#C0_0_806ec21a13" x="314.8225" y="232.980908" style="fill: #6495ed"/>
    </g>
    <g clip-path="url(#p1ec6be18d4)">
     <use xlink:href="#C0_0_806ec21a13" x="101.751911" y="54.897019" style="fill: #6495ed"/>
    </g>
    <g clip-path="url(#p1ec6be18d4)">
     <use xlink:href="#C0_0_806ec21a13" x="74.527026" y="118.774938" style="fill: #6495ed"/>
    </g>
    <g clip-path="url(#p1ec6be18d4)">
     <use xlink:href="#C0_0_806ec21a13" x="79.928541" y="232.010789" style="fill: #6495ed"/>
    </g>
    <g clip-path="url(#p1ec6be18d4)">
     <use xlink:href="#C0_0_806ec21a13" x="137.1469" y="179.97734" style="fill: #6495ed"/>
    </g>
    <g clip-path="url(#p1ec6be18d4)">
     <use xlink:href="#C0_0_806ec21a13" x="357.964036" y="122.585298" style="fill: #f08080"/>
    </g>
    <g clip-path="url(#p1ec6be18d4)">
     <use xlink:href="#C0_0_806ec21a13" x="341.231398" y="177.51535" style="fill: #6495ed"/>
    </g>
   </g>
   <g id="PathCollection_2"/>
   <g id="PathCollection_3"/>
   <g id="matplotlib.axis_1">
    <g id="xtick_1">
     <g id="line2d_1">
      <defs>
       <path id="m3478352219" d="M 0 0 
L 0 3.5 
" style="stroke: #000000; stroke-width: 0.8"/>
      </defs>
      <g>
       <use xlink:href="#m3478352219" x="68.865279" y="252" style="stroke: #000000; stroke-width: 0.8"/>
      </g>
     </g>
    </g>
    <g id="xtick_2">
     <g id="line2d_2">
      <g>
       <use xlink:href="#m3478352219" x="107.373126" y="252" style="stroke: #000000; stroke-width: 0.8"/>
      </g>
     </g>
    </g>
    <g id="xtick_3">
     <g id="line2d_3">
      <g>
       <use xlink:href="#m3478352219" x="145.880973" y="252" style="stroke: #000000; stroke-width: 0.8"/>
      </g>
     </g>
    </g>
    <g id="xtick_4">
     <g id="line2d_4">
      <g>
       <use xlink:href="#m3478352219" x="184.388819" y="252" style="stroke: #000000; stroke-width: 0.8"/>
      </g>
     </g>
    </g>
    <g id="xtick_5">
     <g id="line2d_5">
      <g>
       <use xlink:href="#m3478352219" x="222.896666" y="252" style="stroke: #000000; stroke-width: 0.8"/>
      </g>
     </g>
    </g>
    <g id="xtick_6">
     <g id="line2d_6">
      <g>
       <use xlink:href="#m3478352219" x="261.404513" y="252" style="stroke: #000000; stroke-width: 0.8"/>
      </g>
     </g>
    </g>
    <g id="xtick_7">
     <g id="line2d_7">
      <g>
       <use xlink:href="#m3478352219" x="299.912359" y="252" style="stroke: #000000; stroke-width: 0.8"/>
      </g>
     </g>
    </g>
    <g id="xtick_8">
     <g id="line2d_8">
      <g>
       <use xlink:href="#m3478352219" x="338.420206" y="252" style="stroke: #000000; stroke-width: 0.8"/>
      </g>
     </g>
    </g>
    <g id="xtick_9">
     <g id="line2d_9">
      <g>
       <use xlink:href="#m3478352219" x="376.928053" y="252" style="stroke: #000000; stroke-width: 0.8"/>
      </g>
     </g>
    </g>
    <g id="text_1">
     <!-- - -->
     <g transform="translate(219.596094 270.598437)scale(0.1 -0.1)">
      <defs>
       <path id="DejaVuSans-2d" d="M 313 2009 
L 1997 2009 
L 1997 1497 
L 313 1497 
L 313 2009 
z
" transform="scale(0.015625)"/>
      </defs>
      <use xlink:href="#DejaVuSans-2d"/>
     </g>
    </g>
   </g>
   <g id="matplotlib.axis_2">
    <g id="ytick_1">
     <g id="line2d_10">
      <defs>
       <path id="m7ec13407c2" d="M 0 0 
L -3.5 0 
" style="stroke: #000000; stroke-width: 0.8"/>
      </defs>
      <g>
       <use xlink:href="#m7ec13407c2" x="54" y="242.676345" style="stroke: #000000; stroke-width: 0.8"/>
      </g>
     </g>
    </g>
    <g id="ytick_2">
     <g id="line2d_11">
      <g>
       <use xlink:href="#m7ec13407c2" x="54" y="217.825811" style="stroke: #000000; stroke-width: 0.8"/>
      </g>
     </g>
    </g>
    <g id="ytick_3">
     <g id="line2d_12">
      <g>
       <use xlink:href="#m7ec13407c2" x="54" y="192.975277" style="stroke: #000000; stroke-width: 0.8"/>
      </g>
     </g>
    </g>
    <g id="ytick_4">
     <g id="line2d_13">
      <g>
       <use xlink:href="#m7ec13407c2" x="54" y="168.124744" style="stroke: #000000; stroke-width: 0.8"/>
      </g>
     </g>
    </g>
    <g id="ytick_5">
     <g id="line2d_14">
      <g>
       <use xlink:href="#m7ec13407c2" x="54" y="143.27421" style="stroke: #000000; stroke-width: 0.8"/>
      </g>
     </g>
    </g>
    <g id="ytick_6">
     <g id="line2d_15">
      <g>
       <use xlink:href="#m7ec13407c2" x="54" y="118.423676" style="stroke: #000000; stroke-width: 0.8"/>
      </g>
     </g>
    </g>
    <g id="ytick_7">
     <g id="line2d_16">
      <g>
       <use xlink:href="#m7ec13407c2" x="54" y="93.573143" style="stroke: #000000; stroke-width: 0.8"/>
      </g>
     </g>
    </g>
    <g id="ytick_8">
     <g id="line2d_17">
      <g>
       <use xlink:href="#m7ec13407c2" x="54" y="68.722609" style="stroke: #000000; stroke-width: 0.8"/>
      </g>
     </g>
    </g>
    <g id="ytick_9">
     <g id="line2d_18">
      <g>
       <use xlink:href="#m7ec13407c2" x="54" y="43.872075" style="stroke: #000000; stroke-width: 0.8"/>
      </g>
     </g>
    </g>
    <g id="text_2">
     <!-- - -->
     <g transform="translate(40.920313 145.083906)rotate(-90)scale(0.1 -0.1)">
      <use xlink:href="#DejaVuSans-2d"/>
     </g>
    </g>
   </g>
   <g id="patch_3">
    <path d="M 54 252 
L 54 34.56 
" style="fill: none; stroke: #000000; stroke-width: 0.8; stroke-linejoin: miter; stroke-linecap: square"/>
   </g>
   <g id="patch_4">
    <path d="M 388.8 252 
L 388.8 34.56 
" style="fill: none; stroke: #000000; stroke-width: 0.8; stroke-linejoin: miter; stroke-linecap: square"/>
   </g>
   <g id="patch_5">
    <path d="M 54 252 
L 388.8 252 
" style="fill: none; stroke: #000000; stroke-width: 0.8; stroke-linejoin: miter; stroke-linecap: square"/>
   </g>
   <g id="patch_6">
    <path d="M 54 34.56 
L 388.8 34.56 
" style="fill: none; stroke: #000000; stroke-width: 0.8; stroke-linejoin: miter; stroke-linecap: square"/>
   </g>
   <g id="legend_1">
    <g id="patch_7">
     <path d="M 195.992188 247 
L 246.807813 247 
Q 248.807813 247 248.807813 245 
L 248.807813 201.965625 
Q 248.807813 199.965625 246.807813 199.965625 
L 195.992188 199.965625 
Q 193.992188 199.965625 193.992188 201.965625 
L 193.992188 245 
Q 193.992188 247 195.992188 247 
z
" style="fill: #ffffff; opacity: 0.8; stroke: #cccccc; stroke-linejoin: miter"/>
    </g>
    <g id="text_3">
     <!-- species -->
     <g transform="translate(202.725 211.564063)scale(0.1 -0.1)">
      <defs>
       <path id="DejaVuSans-73" d="M 2834 3397 
L 2834 2853 
Q 2591 2978 2328 3040 
Q 2066 3103 1784 3103 
Q 1356 3103 1142 2972 
Q 928 2841 928 2578 
Q 928 2378 1081 2264 
Q 1234 2150 1697 2047 
L 1894 2003 
Q 2506 1872 2764 1633 
Q 3022 1394 3022 966 
Q 3022 478 2636 193 
Q 2250 -91 1575 -91 
Q 1294 -91 989 -36 
Q 684 19 347 128 
L 347 722 
Q 666 556 975 473 
Q 1284 391 1588 391 
Q 1994 391 2212 530 
Q 2431 669 2431 922 
Q 2431 1156 2273 1281 
Q 2116 1406 1581 1522 
L 1381 1569 
Q 847 1681 609 1914 
Q 372 2147 372 2553 
Q 372 3047 722 3315 
Q 1072 3584 1716 3584 
Q 2034 3584 2315 3537 
Q 2597 3491 2834 3397 
z
" transform="scale(0.015625)"/>
       <path id="DejaVuSans-70" d="M 1159 525 
L 1159 -1331 
L 581 -1331 
L 581 3500 
L 1159 3500 
L 1159 2969 
Q 1341 3281 1617 3432 
Q 1894 3584 2278 3584 
Q 2916 3584 3314 3078 
Q 3713 2572 3713 1747 
Q 3713 922 3314 415 
Q 2916 -91 2278 -91 
Q 1894 -91 1617 61 
Q 1341 213 1159 525 
z
M 3116 1747 
Q 3116 2381 2855 2742 
Q 2594 3103 2138 3103 
Q 1681 3103 1420 2742 
Q 1159 2381 1159 1747 
Q 1159 1113 1420 752 
Q 1681 391 2138 391 
Q 2594 391 2855 752 
Q 3116 1113 3116 1747 
z
" transform="scale(0.015625)"/>
       <path id="DejaVuSans-65" d="M 3597 1894 
L 3597 1613 
L 953 1613 
Q 991 1019 1311 708 
Q 1631 397 2203 397 
Q 2534 397 2845 478 
Q 3156 559 3463 722 
L 3463 178 
Q 3153 47 2828 -22 
Q 2503 -91 2169 -91 
Q 1331 -91 842 396 
Q 353 884 353 1716 
Q 353 2575 817 3079 
Q 1281 3584 2069 3584 
Q 2775 3584 3186 3129 
Q 3597 2675 3597 1894 
z
M 3022 2063 
Q 3016 2534 2758 2815 
Q 2500 3097 2075 3097 
Q 1594 3097 1305 2825 
Q 1016 2553 972 2059 
L 3022 2063 
z
" transform="scale(0.015625)"/>
       <path id="DejaVuSans-63" d="M 3122 3366 
L 3122 2828 
Q 2878 2963 2633 3030 
Q 2388 3097 2138 3097 
Q 1578 3097 1268 2742 
Q 959 2388 959 1747 
Q 959 1106 1268 751 
Q 1578 397 2138 397 
Q 2388 397 2633 464 
Q 2878 531 3122 666 
L 3122 134 
Q 2881 22 2623 -34 
Q 2366 -91 2075 -91 
Q 1284 -91 818 406 
Q 353 903 353 1747 
Q 353 2603 823 3093 
Q 1294 3584 2113 3584 
Q 2378 3584 2631 3529 
Q 2884 3475 3122 3366 
z
" transform="scale(0.015625)"/>
       <path id="DejaVuSans-69" d="M 603 3500 
L 1178 3500 
L 1178 0 
L 603 0 
L 603 3500 
z
M 603 4863 
L 1178 4863 
L 1178 4134 
L 603 4134 
L 603 4863 
z
" transform="scale(0.015625)"/>
      </defs>
      <use xlink:href="#DejaVuSans-73"/>
      <use xlink:href="#DejaVuSans-70" x="52.099609"/>
      <use xlink:href="#DejaVuSans-65" x="115.576172"/>
      <use xlink:href="#DejaVuSans-63" x="177.099609"/>
      <use xlink:href="#DejaVuSans-69" x="232.080078"/>
      <use xlink:href="#DejaVuSans-65" x="259.863281"/>
      <use xlink:href="#DejaVuSans-73" x="321.386719"/>
     </g>
    </g>
    <g id="PathCollection_4">
     <defs>
      <path id="mcaafc098c2" d="M 0 3 
C 0.795609 3 1.55874 2.683901 2.12132 2.12132 
C 2.683901 1.55874 3 0.795609 3 0 
C 3 -0.795609 2.683901 -1.55874 2.12132 -2.12132 
C 1.55874 -2.683901 0.795609 -3 0 -3 
C -0.795609 -3 -1.55874 -2.683901 -2.12132 -2.12132 
C -2.683901 -1.55874 -3 -0.795609 -3 0 
C -3 0.795609 -2.683901 1.55874 -2.12132 2.12132 
C -1.55874 2.683901 -0.795609 3 0 3 
z
" style="stroke: #6495ed"/>
     </defs>
     <g>
      <use xlink:href="#mcaafc098c2" x="207.992188" y="223.617188" style="fill: #6495ed; stroke: #6495ed"/>
     </g>
    </g>
    <g id="text_4">
     <!-- cat -->
     <g transform="translate(225.992188 226.242188)scale(0.1 -0.1)">
      <defs>
       <path id="DejaVuSans-61" d="M 2194 1759 
Q 1497 1759 1228 1600 
Q 959 1441 959 1056 
Q 959 750 1161 570 
Q 1363 391 1709 391 
Q 2188 391 2477 730 
Q 2766 1069 2766 1631 
L 2766 1759 
L 2194 1759 
z
M 3341 1997 
L 3341 0 
L 2766 0 
L 2766 531 
Q 2569 213 2275 61 
Q 1981 -91 1556 -91 
Q 1019 -91 701 211 
Q 384 513 384 1019 
Q 384 1609 779 1909 
Q 1175 2209 1959 2209 
L 2766 2209 
L 2766 2266 
Q 2766 2663 2505 2880 
Q 2244 3097 1772 3097 
Q 1472 3097 1187 3025 
Q 903 2953 641 2809 
L 641 3341 
Q 956 3463 1253 3523 
Q 1550 3584 1831 3584 
Q 2591 3584 2966 3190 
Q 3341 2797 3341 1997 
z
" transform="scale(0.015625)"/>
       <path id="DejaVuSans-74" d="M 1172 4494 
L 1172 3500 
L 2356 3500 
L 2356 3053 
L 1172 3053 
L 1172 1153 
Q 1172 725 1289 603 
Q 1406 481 1766 481 
L 2356 481 
L 2356 0 
L 1766 0 
Q 1100 0 847 248 
Q 594 497 594 1153 
L 594 3053 
L 172 3053 
L 172 3500 
L 594 3500 
L 594 4494 
L 1172 4494 
z
" transform="scale(0.015625)"/>
      </defs>
      <use xlink:href="#DejaVuSans-63"/>
      <use xlink:href="#DejaVuSans-61" x="54.980469"/>
      <use xlink:href="#DejaVuSans-74" x="116.259766"/>
     </g>
    </g>
    <g id="PathCollection_5">
     <defs>
      <path id="mce3ecb9a48" d="M 0 3 
C 0.795609 3 1.55874 2.683901 2.12132 2.12132 
C 2.683901 1.55874 3 0.795609 3 0 
C 3 -0.795609 2.683901 -1.55874 2.12132 -2.12132 
C 1.55874 -2.683901 0.795609 -3 0 -3 
C -0.795609 -3 -1.55874 -2.683901 -2.12132 -2.12132 
C -2.683901 -1.55874 -3 -0.795609 -3 0 
C -3 0.795609 -2.683901 1.55874 -2.12132 2.12132 
C -1.55874 2.683901 -0.795609 3 0 3 
z
" style="stroke: #f08080"/>
     </defs>
     <g>
      <use xlink:href="#mce3ecb9a48" x="207.992188" y="238.295313" style="fill: #f08080; stroke: #f08080"/>
     </g>
    </g>
    <g id="text_5">
     <!-- dog -->
     <g transform="translate(225.992188 240.920313)scale(0.1 -0.1)">
      <defs>
       <path id="DejaVuSans-64" d="M 2906 2969 
L 2906 4863 
L 3481 4863 
L 3481 0 
L 2906 0 
L 2906 525 
Q 2725 213 2448 61 
Q 2172 -91 1784 -91 
Q 1150 -91 751 415 
Q 353 922 353 1747 
Q 353 2572 751 3078 
Q 1150 3584 1784 3584 
Q 2172 3584 2448 3432 
Q 2725 3281 2906 2969 
z
M 947 1747 
Q 947 1113 1208 752 
Q 1469 391 1925 391 
Q 2381 391 2643 752 
Q 2906 1113 2906 1747 
Q 2906 2381 2643 2742 
Q 2381 3103 1925 3103 
Q 1469 3103 1208 2742 
Q 947 2381 947 1747 
z
" transform="scale(0.015625)"/>
       <path id="DejaVuSans-6f" d="M 1959 3097 
Q 1497 3097 1228 2736 
Q 959 2375 959 1747 
Q 959 1119 1226 758 
Q 1494 397 1959 397 
Q 2419 397 2687 759 
Q 2956 1122 2956 1747 
Q 2956 2369 2687 2733 
Q 2419 3097 1959 3097 
z
M 1959 3584 
Q 2709 3584 3137 3096 
Q 3566 2609 3566 1747 
Q 3566 888 3137 398 
Q 2709 -91 1959 -91 
Q 1206 -91 779 398 
Q 353 888 353 1747 
Q 353 2609 779 3096 
Q 1206 3584 1959 3584 
z
" transform="scale(0.015625)"/>
       <path id="DejaVuSans-67" d="M 2906 1791 
Q 2906 2416 2648 2759 
Q 2391 3103 1925 3103 
Q 1463 3103 1205 2759 
Q 947 2416 947 1791 
Q 947 1169 1205 825 
Q 1463 481 1925 481 
Q 2391 481 2648 825 
Q 2906 1169 2906 1791 
z
M 3481 434 
Q 3481 -459 3084 -895 
Q 2688 -1331 1869 -1331 
Q 1566 -1331 1297 -1286 
Q 1028 -1241 775 -1147 
L 775 -588 
Q 1028 -725 1275 -790 
Q 1522 -856 1778 -856 
Q 2344 -856 2625 -561 
Q 2906 -266 2906 331 
L 2906 616 
Q 2728 306 2450 153 
Q 2172 0 1784 0 
Q 1141 0 747 490 
Q 353 981 353 1791 
Q 353 2603 747 3093 
Q 1141 3584 1784 3584 
Q 2172 3584 2450 3431 
Q 2728 3278 2906 2969 
L 2906 3500 
L 3481 3500 
L 3481 434 
z
" transform="scale(0.015625)"/>
      </defs>
      <use xlink:href="#DejaVuSans-64"/>
      <use xlink:href="#DejaVuSans-6f" x="63.476562"/>
      <use xlink:href="#DejaVuSans-67" x="124.658203"/>
     </g>
    </g>
   </g>
  </g>
 </g>
 <defs>
  <clipPath id="p1ec6be18d4">
   <rect x="54" y="34.56" width="334.8" height="217.44"/>
  </clipPath>
 </defs>
</svg>
