<?xml version="1.0" encoding="utf-8" standalone="no"?>
<!DOCTYPE svg PUBLIC "-//W3C//DTD SVG 1.1//EN"
  "http://www.w3.org/Graphics/SVG/1.1/DTD/svg11.dtd">
<svg xmlns:xlink="http://www.w3.org/1999/xlink" width="460.8pt" height="345.6pt" viewBox="0 0 460.8 345.6" xmlns="http://www.w3.org/2000/svg" version="1.1">
 <metadata>
  <rdf:RDF xmlns:dc="http://purl.org/dc/elements/1.1/" xmlns:cc="http://creativecommons.org/ns#" xmlns:rdf="http://www.w3.org/1999/02/22-rdf-syntax-ns#">
   <cc:Work>
    <dc:type rdf:resource="http://purl.org/dc/dcmitype/StillImage"/>
    <dc:date>2024-11-04T15:27:56.779559</dc:date>
    <dc:format>image/svg+xml</dc:format>
    <dc:creator>
     <cc:Agent>
      <dc:title>Matplotlib v3.9.2, https://matplotlib.org/</dc:title>
     </cc:Agent>
    </dc:creator>
   </cc:Work>
  </rdf:RDF>
 </metadata>
 <defs>
  <style type="text/css">*{stroke-linejoin: round; stroke-linecap: butt}</style>
 </defs>
 <g id="figure_1">
  <g id="patch_1">
   <path d="M 0 345.6 
L 460.8 345.6 
L 460.8 0 
L 0 0 
z
" style="fill: #ffffff"/>
  </g>
  <g id="axes_1">
   <g id="patch_2">
    <path d="M 57.6 307.584 
L 414.72 307.584 
L 414.72 41.472 
L 57.6 41.472 
z
" style="fill: #ffffff"/>
   </g>
   <g id="PathCollection_1">
    <defs>
     <path id="C0_0_22ae8a04c2" d="M 0 3 
C 0.795609 3 1.55874 2.683901 2.12132 2.12132 
C 2.683901 1.55874 3 0.795609 3 -0 
C 3 -0.795609 2.683901 -1.55874 2.12132 -2.12132 
C 1.55874 -2.683901 0.795609 -3 0 -3 
C -0.795609 -3 -1.55874 -2.683901 -2.12132 -2.12132 
C -2.683901 -1.55874 -3 -0.795609 -3 0 
C -3 0.795609 -2.683901 1.55874 -2.12132 2.12132 
C -1.55874 2.683901 -0.795609 3 0 3 
z
"/>
    </defs>
    <g clip-path="url(#pac391a1839)">
     <use xlink:href="#C0_0_22ae8a04c2" x="288.418923" y="83.327459" style="fill: #f08080"/>
    </g>
    <g clip-path="url(#pac391a1839)">
     <use xlink:href="#C0_0_22ae8a04c2" x="192.860095" y="105.610598" style="fill: #6495ed"/>
    </g>
    <g clip-path="url(#pac391a1839)">
     <use xlink:href="#C0_0_22ae8a04c2" x="368.253137" y="243.834581" style="fill: #6495ed"/>
    </g>
    <g clip-path="url(#pac391a1839)">
     <use xlink:href="#C0_0_22ae8a04c2" x="137.675642" y="230.965269" style="fill: #6495ed"/>
    </g>
    <g clip-path="url(#pac391a1839)">
     <use xlink:href="#C0_0_22ae8a04c2" x="309.797248" y="73.27488" style="fill: #f08080"/>
    </g>
    <g clip-path="url(#pac391a1839)">
     <use xlink:href="#C0_0_22ae8a04c2" x="103.053656" y="264.032314" style="fill: #6495ed"/>
    </g>
    <g clip-path="url(#pac391a1839)">
     <use xlink:href="#C0_0_22ae8a04c2" x="283.793766" y="280.179241" style="fill: #6495ed"/>
    </g>
    <g clip-path="url(#pac391a1839)">
     <use xlink:href="#C0_0_22ae8a04c2" x="367.488482" y="120.327705" style="fill: #f08080"/>
    </g>
    <g clip-path="url(#pac391a1839)">
     <use xlink:href="#C0_0_22ae8a04c2" x="396.870678" y="80.796929" style="fill: #f08080"/>
    </g>
    <g clip-path="url(#pac391a1839)">
     <use xlink:href="#C0_0_22ae8a04c2" x="368.219559" y="250.562983" style="fill: #6495ed"/>
    </g>
    <g clip-path="url(#pac391a1839)">
     <use xlink:href="#C0_0_22ae8a04c2" x="366.712056" y="62.673075" style="fill: #f08080"/>
    </g>
    <g clip-path="url(#pac391a1839)">
     <use xlink:href="#C0_0_22ae8a04c2" x="303.180116" y="293.055416" style="fill: #6495ed"/>
    </g>
    <g clip-path="url(#pac391a1839)">
     <use xlink:href="#C0_0_22ae8a04c2" x="128.943346" y="246.757796" style="fill: #6495ed"/>
    </g>
    <g clip-path="url(#pac391a1839)">
     <use xlink:href="#C0_0_22ae8a04c2" x="397.020439" y="180.263595" style="fill: #6495ed"/>
    </g>
    <g clip-path="url(#pac391a1839)">
     <use xlink:href="#C0_0_22ae8a04c2" x="341.09945" y="241.979479" style="fill: #6495ed"/>
    </g>
    <g clip-path="url(#pac391a1839)">
     <use xlink:href="#C0_0_22ae8a04c2" x="286.989021" y="203.526342" style="fill: #6495ed"/>
    </g>
    <g clip-path="url(#pac391a1839)">
     <use xlink:href="#C0_0_22ae8a04c2" x="327.222499" y="245.044437" style="fill: #6495ed"/>
    </g>
    <g clip-path="url(#pac391a1839)">
     <use xlink:href="#C0_0_22ae8a04c2" x="359.83966" y="58.583782" style="fill: #f08080"/>
    </g>
    <g clip-path="url(#pac391a1839)">
     <use xlink:href="#C0_0_22ae8a04c2" x="316.166571" y="91.898848" style="fill: #f08080"/>
    </g>
    <g clip-path="url(#pac391a1839)">
     <use xlink:href="#C0_0_22ae8a04c2" x="349.216232" y="100.940573" style="fill: #f08080"/>
    </g>
    <g clip-path="url(#pac391a1839)">
     <use xlink:href="#C0_0_22ae8a04c2" x="315.293456" y="100.624237" style="fill: #f08080"/>
    </g>
    <g clip-path="url(#pac391a1839)">
     <use xlink:href="#C0_0_22ae8a04c2" x="349.61516" y="255.650967" style="fill: #6495ed"/>
    </g>
    <g clip-path="url(#pac391a1839)">
     <use xlink:href="#C0_0_22ae8a04c2" x="166.135288" y="202.638754" style="fill: #6495ed"/>
    </g>
    <g clip-path="url(#pac391a1839)">
     <use xlink:href="#C0_0_22ae8a04c2" x="114.175532" y="137.951326" style="fill: #6495ed"/>
    </g>
    <g clip-path="url(#pac391a1839)">
     <use xlink:href="#C0_0_22ae8a04c2" x="327.359481" y="85.398009" style="fill: #f08080"/>
    </g>
    <g clip-path="url(#pac391a1839)">
     <use xlink:href="#C0_0_22ae8a04c2" x="166.473102" y="252.556304" style="fill: #6495ed"/>
    </g>
    <g clip-path="url(#pac391a1839)">
     <use xlink:href="#C0_0_22ae8a04c2" x="320.922343" y="145.144826" style="fill: #f08080"/>
    </g>
    <g clip-path="url(#pac391a1839)">
     <use xlink:href="#C0_0_22ae8a04c2" x="87.805817" y="79.702011" style="fill: #6495ed"/>
    </g>
    <g clip-path="url(#pac391a1839)">
     <use xlink:href="#C0_0_22ae8a04c2" x="340.819962" y="72.714936" style="fill: #f08080"/>
    </g>
    <g clip-path="url(#pac391a1839)">
     <use xlink:href="#C0_0_22ae8a04c2" x="111.682155" y="78.277795" style="fill: #6495ed"/>
    </g>
    <g clip-path="url(#pac391a1839)">
     <use xlink:href="#C0_0_22ae8a04c2" x="84.45273" y="255.706603" style="fill: #6495ed"/>
    </g>
    <g clip-path="url(#pac391a1839)">
     <use xlink:href="#C0_0_22ae8a04c2" x="379.310404" y="244.332706" style="fill: #6495ed"/>
    </g>
    <g clip-path="url(#pac391a1839)">
     <use xlink:href="#C0_0_22ae8a04c2" x="113.340349" y="79.054169" style="fill: #6495ed"/>
    </g>
    <g clip-path="url(#pac391a1839)">
     <use xlink:href="#C0_0_22ae8a04c2" x="144.311005" y="237.910754" style="fill: #6495ed"/>
    </g>
    <g clip-path="url(#pac391a1839)">
     <use xlink:href="#C0_0_22ae8a04c2" x="81.15776" y="102.525225" style="fill: #6495ed"/>
    </g>
    <g clip-path="url(#pac391a1839)">
     <use xlink:href="#C0_0_22ae8a04c2" x="152.45095" y="53.568" style="fill: #6495ed"/>
    </g>
    <g clip-path="url(#pac391a1839)">
     <use xlink:href="#C0_0_22ae8a04c2" x="325.938838" y="59.330448" style="fill: #f08080"/>
    </g>
    <g clip-path="url(#pac391a1839)">
     <use xlink:href="#C0_0_22ae8a04c2" x="379.188654" y="56.288244" style="fill: #f08080"/>
    </g>
    <g clip-path="url(#pac391a1839)">
     <use xlink:href="#C0_0_22ae8a04c2" x="306.709816" y="94.522378" style="fill: #f08080"/>
    </g>
    <g clip-path="url(#pac391a1839)">
     <use xlink:href="#C0_0_22ae8a04c2" x="352.430319" y="266.901471" style="fill: #6495ed"/>
    </g>
    <g clip-path="url(#pac391a1839)">
     <use xlink:href="#C0_0_22ae8a04c2" x="368.097207" y="245.736044" style="fill: #6495ed"/>
    </g>
    <g clip-path="url(#pac391a1839)">
     <use xlink:href="#C0_0_22ae8a04c2" x="338.696385" y="58.328705" style="fill: #f08080"/>
    </g>
    <g clip-path="url(#pac391a1839)">
     <use xlink:href="#C0_0_22ae8a04c2" x="290.719281" y="226.765346" style="fill: #6495ed"/>
    </g>
    <g clip-path="url(#pac391a1839)">
     <use xlink:href="#C0_0_22ae8a04c2" x="290.145036" y="112.218073" style="fill: #f08080"/>
    </g>
    <g clip-path="url(#pac391a1839)">
     <use xlink:href="#C0_0_22ae8a04c2" x="325.912131" y="123.852624" style="fill: #f08080"/>
    </g>
    <g clip-path="url(#pac391a1839)">
     <use xlink:href="#C0_0_22ae8a04c2" x="368.057605" y="139.774957" style="fill: #f08080"/>
    </g>
    <g clip-path="url(#pac391a1839)">
     <use xlink:href="#C0_0_22ae8a04c2" x="332.270338" y="293.540115" style="fill: #6495ed"/>
    </g>
    <g clip-path="url(#pac391a1839)">
     <use xlink:href="#C0_0_22ae8a04c2" x="163.230949" y="207.774969" style="fill: #6495ed"/>
    </g>
    <g clip-path="url(#pac391a1839)">
     <use xlink:href="#C0_0_22ae8a04c2" x="333.143409" y="280.086163" style="fill: #6495ed"/>
    </g>
    <g clip-path="url(#pac391a1839)">
     <use xlink:href="#C0_0_22ae8a04c2" x="313.389124" y="262.260679" style="fill: #6495ed"/>
    </g>
    <g clip-path="url(#pac391a1839)">
     <use xlink:href="#C0_0_22ae8a04c2" x="395.215734" y="59.339053" style="fill: #f08080"/>
    </g>
    <g clip-path="url(#pac391a1839)">
     <use xlink:href="#C0_0_22ae8a04c2" x="282.39526" y="222.614501" style="fill: #6495ed"/>
    </g>
    <g clip-path="url(#pac391a1839)">
     <use xlink:href="#C0_0_22ae8a04c2" x="141.123321" y="243.821528" style="fill: #6495ed"/>
    </g>
    <g clip-path="url(#pac391a1839)">
     <use xlink:href="#C0_0_22ae8a04c2" x="74.855303" y="266.725658" style="fill: #6495ed"/>
    </g>
    <g clip-path="url(#pac391a1839)">
     <use xlink:href="#C0_0_22ae8a04c2" x="155.531338" y="288.808682" style="fill: #6495ed"/>
    </g>
    <g clip-path="url(#pac391a1839)">
     <use xlink:href="#C0_0_22ae8a04c2" x="121.380093" y="263.751362" style="fill: #6495ed"/>
    </g>
    <g clip-path="url(#pac391a1839)">
     <use xlink:href="#C0_0_22ae8a04c2" x="135.390627" y="279.624145" style="fill: #6495ed"/>
    </g>
    <g clip-path="url(#pac391a1839)">
     <use xlink:href="#C0_0_22ae8a04c2" x="315.411386" y="131.814057" style="fill: #f08080"/>
    </g>
    <g clip-path="url(#pac391a1839)">
     <use xlink:href="#C0_0_22ae8a04c2" x="220.247115" y="252.296913" style="fill: #6495ed"/>
    </g>
    <g clip-path="url(#pac391a1839)">
     <use xlink:href="#C0_0_22ae8a04c2" x="318.957305" y="140.571138" style="fill: #f08080"/>
    </g>
    <g clip-path="url(#pac391a1839)">
     <use xlink:href="#C0_0_22ae8a04c2" x="77.300736" y="283.562798" style="fill: #6495ed"/>
    </g>
    <g clip-path="url(#pac391a1839)">
     <use xlink:href="#C0_0_22ae8a04c2" x="305.773054" y="279.323247" style="fill: #6495ed"/>
    </g>
    <g clip-path="url(#pac391a1839)">
     <use xlink:href="#C0_0_22ae8a04c2" x="383.81898" y="266.938477" style="fill: #6495ed"/>
    </g>
    <g clip-path="url(#pac391a1839)">
     <use xlink:href="#C0_0_22ae8a04c2" x="137.82883" y="283.815169" style="fill: #6495ed"/>
    </g>
    <g clip-path="url(#pac391a1839)">
     <use xlink:href="#C0_0_22ae8a04c2" x="374.019694" y="104.231924" style="fill: #f08080"/>
    </g>
    <g clip-path="url(#pac391a1839)">
     <use xlink:href="#C0_0_22ae8a04c2" x="345.210886" y="275.360101" style="fill: #6495ed"/>
    </g>
    <g clip-path="url(#pac391a1839)">
     <use xlink:href="#C0_0_22ae8a04c2" x="133.758908" y="101.003628" style="fill: #6495ed"/>
    </g>
    <g clip-path="url(#pac391a1839)">
     <use xlink:href="#C0_0_22ae8a04c2" x="79.220977" y="266.49258" style="fill: #6495ed"/>
    </g>
    <g clip-path="url(#pac391a1839)">
     <use xlink:href="#C0_0_22ae8a04c2" x="101.745548" y="84.623953" style="fill: #6495ed"/>
    </g>
    <g clip-path="url(#pac391a1839)">
     <use xlink:href="#C0_0_22ae8a04c2" x="279.70104" y="242.522843" style="fill: #6495ed"/>
    </g>
    <g clip-path="url(#pac391a1839)">
     <use xlink:href="#C0_0_22ae8a04c2" x="333.000573" y="230.900837" style="fill: #6495ed"/>
    </g>
    <g clip-path="url(#pac391a1839)">
     <use xlink:href="#C0_0_22ae8a04c2" x="214.944646" y="209.265782" style="fill: #6495ed"/>
    </g>
    <g clip-path="url(#pac391a1839)">
     <use xlink:href="#C0_0_22ae8a04c2" x="301.183447" y="215.401701" style="fill: #6495ed"/>
    </g>
    <g clip-path="url(#pac391a1839)">
     <use xlink:href="#C0_0_22ae8a04c2" x="96.336339" y="130.99654" style="fill: #6495ed"/>
    </g>
    <g clip-path="url(#pac391a1839)">
     <use xlink:href="#C0_0_22ae8a04c2" x="134.836925" y="82.119053" style="fill: #6495ed"/>
    </g>
    <g clip-path="url(#pac391a1839)">
     <use xlink:href="#C0_0_22ae8a04c2" x="77.535592" y="212.95354" style="fill: #6495ed"/>
    </g>
    <g clip-path="url(#pac391a1839)">
     <use xlink:href="#C0_0_22ae8a04c2" x="73.832727" y="248.771053" style="fill: #6495ed"/>
    </g>
    <g clip-path="url(#pac391a1839)">
     <use xlink:href="#C0_0_22ae8a04c2" x="353.712846" y="109.657793" style="fill: #f08080"/>
    </g>
    <g clip-path="url(#pac391a1839)">
     <use xlink:href="#C0_0_22ae8a04c2" x="291.681219" y="254.5766" style="fill: #6495ed"/>
    </g>
    <g clip-path="url(#pac391a1839)">
     <use xlink:href="#C0_0_22ae8a04c2" x="138.199429" y="70.149806" style="fill: #6495ed"/>
    </g>
    <g clip-path="url(#pac391a1839)">
     <use xlink:href="#C0_0_22ae8a04c2" x="398.487273" y="191.038695" style="fill: #6495ed"/>
    </g>
    <g clip-path="url(#pac391a1839)">
     <use xlink:href="#C0_0_22ae8a04c2" x="162.58498" y="223.870993" style="fill: #6495ed"/>
    </g>
    <g clip-path="url(#pac391a1839)">
     <use xlink:href="#C0_0_22ae8a04c2" x="389.083309" y="253.091019" style="fill: #6495ed"/>
    </g>
    <g clip-path="url(#pac391a1839)">
     <use xlink:href="#C0_0_22ae8a04c2" x="337.169789" y="253.914749" style="fill: #6495ed"/>
    </g>
    <g clip-path="url(#pac391a1839)">
     <use xlink:href="#C0_0_22ae8a04c2" x="379.009519" y="247.78538" style="fill: #6495ed"/>
    </g>
    <g clip-path="url(#pac391a1839)">
     <use xlink:href="#C0_0_22ae8a04c2" x="286.215811" y="216.557918" style="fill: #6495ed"/>
    </g>
    <g clip-path="url(#pac391a1839)">
     <use xlink:href="#C0_0_22ae8a04c2" x="303.76063" y="291.27117" style="fill: #6495ed"/>
    </g>
    <g clip-path="url(#pac391a1839)">
     <use xlink:href="#C0_0_22ae8a04c2" x="369.233474" y="222.641614" style="fill: #6495ed"/>
    </g>
    <g clip-path="url(#pac391a1839)">
     <use xlink:href="#C0_0_22ae8a04c2" x="83.079116" y="81.802778" style="fill: #6495ed"/>
    </g>
    <g clip-path="url(#pac391a1839)">
     <use xlink:href="#C0_0_22ae8a04c2" x="120.455312" y="90.278222" style="fill: #6495ed"/>
    </g>
    <g clip-path="url(#pac391a1839)">
     <use xlink:href="#C0_0_22ae8a04c2" x="291.040622" y="108.306741" style="fill: #f08080"/>
    </g>
    <g clip-path="url(#pac391a1839)">
     <use xlink:href="#C0_0_22ae8a04c2" x="396.782783" y="242.021726" style="fill: #6495ed"/>
    </g>
    <g clip-path="url(#pac391a1839)">
     <use xlink:href="#C0_0_22ae8a04c2" x="281.325726" y="295.488" style="fill: #6495ed"/>
    </g>
    <g clip-path="url(#pac391a1839)">
     <use xlink:href="#C0_0_22ae8a04c2" x="371.47643" y="264.152839" style="fill: #6495ed"/>
    </g>
    <g clip-path="url(#pac391a1839)">
     <use xlink:href="#C0_0_22ae8a04c2" x="181.20021" y="251.40545" style="fill: #6495ed"/>
    </g>
    <g clip-path="url(#pac391a1839)">
     <use xlink:href="#C0_0_22ae8a04c2" x="132.230368" y="213.839498" style="fill: #6495ed"/>
    </g>
    <g clip-path="url(#pac391a1839)">
     <use xlink:href="#C0_0_22ae8a04c2" x="281.744693" y="86.721431" style="fill: #f08080"/>
    </g>
    <g clip-path="url(#pac391a1839)">
     <use xlink:href="#C0_0_22ae8a04c2" x="307.216303" y="116.743226" style="fill: #f08080"/>
    </g>
    <g clip-path="url(#pac391a1839)">
     <use xlink:href="#C0_0_22ae8a04c2" x="210.651365" y="63.460547" style="fill: #6495ed"/>
    </g>
    <g clip-path="url(#pac391a1839)">
     <use xlink:href="#C0_0_22ae8a04c2" x="342.474635" y="98.607514" style="fill: #f08080"/>
    </g>
    <g clip-path="url(#pac391a1839)">
     <use xlink:href="#C0_0_22ae8a04c2" x="94.245384" y="62.121644" style="fill: #6495ed"/>
    </g>
    <g clip-path="url(#pac391a1839)">
     <use xlink:href="#C0_0_22ae8a04c2" x="167.394887" y="228.387028" style="fill: #6495ed"/>
    </g>
    <g clip-path="url(#pac391a1839)">
     <use xlink:href="#C0_0_22ae8a04c2" x="108.074225" y="230.591654" style="fill: #6495ed"/>
    </g>
    <g clip-path="url(#pac391a1839)">
     <use xlink:href="#C0_0_22ae8a04c2" x="280.023819" y="135.53592" style="fill: #f08080"/>
    </g>
    <g clip-path="url(#pac391a1839)">
     <use xlink:href="#C0_0_22ae8a04c2" x="322.162069" y="121.215945" style="fill: #f08080"/>
    </g>
    <g clip-path="url(#pac391a1839)">
     <use xlink:href="#C0_0_22ae8a04c2" x="157.455874" y="292.085914" style="fill: #6495ed"/>
    </g>
    <g clip-path="url(#pac391a1839)">
     <use xlink:href="#C0_0_22ae8a04c2" x="362.152776" y="77.105728" style="fill: #f08080"/>
    </g>
    <g clip-path="url(#pac391a1839)">
     <use xlink:href="#C0_0_22ae8a04c2" x="151.599503" y="253.309398" style="fill: #6495ed"/>
    </g>
    <g clip-path="url(#pac391a1839)">
     <use xlink:href="#C0_0_22ae8a04c2" x="105.313802" y="221.827096" style="fill: #6495ed"/>
    </g>
    <g clip-path="url(#pac391a1839)">
     <use xlink:href="#C0_0_22ae8a04c2" x="287.631249" y="85.512783" style="fill: #f08080"/>
    </g>
    <g clip-path="url(#pac391a1839)">
     <use xlink:href="#C0_0_22ae8a04c2" x="352.71768" y="131.331985" style="fill: #f08080"/>
    </g>
    <g clip-path="url(#pac391a1839)">
     <use xlink:href="#C0_0_22ae8a04c2" x="317.829638" y="284.667215" style="fill: #6495ed"/>
    </g>
    <g clip-path="url(#pac391a1839)">
     <use xlink:href="#C0_0_22ae8a04c2" x="167.049148" y="150.863412" style="fill: #6495ed"/>
    </g>
    <g clip-path="url(#pac391a1839)">
     <use xlink:href="#C0_0_22ae8a04c2" x="157.240603" y="237.29538" style="fill: #6495ed"/>
    </g>
    <g clip-path="url(#pac391a1839)">
     <use xlink:href="#C0_0_22ae8a04c2" x="153.889803" y="266.323285" style="fill: #6495ed"/>
    </g>
    <g clip-path="url(#pac391a1839)">
     <use xlink:href="#C0_0_22ae8a04c2" x="120.222752" y="245.085319" style="fill: #6495ed"/>
    </g>
    <g clip-path="url(#pac391a1839)">
     <use xlink:href="#C0_0_22ae8a04c2" x="178.716508" y="115.979575" style="fill: #6495ed"/>
    </g>
    <g clip-path="url(#pac391a1839)">
     <use xlink:href="#C0_0_22ae8a04c2" x="331.150352" y="127.960711" style="fill: #f08080"/>
    </g>
    <g clip-path="url(#pac391a1839)">
     <use xlink:href="#C0_0_22ae8a04c2" x="345.262434" y="266.664479" style="fill: #6495ed"/>
    </g>
    <g clip-path="url(#pac391a1839)">
     <use xlink:href="#C0_0_22ae8a04c2" x="130.286502" y="55.254359" style="fill: #6495ed"/>
    </g>
    <g clip-path="url(#pac391a1839)">
     <use xlink:href="#C0_0_22ae8a04c2" x="302.993835" y="98.810299" style="fill: #f08080"/>
    </g>
    <g clip-path="url(#pac391a1839)">
     <use xlink:href="#C0_0_22ae8a04c2" x="295.113725" y="72.999304" style="fill: #f08080"/>
    </g>
    <g clip-path="url(#pac391a1839)">
     <use xlink:href="#C0_0_22ae8a04c2" x="193.786821" y="243.73936" style="fill: #6495ed"/>
    </g>
    <g clip-path="url(#pac391a1839)">
     <use xlink:href="#C0_0_22ae8a04c2" x="129.57803" y="240.58487" style="fill: #6495ed"/>
    </g>
    <g clip-path="url(#pac391a1839)">
     <use xlink:href="#C0_0_22ae8a04c2" x="343.467624" y="224.350811" style="fill: #6495ed"/>
    </g>
    <g clip-path="url(#pac391a1839)">
     <use xlink:href="#C0_0_22ae8a04c2" x="160.95745" y="228.180563" style="fill: #6495ed"/>
    </g>
    <g clip-path="url(#pac391a1839)">
     <use xlink:href="#C0_0_22ae8a04c2" x="129.842547" y="62.956568" style="fill: #6495ed"/>
    </g>
    <g clip-path="url(#pac391a1839)">
     <use xlink:href="#C0_0_22ae8a04c2" x="107.306631" y="240.517561" style="fill: #6495ed"/>
    </g>
    <g clip-path="url(#pac391a1839)">
     <use xlink:href="#C0_0_22ae8a04c2" x="106.482553" y="226.655552" style="fill: #6495ed"/>
    </g>
    <g clip-path="url(#pac391a1839)">
     <use xlink:href="#C0_0_22ae8a04c2" x="308.288104" y="223.465263" style="fill: #6495ed"/>
    </g>
    <g clip-path="url(#pac391a1839)">
     <use xlink:href="#C0_0_22ae8a04c2" x="345.453302" y="286.741045" style="fill: #6495ed"/>
    </g>
    <g clip-path="url(#pac391a1839)">
     <use xlink:href="#C0_0_22ae8a04c2" x="379.231159" y="96.203036" style="fill: #f08080"/>
    </g>
    <g clip-path="url(#pac391a1839)">
     <use xlink:href="#C0_0_22ae8a04c2" x="381.225027" y="63.273683" style="fill: #f08080"/>
    </g>
    <g clip-path="url(#pac391a1839)">
     <use xlink:href="#C0_0_22ae8a04c2" x="277.050789" y="102.091259" style="fill: #f08080"/>
    </g>
    <g clip-path="url(#pac391a1839)">
     <use xlink:href="#C0_0_22ae8a04c2" x="396.441385" y="87.602605" style="fill: #f08080"/>
    </g>
    <g clip-path="url(#pac391a1839)">
     <use xlink:href="#C0_0_22ae8a04c2" x="81.805095" y="106.947491" style="fill: #6495ed"/>
    </g>
    <g clip-path="url(#pac391a1839)">
     <use xlink:href="#C0_0_22ae8a04c2" x="154.907815" y="65.130515" style="fill: #6495ed"/>
    </g>
    <g clip-path="url(#pac391a1839)">
     <use xlink:href="#C0_0_22ae8a04c2" x="222.926991" y="95.854934" style="fill: #6495ed"/>
    </g>
    <g clip-path="url(#pac391a1839)">
     <use xlink:href="#C0_0_22ae8a04c2" x="389.880326" y="230.44462" style="fill: #6495ed"/>
    </g>
    <g clip-path="url(#pac391a1839)">
     <use xlink:href="#C0_0_22ae8a04c2" x="287.558822" y="218.077395" style="fill: #6495ed"/>
    </g>
    <g clip-path="url(#pac391a1839)">
     <use xlink:href="#C0_0_22ae8a04c2" x="291.70579" y="139.005129" style="fill: #f08080"/>
    </g>
    <g clip-path="url(#pac391a1839)">
     <use xlink:href="#C0_0_22ae8a04c2" x="97.254275" y="68.787399" style="fill: #6495ed"/>
    </g>
    <g clip-path="url(#pac391a1839)">
     <use xlink:href="#C0_0_22ae8a04c2" x="87.519808" y="102.403899" style="fill: #6495ed"/>
    </g>
    <g clip-path="url(#pac391a1839)">
     <use xlink:href="#C0_0_22ae8a04c2" x="172.659766" y="104.327554" style="fill: #6495ed"/>
    </g>
    <g clip-path="url(#pac391a1839)">
     <use xlink:href="#C0_0_22ae8a04c2" x="315.274713" y="107.184961" style="fill: #f08080"/>
    </g>
    <g clip-path="url(#pac391a1839)">
     <use xlink:href="#C0_0_22ae8a04c2" x="353.028661" y="232.031466" style="fill: #6495ed"/>
    </g>
    <g clip-path="url(#pac391a1839)">
     <use xlink:href="#C0_0_22ae8a04c2" x="163.387695" y="127.743851" style="fill: #6495ed"/>
    </g>
    <g clip-path="url(#pac391a1839)">
     <use xlink:href="#C0_0_22ae8a04c2" x="181.67706" y="220.573334" style="fill: #6495ed"/>
    </g>
    <g clip-path="url(#pac391a1839)">
     <use xlink:href="#C0_0_22ae8a04c2" x="383.350296" y="118.596077" style="fill: #f08080"/>
    </g>
    <g clip-path="url(#pac391a1839)">
     <use xlink:href="#C0_0_22ae8a04c2" x="106.605479" y="281.042507" style="fill: #6495ed"/>
    </g>
   </g>
   <g id="matplotlib.axis_1">
    <g id="xtick_1">
     <g id="line2d_1">
      <defs>
       <path id="mee477fe865" d="M 0 0 
L 0 3.5 
" style="stroke: #000000; stroke-width: 0.8"/>
      </defs>
      <g>
       <use xlink:href="#mee477fe865" x="73.773464" y="307.584" style="stroke: #000000; stroke-width: 0.8"/>
      </g>
     </g>
    </g>
    <g id="xtick_2">
     <g id="line2d_2">
      <g>
       <use xlink:href="#mee477fe865" x="114.472887" y="307.584" style="stroke: #000000; stroke-width: 0.8"/>
      </g>
     </g>
    </g>
    <g id="xtick_3">
     <g id="line2d_3">
      <g>
       <use xlink:href="#mee477fe865" x="155.17231" y="307.584" style="stroke: #000000; stroke-width: 0.8"/>
      </g>
     </g>
    </g>
    <g id="xtick_4">
     <g id="line2d_4">
      <g>
       <use xlink:href="#mee477fe865" x="195.871733" y="307.584" style="stroke: #000000; stroke-width: 0.8"/>
      </g>
     </g>
    </g>
    <g id="xtick_5">
     <g id="line2d_5">
      <g>
       <use xlink:href="#mee477fe865" x="236.571156" y="307.584" style="stroke: #000000; stroke-width: 0.8"/>
      </g>
     </g>
    </g>
    <g id="xtick_6">
     <g id="line2d_6">
      <g>
       <use xlink:href="#mee477fe865" x="277.270579" y="307.584" style="stroke: #000000; stroke-width: 0.8"/>
      </g>
     </g>
    </g>
    <g id="xtick_7">
     <g id="line2d_7">
      <g>
       <use xlink:href="#mee477fe865" x="317.970002" y="307.584" style="stroke: #000000; stroke-width: 0.8"/>
      </g>
     </g>
    </g>
    <g id="xtick_8">
     <g id="line2d_8">
      <g>
       <use xlink:href="#mee477fe865" x="358.669425" y="307.584" style="stroke: #000000; stroke-width: 0.8"/>
      </g>
     </g>
    </g>
    <g id="xtick_9">
     <g id="line2d_9">
      <g>
       <use xlink:href="#mee477fe865" x="399.368848" y="307.584" style="stroke: #000000; stroke-width: 0.8"/>
      </g>
     </g>
    </g>
    <g id="text_1">
     <!-- - -->
     <g transform="translate(234.356094 326.182437) scale(0.1 -0.1)">
      <defs>
       <path id="DejaVuSans-2d" d="M 313 2009 
L 1997 2009 
L 1997 1497 
L 313 1497 
L 313 2009 
z
" transform="scale(0.015625)"/>
      </defs>
      <use xlink:href="#DejaVuSans-2d"/>
     </g>
    </g>
   </g>
   <g id="matplotlib.axis_2">
    <g id="ytick_1">
     <g id="line2d_10">
      <defs>
       <path id="m425f966e26" d="M 0 0 
L -3.5 0 
" style="stroke: #000000; stroke-width: 0.8"/>
      </defs>
      <g>
       <use xlink:href="#m425f966e26" x="57.6" y="295.880097" style="stroke: #000000; stroke-width: 0.8"/>
      </g>
     </g>
    </g>
    <g id="ytick_2">
     <g id="line2d_11">
      <g>
       <use xlink:href="#m425f966e26" x="57.6" y="265.590669" style="stroke: #000000; stroke-width: 0.8"/>
      </g>
     </g>
    </g>
    <g id="ytick_3">
     <g id="line2d_12">
      <g>
       <use xlink:href="#m425f966e26" x="57.6" y="235.301242" style="stroke: #000000; stroke-width: 0.8"/>
      </g>
     </g>
    </g>
    <g id="ytick_4">
     <g id="line2d_13">
      <g>
       <use xlink:href="#m425f966e26" x="57.6" y="205.011814" style="stroke: #000000; stroke-width: 0.8"/>
      </g>
     </g>
    </g>
    <g id="ytick_5">
     <g id="line2d_14">
      <g>
       <use xlink:href="#m425f966e26" x="57.6" y="174.722387" style="stroke: #000000; stroke-width: 0.8"/>
      </g>
     </g>
    </g>
    <g id="ytick_6">
     <g id="line2d_15">
      <g>
       <use xlink:href="#m425f966e26" x="57.6" y="144.432959" style="stroke: #000000; stroke-width: 0.8"/>
      </g>
     </g>
    </g>
    <g id="ytick_7">
     <g id="line2d_16">
      <g>
       <use xlink:href="#m425f966e26" x="57.6" y="114.143532" style="stroke: #000000; stroke-width: 0.8"/>
      </g>
     </g>
    </g>
    <g id="ytick_8">
     <g id="line2d_17">
      <g>
       <use xlink:href="#m425f966e26" x="57.6" y="83.854104" style="stroke: #000000; stroke-width: 0.8"/>
      </g>
     </g>
    </g>
    <g id="ytick_9">
     <g id="line2d_18">
      <g>
       <use xlink:href="#m425f966e26" x="57.6" y="53.564677" style="stroke: #000000; stroke-width: 0.8"/>
      </g>
     </g>
    </g>
    <g id="text_2">
     <!-- - -->
     <g transform="translate(44.520313 176.331906) rotate(-90) scale(0.1 -0.1)">
      <use xlink:href="#DejaVuSans-2d"/>
     </g>
    </g>
   </g>
   <g id="line2d_19"/>
   <g id="line2d_20"/>
   <g id="patch_3">
    <path d="M 57.6 307.584 
L 57.6 41.472 
" style="fill: none; stroke: #000000; stroke-width: 0.8; stroke-linejoin: miter; stroke-linecap: square"/>
   </g>
   <g id="patch_4">
    <path d="M 414.72 307.584 
L 414.72 41.472 
" style="fill: none; stroke: #000000; stroke-width: 0.8; stroke-linejoin: miter; stroke-linecap: square"/>
   </g>
   <g id="patch_5">
    <path d="M 57.6 307.584 
L 414.72 307.584 
" style="fill: none; stroke: #000000; stroke-width: 0.8; stroke-linejoin: miter; stroke-linecap: square"/>
   </g>
   <g id="patch_6">
    <path d="M 57.6 41.472 
L 414.72 41.472 
" style="fill: none; stroke: #000000; stroke-width: 0.8; stroke-linejoin: miter; stroke-linecap: square"/>
   </g>
   <g id="legend_1">
    <g id="patch_7">
     <path d="M 64.6 198.045187 
L 115.415625 198.045187 
Q 117.415625 198.045187 117.415625 196.045187 
L 117.415625 153.010812 
Q 117.415625 151.010812 115.415625 151.010812 
L 64.6 151.010812 
Q 62.6 151.010812 62.6 153.010812 
L 62.6 196.045187 
Q 62.6 198.045187 64.6 198.045187 
z
" style="fill: #ffffff; opacity: 0.8; stroke: #cccccc; stroke-linejoin: miter"/>
    </g>
    <g id="text_3">
     <!-- species -->
     <g transform="translate(71.332812 162.60925) scale(0.1 -0.1)">
      <defs>
       <path id="DejaVuSans-73" d="M 2834 3397 
L 2834 2853 
Q 2591 2978 2328 3040 
Q 2066 3103 1784 3103 
Q 1356 3103 1142 2972 
Q 928 2841 928 2578 
Q 928 2378 1081 2264 
Q 1234 2150 1697 2047 
L 1894 2003 
Q 2506 1872 2764 1633 
Q 3022 1394 3022 966 
Q 3022 478 2636 193 
Q 2250 -91 1575 -91 
Q 1294 -91 989 -36 
Q 684 19 347 128 
L 347 722 
Q 666 556 975 473 
Q 1284 391 1588 391 
Q 1994 391 2212 530 
Q 2431 669 2431 922 
Q 2431 1156 2273 1281 
Q 2116 1406 1581 1522 
L 1381 1569 
Q 847 1681 609 1914 
Q 372 2147 372 2553 
Q 372 3047 722 3315 
Q 1072 3584 1716 3584 
Q 2034 3584 2315 3537 
Q 2597 3491 2834 3397 
z
" transform="scale(0.015625)"/>
       <path id="DejaVuSans-70" d="M 1159 525 
L 1159 -1331 
L 581 -1331 
L 581 3500 
L 1159 3500 
L 1159 2969 
Q 1341 3281 1617 3432 
Q 1894 3584 2278 3584 
Q 2916 3584 3314 3078 
Q 3713 2572 3713 1747 
Q 3713 922 3314 415 
Q 2916 -91 2278 -91 
Q 1894 -91 1617 61 
Q 1341 213 1159 525 
z
M 3116 1747 
Q 3116 2381 2855 2742 
Q 2594 3103 2138 3103 
Q 1681 3103 1420 2742 
Q 1159 2381 1159 1747 
Q 1159 1113 1420 752 
Q 1681 391 2138 391 
Q 2594 391 2855 752 
Q 3116 1113 3116 1747 
z
" transform="scale(0.015625)"/>
       <path id="DejaVuSans-65" d="M 3597 1894 
L 3597 1613 
L 953 1613 
Q 991 1019 1311 708 
Q 1631 397 2203 397 
Q 2534 397 2845 478 
Q 3156 559 3463 722 
L 3463 178 
Q 3153 47 2828 -22 
Q 2503 -91 2169 -91 
Q 1331 -91 842 396 
Q 353 884 353 1716 
Q 353 2575 817 3079 
Q 1281 3584 2069 3584 
Q 2775 3584 3186 3129 
Q 3597 2675 3597 1894 
z
M 3022 2063 
Q 3016 2534 2758 2815 
Q 2500 3097 2075 3097 
Q 1594 3097 1305 2825 
Q 1016 2553 972 2059 
L 3022 2063 
z
" transform="scale(0.015625)"/>
       <path id="DejaVuSans-63" d="M 3122 3366 
L 3122 2828 
Q 2878 2963 2633 3030 
Q 2388 3097 2138 3097 
Q 1578 3097 1268 2742 
Q 959 2388 959 1747 
Q 959 1106 1268 751 
Q 1578 397 2138 397 
Q 2388 397 2633 464 
Q 2878 531 3122 666 
L 3122 134 
Q 2881 22 2623 -34 
Q 2366 -91 2075 -91 
Q 1284 -91 818 406 
Q 353 903 353 1747 
Q 353 2603 823 3093 
Q 1294 3584 2113 3584 
Q 2378 3584 2631 3529 
Q 2884 3475 3122 3366 
z
" transform="scale(0.015625)"/>
       <path id="DejaVuSans-69" d="M 603 3500 
L 1178 3500 
L 1178 0 
L 603 0 
L 603 3500 
z
M 603 4863 
L 1178 4863 
L 1178 4134 
L 603 4134 
L 603 4863 
z
" transform="scale(0.015625)"/>
      </defs>
      <use xlink:href="#DejaVuSans-73"/>
      <use xlink:href="#DejaVuSans-70" x="52.099609"/>
      <use xlink:href="#DejaVuSans-65" x="115.576172"/>
      <use xlink:href="#DejaVuSans-63" x="177.099609"/>
      <use xlink:href="#DejaVuSans-69" x="232.080078"/>
      <use xlink:href="#DejaVuSans-65" x="259.863281"/>
      <use xlink:href="#DejaVuSans-73" x="321.386719"/>
     </g>
    </g>
    <g id="line2d_21">
     <defs>
      <path id="m6ff01d6e21" d="M 0 3 
C 0.795609 3 1.55874 2.683901 2.12132 2.12132 
C 2.683901 1.55874 3 0.795609 3 0 
C 3 -0.795609 2.683901 -1.55874 2.12132 -2.12132 
C 1.55874 -2.683901 0.795609 -3 0 -3 
C -0.795609 -3 -1.55874 -2.683901 -2.12132 -2.12132 
C -2.683901 -1.55874 -3 -0.795609 -3 0 
C -3 0.795609 -2.683901 1.55874 -2.12132 2.12132 
C -1.55874 2.683901 -0.795609 3 0 3 
z
"/>
     </defs>
     <g>
      <use xlink:href="#m6ff01d6e21" x="76.6" y="173.787375" style="fill: #f08080"/>
     </g>
    </g>
    <g id="text_4">
     <!-- dog -->
     <g transform="translate(94.6 177.287375) scale(0.1 -0.1)">
      <defs>
       <path id="DejaVuSans-64" d="M 2906 2969 
L 2906 4863 
L 3481 4863 
L 3481 0 
L 2906 0 
L 2906 525 
Q 2725 213 2448 61 
Q 2172 -91 1784 -91 
Q 1150 -91 751 415 
Q 353 922 353 1747 
Q 353 2572 751 3078 
Q 1150 3584 1784 3584 
Q 2172 3584 2448 3432 
Q 2725 3281 2906 2969 
z
M 947 1747 
Q 947 1113 1208 752 
Q 1469 391 1925 391 
Q 2381 391 2643 752 
Q 2906 1113 2906 1747 
Q 2906 2381 2643 2742 
Q 2381 3103 1925 3103 
Q 1469 3103 1208 2742 
Q 947 2381 947 1747 
z
" transform="scale(0.015625)"/>
       <path id="DejaVuSans-6f" d="M 1959 3097 
Q 1497 3097 1228 2736 
Q 959 2375 959 1747 
Q 959 1119 1226 758 
Q 1494 397 1959 397 
Q 2419 397 2687 759 
Q 2956 1122 2956 1747 
Q 2956 2369 2687 2733 
Q 2419 3097 1959 3097 
z
M 1959 3584 
Q 2709 3584 3137 3096 
Q 3566 2609 3566 1747 
Q 3566 888 3137 398 
Q 2709 -91 1959 -91 
Q 1206 -91 779 398 
Q 353 888 353 1747 
Q 353 2609 779 3096 
Q 1206 3584 1959 3584 
z
" transform="scale(0.015625)"/>
       <path id="DejaVuSans-67" d="M 2906 1791 
Q 2906 2416 2648 2759 
Q 2391 3103 1925 3103 
Q 1463 3103 1205 2759 
Q 947 2416 947 1791 
Q 947 1169 1205 825 
Q 1463 481 1925 481 
Q 2391 481 2648 825 
Q 2906 1169 2906 1791 
z
M 3481 434 
Q 3481 -459 3084 -895 
Q 2688 -1331 1869 -1331 
Q 1566 -1331 1297 -1286 
Q 1028 -1241 775 -1147 
L 775 -588 
Q 1028 -725 1275 -790 
Q 1522 -856 1778 -856 
Q 2344 -856 2625 -561 
Q 2906 -266 2906 331 
L 2906 616 
Q 2728 306 2450 153 
Q 2172 0 1784 0 
Q 1141 0 747 490 
Q 353 981 353 1791 
Q 353 2603 747 3093 
Q 1141 3584 1784 3584 
Q 2172 3584 2450 3431 
Q 2728 3278 2906 2969 
L 2906 3500 
L 3481 3500 
L 3481 434 
z
" transform="scale(0.015625)"/>
      </defs>
      <use xlink:href="#DejaVuSans-64"/>
      <use xlink:href="#DejaVuSans-6f" x="63.476562"/>
      <use xlink:href="#DejaVuSans-67" x="124.658203"/>
     </g>
    </g>
    <g id="line2d_22">
     <defs>
      <path id="m07fa1e1283" d="M 0 3 
C 0.795609 3 1.55874 2.683901 2.12132 2.12132 
C 2.683901 1.55874 3 0.795609 3 0 
C 3 -0.795609 2.683901 -1.55874 2.12132 -2.12132 
C 1.55874 -2.683901 0.795609 -3 0 -3 
C -0.795609 -3 -1.55874 -2.683901 -2.12132 -2.12132 
C -2.683901 -1.55874 -3 -0.795609 -3 0 
C -3 0.795609 -2.683901 1.55874 -2.12132 2.12132 
C -1.55874 2.683901 -0.795609 3 0 3 
z
"/>
     </defs>
     <g>
      <use xlink:href="#m07fa1e1283" x="76.6" y="188.4655" style="fill: #6495ed"/>
     </g>
    </g>
    <g id="text_5">
     <!-- cat -->
     <g transform="translate(94.6 191.9655) scale(0.1 -0.1)">
      <defs>
       <path id="DejaVuSans-61" d="M 2194 1759 
Q 1497 1759 1228 1600 
Q 959 1441 959 1056 
Q 959 750 1161 570 
Q 1363 391 1709 391 
Q 2188 391 2477 730 
Q 2766 1069 2766 1631 
L 2766 1759 
L 2194 1759 
z
M 3341 1997 
L 3341 0 
L 2766 0 
L 2766 531 
Q 2569 213 2275 61 
Q 1981 -91 1556 -91 
Q 1019 -91 701 211 
Q 384 513 384 1019 
Q 384 1609 779 1909 
Q 1175 2209 1959 2209 
L 2766 2209 
L 2766 2266 
Q 2766 2663 2505 2880 
Q 2244 3097 1772 3097 
Q 1472 3097 1187 3025 
Q 903 2953 641 2809 
L 641 3341 
Q 956 3463 1253 3523 
Q 1550 3584 1831 3584 
Q 2591 3584 2966 3190 
Q 3341 2797 3341 1997 
z
" transform="scale(0.015625)"/>
       <path id="DejaVuSans-74" d="M 1172 4494 
L 1172 3500 
L 2356 3500 
L 2356 3053 
L 1172 3053 
L 1172 1153 
Q 1172 725 1289 603 
Q 1406 481 1766 481 
L 2356 481 
L 2356 0 
L 1766 0 
Q 1100 0 847 248 
Q 594 497 594 1153 
L 594 3053 
L 172 3053 
L 172 3500 
L 594 3500 
L 594 4494 
L 1172 4494 
z
" transform="scale(0.015625)"/>
      </defs>
      <use xlink:href="#DejaVuSans-63"/>
      <use xlink:href="#DejaVuSans-61" x="54.980469"/>
      <use xlink:href="#DejaVuSans-74" x="116.259766"/>
     </g>
    </g>
   </g>
  </g>
 </g>
 <defs>
  <clipPath id="pac391a1839">
   <rect x="57.6" y="41.472" width="357.12" height="266.112"/>
  </clipPath>
 </defs>
</svg>
