<?xml version="1.0" encoding="utf-8" standalone="no"?>
<!DOCTYPE svg PUBLIC "-//W3C//DTD SVG 1.1//EN"
  "http://www.w3.org/Graphics/SVG/1.1/DTD/svg11.dtd">
<!-- Created with matplotlib (https://matplotlib.org/) -->
<svg height="288pt" version="1.1" viewBox="0 0 432 288" width="432pt" xmlns="http://www.w3.org/2000/svg" xmlns:xlink="http://www.w3.org/1999/xlink">
 <defs>
  <style type="text/css">
*{stroke-linecap:butt;stroke-linejoin:round;}
  </style>
 </defs>
 <g id="figure_1">
  <g id="patch_1">
   <path d="M 0 288 
L 432 288 
L 432 0 
L 0 0 
z
" style="fill:#ffffff;"/>
  </g>
  <g id="axes_1">
   <g id="patch_2">
    <path d="M 54 252 
L 388.8 252 
L 388.8 34.56 
L 54 34.56 
z
" style="fill:#ffffff;"/>
   </g>
   <g id="PathCollection_1">
    <defs>
     <path d="M 0 3 
C 0.795609 3 1.55874 2.683901 2.12132 2.12132 
C 2.683901 1.55874 3 0.795609 3 0 
C 3 -0.795609 2.683901 -1.55874 2.12132 -2.12132 
C 1.55874 -2.683901 0.795609 -3 0 -3 
C -0.795609 -3 -1.55874 -2.683901 -2.12132 -2.12132 
C -2.683901 -1.55874 -3 -0.795609 -3 0 
C -3 0.795609 -2.683901 1.55874 -2.12132 2.12132 
C -1.55874 2.683901 -0.795609 3 0 3 
z
" id="C0_0_9c6abfd940"/>
    </defs>
    <g clip-path="url(#p4107b6db03)">
     <use style="fill:#6495ed;" x="165.792088" xlink:href="#C0_0_9c6abfd940" y="181.374874"/>
    </g>
    <g clip-path="url(#p4107b6db03)">
     <use style="fill:#6495ed;" x="211.221659" xlink:href="#C0_0_9c6abfd940" y="125.271837"/>
    </g>
    <g clip-path="url(#p4107b6db03)">
     <use style="fill:#6495ed;" x="118.072172" xlink:href="#C0_0_9c6abfd940" y="160.210646"/>
    </g>
    <g clip-path="url(#p4107b6db03)">
     <use style="fill:#f08080;" x="239.216065" xlink:href="#C0_0_9c6abfd940" y="117.683503"/>
    </g>
    <g clip-path="url(#p4107b6db03)">
     <use style="fill:#6495ed;" x="108.538693" xlink:href="#C0_0_9c6abfd940" y="150.739151"/>
    </g>
    <g clip-path="url(#p4107b6db03)">
     <use style="fill:#6495ed;" x="205.71715" xlink:href="#C0_0_9c6abfd940" y="190.611011"/>
    </g>
    <g clip-path="url(#p4107b6db03)">
     <use style="fill:#6495ed;" x="158.909288" xlink:href="#C0_0_9c6abfd940" y="120.147855"/>
    </g>
    <g clip-path="url(#p4107b6db03)">
     <use style="fill:#6495ed;" x="114.29742" xlink:href="#C0_0_9c6abfd940" y="81.572019"/>
    </g>
    <g clip-path="url(#p4107b6db03)">
     <use style="fill:#6495ed;" x="117.804899" xlink:href="#C0_0_9c6abfd940" y="159.96139"/>
    </g>
    <g clip-path="url(#p4107b6db03)">
     <use style="fill:#6495ed;" x="141.405988" xlink:href="#C0_0_9c6abfd940" y="136.665399"/>
    </g>
    <g clip-path="url(#p4107b6db03)">
     <use style="fill:#f08080;" x="320.071697" xlink:href="#C0_0_9c6abfd940" y="159.131268"/>
    </g>
    <g clip-path="url(#p4107b6db03)">
     <use style="fill:#6495ed;" x="281.869684" xlink:href="#C0_0_9c6abfd940" y="178.416484"/>
    </g>
    <g clip-path="url(#p4107b6db03)">
     <use style="fill:#6495ed;" x="127.196312" xlink:href="#C0_0_9c6abfd940" y="140.688296"/>
    </g>
    <g clip-path="url(#p4107b6db03)">
     <use style="fill:#6495ed;" x="89.471478" xlink:href="#C0_0_9c6abfd940" y="57.00297"/>
    </g>
    <g clip-path="url(#p4107b6db03)">
     <use style="fill:#f08080;" x="314.916235" xlink:href="#C0_0_9c6abfd940" y="136.988602"/>
    </g>
    <g clip-path="url(#p4107b6db03)">
     <use style="fill:#6495ed;" x="177.545576" xlink:href="#C0_0_9c6abfd940" y="178.790853"/>
    </g>
    <g clip-path="url(#p4107b6db03)">
     <use style="fill:#6495ed;" x="133.785355" xlink:href="#C0_0_9c6abfd940" y="121.517792"/>
    </g>
    <g clip-path="url(#p4107b6db03)">
     <use style="fill:#6495ed;" x="221.957777" xlink:href="#C0_0_9c6abfd940" y="203.041509"/>
    </g>
    <g clip-path="url(#p4107b6db03)">
     <use style="fill:#6495ed;" x="157.506307" xlink:href="#C0_0_9c6abfd940" y="110.298122"/>
    </g>
    <g clip-path="url(#p4107b6db03)">
     <use style="fill:#6495ed;" x="232.502002" xlink:href="#C0_0_9c6abfd940" y="204.502026"/>
    </g>
    <g clip-path="url(#p4107b6db03)">
     <use style="fill:#6495ed;" x="259.333267" xlink:href="#C0_0_9c6abfd940" y="212.956312"/>
    </g>
    <g clip-path="url(#p4107b6db03)">
     <use style="fill:#f08080;" x="356.359713" xlink:href="#C0_0_9c6abfd940" y="176.626434"/>
    </g>
    <g clip-path="url(#p4107b6db03)">
     <use style="fill:#6495ed;" x="110.328549" xlink:href="#C0_0_9c6abfd940" y="103.275885"/>
    </g>
    <g clip-path="url(#p4107b6db03)">
     <use style="fill:#6495ed;" x="180.891765" xlink:href="#C0_0_9c6abfd940" y="83.39306"/>
    </g>
    <g clip-path="url(#p4107b6db03)">
     <use style="fill:#6495ed;" x="136.245199" xlink:href="#C0_0_9c6abfd940" y="129.95603"/>
    </g>
    <g clip-path="url(#p4107b6db03)">
     <use style="fill:#6495ed;" x="114.766709" xlink:href="#C0_0_9c6abfd940" y="103.266787"/>
    </g>
    <g clip-path="url(#p4107b6db03)">
     <use style="fill:#f08080;" x="329.285787" xlink:href="#C0_0_9c6abfd940" y="178.772954"/>
    </g>
    <g clip-path="url(#p4107b6db03)">
     <use style="fill:#f08080;" x="241.669395" xlink:href="#C0_0_9c6abfd940" y="110.139885"/>
    </g>
    <g clip-path="url(#p4107b6db03)">
     <use style="fill:#6495ed;" x="325.857687" xlink:href="#C0_0_9c6abfd940" y="233.298642"/>
    </g>
    <g clip-path="url(#p4107b6db03)">
     <use style="fill:#6495ed;" x="72.682838" xlink:href="#C0_0_9c6abfd940" y="78.854114"/>
    </g>
    <g clip-path="url(#p4107b6db03)">
     <use style="fill:#6495ed;" x="201.153638" xlink:href="#C0_0_9c6abfd940" y="144.57911"/>
    </g>
    <g clip-path="url(#p4107b6db03)">
     <use style="fill:#6495ed;" x="355.682854" xlink:href="#C0_0_9c6abfd940" y="236.564226"/>
    </g>
    <g clip-path="url(#p4107b6db03)">
     <use style="fill:#6495ed;" x="161.438049" xlink:href="#C0_0_9c6abfd940" y="99.186927"/>
    </g>
    <g clip-path="url(#p4107b6db03)">
     <use style="fill:#f08080;" x="326.960668" xlink:href="#C0_0_9c6abfd940" y="142.572092"/>
    </g>
    <g clip-path="url(#p4107b6db03)">
     <use style="fill:#6495ed;" x="216.390335" xlink:href="#C0_0_9c6abfd940" y="164.347144"/>
    </g>
    <g clip-path="url(#p4107b6db03)">
     <use style="fill:#6495ed;" x="271.076069" xlink:href="#C0_0_9c6abfd940" y="181.001561"/>
    </g>
    <g clip-path="url(#p4107b6db03)">
     <use style="fill:#6495ed;" x="303.745713" xlink:href="#C0_0_9c6abfd940" y="192.113612"/>
    </g>
    <g clip-path="url(#p4107b6db03)">
     <use style="fill:#6495ed;" x="161.423526" xlink:href="#C0_0_9c6abfd940" y="175.006739"/>
    </g>
    <g clip-path="url(#p4107b6db03)">
     <use style="fill:#f08080;" x="349.673988" xlink:href="#C0_0_9c6abfd940" y="143.096848"/>
    </g>
    <g clip-path="url(#p4107b6db03)">
     <use style="fill:#f08080;" x="337.385299" xlink:href="#C0_0_9c6abfd940" y="191.300058"/>
    </g>
    <g clip-path="url(#p4107b6db03)">
     <use style="fill:#6495ed;" x="136.902505" xlink:href="#C0_0_9c6abfd940" y="118.372663"/>
    </g>
    <g clip-path="url(#p4107b6db03)">
     <use style="fill:#f08080;" x="360.15334" xlink:href="#C0_0_9c6abfd940" y="168.909529"/>
    </g>
    <g clip-path="url(#p4107b6db03)">
     <use style="fill:#6495ed;" x="171.234876" xlink:href="#C0_0_9c6abfd940" y="148.094932"/>
    </g>
    <g clip-path="url(#p4107b6db03)">
     <use style="fill:#6495ed;" x="208.735107" xlink:href="#C0_0_9c6abfd940" y="112.987713"/>
    </g>
    <g clip-path="url(#p4107b6db03)">
     <use style="fill:#6495ed;" x="88.628529" xlink:href="#C0_0_9c6abfd940" y="52.069424"/>
    </g>
    <g clip-path="url(#p4107b6db03)">
     <use style="fill:#6495ed;" x="135.759751" xlink:href="#C0_0_9c6abfd940" y="91.017656"/>
    </g>
    <g clip-path="url(#p4107b6db03)">
     <use style="fill:#6495ed;" x="322.281526" xlink:href="#C0_0_9c6abfd940" y="206.993029"/>
    </g>
    <g clip-path="url(#p4107b6db03)">
     <use style="fill:#6495ed;" x="201.345941" xlink:href="#C0_0_9c6abfd940" y="131.553928"/>
    </g>
    <g clip-path="url(#p4107b6db03)">
     <use style="fill:#f08080;" x="359.529239" xlink:href="#C0_0_9c6abfd940" y="174.444615"/>
    </g>
    <g clip-path="url(#p4107b6db03)">
     <use style="fill:#6495ed;" x="124.675628" xlink:href="#C0_0_9c6abfd940" y="118.595412"/>
    </g>
    <g clip-path="url(#p4107b6db03)">
     <use style="fill:#6495ed;" x="112.040406" xlink:href="#C0_0_9c6abfd940" y="128.880285"/>
    </g>
    <g clip-path="url(#p4107b6db03)">
     <use style="fill:#6495ed;" x="126.09072" xlink:href="#C0_0_9c6abfd940" y="87.892264"/>
    </g>
    <g clip-path="url(#p4107b6db03)">
     <use style="fill:#6495ed;" x="152.076267" xlink:href="#C0_0_9c6abfd940" y="114.166567"/>
    </g>
    <g clip-path="url(#p4107b6db03)">
     <use style="fill:#6495ed;" x="216.721463" xlink:href="#C0_0_9c6abfd940" y="143.182677"/>
    </g>
    <g clip-path="url(#p4107b6db03)">
     <use style="fill:#6495ed;" x="104.563557" xlink:href="#C0_0_9c6abfd940" y="115.818788"/>
    </g>
    <g clip-path="url(#p4107b6db03)">
     <use style="fill:#6495ed;" x="180.411609" xlink:href="#C0_0_9c6abfd940" y="162.596422"/>
    </g>
    <g clip-path="url(#p4107b6db03)">
     <use style="fill:#6495ed;" x="315.424598" xlink:href="#C0_0_9c6abfd940" y="191.751891"/>
    </g>
    <g clip-path="url(#p4107b6db03)">
     <use style="fill:#6495ed;" x="151.10064" xlink:href="#C0_0_9c6abfd940" y="95.198713"/>
    </g>
    <g clip-path="url(#p4107b6db03)">
     <use style="fill:#6495ed;" x="156.760488" xlink:href="#C0_0_9c6abfd940" y="121.000581"/>
    </g>
    <g clip-path="url(#p4107b6db03)">
     <use style="fill:#6495ed;" x="81.192712" xlink:href="#C0_0_9c6abfd940" y="88.015082"/>
    </g>
    <g clip-path="url(#p4107b6db03)">
     <use style="fill:#6495ed;" x="361.376352" xlink:href="#C0_0_9c6abfd940" y="228.03419"/>
    </g>
    <g clip-path="url(#p4107b6db03)">
     <use style="fill:#6495ed;" x="84.870966" xlink:href="#C0_0_9c6abfd940" y="125.248448"/>
    </g>
    <g clip-path="url(#p4107b6db03)">
     <use style="fill:#6495ed;" x="361.912991" xlink:href="#C0_0_9c6abfd940" y="235.643005"/>
    </g>
    <g clip-path="url(#p4107b6db03)">
     <use style="fill:#6495ed;" x="220.700702" xlink:href="#C0_0_9c6abfd940" y="170.975808"/>
    </g>
    <g clip-path="url(#p4107b6db03)">
     <use style="fill:#6495ed;" x="167.524097" xlink:href="#C0_0_9c6abfd940" y="90.656437"/>
    </g>
    <g clip-path="url(#p4107b6db03)">
     <use style="fill:#6495ed;" x="310.983837" xlink:href="#C0_0_9c6abfd940" y="215.2153"/>
    </g>
    <g clip-path="url(#p4107b6db03)">
     <use style="fill:#6495ed;" x="104.378749" xlink:href="#C0_0_9c6abfd940" y="155.642288"/>
    </g>
    <g clip-path="url(#p4107b6db03)">
     <use style="fill:#6495ed;" x="189.177107" xlink:href="#C0_0_9c6abfd940" y="138.641181"/>
    </g>
    <g clip-path="url(#p4107b6db03)">
     <use style="fill:#6495ed;" x="112.381793" xlink:href="#C0_0_9c6abfd940" y="64.46061"/>
    </g>
    <g clip-path="url(#p4107b6db03)">
     <use style="fill:#6495ed;" x="110.805395" xlink:href="#C0_0_9c6abfd940" y="103.0713"/>
    </g>
    <g clip-path="url(#p4107b6db03)">
     <use style="fill:#6495ed;" x="145.385631" xlink:href="#C0_0_9c6abfd940" y="144.334773"/>
    </g>
    <g clip-path="url(#p4107b6db03)">
     <use style="fill:#6495ed;" x="101.759953" xlink:href="#C0_0_9c6abfd940" y="102.623374"/>
    </g>
    <g clip-path="url(#p4107b6db03)">
     <use style="fill:#6495ed;" x="180.775025" xlink:href="#C0_0_9c6abfd940" y="140.549621"/>
    </g>
    <g clip-path="url(#p4107b6db03)">
     <use style="fill:#6495ed;" x="295.946329" xlink:href="#C0_0_9c6abfd940" y="225.311543"/>
    </g>
    <g clip-path="url(#p4107b6db03)">
     <use style="fill:#6495ed;" x="146.316071" xlink:href="#C0_0_9c6abfd940" y="107.177814"/>
    </g>
    <g clip-path="url(#p4107b6db03)">
     <use style="fill:#6495ed;" x="198.989859" xlink:href="#C0_0_9c6abfd940" y="94.652595"/>
    </g>
    <g clip-path="url(#p4107b6db03)">
     <use style="fill:#f08080;" x="326.593368" xlink:href="#C0_0_9c6abfd940" y="151.392425"/>
    </g>
    <g clip-path="url(#p4107b6db03)">
     <use style="fill:#6495ed;" x="134.072787" xlink:href="#C0_0_9c6abfd940" y="119.82723"/>
    </g>
    <g clip-path="url(#p4107b6db03)">
     <use style="fill:#6495ed;" x="142.262651" xlink:href="#C0_0_9c6abfd940" y="160.49458"/>
    </g>
    <g clip-path="url(#p4107b6db03)">
     <use style="fill:#f08080;" x="356.668852" xlink:href="#C0_0_9c6abfd940" y="180.652297"/>
    </g>
    <g clip-path="url(#p4107b6db03)">
     <use style="fill:#f08080;" x="226.636768" xlink:href="#C0_0_9c6abfd940" y="138.422712"/>
    </g>
    <g clip-path="url(#p4107b6db03)">
     <use style="fill:#6495ed;" x="125.228334" xlink:href="#C0_0_9c6abfd940" y="122.601393"/>
    </g>
    <g clip-path="url(#p4107b6db03)">
     <use style="fill:#6495ed;" x="370.807001" xlink:href="#C0_0_9c6abfd940" y="242.116364"/>
    </g>
    <g clip-path="url(#p4107b6db03)">
     <use style="fill:#6495ed;" x="335.093166" xlink:href="#C0_0_9c6abfd940" y="199.394732"/>
    </g>
    <g clip-path="url(#p4107b6db03)">
     <use style="fill:#f08080;" x="290.175413" xlink:href="#C0_0_9c6abfd940" y="157.025662"/>
    </g>
    <g clip-path="url(#p4107b6db03)">
     <use style="fill:#6495ed;" x="168.33871" xlink:href="#C0_0_9c6abfd940" y="92.489148"/>
    </g>
    <g clip-path="url(#p4107b6db03)">
     <use style="fill:#6495ed;" x="330.093037" xlink:href="#C0_0_9c6abfd940" y="236.238471"/>
    </g>
    <g clip-path="url(#p4107b6db03)">
     <use style="fill:#6495ed;" x="249.009172" xlink:href="#C0_0_9c6abfd940" y="209.645561"/>
    </g>
    <g clip-path="url(#p4107b6db03)">
     <use style="fill:#f08080;" x="333.460764" xlink:href="#C0_0_9c6abfd940" y="141.194684"/>
    </g>
    <g clip-path="url(#p4107b6db03)">
     <use style="fill:#6495ed;" x="110.068418" xlink:href="#C0_0_9c6abfd940" y="91.946844"/>
    </g>
    <g clip-path="url(#p4107b6db03)">
     <use style="fill:#6495ed;" x="76.522172" xlink:href="#C0_0_9c6abfd940" y="108.639921"/>
    </g>
    <g clip-path="url(#p4107b6db03)">
     <use style="fill:#f08080;" x="346.560871" xlink:href="#C0_0_9c6abfd940" y="174.242378"/>
    </g>
    <g clip-path="url(#p4107b6db03)">
     <use style="fill:#f08080;" x="373.581818" xlink:href="#C0_0_9c6abfd940" y="171.234273"/>
    </g>
    <g clip-path="url(#p4107b6db03)">
     <use style="fill:#6495ed;" x="191.788912" xlink:href="#C0_0_9c6abfd940" y="116.690352"/>
    </g>
    <g clip-path="url(#p4107b6db03)">
     <use style="fill:#6495ed;" x="289.794838" xlink:href="#C0_0_9c6abfd940" y="211.526274"/>
    </g>
    <g clip-path="url(#p4107b6db03)">
     <use style="fill:#6495ed;" x="295.655905" xlink:href="#C0_0_9c6abfd940" y="186.574152"/>
    </g>
    <g clip-path="url(#p4107b6db03)">
     <use style="fill:#6495ed;" x="92.250085" xlink:href="#C0_0_9c6abfd940" y="128.422756"/>
    </g>
    <g clip-path="url(#p4107b6db03)">
     <use style="fill:#6495ed;" x="81.101911" xlink:href="#C0_0_9c6abfd940" y="80.356139"/>
    </g>
    <g clip-path="url(#p4107b6db03)">
     <use style="fill:#6495ed;" x="191.747095" xlink:href="#C0_0_9c6abfd940" y="193.493254"/>
    </g>
    <g clip-path="url(#p4107b6db03)">
     <use style="fill:#6495ed;" x="126.185857" xlink:href="#C0_0_9c6abfd940" y="166.561754"/>
    </g>
    <g clip-path="url(#p4107b6db03)">
     <use style="fill:#6495ed;" x="277.986339" xlink:href="#C0_0_9c6abfd940" y="181.246946"/>
    </g>
    <g clip-path="url(#p4107b6db03)">
     <use style="fill:#6495ed;" x="194.709627" xlink:href="#C0_0_9c6abfd940" y="107.07473"/>
    </g>
    <g clip-path="url(#p4107b6db03)">
     <use style="fill:#6495ed;" x="142.703397" xlink:href="#C0_0_9c6abfd940" y="174.438657"/>
    </g>
    <g clip-path="url(#p4107b6db03)">
     <use style="fill:#f08080;" x="332.117331" xlink:href="#C0_0_9c6abfd940" y="167.504995"/>
    </g>
    <g clip-path="url(#p4107b6db03)">
     <use style="fill:#f08080;" x="310.615299" xlink:href="#C0_0_9c6abfd940" y="181.443172"/>
    </g>
    <g clip-path="url(#p4107b6db03)">
     <use style="fill:#f08080;" x="242.666609" xlink:href="#C0_0_9c6abfd940" y="105.00726"/>
    </g>
    <g clip-path="url(#p4107b6db03)">
     <use style="fill:#f08080;" x="277.739496" xlink:href="#C0_0_9c6abfd940" y="149.095848"/>
    </g>
    <g clip-path="url(#p4107b6db03)">
     <use style="fill:#f08080;" x="238.334652" xlink:href="#C0_0_9c6abfd940" y="112.671551"/>
    </g>
    <g clip-path="url(#p4107b6db03)">
     <use style="fill:#6495ed;" x="242.372022" xlink:href="#C0_0_9c6abfd940" y="170.613387"/>
    </g>
    <g clip-path="url(#p4107b6db03)">
     <use style="fill:#f08080;" x="272.139828" xlink:href="#C0_0_9c6abfd940" y="151.044746"/>
    </g>
    <g clip-path="url(#p4107b6db03)">
     <use style="fill:#6495ed;" x="192.969775" xlink:href="#C0_0_9c6abfd940" y="154.695124"/>
    </g>
    <g clip-path="url(#p4107b6db03)">
     <use style="fill:#6495ed;" x="191.23347" xlink:href="#C0_0_9c6abfd940" y="180.591577"/>
    </g>
    <g clip-path="url(#p4107b6db03)">
     <use style="fill:#f08080;" x="237.766981" xlink:href="#C0_0_9c6abfd940" y="122.177563"/>
    </g>
    <g clip-path="url(#p4107b6db03)">
     <use style="fill:#f08080;" x="338.331973" xlink:href="#C0_0_9c6abfd940" y="154.364645"/>
    </g>
    <g clip-path="url(#p4107b6db03)">
     <use style="fill:#f08080;" x="273.157289" xlink:href="#C0_0_9c6abfd940" y="138.439166"/>
    </g>
    <g clip-path="url(#p4107b6db03)">
     <use style="fill:#6495ed;" x="159.893692" xlink:href="#C0_0_9c6abfd940" y="107.127502"/>
    </g>
    <g clip-path="url(#p4107b6db03)">
     <use style="fill:#6495ed;" x="249.29529" xlink:href="#C0_0_9c6abfd940" y="175.77399"/>
    </g>
    <g clip-path="url(#p4107b6db03)">
     <use style="fill:#6495ed;" x="292.635565" xlink:href="#C0_0_9c6abfd940" y="176.763874"/>
    </g>
    <g clip-path="url(#p4107b6db03)">
     <use style="fill:#6495ed;" x="127.203908" xlink:href="#C0_0_9c6abfd940" y="150.537028"/>
    </g>
    <g clip-path="url(#p4107b6db03)">
     <use style="fill:#6495ed;" x="311.700561" xlink:href="#C0_0_9c6abfd940" y="228.054882"/>
    </g>
    <g clip-path="url(#p4107b6db03)">
     <use style="fill:#6495ed;" x="318.770643" xlink:href="#C0_0_9c6abfd940" y="231.722057"/>
    </g>
    <g clip-path="url(#p4107b6db03)">
     <use style="fill:#f08080;" x="273.797303" xlink:href="#C0_0_9c6abfd940" y="144.885855"/>
    </g>
    <g clip-path="url(#p4107b6db03)">
     <use style="fill:#f08080;" x="346.518135" xlink:href="#C0_0_9c6abfd940" y="174.446272"/>
    </g>
    <g clip-path="url(#p4107b6db03)">
     <use style="fill:#6495ed;" x="169.594629" xlink:href="#C0_0_9c6abfd940" y="154.348577"/>
    </g>
    <g clip-path="url(#p4107b6db03)">
     <use style="fill:#6495ed;" x="149.022609" xlink:href="#C0_0_9c6abfd940" y="76.764347"/>
    </g>
    <g clip-path="url(#p4107b6db03)">
     <use style="fill:#6495ed;" x="130.775205" xlink:href="#C0_0_9c6abfd940" y="166.736326"/>
    </g>
    <g clip-path="url(#p4107b6db03)">
     <use style="fill:#6495ed;" x="143.391052" xlink:href="#C0_0_9c6abfd940" y="136.458371"/>
    </g>
    <g clip-path="url(#p4107b6db03)">
     <use style="fill:#f08080;" x="269.196564" xlink:href="#C0_0_9c6abfd940" y="128.150042"/>
    </g>
    <g clip-path="url(#p4107b6db03)">
     <use style="fill:#f08080;" x="262.669612" xlink:href="#C0_0_9c6abfd940" y="146.758461"/>
    </g>
    <g clip-path="url(#p4107b6db03)">
     <use style="fill:#f08080;" x="327.32014" xlink:href="#C0_0_9c6abfd940" y="170.01499"/>
    </g>
    <g clip-path="url(#p4107b6db03)">
     <use style="fill:#f08080;" x="308.017189" xlink:href="#C0_0_9c6abfd940" y="162.684624"/>
    </g>
    <g clip-path="url(#p4107b6db03)">
     <use style="fill:#6495ed;" x="87.123211" xlink:href="#C0_0_9c6abfd940" y="147.227876"/>
    </g>
    <g clip-path="url(#p4107b6db03)">
     <use style="fill:#f08080;" x="365.060241" xlink:href="#C0_0_9c6abfd940" y="152.222928"/>
    </g>
    <g clip-path="url(#p4107b6db03)">
     <use style="fill:#f08080;" x="229.131708" xlink:href="#C0_0_9c6abfd940" y="105.432653"/>
    </g>
    <g clip-path="url(#p4107b6db03)">
     <use style="fill:#6495ed;" x="74.123957" xlink:href="#C0_0_9c6abfd940" y="141.92263"/>
    </g>
    <g clip-path="url(#p4107b6db03)">
     <use style="fill:#6495ed;" x="233.280312" xlink:href="#C0_0_9c6abfd940" y="164.224655"/>
    </g>
    <g clip-path="url(#p4107b6db03)">
     <use style="fill:#f08080;" x="330.520949" xlink:href="#C0_0_9c6abfd940" y="146.129015"/>
    </g>
    <g clip-path="url(#p4107b6db03)">
     <use style="fill:#f08080;" x="273.97302" xlink:href="#C0_0_9c6abfd940" y="156.041842"/>
    </g>
    <g clip-path="url(#p4107b6db03)">
     <use style="fill:#6495ed;" x="80.104302" xlink:href="#C0_0_9c6abfd940" y="140.119885"/>
    </g>
    <g clip-path="url(#p4107b6db03)">
     <use style="fill:#6495ed;" x="153.753567" xlink:href="#C0_0_9c6abfd940" y="92.972937"/>
    </g>
    <g clip-path="url(#p4107b6db03)">
     <use style="fill:#6495ed;" x="252.305307" xlink:href="#C0_0_9c6abfd940" y="166.550292"/>
    </g>
    <g clip-path="url(#p4107b6db03)">
     <use style="fill:#6495ed;" x="69.218182" xlink:href="#C0_0_9c6abfd940" y="44.443636"/>
    </g>
    <g clip-path="url(#p4107b6db03)">
     <use style="fill:#6495ed;" x="87.295547" xlink:href="#C0_0_9c6abfd940" y="137.432128"/>
    </g>
    <g clip-path="url(#p4107b6db03)">
     <use style="fill:#f08080;" x="323.860115" xlink:href="#C0_0_9c6abfd940" y="180.658363"/>
    </g>
    <g clip-path="url(#p4107b6db03)">
     <use style="fill:#f08080;" x="299.910662" xlink:href="#C0_0_9c6abfd940" y="175.437459"/>
    </g>
    <g clip-path="url(#p4107b6db03)">
     <use style="fill:#6495ed;" x="116.767281" xlink:href="#C0_0_9c6abfd940" y="110.331645"/>
    </g>
    <g clip-path="url(#p4107b6db03)">
     <use style="fill:#6495ed;" x="321.385334" xlink:href="#C0_0_9c6abfd940" y="229.315958"/>
    </g>
    <g clip-path="url(#p4107b6db03)">
     <use style="fill:#6495ed;" x="249.23595" xlink:href="#C0_0_9c6abfd940" y="184.061375"/>
    </g>
    <g clip-path="url(#p4107b6db03)">
     <use style="fill:#6495ed;" x="87.621268" xlink:href="#C0_0_9c6abfd940" y="135.326547"/>
    </g>
    <g clip-path="url(#p4107b6db03)">
     <use style="fill:#f08080;" x="370.719244" xlink:href="#C0_0_9c6abfd940" y="187.873135"/>
    </g>
   </g>
   <g id="PathCollection_2"/>
   <g id="PathCollection_3"/>
   <g id="PathCollection_4"/>
   <g id="matplotlib.axis_1">
    <g id="xtick_1">
     <g id="line2d_1">
      <defs>
       <path d="M 0 0 
L 0 3.5 
" id="m3427810bfb" style="stroke:#000000;stroke-width:0.8;"/>
      </defs>
      <g>
       <use style="stroke:#000000;stroke-width:0.8;" x="69.023012" xlink:href="#m3427810bfb" y="252"/>
      </g>
     </g>
    </g>
    <g id="xtick_2">
     <g id="line2d_2">
      <g>
       <use style="stroke:#000000;stroke-width:0.8;" x="107.112859" xlink:href="#m3427810bfb" y="252"/>
      </g>
     </g>
    </g>
    <g id="xtick_3">
     <g id="line2d_3">
      <g>
       <use style="stroke:#000000;stroke-width:0.8;" x="145.202705" xlink:href="#m3427810bfb" y="252"/>
      </g>
     </g>
    </g>
    <g id="xtick_4">
     <g id="line2d_4">
      <g>
       <use style="stroke:#000000;stroke-width:0.8;" x="183.292551" xlink:href="#m3427810bfb" y="252"/>
      </g>
     </g>
    </g>
    <g id="xtick_5">
     <g id="line2d_5">
      <g>
       <use style="stroke:#000000;stroke-width:0.8;" x="221.382398" xlink:href="#m3427810bfb" y="252"/>
      </g>
     </g>
    </g>
    <g id="xtick_6">
     <g id="line2d_6">
      <g>
       <use style="stroke:#000000;stroke-width:0.8;" x="259.472244" xlink:href="#m3427810bfb" y="252"/>
      </g>
     </g>
    </g>
    <g id="xtick_7">
     <g id="line2d_7">
      <g>
       <use style="stroke:#000000;stroke-width:0.8;" x="297.56209" xlink:href="#m3427810bfb" y="252"/>
      </g>
     </g>
    </g>
    <g id="xtick_8">
     <g id="line2d_8">
      <g>
       <use style="stroke:#000000;stroke-width:0.8;" x="335.651937" xlink:href="#m3427810bfb" y="252"/>
      </g>
     </g>
    </g>
    <g id="xtick_9">
     <g id="line2d_9">
      <g>
       <use style="stroke:#000000;stroke-width:0.8;" x="373.741783" xlink:href="#m3427810bfb" y="252"/>
      </g>
     </g>
    </g>
    <g id="text_1">
     <!-- X -->
     <defs>
      <path d="M 6.296875 72.90625 
L 16.890625 72.90625 
L 35.015625 45.796875 
L 53.21875 72.90625 
L 63.8125 72.90625 
L 40.375 37.890625 
L 65.375 0 
L 54.78125 0 
L 34.28125 31 
L 13.625 0 
L 2.984375 0 
L 29 38.921875 
z
" id="DejaVuSans-88"/>
     </defs>
     <g transform="translate(217.975 270.598437)scale(0.1 -0.1)">
      <use xlink:href="#DejaVuSans-88"/>
     </g>
    </g>
   </g>
   <g id="matplotlib.axis_2">
    <g id="ytick_1">
     <g id="line2d_10">
      <defs>
       <path d="M 0 0 
L -3.5 0 
" id="m896315b019" style="stroke:#000000;stroke-width:0.8;"/>
      </defs>
      <g>
       <use style="stroke:#000000;stroke-width:0.8;" x="54" xlink:href="#m896315b019" y="231.43217"/>
      </g>
     </g>
    </g>
    <g id="ytick_2">
     <g id="line2d_11">
      <g>
       <use style="stroke:#000000;stroke-width:0.8;" x="54" xlink:href="#m896315b019" y="204.374813"/>
      </g>
     </g>
    </g>
    <g id="ytick_3">
     <g id="line2d_12">
      <g>
       <use style="stroke:#000000;stroke-width:0.8;" x="54" xlink:href="#m896315b019" y="177.317456"/>
      </g>
     </g>
    </g>
    <g id="ytick_4">
     <g id="line2d_13">
      <g>
       <use style="stroke:#000000;stroke-width:0.8;" x="54" xlink:href="#m896315b019" y="150.260099"/>
      </g>
     </g>
    </g>
    <g id="ytick_5">
     <g id="line2d_14">
      <g>
       <use style="stroke:#000000;stroke-width:0.8;" x="54" xlink:href="#m896315b019" y="123.202741"/>
      </g>
     </g>
    </g>
    <g id="ytick_6">
     <g id="line2d_15">
      <g>
       <use style="stroke:#000000;stroke-width:0.8;" x="54" xlink:href="#m896315b019" y="96.145384"/>
      </g>
     </g>
    </g>
    <g id="ytick_7">
     <g id="line2d_16">
      <g>
       <use style="stroke:#000000;stroke-width:0.8;" x="54" xlink:href="#m896315b019" y="69.088027"/>
      </g>
     </g>
    </g>
    <g id="ytick_8">
     <g id="line2d_17">
      <g>
       <use style="stroke:#000000;stroke-width:0.8;" x="54" xlink:href="#m896315b019" y="42.03067"/>
      </g>
     </g>
    </g>
    <g id="text_2">
     <!-- Y -->
     <defs>
      <path d="M -0.203125 72.90625 
L 10.40625 72.90625 
L 30.609375 42.921875 
L 50.6875 72.90625 
L 61.28125 72.90625 
L 35.5 34.71875 
L 35.5 0 
L 25.59375 0 
L 25.59375 34.71875 
z
" id="DejaVuSans-89"/>
     </defs>
     <g transform="translate(40.920313 146.333906)rotate(-90)scale(0.1 -0.1)">
      <use xlink:href="#DejaVuSans-89"/>
     </g>
    </g>
   </g>
   <g id="patch_3">
    <path d="M 54 252 
L 54 34.56 
" style="fill:none;stroke:#000000;stroke-linecap:square;stroke-linejoin:miter;stroke-width:0.8;"/>
   </g>
   <g id="patch_4">
    <path d="M 388.8 252 
L 388.8 34.56 
" style="fill:none;stroke:#000000;stroke-linecap:square;stroke-linejoin:miter;stroke-width:0.8;"/>
   </g>
   <g id="patch_5">
    <path d="M 54 252 
L 388.8 252 
" style="fill:none;stroke:#000000;stroke-linecap:square;stroke-linejoin:miter;stroke-width:0.8;"/>
   </g>
   <g id="patch_6">
    <path d="M 54 34.56 
L 388.8 34.56 
" style="fill:none;stroke:#000000;stroke-linecap:square;stroke-linejoin:miter;stroke-width:0.8;"/>
   </g>
   <g id="legend_1">
    <g id="patch_7">
     <path d="M 312.45 86.594375 
L 381.8 86.594375 
Q 383.8 86.594375 383.8 84.594375 
L 383.8 41.56 
Q 383.8 39.56 381.8 39.56 
L 312.45 39.56 
Q 310.45 39.56 310.45 41.56 
L 310.45 84.594375 
Q 310.45 86.594375 312.45 86.594375 
z
" style="fill:#ffffff;opacity:0.8;stroke:#cccccc;stroke-linejoin:miter;"/>
    </g>
    <g id="PathCollection_5">
     <defs>
      <path id="m1f48b80cb6" style="stroke:#ffffff;stroke-width:1.5;"/>
     </defs>
     <g>
      <use style="fill:#ffffff;stroke:#ffffff;stroke-width:1.5;" x="324.45" xlink:href="#m1f48b80cb6" y="48.533438"/>
     </g>
    </g>
    <g id="text_3">
     <!-- species -->
     <defs>
      <path d="M 44.28125 53.078125 
L 44.28125 44.578125 
Q 40.484375 46.53125 36.375 47.5 
Q 32.28125 48.484375 27.875 48.484375 
Q 21.1875 48.484375 17.84375 46.4375 
Q 14.5 44.390625 14.5 40.28125 
Q 14.5 37.15625 16.890625 35.375 
Q 19.28125 33.59375 26.515625 31.984375 
L 29.59375 31.296875 
Q 39.15625 29.25 43.1875 25.515625 
Q 47.21875 21.78125 47.21875 15.09375 
Q 47.21875 7.46875 41.1875 3.015625 
Q 35.15625 -1.421875 24.609375 -1.421875 
Q 20.21875 -1.421875 15.453125 -0.5625 
Q 10.6875 0.296875 5.421875 2 
L 5.421875 11.28125 
Q 10.40625 8.6875 15.234375 7.390625 
Q 20.0625 6.109375 24.8125 6.109375 
Q 31.15625 6.109375 34.5625 8.28125 
Q 37.984375 10.453125 37.984375 14.40625 
Q 37.984375 18.0625 35.515625 20.015625 
Q 33.0625 21.96875 24.703125 23.78125 
L 21.578125 24.515625 
Q 13.234375 26.265625 9.515625 29.90625 
Q 5.8125 33.546875 5.8125 39.890625 
Q 5.8125 47.609375 11.28125 51.796875 
Q 16.75 56 26.8125 56 
Q 31.78125 56 36.171875 55.265625 
Q 40.578125 54.546875 44.28125 53.078125 
z
" id="DejaVuSans-115"/>
      <path d="M 18.109375 8.203125 
L 18.109375 -20.796875 
L 9.078125 -20.796875 
L 9.078125 54.6875 
L 18.109375 54.6875 
L 18.109375 46.390625 
Q 20.953125 51.265625 25.265625 53.625 
Q 29.59375 56 35.59375 56 
Q 45.5625 56 51.78125 48.09375 
Q 58.015625 40.1875 58.015625 27.296875 
Q 58.015625 14.40625 51.78125 6.484375 
Q 45.5625 -1.421875 35.59375 -1.421875 
Q 29.59375 -1.421875 25.265625 0.953125 
Q 20.953125 3.328125 18.109375 8.203125 
z
M 48.6875 27.296875 
Q 48.6875 37.203125 44.609375 42.84375 
Q 40.53125 48.484375 33.40625 48.484375 
Q 26.265625 48.484375 22.1875 42.84375 
Q 18.109375 37.203125 18.109375 27.296875 
Q 18.109375 17.390625 22.1875 11.75 
Q 26.265625 6.109375 33.40625 6.109375 
Q 40.53125 6.109375 44.609375 11.75 
Q 48.6875 17.390625 48.6875 27.296875 
z
" id="DejaVuSans-112"/>
      <path d="M 56.203125 29.59375 
L 56.203125 25.203125 
L 14.890625 25.203125 
Q 15.484375 15.921875 20.484375 11.0625 
Q 25.484375 6.203125 34.421875 6.203125 
Q 39.59375 6.203125 44.453125 7.46875 
Q 49.3125 8.734375 54.109375 11.28125 
L 54.109375 2.78125 
Q 49.265625 0.734375 44.1875 -0.34375 
Q 39.109375 -1.421875 33.890625 -1.421875 
Q 20.796875 -1.421875 13.15625 6.1875 
Q 5.515625 13.8125 5.515625 26.8125 
Q 5.515625 40.234375 12.765625 48.109375 
Q 20.015625 56 32.328125 56 
Q 43.359375 56 49.78125 48.890625 
Q 56.203125 41.796875 56.203125 29.59375 
z
M 47.21875 32.234375 
Q 47.125 39.59375 43.09375 43.984375 
Q 39.0625 48.390625 32.421875 48.390625 
Q 24.90625 48.390625 20.390625 44.140625 
Q 15.875 39.890625 15.1875 32.171875 
z
" id="DejaVuSans-101"/>
      <path d="M 48.78125 52.59375 
L 48.78125 44.1875 
Q 44.96875 46.296875 41.140625 47.34375 
Q 37.3125 48.390625 33.40625 48.390625 
Q 24.65625 48.390625 19.8125 42.84375 
Q 14.984375 37.3125 14.984375 27.296875 
Q 14.984375 17.28125 19.8125 11.734375 
Q 24.65625 6.203125 33.40625 6.203125 
Q 37.3125 6.203125 41.140625 7.25 
Q 44.96875 8.296875 48.78125 10.40625 
L 48.78125 2.09375 
Q 45.015625 0.34375 40.984375 -0.53125 
Q 36.96875 -1.421875 32.421875 -1.421875 
Q 20.0625 -1.421875 12.78125 6.34375 
Q 5.515625 14.109375 5.515625 27.296875 
Q 5.515625 40.671875 12.859375 48.328125 
Q 20.21875 56 33.015625 56 
Q 37.15625 56 41.109375 55.140625 
Q 45.0625 54.296875 48.78125 52.59375 
z
" id="DejaVuSans-99"/>
      <path d="M 9.421875 54.6875 
L 18.40625 54.6875 
L 18.40625 0 
L 9.421875 0 
z
M 9.421875 75.984375 
L 18.40625 75.984375 
L 18.40625 64.59375 
L 9.421875 64.59375 
z
" id="DejaVuSans-105"/>
     </defs>
     <g transform="translate(342.45 51.158438)scale(0.1 -0.1)">
      <use xlink:href="#DejaVuSans-115"/>
      <use x="52.099609" xlink:href="#DejaVuSans-112"/>
      <use x="115.576172" xlink:href="#DejaVuSans-101"/>
      <use x="177.099609" xlink:href="#DejaVuSans-99"/>
      <use x="232.080078" xlink:href="#DejaVuSans-105"/>
      <use x="259.863281" xlink:href="#DejaVuSans-101"/>
      <use x="321.386719" xlink:href="#DejaVuSans-115"/>
     </g>
    </g>
    <g id="PathCollection_6">
     <defs>
      <path d="M 0 3 
C 0.795609 3 1.55874 2.683901 2.12132 2.12132 
C 2.683901 1.55874 3 0.795609 3 0 
C 3 -0.795609 2.683901 -1.55874 2.12132 -2.12132 
C 1.55874 -2.683901 0.795609 -3 0 -3 
C -0.795609 -3 -1.55874 -2.683901 -2.12132 -2.12132 
C -2.683901 -1.55874 -3 -0.795609 -3 0 
C -3 0.795609 -2.683901 1.55874 -2.12132 2.12132 
C -1.55874 2.683901 -0.795609 3 0 3 
z
" id="m7b92952d69" style="stroke:#6495ed;"/>
     </defs>
     <g>
      <use style="fill:#6495ed;stroke:#6495ed;" x="324.45" xlink:href="#m7b92952d69" y="63.211563"/>
     </g>
    </g>
    <g id="text_4">
     <!-- cat -->
     <defs>
      <path d="M 34.28125 27.484375 
Q 23.390625 27.484375 19.1875 25 
Q 14.984375 22.515625 14.984375 16.5 
Q 14.984375 11.71875 18.140625 8.90625 
Q 21.296875 6.109375 26.703125 6.109375 
Q 34.1875 6.109375 38.703125 11.40625 
Q 43.21875 16.703125 43.21875 25.484375 
L 43.21875 27.484375 
z
M 52.203125 31.203125 
L 52.203125 0 
L 43.21875 0 
L 43.21875 8.296875 
Q 40.140625 3.328125 35.546875 0.953125 
Q 30.953125 -1.421875 24.3125 -1.421875 
Q 15.921875 -1.421875 10.953125 3.296875 
Q 6 8.015625 6 15.921875 
Q 6 25.140625 12.171875 29.828125 
Q 18.359375 34.515625 30.609375 34.515625 
L 43.21875 34.515625 
L 43.21875 35.40625 
Q 43.21875 41.609375 39.140625 45 
Q 35.0625 48.390625 27.6875 48.390625 
Q 23 48.390625 18.546875 47.265625 
Q 14.109375 46.140625 10.015625 43.890625 
L 10.015625 52.203125 
Q 14.9375 54.109375 19.578125 55.046875 
Q 24.21875 56 28.609375 56 
Q 40.484375 56 46.34375 49.84375 
Q 52.203125 43.703125 52.203125 31.203125 
z
" id="DejaVuSans-97"/>
      <path d="M 18.3125 70.21875 
L 18.3125 54.6875 
L 36.8125 54.6875 
L 36.8125 47.703125 
L 18.3125 47.703125 
L 18.3125 18.015625 
Q 18.3125 11.328125 20.140625 9.421875 
Q 21.96875 7.515625 27.59375 7.515625 
L 36.8125 7.515625 
L 36.8125 0 
L 27.59375 0 
Q 17.1875 0 13.234375 3.875 
Q 9.28125 7.765625 9.28125 18.015625 
L 9.28125 47.703125 
L 2.6875 47.703125 
L 2.6875 54.6875 
L 9.28125 54.6875 
L 9.28125 70.21875 
z
" id="DejaVuSans-116"/>
     </defs>
     <g transform="translate(342.45 65.836563)scale(0.1 -0.1)">
      <use xlink:href="#DejaVuSans-99"/>
      <use x="54.980469" xlink:href="#DejaVuSans-97"/>
      <use x="116.259766" xlink:href="#DejaVuSans-116"/>
     </g>
    </g>
    <g id="PathCollection_7">
     <defs>
      <path d="M 0 3 
C 0.795609 3 1.55874 2.683901 2.12132 2.12132 
C 2.683901 1.55874 3 0.795609 3 0 
C 3 -0.795609 2.683901 -1.55874 2.12132 -2.12132 
C 1.55874 -2.683901 0.795609 -3 0 -3 
C -0.795609 -3 -1.55874 -2.683901 -2.12132 -2.12132 
C -2.683901 -1.55874 -3 -0.795609 -3 0 
C -3 0.795609 -2.683901 1.55874 -2.12132 2.12132 
C -1.55874 2.683901 -0.795609 3 0 3 
z
" id="mb1a80c745d" style="stroke:#f08080;"/>
     </defs>
     <g>
      <use style="fill:#f08080;stroke:#f08080;" x="324.45" xlink:href="#mb1a80c745d" y="77.889688"/>
     </g>
    </g>
    <g id="text_5">
     <!-- dog -->
     <defs>
      <path d="M 45.40625 46.390625 
L 45.40625 75.984375 
L 54.390625 75.984375 
L 54.390625 0 
L 45.40625 0 
L 45.40625 8.203125 
Q 42.578125 3.328125 38.25 0.953125 
Q 33.9375 -1.421875 27.875 -1.421875 
Q 17.96875 -1.421875 11.734375 6.484375 
Q 5.515625 14.40625 5.515625 27.296875 
Q 5.515625 40.1875 11.734375 48.09375 
Q 17.96875 56 27.875 56 
Q 33.9375 56 38.25 53.625 
Q 42.578125 51.265625 45.40625 46.390625 
z
M 14.796875 27.296875 
Q 14.796875 17.390625 18.875 11.75 
Q 22.953125 6.109375 30.078125 6.109375 
Q 37.203125 6.109375 41.296875 11.75 
Q 45.40625 17.390625 45.40625 27.296875 
Q 45.40625 37.203125 41.296875 42.84375 
Q 37.203125 48.484375 30.078125 48.484375 
Q 22.953125 48.484375 18.875 42.84375 
Q 14.796875 37.203125 14.796875 27.296875 
z
" id="DejaVuSans-100"/>
      <path d="M 30.609375 48.390625 
Q 23.390625 48.390625 19.1875 42.75 
Q 14.984375 37.109375 14.984375 27.296875 
Q 14.984375 17.484375 19.15625 11.84375 
Q 23.34375 6.203125 30.609375 6.203125 
Q 37.796875 6.203125 41.984375 11.859375 
Q 46.1875 17.53125 46.1875 27.296875 
Q 46.1875 37.015625 41.984375 42.703125 
Q 37.796875 48.390625 30.609375 48.390625 
z
M 30.609375 56 
Q 42.328125 56 49.015625 48.375 
Q 55.71875 40.765625 55.71875 27.296875 
Q 55.71875 13.875 49.015625 6.21875 
Q 42.328125 -1.421875 30.609375 -1.421875 
Q 18.84375 -1.421875 12.171875 6.21875 
Q 5.515625 13.875 5.515625 27.296875 
Q 5.515625 40.765625 12.171875 48.375 
Q 18.84375 56 30.609375 56 
z
" id="DejaVuSans-111"/>
      <path d="M 45.40625 27.984375 
Q 45.40625 37.75 41.375 43.109375 
Q 37.359375 48.484375 30.078125 48.484375 
Q 22.859375 48.484375 18.828125 43.109375 
Q 14.796875 37.75 14.796875 27.984375 
Q 14.796875 18.265625 18.828125 12.890625 
Q 22.859375 7.515625 30.078125 7.515625 
Q 37.359375 7.515625 41.375 12.890625 
Q 45.40625 18.265625 45.40625 27.984375 
z
M 54.390625 6.78125 
Q 54.390625 -7.171875 48.1875 -13.984375 
Q 42 -20.796875 29.203125 -20.796875 
Q 24.46875 -20.796875 20.265625 -20.09375 
Q 16.0625 -19.390625 12.109375 -17.921875 
L 12.109375 -9.1875 
Q 16.0625 -11.328125 19.921875 -12.34375 
Q 23.78125 -13.375 27.78125 -13.375 
Q 36.625 -13.375 41.015625 -8.765625 
Q 45.40625 -4.15625 45.40625 5.171875 
L 45.40625 9.625 
Q 42.625 4.78125 38.28125 2.390625 
Q 33.9375 0 27.875 0 
Q 17.828125 0 11.671875 7.65625 
Q 5.515625 15.328125 5.515625 27.984375 
Q 5.515625 40.671875 11.671875 48.328125 
Q 17.828125 56 27.875 56 
Q 33.9375 56 38.28125 53.609375 
Q 42.625 51.21875 45.40625 46.390625 
L 45.40625 54.6875 
L 54.390625 54.6875 
z
" id="DejaVuSans-103"/>
     </defs>
     <g transform="translate(342.45 80.514688)scale(0.1 -0.1)">
      <use xlink:href="#DejaVuSans-100"/>
      <use x="63.476562" xlink:href="#DejaVuSans-111"/>
      <use x="124.658203" xlink:href="#DejaVuSans-103"/>
     </g>
    </g>
   </g>
  </g>
 </g>
 <defs>
  <clipPath id="p4107b6db03">
   <rect height="217.44" width="334.8" x="54" y="34.56"/>
  </clipPath>
 </defs>
</svg>
