<?xml version="1.0" encoding="utf-8" standalone="no"?>
<!DOCTYPE svg PUBLIC "-//W3C//DTD SVG 1.1//EN"
  "http://www.w3.org/Graphics/SVG/1.1/DTD/svg11.dtd">
<svg xmlns:xlink="http://www.w3.org/1999/xlink" width="460.8pt" height="345.6pt" viewBox="0 0 460.8 345.6" xmlns="http://www.w3.org/2000/svg" version="1.1">
 <metadata>
  <rdf:RDF xmlns:dc="http://purl.org/dc/elements/1.1/" xmlns:cc="http://creativecommons.org/ns#" xmlns:rdf="http://www.w3.org/1999/02/22-rdf-syntax-ns#">
   <cc:Work>
    <dc:type rdf:resource="http://purl.org/dc/dcmitype/StillImage"/>
    <dc:date>2024-11-04T15:27:58.020757</dc:date>
    <dc:format>image/svg+xml</dc:format>
    <dc:creator>
     <cc:Agent>
      <dc:title>Matplotlib v3.9.2, https://matplotlib.org/</dc:title>
     </cc:Agent>
    </dc:creator>
   </cc:Work>
  </rdf:RDF>
 </metadata>
 <defs>
  <style type="text/css">*{stroke-linejoin: round; stroke-linecap: butt}</style>
 </defs>
 <g id="figure_1">
  <g id="patch_1">
   <path d="M 0 345.6 
L 460.8 345.6 
L 460.8 0 
L 0 0 
z
" style="fill: #ffffff"/>
  </g>
  <g id="axes_1">
   <g id="patch_2">
    <path d="M 57.6 307.584 
L 414.72 307.584 
L 414.72 41.472 
L 57.6 41.472 
z
" style="fill: #ffffff"/>
   </g>
   <g id="PathCollection_1">
    <defs>
     <path id="C0_0_bd47afa33b" d="M 0 3 
C 0.795609 3 1.55874 2.683901 2.12132 2.12132 
C 2.683901 1.55874 3 0.795609 3 -0 
C 3 -0.795609 2.683901 -1.55874 2.12132 -2.12132 
C 1.55874 -2.683901 0.795609 -3 0 -3 
C -0.795609 -3 -1.55874 -2.683901 -2.12132 -2.12132 
C -2.683901 -1.55874 -3 -0.795609 -3 0 
C -3 0.795609 -2.683901 1.55874 -2.12132 2.12132 
C -1.55874 2.683901 -0.795609 3 0 3 
z
"/>
    </defs>
    <g clip-path="url(#pee13a77e52)">
     <use xlink:href="#C0_0_bd47afa33b" x="349.627222" y="66.782427" style="fill: #f08080"/>
    </g>
    <g clip-path="url(#pee13a77e52)">
     <use xlink:href="#C0_0_bd47afa33b" x="130.402868" y="76.677059" style="fill: #6495ed"/>
    </g>
    <g clip-path="url(#pee13a77e52)">
     <use xlink:href="#C0_0_bd47afa33b" x="385.071478" y="272.551752" style="fill: #6495ed"/>
    </g>
    <g clip-path="url(#pee13a77e52)">
     <use xlink:href="#C0_0_bd47afa33b" x="102.161747" y="266.837247" style="fill: #6495ed"/>
    </g>
    <g clip-path="url(#pee13a77e52)">
     <use xlink:href="#C0_0_bd47afa33b" x="359.132844" y="62.318667" style="fill: #f08080"/>
    </g>
    <g clip-path="url(#pee13a77e52)">
     <use xlink:href="#C0_0_bd47afa33b" x="86.798932" y="281.520378" style="fill: #6495ed"/>
    </g>
    <g clip-path="url(#pee13a77e52)">
     <use xlink:href="#C0_0_bd47afa33b" x="346.922645" y="288.69028" style="fill: #6495ed"/>
    </g>
    <g clip-path="url(#pee13a77e52)">
     <use xlink:href="#C0_0_bd47afa33b" x="384.732178" y="83.212062" style="fill: #f08080"/>
    </g>
    <g clip-path="url(#pee13a77e52)">
     <use xlink:href="#C0_0_bd47afa33b" x="397.769941" y="65.658767" style="fill: #f08080"/>
    </g>
    <g clip-path="url(#pee13a77e52)">
     <use xlink:href="#C0_0_bd47afa33b" x="385.056579" y="275.53944" style="fill: #6495ed"/>
    </g>
    <g clip-path="url(#pee13a77e52)">
     <use xlink:href="#C0_0_bd47afa33b" x="384.387654" y="57.611029" style="fill: #f08080"/>
    </g>
    <g clip-path="url(#pee13a77e52)">
     <use xlink:href="#C0_0_bd47afa33b" x="356.196623" y="294.407833" style="fill: #6495ed"/>
    </g>
    <g clip-path="url(#pee13a77e52)">
     <use xlink:href="#C0_0_bd47afa33b" x="98.286965" y="273.849781" style="fill: #6495ed"/>
    </g>
    <g clip-path="url(#pee13a77e52)">
     <use xlink:href="#C0_0_bd47afa33b" x="397.836394" y="188.67446" style="fill: #6495ed"/>
    </g>
    <g clip-path="url(#pee13a77e52)">
     <use xlink:href="#C0_0_bd47afa33b" x="373.022571" y="271.72801" style="fill: #6495ed"/>
    </g>
    <g clip-path="url(#pee13a77e52)">
     <use xlink:href="#C0_0_bd47afa33b" x="348.950503" y="245.963323" style="fill: #6495ed"/>
    </g>
    <g clip-path="url(#pee13a77e52)">
     <use xlink:href="#C0_0_bd47afa33b" x="366.864951" y="273.088978" style="fill: #6495ed"/>
    </g>
    <g clip-path="url(#pee13a77e52)">
     <use xlink:href="#C0_0_bd47afa33b" x="381.338166" y="55.795214" style="fill: #f08080"/>
    </g>
    <g clip-path="url(#pee13a77e52)">
     <use xlink:href="#C0_0_bd47afa33b" x="361.959104" y="70.588477" style="fill: #f08080"/>
    </g>
    <g clip-path="url(#pee13a77e52)">
     <use xlink:href="#C0_0_bd47afa33b" x="376.624231" y="74.603375" style="fill: #f08080"/>
    </g>
    <g clip-path="url(#pee13a77e52)">
     <use xlink:href="#C0_0_bd47afa33b" x="361.571676" y="74.462909" style="fill: #f08080"/>
    </g>
    <g clip-path="url(#pee13a77e52)">
     <use xlink:href="#C0_0_bd47afa33b" x="376.801248" y="277.798715" style="fill: #6495ed"/>
    </g>
    <g clip-path="url(#pee13a77e52)">
     <use xlink:href="#C0_0_bd47afa33b" x="114.790147" y="243.96602" style="fill: #6495ed"/>
    </g>
    <g clip-path="url(#pee13a77e52)">
     <use xlink:href="#C0_0_bd47afa33b" x="91.734042" y="91.139677" style="fill: #6495ed"/>
    </g>
    <g clip-path="url(#pee13a77e52)">
     <use xlink:href="#C0_0_bd47afa33b" x="366.925734" y="67.701837" style="fill: #f08080"/>
    </g>
    <g clip-path="url(#pee13a77e52)">
     <use xlink:href="#C0_0_bd47afa33b" x="114.940045" y="276.424557" style="fill: #6495ed"/>
    </g>
    <g clip-path="url(#pee13a77e52)">
     <use xlink:href="#C0_0_bd47afa33b" x="364.069383" y="101.567605" style="fill: #f08080"/>
    </g>
    <g clip-path="url(#pee13a77e52)">
     <use xlink:href="#C0_0_bd47afa33b" x="80.033007" y="65.172578" style="fill: #6495ed"/>
    </g>
    <g clip-path="url(#pee13a77e52)">
     <use xlink:href="#C0_0_bd47afa33b" x="372.898554" y="62.070029" style="fill: #f08080"/>
    </g>
    <g clip-path="url(#pee13a77e52)">
     <use xlink:href="#C0_0_bd47afa33b" x="90.627656" y="64.540168" style="fill: #6495ed"/>
    </g>
    <g clip-path="url(#pee13a77e52)">
     <use xlink:href="#C0_0_bd47afa33b" x="78.545142" y="277.823419" style="fill: #6495ed"/>
    </g>
    <g clip-path="url(#pee13a77e52)">
     <use xlink:href="#C0_0_bd47afa33b" x="389.97792" y="272.772941" style="fill: #6495ed"/>
    </g>
    <g clip-path="url(#pee13a77e52)">
     <use xlink:href="#C0_0_bd47afa33b" x="91.363446" y="64.88491" style="fill: #6495ed"/>
    </g>
    <g clip-path="url(#pee13a77e52)">
     <use xlink:href="#C0_0_bd47afa33b" x="105.106057" y="269.921329" style="fill: #6495ed"/>
    </g>
    <g clip-path="url(#pee13a77e52)">
     <use xlink:href="#C0_0_bd47afa33b" x="77.083065" y="75.307026" style="fill: #6495ed"/>
    </g>
    <g clip-path="url(#pee13a77e52)">
     <use xlink:href="#C0_0_bd47afa33b" x="108.717995" y="53.568" style="fill: #6495ed"/>
    </g>
    <g clip-path="url(#pee13a77e52)">
     <use xlink:href="#C0_0_bd47afa33b" x="366.295352" y="56.126765" style="fill: #f08080"/>
    </g>
    <g clip-path="url(#pee13a77e52)">
     <use xlink:href="#C0_0_bd47afa33b" x="389.923896" y="54.775901" style="fill: #f08080"/>
    </g>
    <g clip-path="url(#pee13a77e52)">
     <use xlink:href="#C0_0_bd47afa33b" x="357.762858" y="71.753432" style="fill: #f08080"/>
    </g>
    <g clip-path="url(#pee13a77e52)">
     <use xlink:href="#C0_0_bd47afa33b" x="378.050418" y="282.794403" style="fill: #6495ed"/>
    </g>
    <g clip-path="url(#pee13a77e52)">
     <use xlink:href="#C0_0_bd47afa33b" x="385.002287" y="273.39608" style="fill: #6495ed"/>
    </g>
    <g clip-path="url(#pee13a77e52)">
     <use xlink:href="#C0_0_bd47afa33b" x="371.956259" y="55.681949" style="fill: #f08080"/>
    </g>
    <g clip-path="url(#pee13a77e52)">
     <use xlink:href="#C0_0_bd47afa33b" x="350.664408" y="264.972308" style="fill: #6495ed"/>
    </g>
    <g clip-path="url(#pee13a77e52)">
     <use xlink:href="#C0_0_bd47afa33b" x="350.407818" y="79.611051" style="fill: #f08080"/>
    </g>
    <g clip-path="url(#pee13a77e52)">
     <use xlink:href="#C0_0_bd47afa33b" x="366.283502" y="84.777271" style="fill: #f08080"/>
    </g>
    <g clip-path="url(#pee13a77e52)">
     <use xlink:href="#C0_0_bd47afa33b" x="384.984715" y="92.440283" style="fill: #f08080"/>
    </g>
    <g clip-path="url(#pee13a77e52)">
     <use xlink:href="#C0_0_bd47afa33b" x="369.104829" y="294.623059" style="fill: #6495ed"/>
    </g>
    <g clip-path="url(#pee13a77e52)">
     <use xlink:href="#C0_0_bd47afa33b" x="113.501404" y="254.375904" style="fill: #6495ed"/>
    </g>
    <g clip-path="url(#pee13a77e52)">
     <use xlink:href="#C0_0_bd47afa33b" x="369.492237" y="288.648949" style="fill: #6495ed"/>
    </g>
    <g clip-path="url(#pee13a77e52)">
     <use xlink:href="#C0_0_bd47afa33b" x="360.726667" y="280.733699" style="fill: #6495ed"/>
    </g>
    <g clip-path="url(#pee13a77e52)">
     <use xlink:href="#C0_0_bd47afa33b" x="397.035593" y="56.130586" style="fill: #f08080"/>
    </g>
    <g clip-path="url(#pee13a77e52)">
     <use xlink:href="#C0_0_bd47afa33b" x="345.443264" y="263.129161" style="fill: #6495ed"/>
    </g>
    <g clip-path="url(#pee13a77e52)">
     <use xlink:href="#C0_0_bd47afa33b" x="103.691586" y="272.545956" style="fill: #6495ed"/>
    </g>
    <g clip-path="url(#pee13a77e52)">
     <use xlink:href="#C0_0_bd47afa33b" x="74.286475" y="282.716334" style="fill: #6495ed"/>
    </g>
    <g clip-path="url(#pee13a77e52)">
     <use xlink:href="#C0_0_bd47afa33b" x="110.084856" y="292.522107" style="fill: #6495ed"/>
    </g>
    <g clip-path="url(#pee13a77e52)">
     <use xlink:href="#C0_0_bd47afa33b" x="94.930922" y="281.395624" style="fill: #6495ed"/>
    </g>
    <g clip-path="url(#pee13a77e52)">
     <use xlink:href="#C0_0_bd47afa33b" x="101.147817" y="288.443794" style="fill: #6495ed"/>
    </g>
    <g clip-path="url(#pee13a77e52)">
     <use xlink:href="#C0_0_bd47afa33b" x="361.624006" y="88.312601" style="fill: #f08080"/>
    </g>
    <g clip-path="url(#pee13a77e52)">
     <use xlink:href="#C0_0_bd47afa33b" x="195.031873" y="276.309377" style="fill: #6495ed"/>
    </g>
    <g clip-path="url(#pee13a77e52)">
     <use xlink:href="#C0_0_bd47afa33b" x="363.197436" y="93.303016" style="fill: #f08080"/>
    </g>
    <g clip-path="url(#pee13a77e52)">
     <use xlink:href="#C0_0_bd47afa33b" x="75.371587" y="290.192719" style="fill: #6495ed"/>
    </g>
    <g clip-path="url(#pee13a77e52)">
     <use xlink:href="#C0_0_bd47afa33b" x="357.347188" y="288.310183" style="fill: #6495ed"/>
    </g>
    <g clip-path="url(#pee13a77e52)">
     <use xlink:href="#C0_0_bd47afa33b" x="391.978511" y="282.810835" style="fill: #6495ed"/>
    </g>
    <g clip-path="url(#pee13a77e52)">
     <use xlink:href="#C0_0_bd47afa33b" x="102.229721" y="290.304782" style="fill: #6495ed"/>
    </g>
    <g clip-path="url(#pee13a77e52)">
     <use xlink:href="#C0_0_bd47afa33b" x="387.630273" y="76.064871" style="fill: #f08080"/>
    </g>
    <g clip-path="url(#pee13a77e52)">
     <use xlink:href="#C0_0_bd47afa33b" x="374.846939" y="286.550383" style="fill: #6495ed"/>
    </g>
    <g clip-path="url(#pee13a77e52)">
     <use xlink:href="#C0_0_bd47afa33b" x="100.423774" y="74.631374" style="fill: #6495ed"/>
    </g>
    <g clip-path="url(#pee13a77e52)">
     <use xlink:href="#C0_0_bd47afa33b" x="76.223656" y="282.612838" style="fill: #6495ed"/>
    </g>
    <g clip-path="url(#pee13a77e52)">
     <use xlink:href="#C0_0_bd47afa33b" x="86.218484" y="67.358124" style="fill: #6495ed"/>
    </g>
    <g clip-path="url(#pee13a77e52)">
     <use xlink:href="#C0_0_bd47afa33b" x="341.252765" y="271.969286" style="fill: #6495ed"/>
    </g>
    <g clip-path="url(#pee13a77e52)">
     <use xlink:href="#C0_0_bd47afa33b" x="369.428856" y="266.808637" style="fill: #6495ed"/>
    </g>
    <g clip-path="url(#pee13a77e52)">
     <use xlink:href="#C0_0_bd47afa33b" x="181.72991" y="256.378313" style="fill: #6495ed"/>
    </g>
    <g clip-path="url(#pee13a77e52)">
     <use xlink:href="#C0_0_bd47afa33b" x="355.310641" y="259.924927" style="fill: #6495ed"/>
    </g>
    <g clip-path="url(#pee13a77e52)">
     <use xlink:href="#C0_0_bd47afa33b" x="83.818256" y="87.949515" style="fill: #6495ed"/>
    </g>
    <g clip-path="url(#pee13a77e52)">
     <use xlink:href="#C0_0_bd47afa33b" x="100.902123" y="66.245844" style="fill: #6495ed"/>
    </g>
    <g clip-path="url(#pee13a77e52)">
     <use xlink:href="#C0_0_bd47afa33b" x="75.475799" y="258.817996" style="fill: #6495ed"/>
    </g>
    <g clip-path="url(#pee13a77e52)">
     <use xlink:href="#C0_0_bd47afa33b" x="73.832727" y="274.743749" style="fill: #6495ed"/>
    </g>
    <g clip-path="url(#pee13a77e52)">
     <use xlink:href="#C0_0_bd47afa33b" x="378.619514" y="78.474181" style="fill: #f08080"/>
    </g>
    <g clip-path="url(#pee13a77e52)">
     <use xlink:href="#C0_0_bd47afa33b" x="351.092866" y="277.321652" style="fill: #6495ed"/>
    </g>
    <g clip-path="url(#pee13a77e52)">
     <use xlink:href="#C0_0_bd47afa33b" x="102.394167" y="60.931005" style="fill: #6495ed"/>
    </g>
    <g clip-path="url(#pee13a77e52)">
     <use xlink:href="#C0_0_bd47afa33b" x="398.487273" y="215.839992" style="fill: #6495ed"/>
    </g>
    <g clip-path="url(#pee13a77e52)">
     <use xlink:href="#C0_0_bd47afa33b" x="113.214769" y="263.687096" style="fill: #6495ed"/>
    </g>
    <g clip-path="url(#pee13a77e52)">
     <use xlink:href="#C0_0_bd47afa33b" x="394.314451" y="276.661992" style="fill: #6495ed"/>
    </g>
    <g clip-path="url(#pee13a77e52)">
     <use xlink:href="#C0_0_bd47afa33b" x="371.278863" y="277.027762" style="fill: #6495ed"/>
    </g>
    <g clip-path="url(#pee13a77e52)">
     <use xlink:href="#C0_0_bd47afa33b" x="389.844408" y="274.30607" style="fill: #6495ed"/>
    </g>
    <g clip-path="url(#pee13a77e52)">
     <use xlink:href="#C0_0_bd47afa33b" x="348.555178" y="260.439382" style="fill: #6495ed"/>
    </g>
    <g clip-path="url(#pee13a77e52)">
     <use xlink:href="#C0_0_bd47afa33b" x="356.454215" y="293.615554" style="fill: #6495ed"/>
    </g>
    <g clip-path="url(#pee13a77e52)">
     <use xlink:href="#C0_0_bd47afa33b" x="385.506483" y="263.141201" style="fill: #6495ed"/>
    </g>
    <g clip-path="url(#pee13a77e52)">
     <use xlink:href="#C0_0_bd47afa33b" x="77.935628" y="66.105406" style="fill: #6495ed"/>
    </g>
    <g clip-path="url(#pee13a77e52)">
     <use xlink:href="#C0_0_bd47afa33b" x="94.520569" y="69.868852" style="fill: #6495ed"/>
    </g>
    <g clip-path="url(#pee13a77e52)">
     <use xlink:href="#C0_0_bd47afa33b" x="350.807683" y="77.874258" style="fill: #f08080"/>
    </g>
    <g clip-path="url(#pee13a77e52)">
     <use xlink:href="#C0_0_bd47afa33b" x="397.730939" y="271.74677" style="fill: #6495ed"/>
    </g>
    <g clip-path="url(#pee13a77e52)">
     <use xlink:href="#C0_0_bd47afa33b" x="343.970772" y="295.488" style="fill: #6495ed"/>
    </g>
    <g clip-path="url(#pee13a77e52)">
     <use xlink:href="#C0_0_bd47afa33b" x="386.50175" y="281.573896" style="fill: #6495ed"/>
    </g>
    <g clip-path="url(#pee13a77e52)">
     <use xlink:href="#C0_0_bd47afa33b" x="121.475997" y="275.91353" style="fill: #6495ed"/>
    </g>
    <g clip-path="url(#pee13a77e52)">
     <use xlink:href="#C0_0_bd47afa33b" x="99.745515" y="259.224611" style="fill: #6495ed"/>
    </g>
    <g clip-path="url(#pee13a77e52)">
     <use xlink:href="#C0_0_bd47afa33b" x="344.581487" y="68.28949" style="fill: #f08080"/>
    </g>
    <g clip-path="url(#pee13a77e52)">
     <use xlink:href="#C0_0_bd47afa33b" x="357.987601" y="81.620405" style="fill: #f08080"/>
    </g>
    <g clip-path="url(#pee13a77e52)">
     <use xlink:href="#C0_0_bd47afa33b" x="171.053007" y="57.960699" style="fill: #6495ed"/>
    </g>
    <g clip-path="url(#pee13a77e52)">
     <use xlink:href="#C0_0_bd47afa33b" x="373.632782" y="73.567401" style="fill: #f08080"/>
    </g>
    <g clip-path="url(#pee13a77e52)">
     <use xlink:href="#C0_0_bd47afa33b" x="82.890436" y="57.36617" style="fill: #6495ed"/>
    </g>
    <g clip-path="url(#pee13a77e52)">
     <use xlink:href="#C0_0_bd47afa33b" x="115.349069" y="265.692402" style="fill: #6495ed"/>
    </g>
    <g clip-path="url(#pee13a77e52)">
     <use xlink:href="#C0_0_bd47afa33b" x="89.026709" y="266.671347" style="fill: #6495ed"/>
    </g>
    <g clip-path="url(#pee13a77e52)">
     <use xlink:href="#C0_0_bd47afa33b" x="341.831397" y="89.972632" style="fill: #f08080"/>
    </g>
    <g clip-path="url(#pee13a77e52)">
     <use xlink:href="#C0_0_bd47afa33b" x="364.619487" y="83.606476" style="fill: #f08080"/>
    </g>
    <g clip-path="url(#pee13a77e52)">
     <use xlink:href="#C0_0_bd47afa33b" x="110.93883" y="293.977333" style="fill: #6495ed"/>
    </g>
    <g clip-path="url(#pee13a77e52)">
     <use xlink:href="#C0_0_bd47afa33b" x="382.364565" y="64.019722" style="fill: #f08080"/>
    </g>
    <g clip-path="url(#pee13a77e52)">
     <use xlink:href="#C0_0_bd47afa33b" x="108.340182" y="276.758962" style="fill: #6495ed"/>
    </g>
    <g clip-path="url(#pee13a77e52)">
     <use xlink:href="#C0_0_bd47afa33b" x="87.801826" y="262.779521" style="fill: #6495ed"/>
    </g>
    <g clip-path="url(#pee13a77e52)">
     <use xlink:href="#C0_0_bd47afa33b" x="349.260353" y="67.752801" style="fill: #f08080"/>
    </g>
    <g clip-path="url(#pee13a77e52)">
     <use xlink:href="#C0_0_bd47afa33b" x="378.177929" y="88.098489" style="fill: #f08080"/>
    </g>
    <g clip-path="url(#pee13a77e52)">
     <use xlink:href="#C0_0_bd47afa33b" x="362.697056" y="290.683125" style="fill: #6495ed"/>
    </g>
    <g clip-path="url(#pee13a77e52)">
     <use xlink:href="#C0_0_bd47afa33b" x="115.195654" y="114.810615" style="fill: #6495ed"/>
    </g>
    <g clip-path="url(#pee13a77e52)">
     <use xlink:href="#C0_0_bd47afa33b" x="110.843308" y="269.648078" style="fill: #6495ed"/>
    </g>
    <g clip-path="url(#pee13a77e52)">
     <use xlink:href="#C0_0_bd47afa33b" x="109.356457" y="282.537664" style="fill: #6495ed"/>
    </g>
    <g clip-path="url(#pee13a77e52)">
     <use xlink:href="#C0_0_bd47afa33b" x="94.417375" y="273.107131" style="fill: #6495ed"/>
    </g>
    <g clip-path="url(#pee13a77e52)">
     <use xlink:href="#C0_0_bd47afa33b" x="120.372955" y="81.281312" style="fill: #6495ed"/>
    </g>
    <g clip-path="url(#pee13a77e52)">
     <use xlink:href="#C0_0_bd47afa33b" x="368.607858" y="86.601433" style="fill: #f08080"/>
    </g>
    <g clip-path="url(#pee13a77e52)">
     <use xlink:href="#C0_0_bd47afa33b" x="374.869812" y="282.689169" style="fill: #6495ed"/>
    </g>
    <g clip-path="url(#pee13a77e52)">
     <use xlink:href="#C0_0_bd47afa33b" x="98.882964" y="54.316813" style="fill: #6495ed"/>
    </g>
    <g clip-path="url(#pee13a77e52)">
     <use xlink:href="#C0_0_bd47afa33b" x="356.113965" y="73.657446" style="fill: #f08080"/>
    </g>
    <g clip-path="url(#pee13a77e52)">
     <use xlink:href="#C0_0_bd47afa33b" x="352.617242" y="62.1963" style="fill: #f08080"/>
    </g>
    <g clip-path="url(#pee13a77e52)">
     <use xlink:href="#C0_0_bd47afa33b" x="132.069415" y="272.50947" style="fill: #6495ed"/>
    </g>
    <g clip-path="url(#pee13a77e52)">
     <use xlink:href="#C0_0_bd47afa33b" x="98.568593" y="271.108747" style="fill: #6495ed"/>
    </g>
    <g clip-path="url(#pee13a77e52)">
     <use xlink:href="#C0_0_bd47afa33b" x="374.073401" y="263.900155" style="fill: #6495ed"/>
    </g>
    <g clip-path="url(#pee13a77e52)">
     <use xlink:href="#C0_0_bd47afa33b" x="112.492584" y="265.600723" style="fill: #6495ed"/>
    </g>
    <g clip-path="url(#pee13a77e52)">
     <use xlink:href="#C0_0_bd47afa33b" x="98.685967" y="57.736911" style="fill: #6495ed"/>
    </g>
    <g clip-path="url(#pee13a77e52)">
     <use xlink:href="#C0_0_bd47afa33b" x="88.686104" y="271.078859" style="fill: #6495ed"/>
    </g>
    <g clip-path="url(#pee13a77e52)">
     <use xlink:href="#C0_0_bd47afa33b" x="88.320436" y="264.923555" style="fill: #6495ed"/>
    </g>
    <g clip-path="url(#pee13a77e52)">
     <use xlink:href="#C0_0_bd47afa33b" x="358.463191" y="263.506935" style="fill: #6495ed"/>
    </g>
    <g clip-path="url(#pee13a77e52)">
     <use xlink:href="#C0_0_bd47afa33b" x="374.954507" y="291.603991" style="fill: #6495ed"/>
    </g>
    <g clip-path="url(#pee13a77e52)">
     <use xlink:href="#C0_0_bd47afa33b" x="389.942756" y="72.499714" style="fill: #f08080"/>
    </g>
    <g clip-path="url(#pee13a77e52)">
     <use xlink:href="#C0_0_bd47afa33b" x="390.827496" y="57.877723" style="fill: #f08080"/>
    </g>
    <g clip-path="url(#pee13a77e52)">
     <use xlink:href="#C0_0_bd47afa33b" x="336.000146" y="75.114327" style="fill: #f08080"/>
    </g>
    <g clip-path="url(#pee13a77e52)">
     <use xlink:href="#C0_0_bd47afa33b" x="397.579451" y="68.680768" style="fill: #f08080"/>
    </g>
    <g clip-path="url(#pee13a77e52)">
     <use xlink:href="#C0_0_bd47afa33b" x="77.370307" y="77.270695" style="fill: #6495ed"/>
    </g>
    <g clip-path="url(#pee13a77e52)">
     <use xlink:href="#C0_0_bd47afa33b" x="109.80818" y="58.702234" style="fill: #6495ed"/>
    </g>
    <g clip-path="url(#pee13a77e52)">
     <use xlink:href="#C0_0_bd47afa33b" x="201.786998" y="72.345142" style="fill: #6495ed"/>
    </g>
    <g clip-path="url(#pee13a77e52)">
     <use xlink:href="#C0_0_bd47afa33b" x="394.668112" y="266.606058" style="fill: #6495ed"/>
    </g>
    <g clip-path="url(#pee13a77e52)">
     <use xlink:href="#C0_0_bd47afa33b" x="349.226" y="261.114423" style="fill: #6495ed"/>
    </g>
    <g clip-path="url(#pee13a77e52)">
     <use xlink:href="#C0_0_bd47afa33b" x="351.103796" y="91.800765" style="fill: #f08080"/>
    </g>
    <g clip-path="url(#pee13a77e52)">
     <use xlink:href="#C0_0_bd47afa33b" x="84.225572" y="60.326041" style="fill: #6495ed"/>
    </g>
    <g clip-path="url(#pee13a77e52)">
     <use xlink:href="#C0_0_bd47afa33b" x="79.906096" y="75.253153" style="fill: #6495ed"/>
    </g>
    <g clip-path="url(#pee13a77e52)">
     <use xlink:href="#C0_0_bd47afa33b" x="117.685255" y="76.107335" style="fill: #6495ed"/>
    </g>
    <g clip-path="url(#pee13a77e52)">
     <use xlink:href="#C0_0_bd47afa33b" x="361.56336" y="77.376141" style="fill: #f08080"/>
    </g>
    <g clip-path="url(#pee13a77e52)">
     <use xlink:href="#C0_0_bd47afa33b" x="378.315921" y="267.310683" style="fill: #6495ed"/>
    </g>
    <g clip-path="url(#pee13a77e52)">
     <use xlink:href="#C0_0_bd47afa33b" x="113.570957" y="86.505138" style="fill: #6495ed"/>
    </g>
    <g clip-path="url(#pee13a77e52)">
     <use xlink:href="#C0_0_bd47afa33b" x="121.688111" y="262.222795" style="fill: #6495ed"/>
    </g>
    <g clip-path="url(#pee13a77e52)">
     <use xlink:href="#C0_0_bd47afa33b" x="391.770541" y="82.443147" style="fill: #f08080"/>
    </g>
    <g clip-path="url(#pee13a77e52)">
     <use xlink:href="#C0_0_bd47afa33b" x="88.374982" y="289.073606" style="fill: #6495ed"/>
    </g>
   </g>
   <g id="matplotlib.axis_1">
    <g id="xtick_1">
     <g id="line2d_1">
      <defs>
       <path id="md39e1597b5" d="M 0 0 
L 0 3.5 
" style="stroke: #000000; stroke-width: 0.8"/>
      </defs>
      <g>
       <use xlink:href="#md39e1597b5" x="73.806431" y="307.584" style="stroke: #000000; stroke-width: 0.8"/>
      </g>
     </g>
    </g>
    <g id="xtick_2">
     <g id="line2d_2">
      <g>
       <use xlink:href="#md39e1597b5" x="127.985101" y="307.584" style="stroke: #000000; stroke-width: 0.8"/>
      </g>
     </g>
    </g>
    <g id="xtick_3">
     <g id="line2d_3">
      <g>
       <use xlink:href="#md39e1597b5" x="182.163772" y="307.584" style="stroke: #000000; stroke-width: 0.8"/>
      </g>
     </g>
    </g>
    <g id="xtick_4">
     <g id="line2d_4">
      <g>
       <use xlink:href="#md39e1597b5" x="236.342442" y="307.584" style="stroke: #000000; stroke-width: 0.8"/>
      </g>
     </g>
    </g>
    <g id="xtick_5">
     <g id="line2d_5">
      <g>
       <use xlink:href="#md39e1597b5" x="290.521113" y="307.584" style="stroke: #000000; stroke-width: 0.8"/>
      </g>
     </g>
    </g>
    <g id="xtick_6">
     <g id="line2d_6">
      <g>
       <use xlink:href="#md39e1597b5" x="344.699783" y="307.584" style="stroke: #000000; stroke-width: 0.8"/>
      </g>
     </g>
    </g>
    <g id="xtick_7">
     <g id="line2d_7">
      <g>
       <use xlink:href="#md39e1597b5" x="398.878454" y="307.584" style="stroke: #000000; stroke-width: 0.8"/>
      </g>
     </g>
    </g>
    <g id="text_1">
     <!-- - -->
     <g transform="translate(234.356094 326.182437) scale(0.1 -0.1)">
      <defs>
       <path id="DejaVuSans-2d" d="M 313 2009 
L 1997 2009 
L 1997 1497 
L 313 1497 
L 313 2009 
z
" transform="scale(0.015625)"/>
      </defs>
      <use xlink:href="#DejaVuSans-2d"/>
     </g>
    </g>
   </g>
   <g id="matplotlib.axis_2">
    <g id="ytick_1">
     <g id="line2d_8">
      <defs>
       <path id="m12ee3f97e8" d="M 0 0 
L -3.5 0 
" style="stroke: #000000; stroke-width: 0.8"/>
      </defs>
      <g>
       <use xlink:href="#m12ee3f97e8" x="57.6" y="295.662107" style="stroke: #000000; stroke-width: 0.8"/>
      </g>
     </g>
    </g>
    <g id="ytick_2">
     <g id="line2d_9">
      <g>
       <use xlink:href="#m12ee3f97e8" x="57.6" y="255.312843" style="stroke: #000000; stroke-width: 0.8"/>
      </g>
     </g>
    </g>
    <g id="ytick_3">
     <g id="line2d_10">
      <g>
       <use xlink:href="#m12ee3f97e8" x="57.6" y="214.96358" style="stroke: #000000; stroke-width: 0.8"/>
      </g>
     </g>
    </g>
    <g id="ytick_4">
     <g id="line2d_11">
      <g>
       <use xlink:href="#m12ee3f97e8" x="57.6" y="174.614316" style="stroke: #000000; stroke-width: 0.8"/>
      </g>
     </g>
    </g>
    <g id="ytick_5">
     <g id="line2d_12">
      <g>
       <use xlink:href="#m12ee3f97e8" x="57.6" y="134.265052" style="stroke: #000000; stroke-width: 0.8"/>
      </g>
     </g>
    </g>
    <g id="ytick_6">
     <g id="line2d_13">
      <g>
       <use xlink:href="#m12ee3f97e8" x="57.6" y="93.915788" style="stroke: #000000; stroke-width: 0.8"/>
      </g>
     </g>
    </g>
    <g id="ytick_7">
     <g id="line2d_14">
      <g>
       <use xlink:href="#m12ee3f97e8" x="57.6" y="53.566524" style="stroke: #000000; stroke-width: 0.8"/>
      </g>
     </g>
    </g>
    <g id="text_2">
     <!-- - -->
     <g transform="translate(44.520313 176.331906) rotate(-90) scale(0.1 -0.1)">
      <use xlink:href="#DejaVuSans-2d"/>
     </g>
    </g>
   </g>
   <g id="line2d_15"/>
   <g id="line2d_16"/>
   <g id="patch_3">
    <path d="M 57.6 307.584 
L 57.6 41.472 
" style="fill: none; stroke: #000000; stroke-width: 0.8; stroke-linejoin: miter; stroke-linecap: square"/>
   </g>
   <g id="patch_4">
    <path d="M 414.72 307.584 
L 414.72 41.472 
" style="fill: none; stroke: #000000; stroke-width: 0.8; stroke-linejoin: miter; stroke-linecap: square"/>
   </g>
   <g id="patch_5">
    <path d="M 57.6 307.584 
L 414.72 307.584 
" style="fill: none; stroke: #000000; stroke-width: 0.8; stroke-linejoin: miter; stroke-linecap: square"/>
   </g>
   <g id="patch_6">
    <path d="M 57.6 41.472 
L 414.72 41.472 
" style="fill: none; stroke: #000000; stroke-width: 0.8; stroke-linejoin: miter; stroke-linecap: square"/>
   </g>
   <g id="legend_1">
    <g id="patch_7">
     <path d="M 64.6 198.045187 
L 115.415625 198.045187 
Q 117.415625 198.045187 117.415625 196.045187 
L 117.415625 153.010812 
Q 117.415625 151.010812 115.415625 151.010812 
L 64.6 151.010812 
Q 62.6 151.010812 62.6 153.010812 
L 62.6 196.045187 
Q 62.6 198.045187 64.6 198.045187 
z
" style="fill: #ffffff; opacity: 0.8; stroke: #cccccc; stroke-linejoin: miter"/>
    </g>
    <g id="text_3">
     <!-- species -->
     <g transform="translate(71.332812 162.60925) scale(0.1 -0.1)">
      <defs>
       <path id="DejaVuSans-73" d="M 2834 3397 
L 2834 2853 
Q 2591 2978 2328 3040 
Q 2066 3103 1784 3103 
Q 1356 3103 1142 2972 
Q 928 2841 928 2578 
Q 928 2378 1081 2264 
Q 1234 2150 1697 2047 
L 1894 2003 
Q 2506 1872 2764 1633 
Q 3022 1394 3022 966 
Q 3022 478 2636 193 
Q 2250 -91 1575 -91 
Q 1294 -91 989 -36 
Q 684 19 347 128 
L 347 722 
Q 666 556 975 473 
Q 1284 391 1588 391 
Q 1994 391 2212 530 
Q 2431 669 2431 922 
Q 2431 1156 2273 1281 
Q 2116 1406 1581 1522 
L 1381 1569 
Q 847 1681 609 1914 
Q 372 2147 372 2553 
Q 372 3047 722 3315 
Q 1072 3584 1716 3584 
Q 2034 3584 2315 3537 
Q 2597 3491 2834 3397 
z
" transform="scale(0.015625)"/>
       <path id="DejaVuSans-70" d="M 1159 525 
L 1159 -1331 
L 581 -1331 
L 581 3500 
L 1159 3500 
L 1159 2969 
Q 1341 3281 1617 3432 
Q 1894 3584 2278 3584 
Q 2916 3584 3314 3078 
Q 3713 2572 3713 1747 
Q 3713 922 3314 415 
Q 2916 -91 2278 -91 
Q 1894 -91 1617 61 
Q 1341 213 1159 525 
z
M 3116 1747 
Q 3116 2381 2855 2742 
Q 2594 3103 2138 3103 
Q 1681 3103 1420 2742 
Q 1159 2381 1159 1747 
Q 1159 1113 1420 752 
Q 1681 391 2138 391 
Q 2594 391 2855 752 
Q 3116 1113 3116 1747 
z
" transform="scale(0.015625)"/>
       <path id="DejaVuSans-65" d="M 3597 1894 
L 3597 1613 
L 953 1613 
Q 991 1019 1311 708 
Q 1631 397 2203 397 
Q 2534 397 2845 478 
Q 3156 559 3463 722 
L 3463 178 
Q 3153 47 2828 -22 
Q 2503 -91 2169 -91 
Q 1331 -91 842 396 
Q 353 884 353 1716 
Q 353 2575 817 3079 
Q 1281 3584 2069 3584 
Q 2775 3584 3186 3129 
Q 3597 2675 3597 1894 
z
M 3022 2063 
Q 3016 2534 2758 2815 
Q 2500 3097 2075 3097 
Q 1594 3097 1305 2825 
Q 1016 2553 972 2059 
L 3022 2063 
z
" transform="scale(0.015625)"/>
       <path id="DejaVuSans-63" d="M 3122 3366 
L 3122 2828 
Q 2878 2963 2633 3030 
Q 2388 3097 2138 3097 
Q 1578 3097 1268 2742 
Q 959 2388 959 1747 
Q 959 1106 1268 751 
Q 1578 397 2138 397 
Q 2388 397 2633 464 
Q 2878 531 3122 666 
L 3122 134 
Q 2881 22 2623 -34 
Q 2366 -91 2075 -91 
Q 1284 -91 818 406 
Q 353 903 353 1747 
Q 353 2603 823 3093 
Q 1294 3584 2113 3584 
Q 2378 3584 2631 3529 
Q 2884 3475 3122 3366 
z
" transform="scale(0.015625)"/>
       <path id="DejaVuSans-69" d="M 603 3500 
L 1178 3500 
L 1178 0 
L 603 0 
L 603 3500 
z
M 603 4863 
L 1178 4863 
L 1178 4134 
L 603 4134 
L 603 4863 
z
" transform="scale(0.015625)"/>
      </defs>
      <use xlink:href="#DejaVuSans-73"/>
      <use xlink:href="#DejaVuSans-70" x="52.099609"/>
      <use xlink:href="#DejaVuSans-65" x="115.576172"/>
      <use xlink:href="#DejaVuSans-63" x="177.099609"/>
      <use xlink:href="#DejaVuSans-69" x="232.080078"/>
      <use xlink:href="#DejaVuSans-65" x="259.863281"/>
      <use xlink:href="#DejaVuSans-73" x="321.386719"/>
     </g>
    </g>
    <g id="line2d_17">
     <defs>
      <path id="m9d733f2668" d="M 0 3 
C 0.795609 3 1.55874 2.683901 2.12132 2.12132 
C 2.683901 1.55874 3 0.795609 3 0 
C 3 -0.795609 2.683901 -1.55874 2.12132 -2.12132 
C 1.55874 -2.683901 0.795609 -3 0 -3 
C -0.795609 -3 -1.55874 -2.683901 -2.12132 -2.12132 
C -2.683901 -1.55874 -3 -0.795609 -3 0 
C -3 0.795609 -2.683901 1.55874 -2.12132 2.12132 
C -1.55874 2.683901 -0.795609 3 0 3 
z
"/>
     </defs>
     <g>
      <use xlink:href="#m9d733f2668" x="76.6" y="173.787375" style="fill: #f08080"/>
     </g>
    </g>
    <g id="text_4">
     <!-- dog -->
     <g transform="translate(94.6 177.287375) scale(0.1 -0.1)">
      <defs>
       <path id="DejaVuSans-64" d="M 2906 2969 
L 2906 4863 
L 3481 4863 
L 3481 0 
L 2906 0 
L 2906 525 
Q 2725 213 2448 61 
Q 2172 -91 1784 -91 
Q 1150 -91 751 415 
Q 353 922 353 1747 
Q 353 2572 751 3078 
Q 1150 3584 1784 3584 
Q 2172 3584 2448 3432 
Q 2725 3281 2906 2969 
z
M 947 1747 
Q 947 1113 1208 752 
Q 1469 391 1925 391 
Q 2381 391 2643 752 
Q 2906 1113 2906 1747 
Q 2906 2381 2643 2742 
Q 2381 3103 1925 3103 
Q 1469 3103 1208 2742 
Q 947 2381 947 1747 
z
" transform="scale(0.015625)"/>
       <path id="DejaVuSans-6f" d="M 1959 3097 
Q 1497 3097 1228 2736 
Q 959 2375 959 1747 
Q 959 1119 1226 758 
Q 1494 397 1959 397 
Q 2419 397 2687 759 
Q 2956 1122 2956 1747 
Q 2956 2369 2687 2733 
Q 2419 3097 1959 3097 
z
M 1959 3584 
Q 2709 3584 3137 3096 
Q 3566 2609 3566 1747 
Q 3566 888 3137 398 
Q 2709 -91 1959 -91 
Q 1206 -91 779 398 
Q 353 888 353 1747 
Q 353 2609 779 3096 
Q 1206 3584 1959 3584 
z
" transform="scale(0.015625)"/>
       <path id="DejaVuSans-67" d="M 2906 1791 
Q 2906 2416 2648 2759 
Q 2391 3103 1925 3103 
Q 1463 3103 1205 2759 
Q 947 2416 947 1791 
Q 947 1169 1205 825 
Q 1463 481 1925 481 
Q 2391 481 2648 825 
Q 2906 1169 2906 1791 
z
M 3481 434 
Q 3481 -459 3084 -895 
Q 2688 -1331 1869 -1331 
Q 1566 -1331 1297 -1286 
Q 1028 -1241 775 -1147 
L 775 -588 
Q 1028 -725 1275 -790 
Q 1522 -856 1778 -856 
Q 2344 -856 2625 -561 
Q 2906 -266 2906 331 
L 2906 616 
Q 2728 306 2450 153 
Q 2172 0 1784 0 
Q 1141 0 747 490 
Q 353 981 353 1791 
Q 353 2603 747 3093 
Q 1141 3584 1784 3584 
Q 2172 3584 2450 3431 
Q 2728 3278 2906 2969 
L 2906 3500 
L 3481 3500 
L 3481 434 
z
" transform="scale(0.015625)"/>
      </defs>
      <use xlink:href="#DejaVuSans-64"/>
      <use xlink:href="#DejaVuSans-6f" x="63.476562"/>
      <use xlink:href="#DejaVuSans-67" x="124.658203"/>
     </g>
    </g>
    <g id="line2d_18">
     <defs>
      <path id="m9da6d040bc" d="M 0 3 
C 0.795609 3 1.55874 2.683901 2.12132 2.12132 
C 2.683901 1.55874 3 0.795609 3 0 
C 3 -0.795609 2.683901 -1.55874 2.12132 -2.12132 
C 1.55874 -2.683901 0.795609 -3 0 -3 
C -0.795609 -3 -1.55874 -2.683901 -2.12132 -2.12132 
C -2.683901 -1.55874 -3 -0.795609 -3 0 
C -3 0.795609 -2.683901 1.55874 -2.12132 2.12132 
C -1.55874 2.683901 -0.795609 3 0 3 
z
"/>
     </defs>
     <g>
      <use xlink:href="#m9da6d040bc" x="76.6" y="188.4655" style="fill: #6495ed"/>
     </g>
    </g>
    <g id="text_5">
     <!-- cat -->
     <g transform="translate(94.6 191.9655) scale(0.1 -0.1)">
      <defs>
       <path id="DejaVuSans-61" d="M 2194 1759 
Q 1497 1759 1228 1600 
Q 959 1441 959 1056 
Q 959 750 1161 570 
Q 1363 391 1709 391 
Q 2188 391 2477 730 
Q 2766 1069 2766 1631 
L 2766 1759 
L 2194 1759 
z
M 3341 1997 
L 3341 0 
L 2766 0 
L 2766 531 
Q 2569 213 2275 61 
Q 1981 -91 1556 -91 
Q 1019 -91 701 211 
Q 384 513 384 1019 
Q 384 1609 779 1909 
Q 1175 2209 1959 2209 
L 2766 2209 
L 2766 2266 
Q 2766 2663 2505 2880 
Q 2244 3097 1772 3097 
Q 1472 3097 1187 3025 
Q 903 2953 641 2809 
L 641 3341 
Q 956 3463 1253 3523 
Q 1550 3584 1831 3584 
Q 2591 3584 2966 3190 
Q 3341 2797 3341 1997 
z
" transform="scale(0.015625)"/>
       <path id="DejaVuSans-74" d="M 1172 4494 
L 1172 3500 
L 2356 3500 
L 2356 3053 
L 1172 3053 
L 1172 1153 
Q 1172 725 1289 603 
Q 1406 481 1766 481 
L 2356 481 
L 2356 0 
L 1766 0 
Q 1100 0 847 248 
Q 594 497 594 1153 
L 594 3053 
L 172 3053 
L 172 3500 
L 594 3500 
L 594 4494 
L 1172 4494 
z
" transform="scale(0.015625)"/>
      </defs>
      <use xlink:href="#DejaVuSans-63"/>
      <use xlink:href="#DejaVuSans-61" x="54.980469"/>
      <use xlink:href="#DejaVuSans-74" x="116.259766"/>
     </g>
    </g>
   </g>
  </g>
 </g>
 <defs>
  <clipPath id="pee13a77e52">
   <rect x="57.6" y="41.472" width="357.12" height="266.112"/>
  </clipPath>
 </defs>
</svg>
