<?xml version="1.0" encoding="utf-8" standalone="no"?>
<!DOCTYPE svg PUBLIC "-//W3C//DTD SVG 1.1//EN"
  "http://www.w3.org/Graphics/SVG/1.1/DTD/svg11.dtd">
<svg xmlns:xlink="http://www.w3.org/1999/xlink" width="460.8pt" height="345.6pt" viewBox="0 0 460.8 345.6" xmlns="http://www.w3.org/2000/svg" version="1.1">
 <metadata>
  <rdf:RDF xmlns:dc="http://purl.org/dc/elements/1.1/" xmlns:cc="http://creativecommons.org/ns#" xmlns:rdf="http://www.w3.org/1999/02/22-rdf-syntax-ns#">
   <cc:Work>
    <dc:type rdf:resource="http://purl.org/dc/dcmitype/StillImage"/>
    <dc:date>2024-11-04T15:27:53.805170</dc:date>
    <dc:format>image/svg+xml</dc:format>
    <dc:creator>
     <cc:Agent>
      <dc:title>Matplotlib v3.9.2, https://matplotlib.org/</dc:title>
     </cc:Agent>
    </dc:creator>
   </cc:Work>
  </rdf:RDF>
 </metadata>
 <defs>
  <style type="text/css">*{stroke-linejoin: round; stroke-linecap: butt}</style>
 </defs>
 <g id="figure_1">
  <g id="patch_1">
   <path d="M 0 345.6 
L 460.8 345.6 
L 460.8 0 
L 0 0 
z
" style="fill: #ffffff"/>
  </g>
  <g id="axes_1">
   <g id="patch_2">
    <path d="M 57.6 307.584 
L 414.72 307.584 
L 414.72 41.472 
L 57.6 41.472 
z
" style="fill: #ffffff"/>
   </g>
   <g id="PathCollection_1">
    <defs>
     <path id="C0_0_3f923fd27b" d="M 0 3 
C 0.795609 3 1.55874 2.683901 2.12132 2.12132 
C 2.683901 1.55874 3 0.795609 3 -0 
C 3 -0.795609 2.683901 -1.55874 2.12132 -2.12132 
C 1.55874 -2.683901 0.795609 -3 0 -3 
C -0.795609 -3 -1.55874 -2.683901 -2.12132 -2.12132 
C -2.683901 -1.55874 -3 -0.795609 -3 0 
C -3 0.795609 -2.683901 1.55874 -2.12132 2.12132 
C -1.55874 2.683901 -0.795609 3 0 3 
z
"/>
    </defs>
    <g clip-path="url(#pa9a77a8bbc)">
     <use xlink:href="#C0_0_3f923fd27b" x="251.599249" y="102.40295" style="fill: #f08080"/>
    </g>
    <g clip-path="url(#pa9a77a8bbc)">
     <use xlink:href="#C0_0_3f923fd27b" x="230.431057" y="127.036136" style="fill: #6495ed"/>
    </g>
    <g clip-path="url(#pa9a77a8bbc)">
     <use xlink:href="#C0_0_3f923fd27b" x="358.136113" y="240.651373" style="fill: #6495ed"/>
    </g>
    <g clip-path="url(#pa9a77a8bbc)">
     <use xlink:href="#C0_0_3f923fd27b" x="159.038921" y="197.284098" style="fill: #6495ed"/>
    </g>
    <g clip-path="url(#pa9a77a8bbc)">
     <use xlink:href="#C0_0_3f923fd27b" x="280.119564" y="93.906199" style="fill: #f08080"/>
    </g>
    <g clip-path="url(#pa9a77a8bbc)">
     <use xlink:href="#C0_0_3f923fd27b" x="112.831639" y="231.79834" style="fill: #6495ed"/>
    </g>
    <g clip-path="url(#pa9a77a8bbc)">
     <use xlink:href="#C0_0_3f923fd27b" x="245.818774" y="270.101885" style="fill: #6495ed"/>
    </g>
    <g clip-path="url(#pa9a77a8bbc)">
     <use xlink:href="#C0_0_3f923fd27b" x="357.115588" y="162.702655" style="fill: #f08080"/>
    </g>
    <g clip-path="url(#pa9a77a8bbc)">
     <use xlink:href="#C0_0_3f923fd27b" x="396.329729" y="119.231933" style="fill: #f08080"/>
    </g>
    <g clip-path="url(#pa9a77a8bbc)">
     <use xlink:href="#C0_0_3f923fd27b" x="358.091299" y="248.964594" style="fill: #6495ed"/>
    </g>
    <g clip-path="url(#pa9a77a8bbc)">
     <use xlink:href="#C0_0_3f923fd27b" x="356.079352" y="91.272109" style="fill: #f08080"/>
    </g>
    <g clip-path="url(#pa9a77a8bbc)">
     <use xlink:href="#C0_0_3f923fd27b" x="271.288191" y="289.534916" style="fill: #6495ed"/>
    </g>
    <g clip-path="url(#pa9a77a8bbc)">
     <use xlink:href="#C0_0_3f923fd27b" x="147.384602" y="215.203834" style="fill: #6495ed"/>
    </g>
    <g clip-path="url(#pa9a77a8bbc)">
     <use xlink:href="#C0_0_3f923fd27b" x="396.529603" y="198.334424" style="fill: #6495ed"/>
    </g>
    <g clip-path="url(#pa9a77a8bbc)">
     <use xlink:href="#C0_0_3f923fd27b" x="321.896189" y="233.36024" style="fill: #6495ed"/>
    </g>
    <g clip-path="url(#pa9a77a8bbc)">
     <use xlink:href="#C0_0_3f923fd27b" x="249.716273" y="180.7006" style="fill: #6495ed"/>
    </g>
    <g clip-path="url(#pa9a77a8bbc)">
     <use xlink:href="#C0_0_3f923fd27b" x="303.375698" y="234.59602" style="fill: #6495ed"/>
    </g>
    <g clip-path="url(#pa9a77a8bbc)">
     <use xlink:href="#C0_0_3f923fd27b" x="346.907297" y="84.951063" style="fill: #f08080"/>
    </g>
    <g clip-path="url(#pa9a77a8bbc)">
     <use xlink:href="#C0_0_3f923fd27b" x="288.620207" y="118.106207" style="fill: #f08080"/>
    </g>
    <g clip-path="url(#pa9a77a8bbc)">
     <use xlink:href="#C0_0_3f923fd27b" x="332.729029" y="135.368408" style="fill: #f08080"/>
    </g>
    <g clip-path="url(#pa9a77a8bbc)">
     <use xlink:href="#C0_0_3f923fd27b" x="287.454927" y="128.734113" style="fill: #f08080"/>
    </g>
    <g clip-path="url(#pa9a77a8bbc)">
     <use xlink:href="#C0_0_3f923fd27b" x="333.261448" y="251.831725" style="fill: #6495ed"/>
    </g>
    <g clip-path="url(#pa9a77a8bbc)">
     <use xlink:href="#C0_0_3f923fd27b" x="197.021808" y="173.22956" style="fill: #6495ed"/>
    </g>
    <g clip-path="url(#pa9a77a8bbc)">
     <use xlink:href="#C0_0_3f923fd27b" x="127.675144" y="152.797631" style="fill: #6495ed"/>
    </g>
    <g clip-path="url(#pa9a77a8bbc)">
     <use xlink:href="#C0_0_3f923fd27b" x="303.558517" y="112.128125" style="fill: #f08080"/>
    </g>
    <g clip-path="url(#pa9a77a8bbc)">
     <use xlink:href="#C0_0_3f923fd27b" x="197.472662" y="229.280446" style="fill: #6495ed"/>
    </g>
    <g clip-path="url(#pa9a77a8bbc)">
     <use xlink:href="#C0_0_3f923fd27b" x="294.967367" y="180.732638" style="fill: #f08080"/>
    </g>
    <g clip-path="url(#pa9a77a8bbc)">
     <use xlink:href="#C0_0_3f923fd27b" x="92.481528" y="75.978389" style="fill: #6495ed"/>
    </g>
    <g clip-path="url(#pa9a77a8bbc)">
     <use xlink:href="#C0_0_3f923fd27b" x="321.523178" y="98.923281" style="fill: #f08080"/>
    </g>
    <g clip-path="url(#pa9a77a8bbc)">
     <use xlink:href="#C0_0_3f923fd27b" x="124.347428" y="78.611611" style="fill: #6495ed"/>
    </g>
    <g clip-path="url(#pa9a77a8bbc)">
     <use xlink:href="#C0_0_3f923fd27b" x="88.006423" y="218.08061" style="fill: #6495ed"/>
    </g>
    <g clip-path="url(#pa9a77a8bbc)">
     <use xlink:href="#C0_0_3f923fd27b" x="372.893392" y="243.302268" style="fill: #6495ed"/>
    </g>
    <g clip-path="url(#pa9a77a8bbc)">
     <use xlink:href="#C0_0_3f923fd27b" x="126.56049" y="79.876741" style="fill: #6495ed"/>
    </g>
    <g clip-path="url(#pa9a77a8bbc)">
     <use xlink:href="#C0_0_3f923fd27b" x="167.894626" y="207.093088" style="fill: #6495ed"/>
    </g>
    <g clip-path="url(#pa9a77a8bbc)">
     <use xlink:href="#C0_0_3f923fd27b" x="83.608882" y="102.974874" style="fill: #6495ed"/>
    </g>
    <g clip-path="url(#pa9a77a8bbc)">
     <use xlink:href="#C0_0_3f923fd27b" x="178.758381" y="55.562036" style="fill: #6495ed"/>
    </g>
    <g clip-path="url(#pa9a77a8bbc)">
     <use xlink:href="#C0_0_3f923fd27b" x="301.662494" y="79.635168" style="fill: #f08080"/>
    </g>
    <g clip-path="url(#pa9a77a8bbc)">
     <use xlink:href="#C0_0_3f923fd27b" x="372.730901" y="85.673717" style="fill: #f08080"/>
    </g>
    <g clip-path="url(#pa9a77a8bbc)">
     <use xlink:href="#C0_0_3f923fd27b" x="275.999009" y="119.609673" style="fill: #f08080"/>
    </g>
    <g clip-path="url(#pa9a77a8bbc)">
     <use xlink:href="#C0_0_3f923fd27b" x="337.018623" y="266.260627" style="fill: #6495ed"/>
    </g>
    <g clip-path="url(#pa9a77a8bbc)">
     <use xlink:href="#C0_0_3f923fd27b" x="357.928005" y="242.973759" style="fill: #6495ed"/>
    </g>
    <g clip-path="url(#pa9a77a8bbc)">
     <use xlink:href="#C0_0_3f923fd27b" x="318.689004" y="80.744456" style="fill: #f08080"/>
    </g>
    <g clip-path="url(#pa9a77a8bbc)">
     <use xlink:href="#C0_0_3f923fd27b" x="254.659466" y="205.276836" style="fill: #6495ed"/>
    </g>
    <g clip-path="url(#pa9a77a8bbc)">
     <use xlink:href="#C0_0_3f923fd27b" x="253.894135" y="138.441502" style="fill: #f08080"/>
    </g>
    <g clip-path="url(#pa9a77a8bbc)">
     <use xlink:href="#C0_0_3f923fd27b" x="301.626851" y="159.409353" style="fill: #f08080"/>
    </g>
    <g clip-path="url(#pa9a77a8bbc)">
     <use xlink:href="#C0_0_3f923fd27b" x="357.875152" y="186.522988" style="fill: #f08080"/>
    </g>
    <g clip-path="url(#pa9a77a8bbc)">
     <use xlink:href="#C0_0_3f923fd27b" x="310.112657" y="295.488" style="fill: #6495ed"/>
    </g>
    <g clip-path="url(#pa9a77a8bbc)">
     <use xlink:href="#C0_0_3f923fd27b" x="193.145611" y="174.518522" style="fill: #6495ed"/>
    </g>
    <g clip-path="url(#pa9a77a8bbc)">
     <use xlink:href="#C0_0_3f923fd27b" x="311.277877" y="279.013404" style="fill: #6495ed"/>
    </g>
    <g clip-path="url(#pa9a77a8bbc)">
     <use xlink:href="#C0_0_3f923fd27b" x="284.913363" y="253.337319" style="fill: #6495ed"/>
    </g>
    <g clip-path="url(#pa9a77a8bbc)">
     <use xlink:href="#C0_0_3f923fd27b" x="394.121004" y="92.395549" style="fill: #f08080"/>
    </g>
    <g clip-path="url(#pa9a77a8bbc)">
     <use xlink:href="#C0_0_3f923fd27b" x="244.468918" y="198.739237" style="fill: #6495ed"/>
    </g>
    <g clip-path="url(#pa9a77a8bbc)">
     <use xlink:href="#C0_0_3f923fd27b" x="163.640272" y="213.814861" style="fill: #6495ed"/>
    </g>
    <g clip-path="url(#pa9a77a8bbc)">
     <use xlink:href="#C0_0_3f923fd27b" x="75.19748" y="229.93892" style="fill: #6495ed"/>
    </g>
    <g clip-path="url(#pa9a77a8bbc)">
     <use xlink:href="#C0_0_3f923fd27b" x="182.869537" y="272.09134" style="fill: #6495ed"/>
    </g>
    <g clip-path="url(#pa9a77a8bbc)">
     <use xlink:href="#C0_0_3f923fd27b" x="137.290515" y="234.823757" style="fill: #6495ed"/>
    </g>
    <g clip-path="url(#pa9a77a8bbc)">
     <use xlink:href="#C0_0_3f923fd27b" x="155.98929" y="257.028325" style="fill: #6495ed"/>
    </g>
    <g clip-path="url(#pa9a77a8bbc)">
     <use xlink:href="#C0_0_3f923fd27b" x="287.61232" y="167.320718" style="fill: #f08080"/>
    </g>
    <g clip-path="url(#pa9a77a8bbc)">
     <use xlink:href="#C0_0_3f923fd27b" x="235.41527" y="234.191886" style="fill: #6495ed"/>
    </g>
    <g clip-path="url(#pa9a77a8bbc)">
     <use xlink:href="#C0_0_3f923fd27b" x="292.344783" y="178.187424" style="fill: #f08080"/>
    </g>
    <g clip-path="url(#pa9a77a8bbc)">
     <use xlink:href="#C0_0_3f923fd27b" x="78.46121" y="251.207431" style="fill: #6495ed"/>
    </g>
    <g clip-path="url(#pa9a77a8bbc)">
     <use xlink:href="#C0_0_3f923fd27b" x="274.748784" y="273.032841" style="fill: #6495ed"/>
    </g>
    <g clip-path="url(#pa9a77a8bbc)">
     <use xlink:href="#C0_0_3f923fd27b" x="378.910638" y="272.083162" style="fill: #6495ed"/>
    </g>
    <g clip-path="url(#pa9a77a8bbc)">
     <use xlink:href="#C0_0_3f923fd27b" x="159.24337" y="262.659086" style="fill: #6495ed"/>
    </g>
    <g clip-path="url(#pa9a77a8bbc)">
     <use xlink:href="#C0_0_3f923fd27b" x="365.83229" y="144.00287" style="fill: #f08080"/>
    </g>
    <g clip-path="url(#pa9a77a8bbc)">
     <use xlink:href="#C0_0_3f923fd27b" x="327.383404" y="275.390719" style="fill: #6495ed"/>
    </g>
    <g clip-path="url(#pa9a77a8bbc)">
     <use xlink:href="#C0_0_3f923fd27b" x="153.81156" y="110.77421" style="fill: #6495ed"/>
    </g>
    <g clip-path="url(#pa9a77a8bbc)">
     <use xlink:href="#C0_0_3f923fd27b" x="81.024007" y="230.454188" style="fill: #6495ed"/>
    </g>
    <g clip-path="url(#pa9a77a8bbc)">
     <use xlink:href="#C0_0_3f923fd27b" x="111.085807" y="84.629647" style="fill: #6495ed"/>
    </g>
    <g clip-path="url(#pa9a77a8bbc)">
     <use xlink:href="#C0_0_3f923fd27b" x="242.67478" y="223.107702" style="fill: #6495ed"/>
    </g>
    <g clip-path="url(#pa9a77a8bbc)">
     <use xlink:href="#C0_0_3f923fd27b" x="311.087246" y="218.171422" style="fill: #6495ed"/>
    </g>
    <g clip-path="url(#pa9a77a8bbc)">
     <use xlink:href="#C0_0_3f923fd27b" x="234.924873" y="181.376583" style="fill: #6495ed"/>
    </g>
    <g clip-path="url(#pa9a77a8bbc)">
     <use xlink:href="#C0_0_3f923fd27b" x="268.623391" y="193.152534" style="fill: #6495ed"/>
    </g>
    <g clip-path="url(#pa9a77a8bbc)">
     <use xlink:href="#C0_0_3f923fd27b" x="103.866555" y="140.971962" style="fill: #6495ed"/>
    </g>
    <g clip-path="url(#pa9a77a8bbc)">
     <use xlink:href="#C0_0_3f923fd27b" x="155.250306" y="87.622584" style="fill: #6495ed"/>
    </g>
    <g clip-path="url(#pa9a77a8bbc)">
     <use xlink:href="#C0_0_3f923fd27b" x="78.774654" y="163.956982" style="fill: #6495ed"/>
    </g>
    <g clip-path="url(#pa9a77a8bbc)">
     <use xlink:href="#C0_0_3f923fd27b" x="73.832727" y="207.550571" style="fill: #6495ed"/>
    </g>
    <g clip-path="url(#pa9a77a8bbc)">
     <use xlink:href="#C0_0_3f923fd27b" x="338.730313" y="146.974462" style="fill: #f08080"/>
    </g>
    <g clip-path="url(#pa9a77a8bbc)">
     <use xlink:href="#C0_0_3f923fd27b" x="255.942316" y="239.841244" style="fill: #6495ed"/>
    </g>
    <g clip-path="url(#pa9a77a8bbc)">
     <use xlink:href="#C0_0_3f923fd27b" x="159.73798" y="73.441924" style="fill: #6495ed"/>
    </g>
    <g clip-path="url(#pa9a77a8bbc)">
     <use xlink:href="#C0_0_3f923fd27b" x="398.487273" y="199.463139" style="fill: #6495ed"/>
    </g>
    <g clip-path="url(#pa9a77a8bbc)">
     <use xlink:href="#C0_0_3f923fd27b" x="192.283486" y="193.09663" style="fill: #6495ed"/>
    </g>
    <g clip-path="url(#pa9a77a8bbc)">
     <use xlink:href="#C0_0_3f923fd27b" x="385.93653" y="255.930181" style="fill: #6495ed"/>
    </g>
    <g clip-path="url(#pa9a77a8bbc)">
     <use xlink:href="#C0_0_3f923fd27b" x="316.651575" y="247.39451" style="fill: #6495ed"/>
    </g>
    <g clip-path="url(#pa9a77a8bbc)">
     <use xlink:href="#C0_0_3f923fd27b" x="372.491824" y="247.515986" style="fill: #6495ed"/>
    </g>
    <g clip-path="url(#pa9a77a8bbc)">
     <use xlink:href="#C0_0_3f923fd27b" x="248.715747" y="191.836365" style="fill: #6495ed"/>
    </g>
    <g clip-path="url(#pa9a77a8bbc)">
     <use xlink:href="#C0_0_3f923fd27b" x="272.062957" y="287.435605" style="fill: #6495ed"/>
    </g>
    <g clip-path="url(#pa9a77a8bbc)">
     <use xlink:href="#C0_0_3f923fd27b" x="359.444493" y="214.627535" style="fill: #6495ed"/>
    </g>
    <g clip-path="url(#pa9a77a8bbc)">
     <use xlink:href="#C0_0_3f923fd27b" x="86.173166" y="77.706001" style="fill: #6495ed"/>
    </g>
    <g clip-path="url(#pa9a77a8bbc)">
     <use xlink:href="#C0_0_3f923fd27b" x="136.056281" y="95.064276" style="fill: #6495ed"/>
    </g>
    <g clip-path="url(#pa9a77a8bbc)">
     <use xlink:href="#C0_0_3f923fd27b" x="255.087922" y="133.769915" style="fill: #f08080"/>
    </g>
    <g clip-path="url(#pa9a77a8bbc)">
     <use xlink:href="#C0_0_3f923fd27b" x="396.212422" y="243.660454" style="fill: #6495ed"/>
    </g>
    <g clip-path="url(#pa9a77a8bbc)">
     <use xlink:href="#C0_0_3f923fd27b" x="243.641782" y="288.730355" style="fill: #6495ed"/>
    </g>
    <g clip-path="url(#pa9a77a8bbc)">
     <use xlink:href="#C0_0_3f923fd27b" x="362.437993" y="266.367305" style="fill: #6495ed"/>
    </g>
    <g clip-path="url(#pa9a77a8bbc)">
     <use xlink:href="#C0_0_3f923fd27b" x="217.127136" y="230.567751" style="fill: #6495ed"/>
    </g>
    <g clip-path="url(#pa9a77a8bbc)">
     <use xlink:href="#C0_0_3f923fd27b" x="151.771537" y="175.111119" style="fill: #6495ed"/>
    </g>
    <g clip-path="url(#pa9a77a8bbc)">
     <use xlink:href="#C0_0_3f923fd27b" x="243.945404" y="105.54402" style="fill: #f08080"/>
    </g>
    <g clip-path="url(#pa9a77a8bbc)">
     <use xlink:href="#C0_0_3f923fd27b" x="276.674977" y="147.178079" style="fill: #f08080"/>
    </g>
    <g clip-path="url(#pa9a77a8bbc)">
     <use xlink:href="#C0_0_3f923fd27b" x="234.471641" y="75.476461" style="fill: #6495ed"/>
    </g>
    <g clip-path="url(#pa9a77a8bbc)">
     <use xlink:href="#C0_0_3f923fd27b" x="323.731543" y="131.242949" style="fill: #f08080"/>
    </g>
    <g clip-path="url(#pa9a77a8bbc)">
     <use xlink:href="#C0_0_3f923fd27b" x="101.075919" y="55.426106" style="fill: #6495ed"/>
    </g>
    <g clip-path="url(#pa9a77a8bbc)">
     <use xlink:href="#C0_0_3f923fd27b" x="198.702896" y="199.565745" style="fill: #6495ed"/>
    </g>
    <g clip-path="url(#pa9a77a8bbc)">
     <use xlink:href="#C0_0_3f923fd27b" x="119.532203" y="191.374285" style="fill: #6495ed"/>
    </g>
    <g clip-path="url(#pa9a77a8bbc)">
     <use xlink:href="#C0_0_3f923fd27b" x="242.843651" y="165.745088" style="fill: #f08080"/>
    </g>
    <g clip-path="url(#pa9a77a8bbc)">
     <use xlink:href="#C0_0_3f923fd27b" x="296.621934" y="155.459041" style="fill: #f08080"/>
    </g>
    <g clip-path="url(#pa9a77a8bbc)">
     <use xlink:href="#C0_0_3f923fd27b" x="185.438065" y="276.497699" style="fill: #6495ed"/>
    </g>
    <g clip-path="url(#pa9a77a8bbc)">
     <use xlink:href="#C0_0_3f923fd27b" x="349.994434" y="108.278418" style="fill: #f08080"/>
    </g>
    <g clip-path="url(#pa9a77a8bbc)">
     <use xlink:href="#C0_0_3f923fd27b" x="177.622021" y="227.474275" style="fill: #6495ed"/>
    </g>
    <g clip-path="url(#pa9a77a8bbc)">
     <use xlink:href="#C0_0_3f923fd27b" x="115.848079" y="180.02923" style="fill: #6495ed"/>
    </g>
    <g clip-path="url(#pa9a77a8bbc)">
     <use xlink:href="#C0_0_3f923fd27b" x="250.558442" y="104.961492" style="fill: #f08080"/>
    </g>
    <g clip-path="url(#pa9a77a8bbc)">
     <use xlink:href="#C0_0_3f923fd27b" x="337.402141" y="173.590544" style="fill: #f08080"/>
    </g>
    <g clip-path="url(#pa9a77a8bbc)">
     <use xlink:href="#C0_0_3f923fd27b" x="290.839773" y="281.859342" style="fill: #6495ed"/>
    </g>
    <g clip-path="url(#pa9a77a8bbc)">
     <use xlink:href="#C0_0_3f923fd27b" x="198.241466" y="168.504206" style="fill: #6495ed"/>
    </g>
    <g clip-path="url(#pa9a77a8bbc)">
     <use xlink:href="#C0_0_3f923fd27b" x="185.150761" y="208.71177" style="fill: #6495ed"/>
    </g>
    <g clip-path="url(#pa9a77a8bbc)">
     <use xlink:href="#C0_0_3f923fd27b" x="180.678707" y="243.986935" style="fill: #6495ed"/>
    </g>
    <g clip-path="url(#pa9a77a8bbc)">
     <use xlink:href="#C0_0_3f923fd27b" x="135.745902" y="211.530941" style="fill: #6495ed"/>
    </g>
    <g clip-path="url(#pa9a77a8bbc)">
     <use xlink:href="#C0_0_3f923fd27b" x="213.812902" y="137.565371" style="fill: #6495ed"/>
    </g>
    <g clip-path="url(#pa9a77a8bbc)">
     <use xlink:href="#C0_0_3f923fd27b" x="308.617899" y="165.452882" style="fill: #f08080"/>
    </g>
    <g clip-path="url(#pa9a77a8bbc)">
     <use xlink:href="#C0_0_3f923fd27b" x="327.452202" y="264.648417" style="fill: #6495ed"/>
    </g>
    <g clip-path="url(#pa9a77a8bbc)">
     <use xlink:href="#C0_0_3f923fd27b" x="149.177209" y="53.568" style="fill: #6495ed"/>
    </g>
    <g clip-path="url(#pa9a77a8bbc)">
     <use xlink:href="#C0_0_3f923fd27b" x="271.039576" y="124.227626" style="fill: #f08080"/>
    </g>
    <g clip-path="url(#pa9a77a8bbc)">
     <use xlink:href="#C0_0_3f923fd27b" x="260.522653" y="90.863108" style="fill: #f08080"/>
    </g>
    <g clip-path="url(#pa9a77a8bbc)">
     <use xlink:href="#C0_0_3f923fd27b" x="230.912746" y="222.989929" style="fill: #6495ed"/>
    </g>
    <g clip-path="url(#pa9a77a8bbc)">
     <use xlink:href="#C0_0_3f923fd27b" x="148.231666" y="207.688065" style="fill: #6495ed"/>
    </g>
    <g clip-path="url(#pa9a77a8bbc)">
     <use xlink:href="#C0_0_3f923fd27b" x="325.056808" y="211.998934" style="fill: #6495ed"/>
    </g>
    <g clip-path="url(#pa9a77a8bbc)">
     <use xlink:href="#C0_0_3f923fd27b" x="190.111348" y="198.125711" style="fill: #6495ed"/>
    </g>
    <g clip-path="url(#pa9a77a8bbc)">
     <use xlink:href="#C0_0_3f923fd27b" x="148.584697" y="63.009769" style="fill: #6495ed"/>
    </g>
    <g clip-path="url(#pa9a77a8bbc)">
     <use xlink:href="#C0_0_3f923fd27b" x="118.507754" y="203.506005" style="fill: #6495ed"/>
    </g>
    <g clip-path="url(#pa9a77a8bbc)">
     <use xlink:href="#C0_0_3f923fd27b" x="117.407921" y="186.214519" style="fill: #6495ed"/>
    </g>
    <g clip-path="url(#pa9a77a8bbc)">
     <use xlink:href="#C0_0_3f923fd27b" x="278.105427" y="204.429541" style="fill: #6495ed"/>
    </g>
    <g clip-path="url(#pa9a77a8bbc)">
     <use xlink:href="#C0_0_3f923fd27b" x="327.706939" y="289.507418" style="fill: #6495ed"/>
    </g>
    <g clip-path="url(#pa9a77a8bbc)">
     <use xlink:href="#C0_0_3f923fd27b" x="372.787628" y="135.034589" style="fill: #f08080"/>
    </g>
    <g clip-path="url(#pa9a77a8bbc)">
     <use xlink:href="#C0_0_3f923fd27b" x="375.44869" y="94.685708" style="fill: #f08080"/>
    </g>
    <g clip-path="url(#pa9a77a8bbc)">
     <use xlink:href="#C0_0_3f923fd27b" x="241.589975" y="124.223393" style="fill: #f08080"/>
    </g>
    <g clip-path="url(#pa9a77a8bbc)">
     <use xlink:href="#C0_0_3f923fd27b" x="395.756785" y="127.567874" style="fill: #f08080"/>
    </g>
    <g clip-path="url(#pa9a77a8bbc)">
     <use xlink:href="#C0_0_3f923fd27b" x="84.47283" y="108.561966" style="fill: #6495ed"/>
    </g>
    <g clip-path="url(#pa9a77a8bbc)">
     <use xlink:href="#C0_0_3f923fd27b" x="182.037368" y="70.310788" style="fill: #6495ed"/>
    </g>
    <g clip-path="url(#pa9a77a8bbc)">
     <use xlink:href="#C0_0_3f923fd27b" x="235.643692" y="115.692452" style="fill: #6495ed"/>
    </g>
    <g clip-path="url(#pa9a77a8bbc)">
     <use xlink:href="#C0_0_3f923fd27b" x="387.000248" y="228.075494" style="fill: #6495ed"/>
    </g>
    <g clip-path="url(#pa9a77a8bbc)">
     <use xlink:href="#C0_0_3f923fd27b" x="250.463111" y="193.95591" style="fill: #6495ed"/>
    </g>
    <g clip-path="url(#pa9a77a8bbc)">
     <use xlink:href="#C0_0_3f923fd27b" x="255.975093" y="171.685209" style="fill: #f08080"/>
    </g>
    <g clip-path="url(#pa9a77a8bbc)">
     <use xlink:href="#C0_0_3f923fd27b" x="105.091653" y="64.221804" style="fill: #6495ed"/>
    </g>
    <g clip-path="url(#pa9a77a8bbc)">
     <use xlink:href="#C0_0_3f923fd27b" x="92.099814" y="103.995733" style="fill: #6495ed"/>
    </g>
    <g clip-path="url(#pa9a77a8bbc)">
     <use xlink:href="#C0_0_3f923fd27b" x="205.729522" y="122.043439" style="fill: #6495ed"/>
    </g>
    <g clip-path="url(#pa9a77a8bbc)">
     <use xlink:href="#C0_0_3f923fd27b" x="287.429913" y="136.842738" style="fill: #f08080"/>
    </g>
    <g clip-path="url(#pa9a77a8bbc)">
     <use xlink:href="#C0_0_3f923fd27b" x="337.817184" y="223.255374" style="fill: #6495ed"/>
    </g>
    <g clip-path="url(#pa9a77a8bbc)">
     <use xlink:href="#C0_0_3f923fd27b" x="193.354807" y="149.290321" style="fill: #6495ed"/>
    </g>
    <g clip-path="url(#pa9a77a8bbc)">
     <use xlink:href="#C0_0_3f923fd27b" x="217.763237" y="192.532788" style="fill: #6495ed"/>
    </g>
    <g clip-path="url(#pa9a77a8bbc)">
     <use xlink:href="#C0_0_3f923fd27b" x="378.285123" y="163.480779" style="fill: #f08080"/>
    </g>
    <g clip-path="url(#pa9a77a8bbc)">
     <use xlink:href="#C0_0_3f923fd27b" x="117.571981" y="253.484445" style="fill: #6495ed"/>
    </g>
   </g>
   <g id="matplotlib.axis_1">
    <g id="xtick_1">
     <g id="line2d_1">
      <defs>
       <path id="m142290e4ae" d="M 0 0 
L 0 3.5 
" style="stroke: #000000; stroke-width: 0.8"/>
      </defs>
      <g>
       <use xlink:href="#m142290e4ae" x="73.753634" y="307.584" style="stroke: #000000; stroke-width: 0.8"/>
      </g>
     </g>
    </g>
    <g id="xtick_2">
     <g id="line2d_2">
      <g>
       <use xlink:href="#m142290e4ae" x="114.49241" y="307.584" style="stroke: #000000; stroke-width: 0.8"/>
      </g>
     </g>
    </g>
    <g id="xtick_3">
     <g id="line2d_3">
      <g>
       <use xlink:href="#m142290e4ae" x="155.231186" y="307.584" style="stroke: #000000; stroke-width: 0.8"/>
      </g>
     </g>
    </g>
    <g id="xtick_4">
     <g id="line2d_4">
      <g>
       <use xlink:href="#m142290e4ae" x="195.969962" y="307.584" style="stroke: #000000; stroke-width: 0.8"/>
      </g>
     </g>
    </g>
    <g id="xtick_5">
     <g id="line2d_5">
      <g>
       <use xlink:href="#m142290e4ae" x="236.708738" y="307.584" style="stroke: #000000; stroke-width: 0.8"/>
      </g>
     </g>
    </g>
    <g id="xtick_6">
     <g id="line2d_6">
      <g>
       <use xlink:href="#m142290e4ae" x="277.447514" y="307.584" style="stroke: #000000; stroke-width: 0.8"/>
      </g>
     </g>
    </g>
    <g id="xtick_7">
     <g id="line2d_7">
      <g>
       <use xlink:href="#m142290e4ae" x="318.18629" y="307.584" style="stroke: #000000; stroke-width: 0.8"/>
      </g>
     </g>
    </g>
    <g id="xtick_8">
     <g id="line2d_8">
      <g>
       <use xlink:href="#m142290e4ae" x="358.925066" y="307.584" style="stroke: #000000; stroke-width: 0.8"/>
      </g>
     </g>
    </g>
    <g id="xtick_9">
     <g id="line2d_9">
      <g>
       <use xlink:href="#m142290e4ae" x="399.663842" y="307.584" style="stroke: #000000; stroke-width: 0.8"/>
      </g>
     </g>
    </g>
    <g id="text_1">
     <!-- - -->
     <g transform="translate(234.356094 326.182437) scale(0.1 -0.1)">
      <defs>
       <path id="DejaVuSans-2d" d="M 313 2009 
L 1997 2009 
L 1997 1497 
L 313 1497 
L 313 2009 
z
" transform="scale(0.015625)"/>
      </defs>
      <use xlink:href="#DejaVuSans-2d"/>
     </g>
    </g>
   </g>
   <g id="matplotlib.axis_2">
    <g id="ytick_1">
     <g id="line2d_10">
      <defs>
       <path id="m6151aa1c60" d="M 0 0 
L -3.5 0 
" style="stroke: #000000; stroke-width: 0.8"/>
      </defs>
      <g>
       <use xlink:href="#m6151aa1c60" x="57.6" y="288.259121" style="stroke: #000000; stroke-width: 0.8"/>
      </g>
     </g>
    </g>
    <g id="ytick_2">
     <g id="line2d_11">
      <g>
       <use xlink:href="#m6151aa1c60" x="57.6" y="232.081616" style="stroke: #000000; stroke-width: 0.8"/>
      </g>
     </g>
    </g>
    <g id="ytick_3">
     <g id="line2d_12">
      <g>
       <use xlink:href="#m6151aa1c60" x="57.6" y="175.904111" style="stroke: #000000; stroke-width: 0.8"/>
      </g>
     </g>
    </g>
    <g id="ytick_4">
     <g id="line2d_13">
      <g>
       <use xlink:href="#m6151aa1c60" x="57.6" y="119.726606" style="stroke: #000000; stroke-width: 0.8"/>
      </g>
     </g>
    </g>
    <g id="ytick_5">
     <g id="line2d_14">
      <g>
       <use xlink:href="#m6151aa1c60" x="57.6" y="63.549101" style="stroke: #000000; stroke-width: 0.8"/>
      </g>
     </g>
    </g>
    <g id="text_2">
     <!-- - -->
     <g transform="translate(44.520313 176.331906) rotate(-90) scale(0.1 -0.1)">
      <use xlink:href="#DejaVuSans-2d"/>
     </g>
    </g>
   </g>
   <g id="line2d_15"/>
   <g id="line2d_16"/>
   <g id="patch_3">
    <path d="M 57.6 307.584 
L 57.6 41.472 
" style="fill: none; stroke: #000000; stroke-width: 0.8; stroke-linejoin: miter; stroke-linecap: square"/>
   </g>
   <g id="patch_4">
    <path d="M 414.72 307.584 
L 414.72 41.472 
" style="fill: none; stroke: #000000; stroke-width: 0.8; stroke-linejoin: miter; stroke-linecap: square"/>
   </g>
   <g id="patch_5">
    <path d="M 57.6 307.584 
L 414.72 307.584 
" style="fill: none; stroke: #000000; stroke-width: 0.8; stroke-linejoin: miter; stroke-linecap: square"/>
   </g>
   <g id="patch_6">
    <path d="M 57.6 41.472 
L 414.72 41.472 
" style="fill: none; stroke: #000000; stroke-width: 0.8; stroke-linejoin: miter; stroke-linecap: square"/>
   </g>
   <g id="legend_1">
    <g id="patch_7">
     <path d="M 64.6 302.584 
L 115.415625 302.584 
Q 117.415625 302.584 117.415625 300.584 
L 117.415625 257.549625 
Q 117.415625 255.549625 115.415625 255.549625 
L 64.6 255.549625 
Q 62.6 255.549625 62.6 257.549625 
L 62.6 300.584 
Q 62.6 302.584 64.6 302.584 
z
" style="fill: #ffffff; opacity: 0.8; stroke: #cccccc; stroke-linejoin: miter"/>
    </g>
    <g id="text_3">
     <!-- species -->
     <g transform="translate(71.332812 267.148062) scale(0.1 -0.1)">
      <defs>
       <path id="DejaVuSans-73" d="M 2834 3397 
L 2834 2853 
Q 2591 2978 2328 3040 
Q 2066 3103 1784 3103 
Q 1356 3103 1142 2972 
Q 928 2841 928 2578 
Q 928 2378 1081 2264 
Q 1234 2150 1697 2047 
L 1894 2003 
Q 2506 1872 2764 1633 
Q 3022 1394 3022 966 
Q 3022 478 2636 193 
Q 2250 -91 1575 -91 
Q 1294 -91 989 -36 
Q 684 19 347 128 
L 347 722 
Q 666 556 975 473 
Q 1284 391 1588 391 
Q 1994 391 2212 530 
Q 2431 669 2431 922 
Q 2431 1156 2273 1281 
Q 2116 1406 1581 1522 
L 1381 1569 
Q 847 1681 609 1914 
Q 372 2147 372 2553 
Q 372 3047 722 3315 
Q 1072 3584 1716 3584 
Q 2034 3584 2315 3537 
Q 2597 3491 2834 3397 
z
" transform="scale(0.015625)"/>
       <path id="DejaVuSans-70" d="M 1159 525 
L 1159 -1331 
L 581 -1331 
L 581 3500 
L 1159 3500 
L 1159 2969 
Q 1341 3281 1617 3432 
Q 1894 3584 2278 3584 
Q 2916 3584 3314 3078 
Q 3713 2572 3713 1747 
Q 3713 922 3314 415 
Q 2916 -91 2278 -91 
Q 1894 -91 1617 61 
Q 1341 213 1159 525 
z
M 3116 1747 
Q 3116 2381 2855 2742 
Q 2594 3103 2138 3103 
Q 1681 3103 1420 2742 
Q 1159 2381 1159 1747 
Q 1159 1113 1420 752 
Q 1681 391 2138 391 
Q 2594 391 2855 752 
Q 3116 1113 3116 1747 
z
" transform="scale(0.015625)"/>
       <path id="DejaVuSans-65" d="M 3597 1894 
L 3597 1613 
L 953 1613 
Q 991 1019 1311 708 
Q 1631 397 2203 397 
Q 2534 397 2845 478 
Q 3156 559 3463 722 
L 3463 178 
Q 3153 47 2828 -22 
Q 2503 -91 2169 -91 
Q 1331 -91 842 396 
Q 353 884 353 1716 
Q 353 2575 817 3079 
Q 1281 3584 2069 3584 
Q 2775 3584 3186 3129 
Q 3597 2675 3597 1894 
z
M 3022 2063 
Q 3016 2534 2758 2815 
Q 2500 3097 2075 3097 
Q 1594 3097 1305 2825 
Q 1016 2553 972 2059 
L 3022 2063 
z
" transform="scale(0.015625)"/>
       <path id="DejaVuSans-63" d="M 3122 3366 
L 3122 2828 
Q 2878 2963 2633 3030 
Q 2388 3097 2138 3097 
Q 1578 3097 1268 2742 
Q 959 2388 959 1747 
Q 959 1106 1268 751 
Q 1578 397 2138 397 
Q 2388 397 2633 464 
Q 2878 531 3122 666 
L 3122 134 
Q 2881 22 2623 -34 
Q 2366 -91 2075 -91 
Q 1284 -91 818 406 
Q 353 903 353 1747 
Q 353 2603 823 3093 
Q 1294 3584 2113 3584 
Q 2378 3584 2631 3529 
Q 2884 3475 3122 3366 
z
" transform="scale(0.015625)"/>
       <path id="DejaVuSans-69" d="M 603 3500 
L 1178 3500 
L 1178 0 
L 603 0 
L 603 3500 
z
M 603 4863 
L 1178 4863 
L 1178 4134 
L 603 4134 
L 603 4863 
z
" transform="scale(0.015625)"/>
      </defs>
      <use xlink:href="#DejaVuSans-73"/>
      <use xlink:href="#DejaVuSans-70" x="52.099609"/>
      <use xlink:href="#DejaVuSans-65" x="115.576172"/>
      <use xlink:href="#DejaVuSans-63" x="177.099609"/>
      <use xlink:href="#DejaVuSans-69" x="232.080078"/>
      <use xlink:href="#DejaVuSans-65" x="259.863281"/>
      <use xlink:href="#DejaVuSans-73" x="321.386719"/>
     </g>
    </g>
    <g id="line2d_17">
     <defs>
      <path id="m8c1a2b9e80" d="M 0 3 
C 0.795609 3 1.55874 2.683901 2.12132 2.12132 
C 2.683901 1.55874 3 0.795609 3 0 
C 3 -0.795609 2.683901 -1.55874 2.12132 -2.12132 
C 1.55874 -2.683901 0.795609 -3 0 -3 
C -0.795609 -3 -1.55874 -2.683901 -2.12132 -2.12132 
C -2.683901 -1.55874 -3 -0.795609 -3 0 
C -3 0.795609 -2.683901 1.55874 -2.12132 2.12132 
C -1.55874 2.683901 -0.795609 3 0 3 
z
"/>
     </defs>
     <g>
      <use xlink:href="#m8c1a2b9e80" x="76.6" y="278.326188" style="fill: #f08080"/>
     </g>
    </g>
    <g id="text_4">
     <!-- dog -->
     <g transform="translate(94.6 281.826188) scale(0.1 -0.1)">
      <defs>
       <path id="DejaVuSans-64" d="M 2906 2969 
L 2906 4863 
L 3481 4863 
L 3481 0 
L 2906 0 
L 2906 525 
Q 2725 213 2448 61 
Q 2172 -91 1784 -91 
Q 1150 -91 751 415 
Q 353 922 353 1747 
Q 353 2572 751 3078 
Q 1150 3584 1784 3584 
Q 2172 3584 2448 3432 
Q 2725 3281 2906 2969 
z
M 947 1747 
Q 947 1113 1208 752 
Q 1469 391 1925 391 
Q 2381 391 2643 752 
Q 2906 1113 2906 1747 
Q 2906 2381 2643 2742 
Q 2381 3103 1925 3103 
Q 1469 3103 1208 2742 
Q 947 2381 947 1747 
z
" transform="scale(0.015625)"/>
       <path id="DejaVuSans-6f" d="M 1959 3097 
Q 1497 3097 1228 2736 
Q 959 2375 959 1747 
Q 959 1119 1226 758 
Q 1494 397 1959 397 
Q 2419 397 2687 759 
Q 2956 1122 2956 1747 
Q 2956 2369 2687 2733 
Q 2419 3097 1959 3097 
z
M 1959 3584 
Q 2709 3584 3137 3096 
Q 3566 2609 3566 1747 
Q 3566 888 3137 398 
Q 2709 -91 1959 -91 
Q 1206 -91 779 398 
Q 353 888 353 1747 
Q 353 2609 779 3096 
Q 1206 3584 1959 3584 
z
" transform="scale(0.015625)"/>
       <path id="DejaVuSans-67" d="M 2906 1791 
Q 2906 2416 2648 2759 
Q 2391 3103 1925 3103 
Q 1463 3103 1205 2759 
Q 947 2416 947 1791 
Q 947 1169 1205 825 
Q 1463 481 1925 481 
Q 2391 481 2648 825 
Q 2906 1169 2906 1791 
z
M 3481 434 
Q 3481 -459 3084 -895 
Q 2688 -1331 1869 -1331 
Q 1566 -1331 1297 -1286 
Q 1028 -1241 775 -1147 
L 775 -588 
Q 1028 -725 1275 -790 
Q 1522 -856 1778 -856 
Q 2344 -856 2625 -561 
Q 2906 -266 2906 331 
L 2906 616 
Q 2728 306 2450 153 
Q 2172 0 1784 0 
Q 1141 0 747 490 
Q 353 981 353 1791 
Q 353 2603 747 3093 
Q 1141 3584 1784 3584 
Q 2172 3584 2450 3431 
Q 2728 3278 2906 2969 
L 2906 3500 
L 3481 3500 
L 3481 434 
z
" transform="scale(0.015625)"/>
      </defs>
      <use xlink:href="#DejaVuSans-64"/>
      <use xlink:href="#DejaVuSans-6f" x="63.476562"/>
      <use xlink:href="#DejaVuSans-67" x="124.658203"/>
     </g>
    </g>
    <g id="line2d_18">
     <defs>
      <path id="mf8f6cc6d20" d="M 0 3 
C 0.795609 3 1.55874 2.683901 2.12132 2.12132 
C 2.683901 1.55874 3 0.795609 3 0 
C 3 -0.795609 2.683901 -1.55874 2.12132 -2.12132 
C 1.55874 -2.683901 0.795609 -3 0 -3 
C -0.795609 -3 -1.55874 -2.683901 -2.12132 -2.12132 
C -2.683901 -1.55874 -3 -0.795609 -3 0 
C -3 0.795609 -2.683901 1.55874 -2.12132 2.12132 
C -1.55874 2.683901 -0.795609 3 0 3 
z
"/>
     </defs>
     <g>
      <use xlink:href="#mf8f6cc6d20" x="76.6" y="293.004312" style="fill: #6495ed"/>
     </g>
    </g>
    <g id="text_5">
     <!-- cat -->
     <g transform="translate(94.6 296.504312) scale(0.1 -0.1)">
      <defs>
       <path id="DejaVuSans-61" d="M 2194 1759 
Q 1497 1759 1228 1600 
Q 959 1441 959 1056 
Q 959 750 1161 570 
Q 1363 391 1709 391 
Q 2188 391 2477 730 
Q 2766 1069 2766 1631 
L 2766 1759 
L 2194 1759 
z
M 3341 1997 
L 3341 0 
L 2766 0 
L 2766 531 
Q 2569 213 2275 61 
Q 1981 -91 1556 -91 
Q 1019 -91 701 211 
Q 384 513 384 1019 
Q 384 1609 779 1909 
Q 1175 2209 1959 2209 
L 2766 2209 
L 2766 2266 
Q 2766 2663 2505 2880 
Q 2244 3097 1772 3097 
Q 1472 3097 1187 3025 
Q 903 2953 641 2809 
L 641 3341 
Q 956 3463 1253 3523 
Q 1550 3584 1831 3584 
Q 2591 3584 2966 3190 
Q 3341 2797 3341 1997 
z
" transform="scale(0.015625)"/>
       <path id="DejaVuSans-74" d="M 1172 4494 
L 1172 3500 
L 2356 3500 
L 2356 3053 
L 1172 3053 
L 1172 1153 
Q 1172 725 1289 603 
Q 1406 481 1766 481 
L 2356 481 
L 2356 0 
L 1766 0 
Q 1100 0 847 248 
Q 594 497 594 1153 
L 594 3053 
L 172 3053 
L 172 3500 
L 594 3500 
L 594 4494 
L 1172 4494 
z
" transform="scale(0.015625)"/>
      </defs>
      <use xlink:href="#DejaVuSans-63"/>
      <use xlink:href="#DejaVuSans-61" x="54.980469"/>
      <use xlink:href="#DejaVuSans-74" x="116.259766"/>
     </g>
    </g>
   </g>
  </g>
 </g>
 <defs>
  <clipPath id="pa9a77a8bbc">
   <rect x="57.6" y="41.472" width="357.12" height="266.112"/>
  </clipPath>
 </defs>
</svg>
